<svg class="butterfly" version="1.1" viewBox="0 0 1317 2048" width="1280" height="1280" xmlns="http://www.w3.org/2000/svg">
<path transform="translate(749,30)" d="m0 0h33l15 1 5 5 10 1 22 1 3 4 1 26 6-3 6-7 7-5 8-1 8 3 16 8 15 8 10 9 9 8 10 4 12 11 12 12 10 13 5 8 11 13 7 11 19 38 4 12 2 9 3 5 4 24 3 5 2 14 1 30 2 6 3 2 2 23 1 19 1 8 4 5 3 32 5 8 3 15 4 6 5 12 4 6 3 7 12 16 4 8 14 15 6 8-1 6-5 5-2 5v15l7-4 8-7 5-3 4-1h7l5 3 2 3v5l9 10 23 23 7 11 8 16 12 25 2 8 1 16 5 4 1 7v51l-1 13-4 7-3 27-3 9-8 16-3 5v5l16 16 9 7 11 6 17 9 10 8 16 8 15 8 9 4 3 3 1 8-3 3-9-2-32-16-17-9-11-9-11-6-14-10-12-7-6-5-5-5h-22l-5-1-4-1-6-5h-12l-12-1-14-1-7-5-9-2-7-6-15-2-9-6-5-1-9-6-9-3-10-9-4-4-3 1-9-6-58-58-9-11-3-8-10-11-16-32-10-21-7-15-3-13-3-4-5-19-3-7-3-16-1-7-3-4-2-14-1-34-6-7-1-15v-34l-4-1-3-6 1-7 9-8 11-4v-4l-11-1h-8l-3-7-1-12-4-5-3-18v-8l1-2-4-1-3-7-3-14-4-7-4-15-19-39-6-10-14-15-18-18-11-9-19-10-23-11-5-3-8-2h-14l-5-3-2-3-10-1-33-1-19 1-8 5-13 2-9 6-15 2-7 5-3 1h-9l-1-1v-7l8-16 7-9 9-9 7-9 4-6 10-7 13-12 9-9 10-6 27-14 25-12 11-4 9-2 7-5 29-1 4-2 3-4zm16 15-5 2-1 4 8 16 2 13 4 3 10 4 17 9 28 14 13 12 26 26 7 10 3 7 2 2 4-1 8-10 7-11 13-25 7-14 2-3-1-4-10-7-10-5-8-7-21-12-5-1-7 6-10 3-8 6-7 8-6 1-4-3v-6l4-6 3-4v-7l-4-6-8-6-9-2-7-6zm-82 15-31 16-9 6-8 7-7 3-9 7-4 5v2l5-1 11-6 7-3 8-4 12-2 8-4 15-3 6-4 6-7v-8l-2-4zm28 30-2 2-3 10-12 15-6 12-3 4v2l16 3 21 9h4l12-23 11-23 4-8-1-2-26-1zm-23 1-4 5-5 1-17 1-12 5-16 8-23 12-8 6-3 6 1 1 12 1 9-2 4-4 10-1h29l6-4 9-10 5-8 4-9 2-4v-4zm84 7-13 13-4 6-11 23-6 10v7l13 5 15 8 10 9 26 26 7 2 12-4 19-10 7-2 10-2 11-9 1-7-11-13-5-8-4-7-8-3-5-9-4-3-7-4-13-10-17-9-19-9zm158 15-6 9-14 29-10 19-5 10-4 7 4 5 5 11 19 38 3 8 3 3 4-7 7-14 6-10 10-15 9-19 7-14 2-6h2l2-5-4-5-6-11-11-12-20-20zm51 66-5 5-4 10-10 18-6 7-12 22-11 23-4 7-1 6v9l2 9 3 5 2 14 2 18 4 4 2 27 1 15 4 3 2 15 1 22 3 2 7-6 6-9 4-8 9-11 4-9 6-10 3-7 10-12 4-9 9-11 4-8v-23l-2-7-3-3-1-8-3-26-3-4-2-9-2-22-6-12-7-15-5-10-2-2zm-79 101-9 3-32 16-16 7-2 3 8 5v30l3 6 16 2 10 5 5 1h13l7 3 1 4-1 5-9 2-8 5-17 4-11 8-1 1 1 9 5 8 5 10 15 8 1 1 26 1 8 3 3 3 5 1h11l4-2 1-5-2-7-4-6-2-38-5-6-1-6-2-34-5-6-3-26-5-6-3-9-5-3zm-31 153-3 3-1 3v9l2 7 4 3 1 13v16l2 12 4 7 3 22 9 18 5 3 8 4 2 2 10 1h49l8-1 2-2-1-8-4-13-5-15-6-16-3-12-4-10-1-4-1-14-4-6-5-6-11-3-6-5-16-1h-11l-6-2-4-4-6-1zm181 24-1 1-2 10-5 6-3 10-7 7-5 6-4 11-4 5-4 10-4 6-4 10-3 4-4 11-4 4 1 4 4 6 3 8 5 9 10 20 11 15 6 11 7 8 8 14 11 12 11 11 6 4 3-1 9-17 4-13 4-10 9-19 5-16 7-16 4-7 2-17 4-11 2-3 1-15-9-10-5 2-5 4-12 4-17 9-7 3-5-1-1-1v-13l5-9 4-9 6-9-1-7-5-7-4-10-11-12-10-9-3-3zm91 96-1 3-2 19-5 6-3 15-4 8-4 17-4 8-4 15-4 7-12 26-3 5-2 8v9l3 7 14 15 10 9 8 7 10 5 10 9 12 10 6 2 3-5 6-21 3-11 3-15 3-6 1-5 1-14v-44l-1-16-4-4-5-18-5-10-9-19-8-10-12-12zm-163 9-7 6-4 1-43 1-11-1-4-4-7-2h-6v9l9 19 10 19 6 12 11 14 5 10 9 11 5 10 12 13 19 19 11 4 8 7 5 5h8l6-5 17-3 9-6h7l11-3 1-3-3-7-10-13-7-13-9-11-5-10-9-10-7-7-8-16-10-19-4-10-5-10-3-5-3-2z" fill="#FEDD94"/>
<path transform="translate(665,745)" d="m0 0 33 1 8 1 5 5 17 1 9 3 6 3 15 4 19 10 10 8 24 12 11 9 7 9 1 3v16l-3 7-10 9-2 4-1 11 1 5 11 7 10 5 10 9 6 9v21l-5 9-4 8-12 5-6 3-18 2v23l-1 12-5 6-1 4v25l2 5 3 3 1 6 1 30 2 12 3 6 4 22 6 17 3 9 14 30 5 8 22 44 6 11 9 12 14 26 10 14 4 8 7 8 10 18 7 13 10 14 6 10 8 11 10 19 8 16 6 10 7 10 4 15 4 7 7 16 5 16 4 11 4 13 2 4 1 7 1 20 2 6 4 3 1 13v67l-2 16-3 6-3 18-6 16-6 12-4 15-10 13-5 9-18 20-16 16-11 9-4 3-10 5-6 4-10 5-10 8-18 8-16 5-11 4-11 3-3 2-20 4h-8l-2 4-2 1-49 3-3 5-20 1h-163l-12-1-5-5-9-1h-21l-18-2-6-4-11-1-14-4-15-6-5-4-8-1-8-3-7-4-10-4-7-4-8-3-11-9-2-2-6-2-11-9-33-33-8-11-3-6-8-10-12-22-6-15-3-11-1-9-3-6-2-14v-84l2-12 4-5 1-12 1-13 3-10 3-7 3-12 9-19 6-18 10-21 10-19 4-8 10-14 5-10 5-8 3-6 7-10 13-23 9-14 6-9 7-11 8-12 5-9 8-14 9-13 6-10 8-11 14-27 9-17 8-19 14-42 3-13 3-14 3-4 1-10 1-109h-11l-10-2-7-4-7-2-5-5-4-5-2-6v-19l3-10 6-7 13-9 14-6 10-2-4-7-8-16-4-11-2-10-4-5-1-6 4-5 9-2v-2l11-9 8-7 24-13 23-11 9-3 8-2 8-4 19-2 5-2 4-3 6-1zm-21 16-4 2-2 3-5 1-20 1-10 2-5 3-15 4-16 8-16 11-10 6-12 10-13 4 6 8 7 15 5 18 8 10 4 1 8-2 3-3v-2h195l15 1 4 5 9 1h13l5-3 8-16 2-13 6-11 1-5-2-5-12-8-8-4-14-11-12-6-3-2h-3l1 5 8 6-2 7-9 10-3 2-6-1-8-7-3-4 1-7 5-5 5-6 4-4-4-3-12-5-2-2-10-2-14-1-6-5-6-1zm-98 114 1 17 3 12 3 7 3 21 4 8 1 4 2 26 1 4h9l8-5 17-3 5-5 11-1 29-1 5-3 1-3 21-1 5 2 6 5 7 1h19l23 1 2 4 20 5 4 3 11 2 2-6 3-16 4-7 2-18 3-8 2-4 3-22 4-8-1-4-4-5-2-1-9-1zm-23 6-13 4-13 6-3 3-1 5 1 16 4 7 7 6 6 1 19 1 2 1 1 9 3 3h2l1 5 1 22v24l-1 44-1 24-4 6-4 24-4 11-5 16-7 21-4 8-11 23-10 19-11 23-6 10-5 10-10 14-6 10-8 10-5 10-5 8-4 8-10 14-5 9-9 12-6 12-5 9-12 18-9 17-8 16-11 23-8 16-5 12-1 8-5 10-5 16-6 20-4 6-1 5v20l5 1 7-6h2l1 49 1 15 4 7 4 21 9 21 4 10 4 11 8 11 7 13 4 6-4 2h-14l-12-25-10-21-5-14-6-20-1-7-1-19-3-1-3 3v22l2 12 8 23 7 16 10 19 5 9 8 10 14 14 7 8 6 5 17 17 14 7 15 8 10 9 6 2 12 2 5 4 18 4 5 4 7 1 20 3 3 3 19 2 18 1 5 1 3 4 7 1h185l5-2 3-4 46-2 6-5 18-1 9-2 3-6-1-5-3-1-2-4-1-4v-2l5-2 3-3 17-3 9-6h8l2 4v7l-10 3-8 5-11 4-4 6 5 1 9-2 8-5 8-3 6-4 10-4 15-8 15-11 9-5 15-14 17-17 6-8 6-10 10-15 8-16 5-12 4-16 2-9 3-4 1-5 1-15v-51l-1-24-4-2-2-17-2-14-1-5-3-4-4-17-5-8-8-20-3-12-5-8-10-22-9-16-10-14-9-17-3-7-10-12-6-12-3-5-6-11-7-8-4 1 1 6 5 6 3 9-12 1-3-3v-7l-6-7-2-4v-8l14-1 1-2-7-8-8-10-2-7-7-7-6-7-2 4v4l1 7-5 1-12-11-5-6-1-12-1-4-5-5-7-9-11-23-5-11-1-6 12-2 4-3-3-9-10-20-7-15-4-11-2-8-4-10-3-20-4-7-2-16-2-23-3-4-2-12-1-21-1-3-4 1-4 4-6 1-83 1-3 6h-35l-2-6-77-1-13-1-2-10-4-4-2-20-1-18-2-7-3-5-3-21-5-16-2-9-4-4zm289 1-5 5-3 9-3 3-2 6-2 12-4 6-2 7 1 5 5-1 4-4 23-1 6-3 7-8 1-9-2-8-6-8-7-7-7-4zm-26 68-2 5v15l2 4h4l1-2v-17l-2-5zm48 229-4 2 1 5 3 1 2-1v-6zm16 23-6 3 3 4h6v-6zm4 16-1 5 1 2h4l2-7zm6 15 1 5 6 4v-6l-2-3zm7 9 1 2z" fill="#FEDD94"/>
<path class="shine" transform="translate(850,1499)" d="m0 0h31l9 3 10 10 4 5 2 9v16l-1 32-6 5v18l-2 7-4 3-3 12-8 7-6 6v19l-3 8-3 1-3 11-11 12-14 14h-47l-8-6-9-3-10-9-3-3-4-1 2 12-5 10-8 8-4 1-7-3-8-10-3-10h-4l-1 11-13 13-4 5-8 7-1 1-8 1-6 5-3 1-24 1-7-1-7-6-6-1-10-9-7-7-5-12-9-10-7-6-8-2-12-11-8-8-7-10-11-23-5-12-2-10-4-5-1-3v-8l3-8 4-7 3-7 11-4 4-4 3-1h67l4 2 2 4 8 2h9l8 6 6 1 6 4 8 8 8 4 7 3 8 4-4-6-11-11-2-4 1-7 3-3h6l6 4 5 6 5 12 7 7 3 1 2-4 2-7 5-4 1-2v-13l3-6 1-1h8l3 3 1 6-3 5-4 4-1 6 2 5h5l2-5 5-6 3-10 8-7 34-34 9-6 16-8 13-6z" fill="#FEDD94"/>
<path class="shine" transform="translate(480,1286)" d="m0 0h21l9 3 4 3 9 4 12 11 13 13 6 7 4 11 5-1 3-5h9l3 5v22l1 2 7-1 2-4 9-8 2-1h6l3 2 1 5 1 7 5-1 4-5 10-2 6-5 10-1h36l10 2 3 3 12 5 15 15 2 3v7l-5 4-2 5-2 7-7 8-3 3h-2l-2 11-7 7-4 5-8 6-8 2-6 5-12 2v10l-5 5-6 7-4 1-5-1h-7l-3 3-2 4-5-1-3-5-18-1-18-18-2-10-4-1-3 5-2 1h-10l-8-1-3-4-1-8-5-2-5 1-7 6h-32l-16-17-8-7-2-6v-23l-3-7-9-17-3-8v-49l3-9 5-6 3-2z" fill="#FEDD94"/>
<path class="shine" transform="translate(683,1149)" d="m0 0h17l7 3 18 18 12 5 10 10 5 2h19l8 7 3 3 3 10v2l3 1 3 6 1 5-4 5-4 4 1 9 3 1 3 5v23l-3 3h-2l-3 13-6 7-2 9-1 1h-9l-9-7h-14l-4-5-1-7-12-13-4-10-7-8-2-2-9-2-6-5-10-3-5-4v-2l-5 1-4-1h-23l-6-6-13-1-6-3-8-8-1-5v-14l3-8 19-19 5-4 3-1 13-1 8-8 7-5z" fill="#FEDD94"/>
<path transform="translate(247,403)" d="m0 0h42l1 2v66h28l39 1 3 3v2l4 2 1 6-3 2h-4l-1 30 9 2-1 4-1 1h-7l1 12 3 5 3 3v2l6 1 64 1v55l-1 27-1 1h-12l-1-1-1-19v-48h-68v-76h-75l-1-1-1-21v-46l-67-1-1-1v-9l2-4z" fill="#FEDD94"/>
<path transform="translate(267,350)" d="m0 0h67l1 1v68l1 4 3 1 24 1 47 1 1 1v68l12-1h47l9 1v91h-5l-2-3-1-11-5-3-2-3v-6l4-5 2-1 1-12v-14l-1-9-6-7-3-1-65-1-1-2-1-66h-67l-1-1v-63l-2-6-5-5-7-1-62-1 2-6 9-8z" fill="#FEDD94"/>
<path transform="translate(262,380)" d="m0 0h49l1 2v67h57l11 1 8 5v53l-1 16 68 1 1 1v81l-6-1-8-4-1-1v-58l1-11-68 1-2-5v-64h-62l-7-2-5-5-1-2v-59l1-8h-70v-5l2-2z" fill="#FEDD94"/>
<path transform="translate(1163,1148)" d="m0 0 5 1 5 4 6 10 7 11 7 10 14 27 4 8 4 7 3 4-1 3h-82l-17-1v-6l12-23 8-15 10-14 10-21z" fill="#FEDD94"/>
<path transform="translate(329,792)" d="m0 0 4 1 7 7 6 7 8 7 7 6 6 2 12 2 2 2v9l-2 7-12 12-8 10-2 16-4 4-6-2-8-7-10-9-7-5-10-4-7-4-11-1-5-3-1-5 3-5 7-7 9-4 3-2 4-9 10-19z" fill="#FEDD94"/>
<path transform="translate(358,539)" d="m0 0 6 5v2l6 1 64 1v55l-1 27-1 1h-12l-1-1-1-19v-48h-66l2-1 1-10 3-5h5l-5-6z" fill="#FEDD94"/>
<path transform="translate(738,898)" d="m0 0 11 1 9 6 9 10 2 5v11l-4 6-8 6-10 4-3 3-5-2-13-5-8-7-3-5v-11l4-7 9-10 6-4z" fill="#FEDD94"/>
<path transform="translate(203,1750)" d="m0 0 9 3 16 9 8 7-1 8-5 9-5 10-6 7-5 2-8-4-8-8-4-3-9-3-3-3v-10l4-8 15-15z" fill="#FEDD94"/>
<path transform="translate(1167,1812)" d="m0 0 5 2 7 9 17 8 6 5-1 4-7 6-6 10-3 7-7 10-4-2-12-13-9-7-9-3-3-3 1-7 21-21z" fill="#FEDD94"/>
<path transform="translate(1250,366)" d="m0 0 5 1 10 11 13 5 1 2v9l-4 9-9 10-3 12-4 1-9-10-8-8-6-4-9-3-3-3 1-5 7-8 16-16z" fill="#FEDD94"/>
<path transform="translate(996,1628)" d="m0 0 2 2v9l-4 12-6 13-8 16-11 12-13 13-3 5-3 8-9 3-10 8-8 6h-7l-3-4 1-7 4-3 8-3 12-11 8-8 5-8 3-7 12-13 7-9 12-24 9-9z" fill="#FEDD94"/>
<path transform="translate(675,806)" d="m0 0h8l7 2 7 6 3 6 1 10-1 11-5 4-8 3-3 3-3 1h-8l-6-4-9-11-4-6v-10l4-7 8-7z" fill="#FEDD94"/>
<path transform="translate(267,350)" d="m0 0h67l1 1v68l1 4 3 2h-6l-1 6 1 7 3 1-4 2-4-1v-44l-1-21-2-4-6-4-7-1-62-1 2-6 9-8z" fill="#FEDD94"/>
<path transform="translate(200,1212)" d="m0 0 5 1 4 3 10 5 9 8v7l-7 8-9 10-4 1-9-10-4-3-9-2-4-3 1-7 9-11z" fill="#FEDD94"/>
<path transform="translate(354,106)" d="m0 0 9 2 5 4 9 3 3 4v13l-4 6-3 5v7l-4 2-8-7-9-3-8-7-2-4 1-6 5-7 3-9z" fill="#FEDD94"/>
<path transform="translate(582,883)" d="m0 0h7l5 2 6 10 2 6v9l-7 3-8 3-5 4-5-3-5-6-1-4v-12l4-6z" fill="#FEDD94"/>
<path transform="translate(1161,1150)" d="m0 0h6l5 5 2 3 3 9 3 4v2l4 2 5 6v5l-6-2-3-3-3-5-4-4-10-2-4-1-4 4-3 7h-2l-2 4-6 7-9 19-3 5-4 7-2 7-4 1 1-7 7-16 10-19 10-14 10-21z" fill="#FEF4A3"/>
<path transform="translate(857,56)" d="m0 0h14l17 8 8 6 1 5 6 3 1 3 9 5v2h-9l-4-2-10-10-1-3-4-2-5-6-5 1-4 1h-6l-6 4-2 2h-3v-2l-9 2-2 6-6 5-4 5-4-1-2-2 1-2 5-1 2-3h2l-1-8 5-5 8-4z" fill="#FEF5A4"/>
<path transform="translate(476,497)" d="m0 0h2v88l-4 1-2-3-1-11-5-3-2-3v-6l4-5 2-1 1-12v-14l-2-13-3-5 7-1z" fill="#FEF4A3"/>
<path transform="translate(346,1460)" d="m0 0 9 2 3 3-1 6-5 9-3 16-8 10-7 1v-14l2-15 4-6 3-9z" fill="#FEDD94"/>
<path transform="translate(935,649)" d="m0 0 5 2 5 6v2l-2 1 2 1v2l4 2 8 9 7 8 13 12 8 7 8 6 3 3v2h2l-2 5-1 2-5-1-11-12-7-8v-2l-4-2-21-21-2-1v-2l-4-2-9-9-2-1v-5l4-2z" fill="#FEF6A5"/>
<path transform="translate(298,450)" d="m0 0 6 5 5-2 2-3 5 2h46l-4 3-4 1-1-1-1 4 13 1 2 1v2h-63l-5-4-1-2z" fill="#FEF5A4"/>
<path transform="translate(533,863)" d="m0 0 4 2v6l-4 6-9 3-14 3-15 6-4 5h-2v2l-3 1-3 14-2 1v-12l1-9 4-4 5-3 10-7 10-4 9-1 4-2 9-1-1-5z" fill="#FEF5A4"/>
<path transform="translate(569,798)" d="m0 0 7 1 2 3v18l-6 2h-11l-6-5 1-7 7-8z" fill="#FEDD94"/>
<path transform="translate(332,352)" d="m0 0h1l1 61 2 10 3 2h-6l-1 6 1 7 3 1-4 2-4-1v-44l-1-21-2-4-6-4v-2l-13-1v-1h9l9 2h5z" fill="#FEF5A4"/>
<path transform="translate(652,913)" d="m0 0h7l2 3 1 18-5 2h-14l-4-3-1-4 3-6 8-8z" fill="#FEDD94"/>
<path transform="translate(354,484)" d="m0 0 2 1v51h2l2 6 3 3v2h-5l-3 9-1 6h-3v-60l1-17z" fill="#FEF5A4"/>
<path transform="translate(262,352)" d="m0 0h37v1l-24 4v4h12l5 1v1l-23 1h-13l-4-2 7-9z" fill="#FEF5A4"/>
<path transform="translate(923,93)" d="m0 0 9 1 11 11-2 5-4 2-3-4-2-7-4 3-1 12-2 3h-4l-3-6 4-8 2-2-1-6-1-3z" fill="#FFF6A5"/>
<path transform="translate(208,405)" d="m0 0h21l-2 2-6 2-1 3 27 3v1l-7 1h-34v-8z" fill="#FFF6A5"/>
<path transform="translate(864,371)" d="m0 0h5l1 2-3 5-5 8-6 1v-2l-5 2-2 4-3-3v-6l9-8z" fill="#FEF5A4"/>
<path transform="translate(637,132)" d="m0 0 15 1 1-1h7v3l-4 2v3l-8 1-9-1h-12l-8 2-1-2h2v-2h2v-2z" fill="#FFF6A5"/>
<path transform="translate(792,33)" d="m0 0 6 1 8 9-2 1-10-1-25-1v-4l17-4z" fill="#FFF6A5"/>
<path transform="translate(232,1774)" d="m0 0h2v5l-4 7-5 10-6 7-5 2-5-2-7-8-1-2 6 2 4 2 6-1 5-6 8-14z" fill="#FEF0A1"/>
<path transform="translate(1017,328)" d="m0 0 2 3-6 7-5 12-7 7-5 1-2 7h-3l1-5 10-12 4-9 5-6z" fill="#FEF4A4"/>
<path transform="translate(689,141)" d="m0 0h14l2 1v4l-3 1-1-3h-3l-2 4-1 1-7 1h-8l-2-5 2-2 8-1z" fill="#FEF6A6"/>
<path transform="translate(1149,752)" d="m0 0 5 1 8 7 4 4 6 2h3l5 9 2 4h-6l-3-4v-2l-6-2-3-3-3-5-6-4z" fill="#FFF6A5"/>
<path transform="translate(470,517)" d="m0 0 3 3 2 19v19l-2 4-7-1-2 1 2-5 4-3 1-12v-14z" fill="#FEDD94"/>
<path transform="translate(664,89)" d="m0 0h5l-2 5-10 5-4 4-9 2h-5l-1-4 1-2 7 2 9-7z" fill="#FEF5A4"/>
<path transform="translate(895,362)" d="m0 0h8l1 1v6l-6 1v2l-5 3h-3v-4l-2-1 1-6z" fill="#FEF4A4"/>
<path transform="translate(873,1753)" d="m0 0 5 1 4 2-1 6-1 1-8 1-5 2-2-6 5-6z" fill="#FFF6A5"/>
<path transform="translate(1281,838)" d="m0 0 5 4 1 8-3 3-9-2-1-5z" fill="#FEF5A5"/>
<path transform="translate(763,792)" d="m0 0 4 1 1 1v7l-2 5-5 5-6 2-1-4 2-3h2l1-3 3-3 1-3z" fill="#FEF3A3"/>
<path transform="translate(293,839)" d="m0 0h3l1 5 6 2 3 2v3h-14l-2-3 1-7z" fill="#FEF5A4"/>
<path transform="translate(705,750)" d="m0 0h2l1 6 3 1 3 4 5 2v2l2 1h-10l-4-5-8-3 1-3 4-1z" fill="#FFF6A5"/>
<path transform="translate(917,628)" d="m0 0 8 1 7 6 1 4-5-1v-2l-8 3-5-3v-7z" fill="#FEF6AA"/>
<path transform="translate(991,558)" d="m0 0 4 2 4 6v9h-2v2h-3l-2-3-2-15z" fill="#FFF6A5"/>
<path transform="translate(344,1705)" d="m0 0 5 1 1 3h2l3 5 5 4v2h2l1 5-5-2-7-7-6-5z" fill="#FEF4A3"/>
<path transform="translate(582,883)" d="m0 0h7v2l3 1-1 3-14 2-2 6-3 1 1-7 5-4z" fill="#FEED9F"/>
<path transform="translate(507,808)" d="m0 0h2v6l6-1-4 8-5 1-4-6 1-6z" fill="#FEF1A2"/>
<path transform="translate(1183,1857)" d="m0 0h2l-1 5-6 9h-3l-2-4-5-5 3-1h7z" fill="#FFF6A5"/>
<path transform="translate(917,1723)" d="m0 0h2l2 5 10-4-2 4-7 6h-5l-3-4 1-4z" fill="#FFF6A5"/>
<path transform="translate(565,1809)" d="m0 0h13l1 5-3 2-10 1-2-2v-5z" fill="#FFF6A5"/>
<path transform="translate(329,792)" d="m0 0 4 1 1 7-8 4-3 3-2-1 2-6z" fill="#FEF1A1"/>
<path transform="translate(552,153)" d="m0 0h1v7l11 1-1 3-5 2h-9v-7z" fill="#FEF2A2"/>
<path transform="translate(187,1767)" d="m0 0 1 2-2 8 4 8v2h-5l-3-3v-10l3-6z" fill="#FEED9F"/>
<path transform="translate(654,63)" d="m0 0 3 1v2l5-1-1 5-7 1v-2l-7 1v-3z" fill="#FFF6A5"/>
<path transform="translate(901,553)" d="m0 0h2l1 3 6 3 1 2-7 1h-10l1-4 7-2z" fill="#FFF6A5"/>
<path transform="translate(356,517)" d="m0 0 8 1 2 1-1 4-1 1h-7v12h-1z" fill="#FEE499"/>
<path transform="translate(346,123)" d="m0 0 2 4 4 12-6-2-3-3-1-6h2z" fill="#FEF1A1"/>
<path transform="translate(185,1227)" d="m0 0h2l3 8v4h-6l-2-2 1-7z" fill="#FEF1A2"/>
<path transform="translate(619,1206)" d="m0 0 2 2 2 8 4 2 2 2v3l-5-1-6-6z" fill="#FEF1A2"/>
<path transform="translate(224,1232)" d="m0 0 3 1v5l-6 4-4 4h-3l2-4z" fill="#FEF5A4"/>
<path transform="translate(1267,834)" d="m0 0 3 2-1 7-1 1h-7l-2-4 4-1 2-4z" fill="#FEF5A4"/>
<path transform="translate(328,1680)" d="m0 0 4 2 1 3 3 1 2 6-2 2-5-4-3-5z" fill="#FEF0A1"/>
<path transform="translate(898,1288)" d="m0 0 3 1-4 5-7 2-5-1-1-3 11-3z" fill="#FFF6A5"/>
<path transform="translate(733,158)" d="m0 0h2l1 6h-2v2l-7-1-3-3v-3h7z" fill="#FFF6A5"/>
<path transform="translate(231,382)" d="m0 0 14 1 2 2-9 2h-7l-3-2z" fill="#FEF5A4"/>
<path transform="translate(683,48)" d="m0 0 6 1v6l-2 2-4-1v-2l-4-2z" fill="#FFF6A5"/>
<path transform="translate(314,1505)" d="m0 0 5 1 1 3-4 8-5-4 2-3z" fill="#FFF6A5"/>
<path transform="translate(1006,601)" d="m0 0 9 2 2 4-2 2-7-1z" fill="#FEF4A4"/>
<path transform="translate(900,601)" d="m0 0 8 1 1 1-1 7h-4l-4-7z" fill="#FFF6A5"/>
<path transform="translate(962,204)" d="m0 0 2 1-1 4-7 8-3 1 2-8z" fill="#FFF6A5"/>
<path transform="translate(370,139)" d="m0 0h2v10l-1 3h-2l-5-6 1-3z" fill="#FEF5A4"/>
<path transform="translate(764,171)" d="m0 0 4 2 3 3v2l-6-1-4 2-3-2v-4h6z" fill="#FFF6A5"/>
<path transform="translate(1034,360)" d="m0 0h4l1 5 1 8-1 2-3-1-2-10z" fill="#FFF6A5"/>
<path transform="translate(716,1374)" d="m0 0 4 2 1 1v6l-6 3v-9z" fill="#FFF6A5"/>
<path transform="translate(784,1213)" d="m0 0 4 2 2 4v5l-4-1-3-5z" fill="#FEF5A4"/>
<path transform="translate(275,470)" d="m0 0 2 1 3 14-4 1-1-1z" fill="#FFF6A5"/>
<path transform="translate(1260,415)" d="m0 0h2v9l-4 1-2-5-1-4z" fill="#FEF4A4"/>
<path transform="translate(765,862)" d="m0 0 2 1-1 7-7 2-4-2 8-4z" fill="#FFF6A5"/>
<path transform="translate(843,136)" d="m0 0 5 1-2 7-5-1-2-4z" fill="#FEF4A5"/>
<path transform="translate(900,1303)" d="m0 0h2l2 9-1 2-5-1 1-8z" fill="#FFF6A5"/>
<path transform="translate(856,1209)" d="m0 0 8 3-2 4-4 1-3-3z" fill="#FFF6A5"/>
<path transform="translate(746,863)" d="m0 0h5l2 6-4 2-4-4-1-3z" fill="#FFF6A5"/>
<path transform="translate(1015,615)" d="m0 0 8 2-1 4-4 2-4-5z" fill="#FFF6A5"/>
<path transform="translate(1161,1150)" d="m0 0 1 3h-2l-1 8-6 7-1-2 7-14z" fill="#FEDD94"/>
<path transform="translate(767,186)" d="m0 0 5 1v2h4v2h2l1 3-3 1-6-4-3-3z" fill="#FFF6A5"/>
<path transform="translate(1252,367)" d="m0 0 3 1 1 4-1 2-8 1v-3l2-1 1-3z" fill="#FFF6A5"/>
<path transform="translate(756,784)" d="m0 0 4 2-1 3h-5l-2 2h-4l2-4z" fill="#FFF6A5"/>
<path transform="translate(848,357)" d="m0 0 5 2 3 1v3l-6 1-3-1v-5z" fill="#FFF6A5"/>
<path transform="translate(946,1703)" d="m0 0 4 1-2 4-4 3h-5l1-3 4-1z" fill="#FFF6A5"/>
<path transform="translate(1225,819)" d="m0 0 10 5 1 4-5-1-6-5z" fill="#FFF6A5"/>
<path transform="translate(377,837)" d="m0 0 1 4-3 3-3 5-5 2 2-5h2v-2l3-3z" fill="#FEF4A3"/>
<path transform="translate(1006,339)" d="m0 0 1 3v5l-3 2-3 5-5 3 2-4 6-8z" fill="#FEDD94"/>
<path transform="translate(764,1799)" d="m0 0h4l2 5-2 1h-6l-1-2z" fill="#FFF6A5"/>
<path transform="translate(851,1761)" d="m0 0 7 1v2l-7 2-5-1 2-3z" fill="#FFF6A5"/>
<path transform="translate(1149,752)" d="m0 0 5 1 8 7-1 2-5-2-7-7z" fill="#FEEB9D"/>
<path transform="translate(383,520)" d="m0 0 2 4 13 1 3 2h-18z" fill="#FFF6A5"/>
<path transform="translate(840,927)" d="m0 0 3 1-1 5-1 1h-5l-1-2z" fill="#FFF6A5"/>
<path transform="translate(353,875)" d="m0 0h2l1 4-3 3-7-2v-2l4-1z" fill="#FFF6A5"/>
<path transform="translate(726,150)" d="m0 0h8l1 7-4-2-5-3z" fill="#FFF6A5"/>
<path transform="translate(740,1287)" d="m0 0 7 1 2 1-1 3h-8z" fill="#FEF5A4"/>
<path transform="translate(842,1206)" d="m0 0 6 5 3 2-1 4-5-3-2-3-3-3z" fill="#FFF6A5"/>
<path transform="translate(892,584)" d="m0 0 8 4-2 5-4-2-2-4z" fill="#FFF6A5"/>
<path transform="translate(933,247)" d="m0 0 2 1-1 6-3 1-1 2-1-5 2-4z" fill="#FFF6A5"/>
<path transform="translate(862,1252)" d="m0 0 4 2v7l-4-2-2-2 1-4z" fill="#FFF6A5"/>
<path transform="translate(861,1223)" d="m0 0 6 4v4l-3 1-4-4z" fill="#FFF6A5"/>
<path transform="translate(714,1387)" d="m0 0 1 3-1 6-1 4-4 1 1-6z" fill="#FEF2A2"/>
<path transform="translate(977,556)" d="m0 0 8 1 1 2-5 2-5-1z" fill="#FFF6A5"/>
<path transform="translate(849,1220)" d="m0 0 3 1-2 5-5 1 1-6z" fill="#FFF6A5"/>
<path transform="translate(1038,648)" d="m0 0h6l1 6h-4z" fill="#FFF6A5"/>
<path transform="translate(747,163)" d="m0 0 6 1 1 4-4 2-1-3h-2z" fill="#FFF6A5"/>
<path transform="translate(858,373)" d="m0 0 3 1-8 5-5 4-2 3 1-5 8-7z" fill="#FEDD94"/>
<path transform="translate(354,106)" d="m0 0h2v2h2l-1 4-5 2-1-2 2-5z" fill="#FEF4A6"/>
<path transform="translate(444,1781)" d="m0 0 4 1 5 5-7-1-4-4z" fill="#FFF6A5"/>
<path transform="translate(550,1607)" d="m0 0 2 2 1 11h-2l-2-4v-7z" fill="#FEF3A3"/>
<path transform="translate(548,1572)" d="m0 0 1 3-3 4-2 6-2-1v-6l5-5z" fill="#FEF4A3"/>
<path transform="translate(1273,399)" d="m0 0h2l-1 5-5 4-1-3z" fill="#FEF0A1"/>
<path transform="translate(832,304)" d="m0 0 5 2 2 1-1 3-4 1-2-3z" fill="#FFF6A5"/>
<path transform="translate(359,1689)" d="m0 0 4 1 4 5h-6l-2-3z" fill="#FFF6A5"/>
<path transform="translate(758,1576)" d="m0 0h1v6l-4 2-3-1 1-3z" fill="#FEF4A3"/>
<path transform="translate(816,1134)" d="m0 0h2l4 7-1 3-5-5z" fill="#FEF1A2"/>
<path transform="translate(1228,392)" d="m0 0 2 3 2 6h-5l-1-5z" fill="#FEF5A4"/>
<path transform="translate(870,176)" d="m0 0 4 2-1 6-4-1z" fill="#FFF6A5"/>
<path transform="translate(481,916)" d="m0 0 2 1 3 7v3l-4-2z" fill="#FFF6A5"/>
<path transform="translate(874,425)" d="m0 0 5 2-1 4h-5v-4z" fill="#FFF6A5"/>
<path transform="translate(1285,842)" d="m0 0 2 4-1 6-4 1-3-2 5-1z" fill="#FEDD94"/>
<path transform="translate(1183,618)" d="m0 0 6 1v5l-4-1-2-2z" fill="#FFF6A5"/>
<path transform="translate(998,355)" d="m0 0m-1 1m-2 1 2 1-4 8-2-1 1-5z" fill="#FEF1A1"/>
<path transform="translate(550,1562)" d="m0 0h4l-1 5-3 2-1-1v-5z" fill="#FEF0A1"/>
<path transform="translate(441,1245)" d="m0 0 1 2-6 9-1-2 3-7z" fill="#FEEE9F"/>
<path transform="translate(970,561)" d="m0 0h6l-2 4h-6l-1-2z" fill="#FFF6A5"/>
<path transform="translate(864,185)" d="m0 0h3l-2 5-1 1h-5z" fill="#FFF6A5"/>
<path transform="translate(563,135)" d="m0 0v3l-5 8h-1v-6z" fill="#FEF2A2"/>
</svg>
