<?xml version="1.0" encoding="UTF-8"?>
<svg version="1.1" viewBox="0 0 2048 1000" width="1280" height="1280" xmlns="http://www.w3.org/2000/svg">
<path transform="translate(1443,47)" d="m0 0 10 1 8 7 4 5 8 14 12 17 11 21 16 32 10 18 11 16 12 23 10 21 7 16 2 6 1 7v22l1 5 4 2 2 3 3 22 6 3 9 3 11 9 9 10 11 22 3 21 2 4h2l4-8 4-10 4-7 1-10 1-137 1-15 7-14 3-15 10-21 8-10 6-8 7-12 13-8 8-4 7-2 17-1 7 3 3 6 4 10 5 14 4 14 3 7 4 21 2 11 3 6 3 20 3 32 4 5 2 18 1 18v45l-1 28-4 5-2 1-4 20-6 14-3 10-1 7-5 6-3 8 16-8 21-10 15-4 16-7 18-8 6-2 9-2 11-5 18-4 12-6 8-1 29-1h36l14 1 13 4 12 7 6 7 2 10v20l-3 6-16 7-22 12-13 9-23 13-34 17-16 9-11 8-22 12-35 18-16 10-18 11-33 17-19 11-18 12-39 20-35 17-15 5-19 8-16 7-20 8-21 8-12 5-23 9-16 7-18 8-10 4-12 3-11 6-13 5-11 5-13 3-13 7-10 4-10 5-16 3-11 7-13 5-11 5-16 6-20 8-13 6-18 8-15 5-13 6-21 8-12 2h-83l-8-1-7-5-1-2-4 1-16-3-9-6-8-1-13-3-8-6-3 1-18-5-8-5-7-1-18-6-5-2-55-19-28-10-7-3-8-2-6-5-1-2-1 3-7-2-4-1-10-2-8-2-7-3-21-5-8-4-1-2-5 1-6-2-8-1-13-3-6-3-1-2-5 1-6-2-15-2-6-2-6-3v-2h-2v2l-10-2-14-3-5-1-8-4h-4l-7-2-12-2-9-2-7-4-14-2-12-3-9-3-5-2-20-4-18-6-12-2h-7l-8 7-8 8-6 11-5 17-10 23-10 21-3 4-3 14-7 18-5 17-5 13-6 18-9 20-9 17-14 17-8 12-9 12-9 9-10 4-13 11-14 12-21 11-26 10-13 3-11 1-6 6-7 1h-87l-5-8h-17l-8-3-3-2-17-5-12-6-3-2-4-1-9-6-10-9-14-12-8-3-13-12-11-16-13-17-6-9-8-16-6-17-6-16-4-17-4-8-2-11-1-12v-48l1-14 10-39 9-21 8-14 4-8 10-13 5-7 4-9 10-11 7-8 194-194 8-7 12-11 14-8 11-9 9-9h2l2-4 37-37 14-8 18-13 20-11 14-6 12-5 14-3 11-4 21-5 9-2 9-4 29-5 8-4 28-5 7-3 5-2 29-5 7-4 29-5 10-5 31-5 6-5 4-1 21-1h179l24 1 7 2 3 4 5 1 24 1 18 1 11 3 4 4 4 1h9l20 5 6 3 16 4 8 1 2 5 22 2 12 1 6 3 8 2 3 2 18 2 12 2 5 1 2 3 10 2 25 3 11 3 5 4 25 2 9 2 12 6 15 1 2-2v-30l-1-11-2-5h-2l-3-6-1-4-1-23 2-16 5-13 5-12 7-8 10-6 16-8h9l11 9 5 6 6 5 8 10 12 22 5 12 7 14 8 17 10 25 3 10 7 14 2 8v7l1 5h9l7-1-3-7-4-5-3-9-4-14-4-10-4-20-4-5-2-5-1-57v-12l1-17 2-9 8-17 9-12 5-5 6-5 6-3zm-9 19-8 6-5 8-2 9v96l2 13 5 11 4 16 12 25 4 6 6 19 5 13 2 17 6 7 2 13-1 8-6 7-2 4-1 29-1 11-4 2-3 6-1 14-1 21-2 9-6 14-1 26-4 6-16 16-5 2h-15l-6 4-12 11-7 8-8 8-5 8-1 5-12 14-14 14-6 7-5 4-4 5-6 5-8 10-2 9-10 10-7 8-42 42-6 9-4 10-1 3-10-1-5-5 1-5 8-10 22-22 8-10 2-9 8-8 7-8 9-10 14-14 8-7 9-10 2-5 1-4 11-13 7-8 22-22 7-9 1-6 9-11 11-12 7-10 4-10 4-6 5-20 5-10 1-8v-119l1-10-7-5-2-10-2-21-6-8-2-4-2-8-6-11-3-10-2-9-6-10-4-11-16-32-12-25-7-9-5-4-7-1-8 4-10 9-8 10-2 7-1 17v13l2 25 5 6 2 16 1 21 2 16 4 5 2 8 3 24 5 6 2 9 1 11v18l-1 14-7 7-1 7-1 27-1 8-5 5-2 13-2 17-6 9-6 6v2l-4 2-6 5-9 2-12 10-7 6-10 3-9 7-12 9-10 5-16 13-15 8-6 5-6-5h-3l-2-4v3l-19-7-21-9-20-9-8-5v2l-21-8-6-3-6-2-8-3-3-1v-2h-2l-1-3-1 3-14-5-12-5-5-1-28-10-43-14-22-7-16-5-34-8-9-4-17-2-23-4-8-4-6-1-2-2v3l-17-2-37-3-5-5-32-2h-29l-12 1-3 6-19 1h-46l1-5 12-3 8-4 5-3 37-1h40l75 1 14 1 2 5 9 1 20 1 17 2 11 3 4 3 21 3 12 2 4 4 28 6 16 5 18 4 7 4 23 6 8 4 21 6 5 4 15 5h2l2 5 2 1 12 1 11 3 5 4 16 4 8 3 5 3 14 5 5 4 16 7 9 5 11 6 3 3 9 1 9-5 14-8 12-9 22-14 2-4-6-8-7-7-14-11-7-3-9-6-14-13-9-11-5-8-4-8-8-9-7-10v-7l1-3h18l8 3 4 4 8 1 24 1 6 1 16 1 12 6 12 1 25 1h14l6-3 4-5 5-10 1-5 1-30-2-43-5-5-2-5-2-11v-7l-3-3-12-3-9-7-3-1-20 1-18-3-6-4-2-3-1 2-5-1-3-1-1 1-9-1-18-3-8-3-3-3-1 3-9-3-9-1-13-3-6-4-3 1-7-3-1 1-9-1-11-2-10-2-6-3-2-2-5 1-10-2-21-6-16-4-7-1-7-5-2-3v4l-10-3-9-1-22-3-4-4-1-2-4 1-101-3-31-3-7-3h-20l-20 3-21 3-49 2-13 1-3 5h-7l-7 2-21 3-4 4-14 3h-7l-14 3-4 4-9 1-8 2-12 1-7 3-2 2-23 4-7 1-7 3-2 2-15 3-12 1-7 2-3 2v2l-23 4-8 5-17 4-25 11-20 11-12 9-24 24-8 2-11 9-5 5-10 9-1 3-4 2-254 254-10 14-13 25-7 15-10 30-2 24v57l2 23 5 11 5 18 6 13 5 10 6 10 4 7 9 11 14 15 13 13 11 9 14 8 15 12 17 8 6 4 20 4 8 6h99l9-1 8-6 17-3 23-11 11-8 21-14 11-9 25-25 10-13 13-23 8-20 12-36 6-16 8-18 5-13 6-16 11-25 4-13 6-12 9-12 4-11 8-9 6-3h13l19 5 10 3 18 4 12 4 26 6 3 3 13 2 14 3 10 1 2 4 7 1 16 3 13 2 3 4 13 2 22 3 4 5 5 1h7l14 3 10 2 3 4 4 1h8l21 5 6 3 12 3 13 3 4 4 18 4 8 3 11 4 16 4 4 3 25 7 5 3 21 6 5 3 8 3 11 4 5 5 10 1 13 4h2l2 5h2l1 2 1-1h7l16 4 2 5 12 1 13 4h2l2 4 5 1 19 3 15 6 31 1 12-1 7-6 19-2 13-4 6-4 15-6 25-9 11-5 38-14 30-15 17-4 12-6 9-4 8-4 21-6 20-10 4-3 24-7 19-8 5-3 25-9 31-14 16-7 20-7 8-4 19-8 20-7 20-9 16-8 15-8 32-16 17-9 16-11 15-8 19-10 35-18 18-13 16-8 36-19 21-13 15-9 17-9 18-10 13-8 19-11 12-6 9-7 3-3-1-5-5-5-9-6-12-4-9-5-14-2h-11l-13 1-7 7-6 1h-15l-16 1-5 1-7 6-10 2h-10l-8 7-12 3-9 2-28 14-25 12-16 8-13 8-3 3-3 5-4 9-2 13-7 9-1 6-1 11-3 6-5 6-2 15-2 6-7 9-5 2-3-3v-9l3-12 5-9 3-15 7-15 4-17 6-12 3-16 16-32 4-15 8-19 7-15 5-19 4-7 1-7v-21l-6-17-2-20-2-28-2-7-3-7-3-23-2-26-5-8-4-28-7-14-3-8-6-7h-10l-10 4-13 13-7 10-8 16-7 16-5 6-1 12-1 148-2 16-4 6-6 15-5 8-8 16-8 15-11 14-5 12-6 9-5 12-7 11-3 8-9 10-6 7-1 4-1 44-7 9-15 15-8 7-11 10-11 4-14 12-15 15-6 5-4 5-10 8-8 2-14 12-15 16-17 17-4 2h-9l-4-4 1-7 9-11 9-9 27-18 16-15 17-17 13-5 10-9 8-7 7-7 7-8 17-17 5-4 8-10 2-15 7-15 1-6v-132l-1-16-2-5-5-9-1-42-2-22-4-10-7-28-16-33-8-16-12-23-16-24-13-24-8-14-14-23-9-10-4-2zm-6 211-6 3-3 7v11l4 9 3 3 2 14 1 23v57l9 1 1-7 1-23 1-11 5-14 2-7 1-18v-12l-1-11-6-7-3-12-4-5zm148 50-2 3-1 11v21l2 19 2 4h2l5 10 4 1 6-4 8-9 2-10v-18l-5-9-9-9-8-7-4-3zm-398 62-1 1v6l4 6 12 14 18 18 10 8 16 8 10 4 9 1 8-4 13-12 7-9 1-2 1-17-5-5-2-1-8-1-13-2-8-6h-2v2h-2l-1-3h-27l-26-1-5-1-2-4zm421 16-8 6-6 5-1 4-1 16 2 7 4 1 4-4 3-12 6-8 1-2v-10zm148 19m-874 287 1 2z" fill="#FEE88B"/>
</svg>
