<svg version="1.1" viewBox="0 0 800 908" width="1280" height="1280" xmlns="http://www.w3.org/2000/svg">
<path transform="translate(340,346)" d="m0 0 4 1 13 1 10 5 5 4v2l4 2 8 5 13 13 9 7 11 6 5 3 10 2 5 2 17 1 2 1v2l30 1 3 3 12 1 10 5 5 4 4 5v7l-3 5-2 9-2 2-5 14-4 12-2 5-5 11-3 9-3 11-2 2-5 14-5 16-6 12-3 9-6 15-4 11-2 6-6 15-5 16-6 12-5 14-8 10-5 4-3 1h-12l-12-3-25-9-18-7-21-8-23-9-17-6-15-6-14-6-15-8-4-4-4-9v-11l3-9 3-10 5-10 5-17 7-16 6-17 6-15 3-9 5-11 7-21 5-11 7-20 7-19 5-10 8-24 4-8 3-3zm1 57-1 1v27l6 5 13-13 6-7 1-4-3-4-3 1-1 2-6-1-7-6zm107 37 1 6 4 5 3-1-1-5-4-5zm-70 36-2 2 1 5h6l1-4-1-2zm54 36v7l-4 2-4 5v5l2 1h9l5-2 4-3v-2l-7-5-2-8zm-79 21v2h2v-2zm36 3-1 3h4l-1-3zm-89 4-6 11-2 4v4l5-2 7 1 4 1-1-10-4-9zm97 25v2h2v-2zm-133 19v3h4l-1-3zm92 16v10l4 2 3-1 1-4-5-7zm57 17-9 4v5l5 2 5-3 2-3-1-5z" fill="#FAE1A3"/>
<path transform="translate(453,136)" d="m0 0h47l27 9 9 5 9 6 11 9 8 8v2h2l2 3v7l-7 13-8 13-9 17v3l8 6v2h2l2 4v16l-1 1h-23l-1 7-2 3-2 9-2 2v13l3 7 3 9 7 13 9 11 6 11 3 9v22l-2 9-7 22-5 11-9 24-5 13-12 32-5 13-12 32-8 20-7 19-6 16-11 29-14 35-7 13-7 8-5 4-7 3-7 1h-16l-16-4-28-10-27-10-12-5-15-6-17-6-20-8-14-5-9-5-4-4-5-2-6-9-4-7-3-6v-19l5-17 14-36 6-16 9-25 6-15 10-26 10-27 13-33 9-24 16-43 7-16 5-8 9-10 8-7 11-4 8-3 14-1 17-8 13-11 6-9 7-14-4-3-6-3-5-9 1-5 7-8 4-2h15l4-8 2-15 2-7 2-12 2-4 1-8zm17 7-9 1-4 4-1 2-2 13-2 3-2 17-2 3v9l12 5 13 5 11 4 15 5 20 8 12 4 5 1 14-25 8-13 2-4-1-6-4-7h-2v-2h-2v-2l-12-8-10-6-16-6-9-3-2-1zm-41 53-10 5 1 6 5 4 10 5 4-16-8-3zm16 7-1 2-2 18-2 4-1 13-4 7 2 6 12 10 14 7 9 3 7 3 17 1v2l6 1 5-5 9-13 7-14 5-7 4-8-9-3-17-7-13-5-29-10-15-5zm-12 17-1 5 3-2v-3zm-3 12-6 11-3 5-4 4v2l-4 2-7 6-8 4-10 3-1 1-18 2-2 2-11 3-8 4-7 7-9 19-5 14-4 10-6 17-6 14-5 13-12 32-7 18-5 13-11 30-8 20-8 21-6 16-8 22-6 15-3 8-1 14 1 10 5 9 5 6 15 9 18 8 12 4 12 5 15 6 13 5 9 3 20 8 24 8 11 4 10 3h23l7-4 10-11 7-12 7-18 4-12 6-15 6-17 4-8 4-12 4-8 8-24 4-8 8-24 6-15 6-17 4-8 8-24 4-8 6-18 7-17 4-14v-25l-4-10-7-10-4-6-7-8-5-10-3-22 2-9v-6h-3l-4 5-3 6-3 3h-6l-2-2-17-1-7-2-9-3-22-10-8-6-7-8v-7l2-4 1-8zm107 8-5 6v5l8 4 5-1 3-4-1-6-4-4z" fill="#FAE1A3"/>
<path transform="translate(138,520)" d="m0 0h33l2 4-2 3-17 7-8 6-7 8-6 10-4 8v32l13 26 4 3 6 3 9 6 6 3 7 1 2 2v5l-11 2-2 2-13 1-3-2v-2h-10l-13-5-5-3-10-8-7-8-10-19-1-11-3-4v-11l3-6 1-10 6-11 5-7 3-5 4-5 7-4 10-6 9-4z" fill="#FAE1A3"/>
<path transform="translate(434,732)" d="m0 0h5l1 2v7l-4 6 2 8 5 16 1 5 3-3 4-7 7-6 6-1-1-12-3-5v-5l6-5 5 4 1 6v17l10 1 8 7 4 8h1v-33l-3-4v-5l1-1 8 1 3 5v34h17l6 4 4 5 1 4v14l-3 7-2 9-5 12-7 11-9 10-11 11-2 1-11-1-5-3-1-2-1-12-7-14-7-17-6-10-10-10-7-3-5 1-2 6-1 4 2 4 1 8 3 4 1 11 11 12 8 8v2l-6-1-11-6-11-11-3-6-5-7-3-10-1-1v-16l7-8 3-2h14l-8-16-1-14-3-4v-8l5-5zm35 39-5 2-3 2-2-3-4 2-3 7v6l6 9 5 5 5 3h3l1 7h4l1-2 6-1 3-11 6-8-3-3-2-5-6-3-5-5zm43 8-5 3-10 10-9 18-2 13-2 6-1 22 1 6 4-1 5-4 3-5 1-9 8-8 7-11 9-10 3-3v-20l-5-6z" fill="#FAE1A3"/>
<path transform="translate(426,214)" d="m0 0h3l2 3v7l-4 11-3 5-6 8-4 4h-2v2h-2l-2 4-5 1v2l-12 5-9 2-6 2-1 2-7 2-6 2-13 5-7 7-9 19-5 14-4 10-6 17-6 14-5 13-12 32-7 18-5 13-11 30-8 20-8 21-6 16-8 22-6 15-3 8-1 14 1 10 5 9 4 5 15 9 18 8 12 4 12 5 15 6 13 5 1 3 9 2 10 4v2l8 1 13 5-1 2 9 1 2 2 12 3 13 5v1l-11-1-3-1-7-3-7-2-41-15-18-7-10-4-9-3-7-3-23-9-4-2-12-5-9-6-8-7-5-5-5-10v-19l5-17 14-36 6-16 9-25 6-15 10-26 10-27 13-33 9-24 16-43 7-16 5-8 9-10 8-7 11-4 8-3 14-1 17-8 13-11 6-9 6-11 4-2-3-6z" fill="#FAE1A3"/>
<path transform="translate(523,293)" d="m0 0 4 4 3 11 8 15 9 11 6 11 3 9v22l-2 9-7 22-5 11-9 24-5 13-12 32-5 13-12 32-8 20-7 19-6 16-11 29-14 35-7 13-7 8-5 4-7 3-7 1h-16l-16-4-28-10-27-10-12-5-15-6-17-6-20-8-14-5-9-5-4-4-5-2-6-9h3l4 5 8 6 16 8 4 1 13 6 15 5 9 4 5 2 11 4 37 14 21 8 5 1 15 5h4l-18-6-6-1-1-2-9-1-1-3-14-5-5-1v-2l-8-2-11-4 3-1 9 3 24 9 16 5 11 4 10 3h23l7-4 9-10 7-12 7-18 4-12 6-15 6-17 4-8 4-12 4-8 8-24 4-8 8-24 6-15 6-17 4-8 8-24 4-8 6-18 7-17 4-14v-25l-4-10-7-10-4-6-7-8-5-10-1-13 2 1 2 9 7 14 10 12 4 6 3 2v4l3 2-2-5-4-6v-2h-2l-4-6-9-12-6-15z" fill="#FAE1A3"/>
<path transform="translate(448,161)" d="m0 0 1 2 2 1-3 12h-2l2 2 3-7h1v7l-2 6-1 2-1 9 9 3 14 5 7 4-3 3 7 1 1 2h4l6 4-2 1-42-14-4-1-2 20-2 4-1 13-4 7 2 6 11 9 14 7 9 3 7 3 15 1 2 1v2h6l5-5 7-11 8-15 5-7 3-5 3-2 1 3-5 8h-2l-2 6-4 7-10 16-3 5h-2v2l-7 1h-4v-2l-5 1-10-2-7-2v-2l-4 1-2-1v-2l-4-1-1 2 15 5 14 3 8 1v1h-17l-7-2-9-3-22-10-8-6-8-9v-7l2-4 1-8-1-2-7 14-6 7-11 9-8 4-10 3-1 1-10 1-2-2 4-2 2 1 1-2 7-1 12-5h2v-2l6-3 1-2h2v-2l8-7 5-9 4-8 1-4v-7l-1-3-2 1 3 4v3l-4-2-9-5-5-9 1-5 7-8 4-2h15l4-8 2-15zm-19 35-10 5 1 6 5 4 10 5 4-16-8-3zm4 24-1 5 3-2v-3z" fill="#FAE1A3"/>
<path transform="translate(256,489)" d="m0 0h3l1 3v3l-1 7-7 18-8 21-5 13-6 16-1 14 1 10 5 9 4 5 15 9 18 8 12 4 12 5 15 6 13 5 1 3 9 2 10 4v2l8 1 13 5-1 2 9 1 2 2 12 3 13 5v1l-11-1-3-1-7-3-7-2-41-15-18-7-10-4-9-3-7-3-23-9-4-2-12-5-9-6-8-7-5-5-5-10v-19l5-17 14-36 6-16 5-14z" fill="#AE661F"/>
<path transform="translate(278,96)" d="m0 0h7l2 2 1 6 1 19 2 2 1 6v12l-1 1h-7l-6-3-9-2-11-6-9-2-5-3 1-4 7-7 8-7 11-8z" fill="#FAE1A3"/>
<path transform="translate(453,136)" d="m0 0h47l27 9 9 5 9 6 11 9 8 8 3 9-6 10-4 7-4-2 6-12-1-6-3-5v-2h-2v-2h-2v-2l-4-2-11-7-12-6-11-4-9-3-2-1-32-1-11 1-2 5-2 13-2 3-3 10-2 8h-1l-1-8h2l2-12-2-3v-9l3-7 1-8z" fill="#FAE1A3"/>
<path transform="translate(628,423)" d="m0 0 3 1 4 9 3 6 9 10 1 6-11 2-15 15-5-5-4-8-6-10-7-7 1-3 17-8z" fill="#FAE1A3"/>
<path transform="translate(426,214)" d="m0 0h3l2 3v7l-4 11-3 5-6 8-4 4h-2v2h-2l-2 4-5 1v2l-12 5-9 2-6 2-1 2-7 2-6 2-13 5-7 7-9 19-5 14-4 10-6 17-6 14-5 13-1 2h-2v-5l3-6 1-5 1-2h2v-12l4-9 3-9 6-17 5-10 5-11 3-5 3-3 3-5 8-7 11-4 8-3 14-1 17-8 13-11 6-9 6-11 4-2-3-6z" fill="#FAE1A3"/>
<path transform="translate(413,308)" d="m0 0h5l2 5 2 10 2 5 1 10 2 4 2 11 7 15 3 8v-15l-3-3 1-5 2-2 1-13 1-2 3 1 1 5-1 10 2 12 2 6v9l-1 1h-7l-1 3h-6l-6-13-5-14-3-8-3-10-1-16-3-4v-9z" fill="#FAE1A3"/>
<path transform="translate(239,608)" d="m0 0 5 1 13 8 18 8 12 4 12 5 15 6 13 5 1 3 9 2 10 4v2l8 1 13 5-1 2 9 1 2 2 12 3 13 5v1l-11-1-3-1-7-3-7-2-41-15-18-7-10-4-9-3-7-3-23-9-4-2-12-5-9-6-6-5z" fill="#FAE1A3"/>
<path transform="translate(519,323)" d="m0 0 4 2 5 10 3 1 9 14 4 9v6l-3 5-2 9-5 1-2-2v-7l3-5-1-8-6-12-7-7-5-10 1-5z" fill="#FAE1A3"/>
<path transform="translate(359,284)" d="m0 0 5 1-1 6-13 13-6 17-5 14-4 1-3-1v-7l3-7 2-9 8-15 9-10z" fill="#FAE1A3"/>
<path transform="translate(426,214)" d="m0 0h3l2 3v7l-4 11-3 5-6 8-4 4h-2v2h-2l-2 4-5 1v2l-12 5-9 2-7 2-4-3 13-3 7-4 11-6 11-9 6-8 7-13 4-2-3-6z" fill="#FAE1A3"/>
<path transform="translate(177,276)" d="m0 0h6l1 5-9 26-4 8-3 1h-9l-3-2 1-5 1-1h7l2-2 6-18 2-5z" fill="#FAE1A3"/>
<path transform="translate(638,200)" d="m0 0 5 1 3 7 3 4v3l-6 4-4 4h-3l-4-6-4-7 1-5 6-3z" fill="#FAE1A3"/>
<path transform="translate(340,281)" d="m0 0 1 2-2 3h-2l-2 5-7 14-5 14-2 1-2 11-1 2-5 12-1 8-3 3-3 9-5 13-2 1 1 6h-2l-1 2h-2l1-6 7-18 17-46 9-21 5-8z" fill="#FAE1A3"/>
<path transform="translate(428,233)" d="m0 0 1 3-4 7-3 5-5 6-11 9-8 4-10 3-1 1-10 1-2-2 4-2 2 1 1-2 7-1 12-5h2v-2l6-3 1-2h2v-2l8-7 5-9z" fill="#FAE1A3"/>
<path transform="translate(242,609)" d="m0 0 5 2 10 6 18 8 12 4 12 5 15 6 13 5 1 2-10-3-19-7-5-1v-2h-7l-2-2-9-2-2-4-7-1-5-1-1-2-6-1-5-5-8-6z" fill="#FAE1A3"/>
<path transform="translate(532,200)" d="m0 0 5 2 3 4v9l-4 2-8-3-5-5 3-5z" fill="#FAE1A3"/>
<path transform="translate(470,148)" d="m0 0 6 1 3 3 1 6-4 5-6 1-6-7 1-5z" fill="#FAE1A3"/>
<path transform="translate(508,190)" d="m0 0 10 2 2 2-1 6-5 4-9-1-2-4 2-7z" fill="#FAE1A3"/>
<path transform="translate(494,252)" d="m0 0h5l4 3 1 4v8l-1 1h-8l-3-1v-12z" fill="#FAE1A3"/>
<path transform="translate(521,286)" d="m0 0h1l2 11 1 6 4 9 5 9 8 10v2h2l7 11-1 3-4-3v-4l-5-5-11-14-4-6-4-10-2-11z" fill="#FAE1A3"/>
<path transform="translate(532,234)" d="m0 0 2 1-2 5-3 5h-2l-2 6-4 7-10 16-3 5h-2v2l-6 1v-2l4-2 8-12 4-7 6-11 5-7 3-5z" fill="#FAE1A3"/>
<path transform="translate(465,244)" d="m0 0 3 1 4 4v2h2l1 4-6 5h-6l-3-2v-8z" fill="#FAE1A3"/>
<path transform="translate(434,732)" d="m0 0h5l1 2v7l-4 6v5l-2-1-1 5h-1l-2-8-2-2v-8l5-5z" fill="#FAE1A3"/>
<path transform="translate(514,155)" d="m0 0 7 1 3 3v8l-3 5-4-1-5-5v-8z" fill="#FAE1A3"/>
<path transform="translate(474,184)" d="m0 0h9l1 2v9l-2 1-9-1-5-4 2-4z" fill="#FAE1A3"/>
<path transform="translate(518,325)" d="m0 0 5 5 6 8 8 10 3 7v12l-2 7h-2l-2 4 1-7 2-6v-6l-3-9-3-3-5-7v-2h-2l-7-11z" fill="#FAE1A3"/>
<path transform="translate(519,260)" d="m0 0 1 2-5 10-3 3-1 4-4 4-5 1-18-2-17-5-6-3 2-3 4 2v2h6l4 2 8 2 10 1v2l9-1h2v-2l3-2 6-11z" fill="#FAE1A3"/>
<path transform="translate(453,220)" d="m0 0h8l3 2v8l-4 3-6-1-2-2v-8z" fill="#FAE1A3"/>
<path transform="translate(326,309)" d="m0 0 2 2-2 9-5 12-3 6-3 10-1 3h-3l1-6 3-7 3-9 6-17z" fill="#FAE1A3"/>
<path transform="translate(343,521)" d="m0 0h8l1 4-1 1v6l-6 1-5-1-1-1v-6z" fill="#FAE1A3"/>
<path transform="translate(422,192)" d="m0 0v3l-5 6v7l2 4h3l2 2 4 2 2 3v3l-4-2-9-5-5-9 1-5 7-8z" fill="#FAE1A3"/>
<path transform="translate(349,275)" d="m0 0 2 2-5 4h-2l-2 4-7 12-5 11-3 1 1-6 7-14 5-6 2-4z" fill="#FAE1A3"/>
<path transform="translate(426,214)" d="m0 0h3l2 3v7l-4 11-3 5-6 8-4 4h-2v2h-2l-1 2-2-2 5-4 4-5h2l1-4 6-9 4-10-1-5z" fill="#FAE1A3"/>
<path transform="translate(637,204)" d="m0 0 5 2-2 1 2 6h-2l1 4-2 1v2h-2l-1-4h-2l-1-5h-4l1-3 6-3z" fill="#FAE1A3"/>
<path transform="translate(418,312)" d="m0 0 2 1 2 10 2 5 1 10 2 4 1 11-5-3 1-5-2-8v-4l-2-1-1-9-1-4-1-6z" fill="#FAE1A3"/>
<path transform="translate(721,344)" d="m0 0h5l-3 9-3 7-4-1-1-4 3-7z" fill="#FAE1A3"/>
<path transform="translate(434,252)" d="m0 0 2 2 2 3 4 2 1 3 5 1 3 2v2l5 1 3 2-1 2-7-2-12-8-7-6v-2h2z" fill="#FAE1A3"/>
<path transform="translate(174,264)" d="m0 0h1v7l-5 10-6 16-3 2 1-5 7-19 4-10z" fill="#FAE1A3"/>
<path transform="translate(310,352)" d="m0 0 2 4-3 6-2 7-4 10-1 3-3 1 1-6 5-12 4-11z" fill="#FAE1A3"/>
<path transform="translate(499,217)" d="m0 0 7 1 15 6 1 2 7 1 1 2-4 1-7-3v-2l-3 1-1-2-4-1h-3l-3-1-3-3h-3z" fill="#FAE1A3"/>
<path transform="translate(418,322)" d="m0 0 2 2 1 8 3 8 1 8h-3l-3-13-1-6z" fill="#FAE1A3"/>
<path transform="translate(501,255)" d="m0 0h2l-1 9-4 1-5-4 1-4z" fill="#FAE1A3"/>
<path transform="translate(451,151)" d="m0 0 3 1-4 24-2 8h-1l-1-8h2l2-12-1-4z" fill="#FAE1A3"/>
<path transform="translate(555,168)" d="m0 0 4 2 7 8 1 4-3 4-2-7-7-8z" fill="#FAE1A3"/>
<path transform="translate(509,221)" d="m0 0 4 2 6 2v2l7 2 1 2-7-1-14-6v-2z" fill="#FAE1A3"/>
<path transform="translate(458,223)" d="m0 0h4l-1 7-3 2-3-2v-6z" fill="#FAE1A3"/>
<path transform="translate(474,184)" d="m0 0 4 1-3 1-1 3 2 1h-2l2 5-4-1-4-3 2-4z" fill="#FAE1A3"/>
<path transform="translate(508,193)" d="m0 0 7 1v3l-1 6-4-1-1-2v-3z" fill="#FAE1A3"/>
<path transform="translate(561,186)" d="m0 0 3 1-6 11h-3l-2-2 4-5h2z" fill="#FAE1A3"/>
<path transform="translate(531,204)" d="m0 0 4 1 1 3-1 5-3 1-3-5v-4z" fill="#FAE1A3"/>
<path transform="translate(455,150)" d="m0 0h1v9l-3 7-1 5h-1l1-13z" fill="#FAE1A3"/>
<path transform="translate(266,468)" d="m0 0 2 4-3 6-3 9-3-1v-2h2l1-6z" fill="#FAE1A3"/>
<path transform="translate(511,279)" d="m0 0 1 3-5 5h-6l-2-3 8-2z" fill="#FAE1A3"/>
<path transform="translate(633,568)" d="m0 0h6l1 1v5h-4l-4-3z" fill="#FAE1A3"/>
<path transform="translate(594,684)" d="m0 0 2 1v5l-3 2-5-1 1-3z" fill="#FAE1A3"/>
<path transform="translate(298,384)" d="m0 0 2 4-1 3h-2l-1 7-1 2h-2l-1-3 3-6z" fill="#FAE1A3"/>
<path transform="translate(228,575)" d="m0 0h1l1 14 1 6-2 3-2-5z" fill="#FAE1A3"/>
<path transform="translate(476,211)" d="m0 0h6l1 2h4l6 4-2 1-15-5z" fill="#FAE1A3"/>
<path transform="translate(467,153)" d="m0 0h7l1 4-1 3h-2v-2l-3 1z" fill="#FAE1A3"/>
<path transform="translate(419,197)" d="m0 0 2 2-3 1 1 7 1 3-1 3-3-5v-7z" fill="#FAE1A3"/>
<path transform="translate(346,300)" d="m0 0 2 4-4 9-4 1 1-4h3l-1-5z" fill="#FAE1A3"/>
<path transform="translate(359,380)" d="m0 0 4 1-1 5-5-1 1-4z" fill="#FAE1A3"/>
<path transform="translate(272,453)" d="m0 0 2 3-1 2h-2l1 4-2 4-3 1 2-8z" fill="#FAE1A3"/>
<path transform="translate(475,208)" d="m0 0 9 2 2 2h-2l-1 2-2-2-6-1z" fill="#FAE1A3"/>
<path transform="translate(415,310)" d="m0 0h3l1 9-2 3-2-9z" fill="#FAE1A3"/>
<path transform="translate(362,267)" d="m0 0m-4 1h4v2l-7 3-4-1 4-3z" fill="#FAE1A3"/>
<path transform="translate(527,245)" d="m0 0 2 1-2 4-1 3h-2l-1 4-2 1 1-4z" fill="#FAE1A3"/>
</svg>
