<svg
        id="logo"
        version="1.1"
        viewBox="0 0 1899 2048"
        width="1280"
        height="1280"
        xmlns="http://www.w3.org/2000/svg"
>
<path transform="translate(942,147)" d="m0 0 8 1 5-1 8 3 5 3 8 11v13l-5 8-7 10 1 5 8 9 13 2 6 2v2h21l13 2 27 1 3 2v-2h6l2 2 14 1 9 5 5 4 4 7 2 5 2 13-1 15-3 8-6 6-7 4-6 4-8 2-4 3v28l1 2v11l-1 4 24 1 12 5 4 5 4 10 1 16 1 3v14l-1 7-1 17h8l7 2 22 1 13 3 1 1 10 2 17 6 11 6 11 8 10 8 14 14 10 15 6 10 6 13 1 8 2 4 1 9 1 1 1 17h2l1 23 2 2 1 41 1 1 2 43 1 1 1 30 2 21 1 37 1 1 2 50 1 6 1 35 2 5 1 54 1 8 2 38 1 5 1 71 2 16v15l-2 8-1 18h-2v8l-1 3h-2v7l-5 11-9 19-9 14-9 10h-2l-2 5-9 10-6 6-5 3-12 9-14 8-10 6-23 12h-2v7h7l12 4 6 4 7 8 5 12 1 53 5 2 10 3 9 6 5 4 9 15 5 14 1 3v29l-5 8-231 1-11 1-1 1h-9l-1-3-13 1h-13l-26 2-1-3-55 3h-190l-4-1-6 1-1-1h-8l-6-1-5 1-2-1-10-1-1-15 1-34 7-13 14-14 10-4 7-2h4l1-13 1-3v-16l1-28 5-8 9-9 7-2 1-1 9-1 3-3-1-6-5-3-7-4-8-3-5-3-7-3-10-7-16-10-12-11-20-20-9-15-8-17-8-14-2-9-4-13-1-12-2-3v-16l1-47 1-2 1-44 2-11-1-7 1-2v-33l1-21 2-3 1-42 1-4-1-4 1-4 1-27 2-7-1-3 2-5-1-8 1-33 1-2 2-36 1-6 1-23 2-6-1-6 1-5v-7-4l1-38 2-3v-16l1-14 1-1v-20l3-14 2-13 4-16 8-17 10-16 21-21 10-7 32-16 7-2 1-1 10-1 7-2 11-1 1-1 26-1v-57l7-12 5-5 4-2 24-1 8-3 1-1v-20l-1-26h-16l-13-9-3-2-6-15 3-12-1-8 2-9 9-10 12-9 15-2 9-1 34-1 10-2 18-1 4-1 1 1 2-4 8-1 6 1-1-5h5l3 2v-4l5 2-1-7-9-10-3-5-2-8v-12l3-6 8-5 8-3zm-5 63-3 3 2 4 5 1h7v-3h-3l2-4-1-1zm-97 35-5 4-8 1v2h-2l-1 2v10l3 2 11 1 108-1 21-1 3 1h8l2-1h25l3 1h56l3-3-1-5-6-3-15-2-26-2-6-1-38-1-5-1h-17l-4-1-32-2h-26l-1 1h-6l-1-1h-9l-16 1-3-1zm35 53-10 2-1 1v36l6 4 25-1 2-5-3-7-6-3v-4l6-6v-12l-3-5zm61 2-3 1v2h-2v6l2 10v18l1 1h12l4-1h5l3-2 1 2 1-7-1-3v-10l1-3v-10l-4-4zm78 0-7 1-2 2v12l4 5 3 2h8l5-5 2-9-3-7-2-1zm-174 70-4 1-15 1-10 3-1 55-1 1-1 27 1 10 5 3h182l9-2 9-1 2-2-1-5-5-3h-39l-2 1h-14l-3-2h-80v-2l-9-1-1-2h7l6-2 7-2h7l4 1v-2l31-1 4-1 3 2h52l7-1 17-1 3-2v-7l-16-1h-39l-1-1-19-1h-51l-11 3-1-3-5-1-2-3 8-5 9-1 2-2h40l2 1 18 1h24l27-2 29-1 1-6-1-2-10-2-11 1h-69l-6-1-17-1h-53l-3-2-1-8 5-1 4-2 7-1h17l9-1 26-1 10 1h71l6-1 2-3h8l2-2v-5l-3-3-11-2-32-2-29-2h-8l-4 2-7-1-4-1h-8l-13-2-14-1h-15l-9-1zm289 83-10 2-3 7 2 6 7 3 9 1 9 3 1 1 9 1 12 5 10 6 14 14 2 5 6 9h4l1 2h-2v3h4v2h-2l2 4 3 9 2 7 4 26 1 5v13l-2 4 2 4 1 51h2l1 82 2 19 1 31 1 15-1 2v12l3 31v33l2 9v19l2 12 2 31 1 20 2 5-1 6 1 5-2 4 2 3 1 66v9l-3 9-1 6-4 10-5 12-5 5-3 6-9 11-5 5-8 7v2l-5 2-12 9 1 4-3-1-5 4-4 1-5 4-10 5-6 5-3-1v2l-5 2-6 4v3l8 7h9l7-4 10-4h3v-2l5-1 9-6 11-6 8-8 9-6 7-7 5-2 4-3 1-3 6-4 4-5 5-10 5-8 9-18 5-14-1-3 3-7v-7l-1-4v-14l1-3v-11l-1-1-1-20-1-4v-17l-1-2-1-12-1-30v-17l1-5-2-16-3-30-3-1 3-2v-18l-1-12-1-2-1-28-1-2v-14l-1-5-1-44v-17l-2-15-2-17-1-34-2-30-1-35-3-25v-7l-1-3-1-14-3-12-8-21-5-10-4-5-3-5-12-12-9-5-1-3-5-2-8-4-6-2-15-6-19-4zm-389 2-2 2-5 2-9 1-6 4-5 2-16 9-10 8-5 5-10 8-7 13-5 19-3 21-2 8-1 19v10l-2 14-1 14v12l1 3-3 9v7l2 2v17h-2l-1 37-2 2-1 29-1 1-1 15-2 4v8l1 2v12l-1 1-1 19-1 3 1 2v18l-2 2 1 10 1 9-2 3-1 15-1 1v7l1 5-1 1-1 28 1 4-2 15-1 4 1 4-1 5 1 3-2 12-1 4 2 5-1 41-2 4 1 1v12l-1 4v34l2 2 1 16 4 10 2 10 8 16 8 13 4 5 6 8 7 6 10 10 4 1 2 4 10 6 7 4 9 4 3 3 6 1 6 5 11 4 8 2 7-1 6-2 1-3 4-2 1-3-7-4h-2v-2l-10-2-16-7-8-4-3-1-1-3-5-2-14-14-3-1-5-6-9-7-5-5-3-4-2-5-4-7-1-2-3-1-3-5-5-13-3-10-1-43 1-21 2-6 1-19 1-1v-36l2-11 1-1v-25l2-10v-9l-1-7 2-3 1-29v-26l1-2 2-24 1-2 2-25-1-9 2-20v-24l2-7 1-16v-20l1-9 1-1v-18l3-37 1-46 2-13 2-5 2-9 8-17 4-6 7-10 4-4 6-2 7-8 8-4 10-4 8-2v-2h19l9-2 1-1v-10l-7-3zm69 42-9 1h-6l-6 4-1 4v11l5 2h15l34-1 1-1 90-1 2-1h11l8-1 6 2 11-2 58-1 3-1 28-2-3-5-7-3h-27l-2-2-6 1h-24l-1-1h-32v2l-7-1-2 1v-2l-75-1-21-2zm325 11-1 1-1 19-5 8-3 3-5 2-29 1-5 3-4 5 1 33 1 8-1 3 2 6 1 11 5 9 5 7 5 5 9 14 10 14 7 8 1 2h2l2 5 12 25 5 9 4 7 6 12 3 16 6 28 2 10 1 13 2 3v38l-1 2v12l-1 6-2 10-2 19-2 6-8 28-7 16-4 6-8 15-4 5-8 16-28 28-23 12-11 6-1 3 7 1h43v2l8 2 2 3h2l1 21-1 16-2 4-3 7-2 5-9 3-3 2-13 3-17 1h-4l-9 2-1 1v42l10 1 6 2 15 4 6 1 4-2 7-1 4-4 8-2 4-3 11-5 6-2 5-5 11-7 9-6 12-12 9-12 6-9 8-16 3-9 2-13v-84l-4-2-1-53 1-7-2-3 1-4v-7l-2-8-1-16v-23l-2-7-2-11-1-24 1-2v-12l-3-13-1-13-1-2-1-53-1-11v-17l-1-6-1-46-2-18-1-39-1-1-2-11-10-17-8-10-15-8-5-3-4-2zm-378 0-5 3-9 4-7 2-7 8-2 2-2 5-3 3-5 16-1 9-1 23-2 1v27l-2 9-1 19-2 6v8l1 8-1 2-1 12v18l-1 1-2 25-1 6-1 20-2 5 1 15v9l-1 15 1 3-1 2-1 21-1 1-1 31-3 2 1 12-1 13v29l-1 1-1 8-1 43-2 27-2 6v56l3 17 10 19 3 5h2l2 5 8 10 16 14 6 4 16 10 16 8 14 4 8 3 6 3h12l9-4 13-4v-39l-1-1-36-1-8-5-9-9-4-10v-22l3-12 6-7 4-2 39-1 9-3-1-2-5-2-3-3-10-4-3-4-8-2-4-6-6-2-18-18-9-13-12-19-8-15-6-14-5-15-2-8-4-15-2-9-2-19-1-7-1-25 1-40 4-17 1-9 4-13 3-2-1-7 4-11 5-12 7-15 12-22 7-11 6-8 3-3 3-6 7-7 4-6 5-6 3-5 5-10 5-22v-23-3-18l-9-3-13-1-7-1-5 1-11-3-5-5v-16l-1-9-3-3zm273 37-10 5-1 1v8l4 6 4 2 7-1 4-4 1-3v-9l-2-5zm-164 0-19 3-3 3-1 12-1 1v23l2 1h135l7-2 4-4v-19l-3-12-5-5-4-1-6 1h-6l-2 2-3 16-1 10-7 2h-9l-3-1-5-11-3-12 1-4-7-3h-11l-5 3-3 7v4l-1 9-5 5h-21l-1-1-3-16-3-10-1-1zm22 69-22 3-1 1-14-1-2 1-11 1-5 5-3 5-7 8-3 5-5 5-3 5v2l-3 1-2 7-5 1-5 9-7 8-8 10-8 16-4 10-6 13-3 7-2 4-2 7-2 14-1 2-3 22-1 25-1 1 1 8-2 3 1 4h2v28l3 20 1 1 2 12 5 16 5 13 2 5 2 2 4 10 10 14 8 12 6 7 9 11 9 8 9 7 1 2 8 3 4 1 2 4 14 5 1 1h7v5l10 7 5 1 3-5-1-15 1-1v-125l1-11-1-7v-9l2-7 4-5 3-2 6-1 42-1 1-2v-15l-3-7-11-4-4-1-2-4-7-7-8-14-3-8v-12l2-10 1-11 5-12 22-44 3-5 4-4 4-12 5-5h5l5 6 3 9 5 6 5 12 4 7 10 19 3 6 6 18 4 10v14l-1 1-2 12-4 8-3 8-5 8-11 11-7 2-3 2v18l3-1v-2l2 1 22 1 1 1 12 2 10 5 5 6-1 4-1 3 1 20-1 2 1 9v71 4 7l1 7-2 2 1 7-1 6 2 2-1 5v13l-1 2 1 9 2 3 6-1 7-6 13-6 16-8 12-7 9-7 8-7 9-9 12-16 7-11 10-19 7-15 7-20 2-6 1-13 2-8 2-27v-38l-2-7-1-10-4-11-1-9-3-10-3-8-5-16-10-19-4-8-6-9-7-12-7-10-10-15-7-11-7-8-4-6-2-7-7-7h-149l-3 1-5-1zm58 98-2 3-2 7v4l-3 1-3 9-4 3-1 12-2 3v14l6 8 11 11h9l12-12 4-9-1-6-1-9-3-9-7-13-4-9-3-8zm-36 146-2 3-1 14-3 12 2 18-1 2v12l1 4v7l-1 1v12l1 4-1 10v8 3l-1 1v5l2 4-1 3v30l3 15 1 1h37l9-3 3-5-2-5-6-3-1-1-1-23 5-1v-8h8l3-4-6-3-7-1 1-5 1-1 12-1 3-2-5-3-4-1h-8l2-9 2 1 17 2 4 3 1 3-3 1 1 7 3 5-1 7 3 4h2l1-13v-24l2-4-3-4 1-18 1-6v-12l-1-1 1-8 1-4-1-2v-6l1-2v-9l-3-6-4-1h-13l-7-2h-7l-3 1-2-1h-16zm-59 194-40 1-6 5-1 3v7l4 4 7-1h18l5 1 16-2 4 2 11-1 3 1 4-1h18l1 1 79 1 14 1 9-4 14 2h53l12-3 2-1 2 1h9l5-1 2-5-1-7h-160l-22-1-3-2zm15 49-6 3v20l3 6h26l5-1 9 1v-2h5v2l3-1v-3l4-2 2 1 9-4h46l9 1 1-1 9-1 2-2v-13l-1-1h-15l-12 1-6-1h-9l-3 3-2-3h-5v2l-5-1h-7l-1-1-38-1-4-1-3 1-9-2zm75 50-10 5-10 10v12l4 6 7 7 6 3h19l12-6 5-5 1-11-2-5-5-7-8-6-10-3zm-81 9-5 3-5-1-30 9-11 6-14 8-5 3-19 19-9 7 1 6 1 1h144l7-2 1-4-5-5-8-7-5-5-5-10-2-15v-5l1-5-1-1-8-1h-18zm103 82-1 1-24 1-6-1-9 1-191 1-6 4-4 4-1 40 3 7 3 1h170l30 1 7 1 33 1 12-1 1-1h24l8-2-1-5h-10l-1-3-8 1-43-1h-19l-6-1-36 1h-80v-2l-4 2h-25l-1-2h13l2-2 11-1 1-3 6 1 2-2 4-1 1-3h132l3-1 2 1h20l15-1h13l11-1 1-1v-7l-22-1-5-1-41 1h-134l-2-5h-2l1-4 14-2 17-1 3 1v-2h99l5-1 68-1h42l18-1v-3h2l1 3 3-2v-2l-5-3h-30l-3-1-24-1-3 1h-19l-7-2zm-257 85-19 3-3 5-2 7v9l8 1h17l3 1 3-1 3 2h68l10-2 7 1 10 1 8-2h29l3 1 1-1 61-1 6-1 13 1 18-2 45-1 1-1 13-2 7-2h17l2-1 10-1 28-1 3-1 43-1 2-1-1-6-5-3-4 1h-14l-8-2-3 2-48 1-6 1h-73l-1-1-117-1-4-1-1 1h-38l-10-2z" fill="#FDFDFD"/>
<path transform="translate(241,1448)" d="m0 0 39 1 4 8v5l-3 3-15 6-8 7-5 6-4 8-1 7v29l1 7-1 31 2 9-1 7-1 24 1 6-1 9 1 7v24l-1 6v36l2 8 7 16 6 9 10 10 7 4 9 3 5 6-1 4-3 3-5 1h-29l-10-4-8-3-9-1-23-10-6-2-9-7-2-2 1-5 9-11 5-10-1-6 1-2-2-15 1-2v-64l1-6 1-21 1-6-3-3-5 3v7l-7 20-8 17-3 8-4 10-5 12-4 10-2 9-4 6-2 8-4 7-2 7-3 6-1 7-2 3-4 14-5 10h-7l-3-6-2-9-4-10-2-10-5-10-2-7-1-1-1-10-4-4-1-8h-2v-2h2l-5-8-2-8v-3l-3-3-1-10-5-10-1-8-4-4-1-9-8-20-1 5-1 34-1 4 1 1v5l-1 1v32l1 5-1 5 1 6-1 4v12l22 22 1 7-7 3h-7l-4-1-2 1h-46l-11 1-1-1v-8l11-11 7-8 3-5 1-53 1-10-1-5 1-5v-136l-6-11-13-8-11-6-1-2 4-8 2-2 36-1h36l12 1h6l3 2v2h2l1 5-15 15-1 5 2 7 2 11 9 27 4 15 4 10 2 7 5 16 8 24 8 26 2 5 3-5 3-9 5-11 3-8 2-4 2-10 4-10 6-17 10-27 2-8 6-15 5-15 3-10-1-5-5-4-5-3-4-4v-8l5-4 14-1z" fill="#FDFDFD"/>
<path transform="translate(1528,1473)" d="m0 0 3 2h42l4-1 1 1h12 4l2 3-1 7-6 5-6 3-5 11-1 73 12 1 3 1h53l3-3v-78l-9-6-6-6v-10l47-1 1-1h5v2l3-2 14-1 3 2 6 1 1 5h2v5l-3 3-7 3-6 2-4 6v74l5 12-1 4-1 1-2 12-1 1v81l4 10 3 3 8 2 5 6 1 5-2 5-2 2-4 1h-15l-38-1-4-1-3 1h-10l-5-3v-12l10-7 5-5-2-8 1-7 1-9v-52l-7-2-1 1h-8l-4-2v2l-50 1v69l3 10 8 7 4 2 3 6v5l-4 4h-76l-2-5 3-9 10-6 4-5 1-63 1-2v-27l-5-8-2-7 6-10v-8l1-2v-26l-1-6v-35l-5-5-15-9v-4l4-5 9-1z" fill="#FCFDFD"/>
<path transform="translate(1407,1472)" d="m0 0h31l13 4 3 2 11 2 2-2 1-4 5-1h6l5 4v59l-14 14-3 1-4-3-2-16-3-1-3-8-4-6-2-4-4-2-2-2-7-3-5-2h-16l-20 10-14 14-6 11-2 3-3 9-6 15v11h-2l1 34 3 9 1 1 1 12 4 6 2 9 7 13 5 8 8 8 12 6 7 2h9l1-1 12-2 7-2 1-3v-53l-3-9h-14l-8 1-2 1-6-3-1-5 4-8 7-7 6-3 5-1h75l4 3 1 7-8 8-10 6-1 64-3 3 3 1v22l-4 3-19 6-16 5-7 2-10 1h-39l-10-5-10-3-15-8-8-6-5-6-8-7-6-9-3-4-8-17-4-13-1-2-1-10-2-4-1-9-1-1-1-11-7-14-2-5 4-6 5-8 5-18 4-14 9-17 5-8 5-5 6-9 8-8 18-11 8-4 8-3 9-1z" fill="#FCFCFC"/>
<path transform="translate(587,1472)" d="m0 0 15 1 2 1v2h9l7 4 9 1 4-7 6-1 5 4 2 3 2 44-2 12-7 8-8 4h-8l1-13-2-2-1-9-6-8-7-6-12-6h-15l-12 3-8 3-3 3-5 2-8 11-7 13-5 13-2 7-3 8-1 2-1 10-1 1-2 9v10l2 9 1 1 2 10 1 1 1 7 2 3 1 8 4 7 2 7 6 9 3 5 12 12 12 7 8 2 8 1 19-5 1-7-1-3v-8l1-8v-21l-1-7 1-9-5-5-36-1-1-6 3-6 8-8 9-4 29-1h48l7-1 3 5v5l-11 6-7 6-2 5 1 7-1 6v27l-1 5 2 7-1 1-1 16 1 6-1 17-18 8-12 3-9 1-1 1-11 1h-47l-5-3-17-9-3-3-5-2-21-21-4-7-5-9-10-20-2-9-3-7-2-13-4-13v-6l-4-2-1-2v-9l4-9 6-11 1-9 12-29 7-11 9-10 16-16 13-8 15-7 7-1 1-1 7-1z" fill="#FCFCFC"/>
<path transform="translate(333,1476)" d="m0 0h84l3 6-2 4-8 7-5 6v5l3 9 3 13 4 9 2 5 2 10 1 1 2 9 7 21 4 7 3 9 2 8 2 9 1 1 2 12 3 9 3 8 2 10 3 8 2 9 2 7 2 4 2 7 3 3 3 6 9 4 5 5 2 5-3 6h-84l-1-1v-8l9-9 6-2 1-7-1-11-2-5-1-9-3-9-3-2-9 1-4 1-5-2-11 1h-4l-13-1-2 1h-7l-6-1-4 2-3 9-3 7-1 9-2 3v8l12 12v13h-68l-3-3-1-5 7-8 4-3 5-2 5-6 8-20 2-9 3-9 2-10 1-3-6-7-8-7-5-7-1-7 3-3 24-1 5-3 3-12 3-8 2-10 3-8 3-12 6-18 4-15 4-12v-12l-9-6-6-3v-8zm37 73-6 16-2 7-3 8-1 7-2 2-2 5-1 9-4 2-3 9v10l5 1h21l3-1 16-1 2-1v-6l-6-10-3-8 4-2-1-5-1-1h-5l-2-9-3-7-2-10-2-14z" fill="#FCFDFD"/>
<path transform="translate(947,8)" d="m0 0 4 1 7 2v-2h13l13 1 2 2h6l3-1 7 4 3 1v2h5 3l16 8 5 3 11 5 12 6 8 7 8 6 10 9 6 4 7 8 4 7 5 5 9 13 8 16 2 8 3 5 4 15 4 12 2 12 1 1 1 20 1 5v7l-1 5 1 6v8l-1 4 1 7-1 2-1 18h-2l-1 8-1 1-2 10-8 16-6 11-9 10-6 5h-12l-1-1 1-10 4-10 2-9 4-14 4-7 3-9 1-13 1-1 1-13v-34l-2-7-1-9-2-4-2-10-3-10-1-8-5-12-8-14-10-16-6-8-8-6-13-13-7-4-10-8v-2l-6-1-11-7-20-9-12-4-16-1-2-1h-21l-16 2-11 3-1 1-10 2-1 1-9 2-20 8-15 9-7 5-5 3-11 10-6 4-4 7-12 12-10 15-5 9-6 16-4 9-5 16-4 13-2 13-1 5v19l1 3-1 7 2 7 1 12 3 9-1 5 5 4 7 15 1 4v29l-1 1h-12l-7-7v-2l-4-2-8-15-4-16-2-6-5-19-3-15v-32l3-30 5-9v-10l3-7 2-4 2-9 6-13 3-7 6-11 10-14 8-11 9-10 12-12 11-8 5-3h3l2-4 8-5 15-8 12-5 3-2h9l10-6 7 1 4-3h7l1-1 13-2h15z" fill="#FCFCFC"/>
<path transform="translate(1030,1447)" d="m0 0h2l1 2h10l5-2 4 1 64 1 6 2 3 6v5l-3 3-10 4-7 7-3 7 1 4-1 3 1 18-1 11-1 167 6 1 2 1 32 1 2 1h13l6-3 10-10 6-13 4-13 2-2h8l8 4 2 2v26l-2 6-1 12-1 1-1 17-1 2h-2v12l-3 6h-8l-54-10-11-1h-16l-9-1-18 1-4-1-3 1-31 1-3 1-8-3 1-6 4-6 10-8 11-11v-98l-1-9 1-2v-34l-1-2v-11l1-11-1-18 1-3-1-6 1-5-1-3-1-9-3-6-8-8-10-5-3-3v-8l3-5z" fill="#FCFCFD"/>
<path transform="translate(879,1472)" d="m0 0 26 1 2 1v2h9l8 4h5l5-4h6l7 13v44l-4 7-5 5-5 4-8 4-4-1-1-1-1-28-7-9-9-5-18-4-13 1-16 8-8 7-7 11-3 7-4 9-5 16-1 1-1 9-1 1-1 11v21l4 16 5 16 7 17 6 8 13 13 9 6 9 1 12 1 1-1 13-2 17-9 4-5 9-19 3-5h6l6 3 6 7 3 7-3 14-2 2-2 7-4 5-6 8h-2v2l-5 4-4 4-19 9-3 2-11 3h-17v2l-10-1h-3l-8-1-10-5-17-8-9-7-7-5v-2h-2l-7-8-4-5-5-7-3-5-5-8-8-20-2-10-4-16-2-10-8-18 7-8 3-7 2-9 3-6 2-9 6-15 6-11 6-8 8-9 5-5 10-9 18-11 8-4 16-3z" fill="#FCFCFC"/>
<path transform="translate(1732,1463)" d="m0 0 10 3 8 8v2l13-1h96l7-5 5-5 4-2 11 1 2 1 1 27 1 5 1 7-2 3 2 2 1 14-2 9-8 8h-13l-2-5-2-12-5-10-5-2-14-2h-9l-4 2-1 74h2l1 11-2 2v82l2 11 3 6v2l5 2 8 8v10l-4 1-12 1-67 1-2-1-1-7 3-6 4-5 8-6 5-6 1-7-1-2v-14l1-16v-52l-2-8 1-9-1-2 1-7-1-5 2-8v-50l-2-2h-7l-7 2-5 2-9 2-5 4-1 9-2 2-2 7-4 5-4 1-10-6v-53l2-6 2-9z" fill="#FCFDFD"/>
<path transform="translate(942,1806)" d="m0 0 4 2 3 6 3 10 1 10 2 5 1 9 2 7 5 16v4l8-7 9-9 7-4 10-7 14-8 5 1v6l-7 12-8 13-4 6h-2l-1 4-6 8-3 2 12 2 1 1 18 2 2-1v2l5-1 10 2h6v2l9 1 9 2 4 5-1 4-3 2-17 4-44 11-5 1h-7l5 6 6 11 10 18 7 17-1 5-4 2-9-6-10-7-9-7-9-6-3-3-4-1-1 7-1 2-1 15-2 7-1 9-1 1-1 9-2 3-2 8-6 9-6 2-1-8h-3l-2-3-1-18-3-6-1-8-1-15-2-10-1-6-10 10-7 4-8 7-9 5-6 4-9 1 1-5 4-10 7-14 6-9 4-7 7-13h-10l-29-6-9-4-13-2-4-3-6-2-1-5 6-4 13-2 13-3 1-1 12-1 11-3 1-1 10-1-3-8-8-8-9-14-4-6-3-9v-4l12 3 13 7 9 7 5 3 10 10h3l3-12 1-16 2-1v-10l3-5v-9l6-12z" fill="#FCFCFC"/>
<path transform="translate(749,1473)" d="m0 0 7 1 5 5 2 3-1 5-13 10-6 6-1 62-2 3 1 9-1 2 2 7-1 5-1 2v45l1 7-1 5v15l1 4-1 3 2 6 1 13 6 7 10 6 2 5v8l-6 3-6 1h-65l-2-2-5-2-1-4 3-8 10-7 4-5 3-6v-19l-1-4 1-31v-34l-2-7 1-6 1-7-1-13v-35l1-4v-7l-1-4 1-6-4-10-4-4-9-6-4-4 1-7 3-3 60-1 1-1z" fill="#FCFCFC"/>
<path transform="translate(1273,1473)" d="m0 0 3 2 22 1v12l-11 6-7 7-2 8v137l-1 6 1 9v5l1 1v6l-1 1v11l5 10 11 9 4 2v11l-4 3-6 1h-69l-6-6 1-5 16-16 3-11v-66l-1-3v-16l1-3v-31l1-14-2-15-1-6 2-5v-11l-3-15-5-5-9-4-2-5 1-6 1-2 7-2 1 1h47z" fill="#FDFDFD"/>
<path transform="translate(1700,721)" d="m0 0h37l6 4 2 4h-2l-1 9-7 4-66 1h-20l-1 1-31 1h-29l-31-1-4-1h-49l-3 1v-2l-17 1-7 1h-61l-20-2v2h-2v-2h-37l-2-2-6 1-7-3-2-2 1-4 5-4 4-2 11-2h7l7 1 2-1 13-1h106l3 2 3-1h21l22-1h27l3 1h10l13-1h41l20 1h10l5-1 24-1z" fill="#FBFBFC"/>
<path transform="translate(421,239)" d="m0 0h6l6 5 5 5 11 14 1 3h2v2l5 2 6 7 8 6 7 8 4 6 12 9 26 26 5 8 9 7 9 10 7 8 22 22 1 3 6 4 4 5v2l5 2 26 26v12l-4 5-7 1-8-4-8-8-6-4-25-25-3-5-13-13-8-10-7-8-15-15-8-11-16-16-9-6-7-7-5-3-5-4-6-9-15-12-1-4-5-2-5-5-4-5-6-9-3-1v-8l-3-1 2-3v-3l-2-2h2l1-3z" fill="#FCFCFC"/>
<path transform="translate(342,359)" d="m0 0h10l5 3 7 8 8 9 11 7 1 1 7 1 5 5 16 8 11 6 15 7 20 10 11 6 4 4 4 2 4 3v2h2l5 5 4 5-1 3-4-5-3-2 1 7 7 8 8 5 13 2 5 3 4 4 10 6 13 8 9 3h2l-17-7-8-8v-2l4 1 5 3 5-1 4 4 15 10 5 3v9l-12 1-16-6-16-8-16-7-30-15-3-3-16-8-9-6-10-5-14-8-3-3-7-3-6-5-6-2-2-3-16-8-9-6-1-3-5-1-6-6-9-1-6-3v-2l-5-1-8-5-4-7-4-2v-7l4-8z" fill="#FCFCFC"/>
<path transform="translate(1399,806)" d="m0 0 11 1 18 2 5 2 10 1 1 1 7 1 8 3 11 2 4 2 1-2 10 3 15 4 16 3 10 3 3 2h3l8 3 1-2 2 2 7 1h4l5 2 13 3 10 4 3-1v2l10 1 10 4 12 3 8 1v2h7l7 2 9 3 3 2 3-1v2l5 2 8 1 4 1h4l4 3 7 1-1 5-4 5-12 2-7-4v2l-7-2-6-4 3-2h2v-4l-4 1-8-1-1 2 6 1-1 3-9-1-5 1-10-2h-3l-25-6-29-7-9-3-5-1-16-4-7-2-23-4-26-6-22-4v-2h-2v2l-11-3h-2l-11-2v-2h-3v2l-5-2-3-1v-2l-4 1-6-2-3-2-1 3-10-6-1-5 1-7 3-1-1-4zm258 72 1 2h6l-1-2z" fill="#FBFBFB"/>
<path transform="translate(1469,239)" d="m0 0 6 3 4 4 2 7 1 3-5 5-2 5h-4l-1 5-9 10-8 7-63 63-11 8-9 9-7 8-7 9-25 25-4 5-2 2-2 4-18 18h-4l-2 4-4 3-4-2-5-5-2-4 1-6 8-11 44-44 2-4 5-4 6-7 5-3 6-6 3-5 10-9 8-7 11-11 4-6 10-8 28-28 6-8 7-8 5-5 7-8 2-4v2z" fill="#FCFCFC"/>
<path transform="translate(1351,967)" d="m0 0 6 1 8 6 21 12 8 6 36 24 14 10 9 6 8 7 4 3 5 3 15 10 17 9 10 7 9 6 6 5 7 4 4 4 15 10 7 4 12 10 2 3-1 4-4 6h-2l-1 3-7-1-8-4-14-10-10-6-8-6-5-4-14-9-42-28-11-8-20-14-5-4-6-3-10-8-7-4-15-9-13-11-5-3-13-10-3-3-6-3-4-4v-2l3-1 2-4z" fill="#FCFCFC"/>
<path transform="translate(1360,883)" d="m0 0 7 1 6 3 18 5 28 11 2 3 9 2 6 4 7 3 6 3 7 2 9 4 8 4v2l20 6 2 1v2h2v2h8l13 5 11 6 9 3 4 1 12 6 12 4 8 5 14 7v2l5 2 3 2v7l-3 6-1 1-12-1-13-5-8-3-13-5-6-3-9-4-16-6-3-2-7-2-9-6-7-2-12-6-9-2-13-7-9-4-11-4-15-7-10-4-9-6-11-4-26-13-11-9 1-4z" fill="#FCFCFC"/>
<path transform="translate(297,518)" d="m0 0 4 1 7 2 9 4 13 3 3 2v2l4-2 4 3 7 1 9 2 7 2 6 2 5 1 5 2 10 3 4 3 7 1 7 2 5 3 9 1 1 1 11 2 13 4 7 3 8 5 17 4 10 4 10 3 6 2 14 8 4 6 3 2 1 6-3-1-1-3h-4v4h-11l-10-3-4-1-26-7-8-3v-2h5v-2l-6-1-2-4-7 1-3-1h-10l-1 3-5-2-5-1-29-9-3-1h-3l-7-3-9-2-10-3-15-5-2-1-1 2-6-4h-3l-21-6-5-1-18-7-4-4 1-7 2-10z" fill="#FCFCFC"/>
<path transform="translate(525,883)" d="m0 0h8l4 3v2l-2 2 5 2 1 4-7 5-23 11-16 7-8 4-21 9-8 4-10 4-16 8-11 3-20 9-7 2-17 8-15 5-17 8-10 6-7 3-21 6-5-1-5-9 1-6 18-11 7-3 5-3 15-4 8-3 4-3 11-4 5-2 7-2 5-3 10-4 9-3 5-3 10-2 5-4 17-8 7-3 11-5 8-1 2-4 6-2 14-6 27-11 10-4z" fill="#FBFCFC"/>
<path transform="translate(533,971)" d="m0 0h9l1 3-4 5h-2l-2 4v6l5-2v2l-8 6-14 10-11 9-14 10-21 14-14 9-9 7-21 13-10 6-18 13-10 7-19 13-14 9-22 14-5 1-1-4-4-1-1-9 3-4 8-4 2-2h3l2-5 6-2 9-8 8-6 18-13 10-7 6-4 6-3 11-8 21-13 10-7 14-9 15-11 11-8 11-7 12-9 9-6 10-7zm-184 141-3 3 1 4 2-5h2v-2z" fill="#FCFCFC"/>
<path transform="translate(522,798)" d="m0 0h9l5 2 3 1 1 5-2 1-1-3h-15l-3 3h-8l-23 6h-2v2l3 2v2h-6l1 2 4 1v2l-5 3h-2v2l-6-1-16 5-19 5-24 5-17 3-28 6-9 3-16 4-14 3-7 1-1 1-13 2-7 3-7 1-17 5-13 1-4-7v-9l3-3 8-2 9-3 15-3 16-5 2-1 8-1 7-2h4v-2l5 1 9-3 9-2 4-1h2l24-6 12-1 8-4 27-6 43-9 2-1 12-1 6-2 9-1 5-2h7z" fill="#FBFBFC"/>
<path transform="translate(1334,1069)" d="m0 0h5l6 5 3 1 2 4 6 5 5 5 9 10v2l5 2 8 7 21 21 8 6 6 7 7 8 12 12 9 6 21 21 4 6 6 4 5 10-11 12-3 1-8-7-11-11-1-3-11-9-2-4-4-2-3-5v-2l-4-2-9-7-8-8-8-5v-4l-5-2-5-5-5-6-4-3v-3l-5-2-5-4-3-6-6-4-3-5-7-4-22-22-4-2-3-5 2-4z" fill="#FCFCFC"/>
<path transform="translate(1591,519)" d="m0 0 4 1 3 5v12l-5 5-20 7-23 7-9 1-4 3-19 5-5 1-8 1v2l-4-1-9 3-8 3-8 2-10 3-4 1-10 3-7 1-8 3-17 5-10 3-16 2h-9l-7-1 1-3 11-6 4-4 13-4 25-10 7-2 15-5 13-6 11-2 37-13 24-7 15-5 7-2 6-3 12-3 11-1z" fill="#FBFCFC"/>
<path transform="translate(557,1069)" d="m0 0 5 1 4 4 1 2 5 2-1 7-5 5-5 2-17 17-8 6-25 25-1 3-5 3-14 14-6 7-8 7-42 42-8 5-3 3-5-1-6-7-1-4 6-10 25-25 8-7 54-54 5-3 7-8 4-2 1-4 8-6 3-5 5-3 10-10 8-5zm4 13v4h3l-1-4z" fill="#FCFCFC"/>
<path transform="translate(582,215)" d="m0 0 6 1 4 6 4 1 3 10v3l4 2 5 9 6 9 8 11 2 7 4 5 12 17 3 7 10 14 7 10 7 11 5 8 3 6 2 9 1 1v7l-9 9-4-1-5-6-9-12-10-16-1-4-5-5-5-10-5-6-6-11-8-11-3-5-1-4-6-6-4-8v-2h-4v-2l2-2-3-3-4-1-1-7-8-7v-3l-5-2-4-10-1-1v-9l3-3 6-3z" fill="#FCFCFC"/>
<path transform="translate(500,721)" d="m0 0h40l9 4 4 4-1 5-4 6-16-1-1-3-13-2-9-1v-2l7-1h15l-21-1h-2-6l-2 4-1 1-14 1-3 1v2l16 1 3 2-1 1-74 1h-27l-1 1-21 1h-56l-7-6-1-8 3-2 8-2 1 1h12l5-2 73-1 14-1 1 1h5l1-1 7-1h57zm-9 9v1h10v-1zm52 0m-10 1-1 3 2 1zm-101 4m102 0v1h13v-1z" fill="#FBFCFC"/>
<path transform="translate(1497,389)" d="m0 0 5 1 6 7 3 6-1 4-6 5-17 9-12 7-7 4-5 2-2 4-14 9-7 5-16 8-17 9-5 4-5 2-9 6-16 8-25 9-15 6h-3l-2-3 6-5 9-5 17-11 5-4 1-2 3 1-11 10-16 10-1 2 14-9 14-10 4-4 5-2-1-2-3-1 4-2h2l2-4h2v2h2l2-4 8-7 10-7 7-4 8-7 10-8 10-7 14-8 3-3 11-7 9-4 8-7zm-163 108-1 3 4-1 3-2z" fill="#FCFCFC"/>
<path transform="translate(1308,212)" d="m0 0 9 1 5 5 4 3-2 7-7 12-6 8-7 10-7 11-7 9-5 8-3 5-8 14-4 4-2 7-6 9-7 14-4 5-4 7-10 15-4 4-4-1-3-3-2-3-1 4-5-2 3-10 6-10 3-7 6-9 6-12 7-10 2-6 6-7 2-7 4-5 7-14 3-3 4-7 7-10 6-10 7-12 9-13z" fill="#FCFCFC"/>
<path transform="translate(1496,641)" d="m0 0h4l1 3-1 2-15 2v2h2v2l4-1 8 2 1 2 4 1 15 1-1 2-35 4-14 2-13 1-1 1-26 4-3 1-2-1-9 2-1-1h-7l-1 1h-31v2h-2v-2h-21v-3l9-5 2-6 4-3 12-4 25-2 1-1 12-1h3 10l6-1 12-1h3l3-1h14l10-2 12-1z" fill="#FBFBFB"/>
<path transform="translate(150,723)" d="m0 0h29l7 3v-2h15l6 1 91 1v2h5v-2l4 2 1 1 1 12-1 1h-7v2h-6l-5-1h-60l-17 1h-30l-9-1-22-1-3-3v-15z" fill="#FBFBFB"/>
<path transform="translate(826,755)" d="m0 0h5l4 6 1 10 2 3-3 4v5l8 6 21 6 6 4-1 5-10 4-16 4-4 5-3 2-1 19-4 8-4-2-5-17-2-10-4-5-9-3-16-3-1-1v-8l9-6 10-3 6-7 3-5 4-17z" fill="#FCFCFC"/>
<path transform="translate(1286,1175)" d="m0 0 5 1 9 12 6 10 5 6 8 16 5 9 7 10 7 11 5 6 3 7 2 9-3 4-9 3-8-5-4-5-3-5-7-11-3-7-5-6-4-8-9-14-6-9-8-9-8-10 1-4 9-9z" fill="#FCFCFC"/>
<path transform="translate(1067,758)" d="m0 0h4l2 10 1 1 2 10 5 8 2 2 12 1 6 2 5 1 4 4v5l-5 4-15 1-10 5-5 9-2 6-1 10-4 4-4-1-3-6-3-17-1-4-11-4-6-2-3-2-7-2-2-6 5-4 15-8 7-7 8-16z" fill="#FBFCFC"/>
<path transform="translate(605,1178)" d="m0 0 4 1 12 12v3l-5 5-3 6-8 8-3 7-8 11-6 10-8 11-4 4h-2l1 4-3 3-2 1-2 5-6 7-8 2 3-6-9-2h-3l-1-7 5-8 3-5 5-5 6-7 1-6 5-4 6-9 11-17 4-5 7-11 3-1 3-5z" fill="#FCFCFC"/>
<path transform="translate(600,1864)" d="m0 0h12l7 3-2 9-3 7-5-3-10-1-10 2 1 7h17l2 1v8h-18v9l8 1h12l3 3v15l-6 2h-7l2-2-3-1-30-1-1-1v-17l1-4-1-2v-25l3-7 10-1 4-1 1 1 11-1z" fill="#FBFBFB"/>
<path transform="translate(1316,1864)" d="m0 0 9 1 7 3 3 2v2l4 2 5 6 2 5v19l-4 8-6 7-7 4-4 1-2 2-1-3h-13l-5-5-8-6-4-11v-9l3-10 5-6 1-3 12-8zm1 17-5 4-4 9 1 5 5 8 4 3 6-1 5-5 2-10v-4l-2-7-4-2z" fill="#FAFAFB"/>
<path transform="translate(1251,1863)" d="m0 0 10 2 5 6 5 2-2 6-5 4-6-1-7-4-3 1 1 5 1 1 14 3 6 3 6 10-1 5 1 3-5 8-7 7-5 2-14 1 1-3-7-2-7-6-5-7 1-4 4-1h11l9 4 5-2 1-3-15-1-8-6-6-5v-10l4-9 6-5z" fill="#FAFAFB"/>
<path transform="translate(655,1864)" d="m0 0h7l8 4 5 7-1 5-4 3h-7l-6-2h-7v4l5 2 12 2 10 7 4 5v7l-7 8-2 4-5 1v3l-2 1h-17l-10-6-8-4-2-2 1-4 6-5 8 1 13 4 4-1v-4l-4-2-14-3-8-5-3-4 1-6 2-7 7-9 8-2 5-1z" fill="#FAFAFA"/>
<path transform="translate(289,986)" d="m0 0 3 1 4 10-1 5-4 4-5 3-7 4-5 2-8 3-8 2-9 6-5 1v2h-2v-2l-5 5-5 1-1-4h-6l-3-8 1-9 4-4h2v2h2l2-4 16-5 6-4 8-3h3l2-4 9-3z" fill="#FCFCFC"/>
<path transform="translate(355,639)" d="m0 0 9 1 8-1v2h15l4 2h7l3-1h8l1 1 9 1 1 1h5 3l3 1v-2l3 1h9l4 2h9l2 1 9 1 6 3 1-3 3 2 7 1v2l7-1 13 2h4v2l8 1v1h-20l-16-2-8-2-23-1-2-1-1 3h-6l1-2-2-1v2h-2v2l3 1h-8l-3-2v-2l-2 1-1 1h-11l-6-1h-26l-25-2-18-3-5-2v-2h5v-2l-9-1-1-2 10-1h13zm81 14 1 2z" fill="#FAFBFB"/>
<path transform="translate(707,1864)" d="m0 0h33l3 3 2 7v5l-8 3-8 1-1 41-2 1h-12l-1-1-1-41-10-1-8-2v-11l1-2 4-2z" fill="#FCFCFC"/>
<path transform="translate(1601,983)" d="m0 0h5l1 2 6 1 4 2 5-1 3 4v2l5-1v2l9 3 7 5 1 2 4-1v2l3 1v4l6 1 5 7v3l-21 3-2-2-3 1h-4l-5-3-9-1-8-7-9-3-3-3-5-4v-10l4-1-3-6z" fill="#FBFBFB"/>
<path transform="translate(500,721)" d="m0 0h40l9 4 4 4-1 5-4 6-16-1-1-3-13-2-9-1v-2l7-1h15l-21-1h-2-6l-2 4-1 1-14 1-3 1v2l16 1 3 2-1 1-73 1 2-4h5l3-1 1-5h7l1-2 8-1 19-2 11-2h14l1-1h-46l-18 1 1-2 7-1h57zm-9 9v1h10v-1zm52 0m-10 1-1 3 2 1zm1 4v1h13v-1z" fill="#E2E5E7"/>
<path transform="translate(1430,1875)" d="m0 0h11l9 3v2h-2l4 6v9l-4 6-3 3-4 5-5 2-9-1-8-5-7-8v-6l6-10z" fill="#FBFBFB"/>
<path transform="translate(1547,356)" d="m0 0h5l4 5 4 6 1 1 1 11-4 2v2l-4 4-6 8-7 4h-5l-4-4-6-14v-5l10-13 5-4z" fill="#FBFBFB"/>
<path transform="translate(461,1877)" d="m0 0h11l9 3 7 5 2 6-5 9h-2l-1 3-12 6h-9l-9-6-3-5-2-4 4-9 4-5z" fill="#FAFBFB"/>
<path transform="translate(1182,1867)" d="m0 0h14l8 5 2 5-4 1 3 7-2 1-6-4-9 1-4 2 2 2h8l3-2 3 2 1 7-2 7-7-1-8-2-6 3-3-1-5-12-1-13 2-4 5-1z" fill="#FBFBFB"/>
<path transform="translate(240,864)" d="m0 0 4 2 1 13-6 2h-2l-1 3-6 4-24 6-4-7v-11l12-6 8-3 12-2z" fill="#FBFCFC"/>
<path transform="translate(959,880)" d="m0 0 7 1 3 2v7l6 2 1 4h-4l-1 15-1 3-3 1-1 2h-5l-9-4-3-7-2-5v-12l4-5z" fill="#FBFBFB"/>
<path transform="translate(483,726)" d="m0 0 12 1v2l-2 1 8 1-2 3-14 1-3 1v2l16 1 3 2-1 1-73 1 2-4h5l3-1 1-5h7l1-2 8-1 19-2z" fill="#E1E5E6"/>
<path transform="translate(1357,801)" d="m0 0h15l1 1 7 1 5 1 12 2v2l-10 1v4l-4 1v3l10-1 1 3-3 5-19-3h-4l-16-5-1-1v-8zm20 8v2h6v-2zm-4 4v2l3-1z" fill="#F8F9F9"/>
<path transform="translate(1133,1870)" d="m0 0 7 1 1 1 1 27 1 4v4l1 2v6l5 1v4l-18 1-5-1v-2l5-1-3-4-1-5v-8l4 1 2 1v-27h-5v-3zm-2 40 1 3z" fill="#F8F9F9"/>
<path transform="translate(1496,641)" d="m0 0h4l1 3-1 2-15 2v2h2v2l4-1 8 2 1 2 4 1 15 1-1 2-35 4-2-1v-2l-3-1h-8l-5-2 1-4-2-4-8-1v-2l16-2 6-1 12-1z" fill="#E0E4E6"/>
<path transform="translate(1578,631)" d="m0 0h2l2 3 3 1-1 3-9 3-5 2-5-1h-11l-1 1h-9l-12 2-1 1-14-1v-2l-9 1-1-4 7-2 11-1 1-1 17-1h18l16-3zm-33 8 4 2 5-1v-1zm-25 3v1h7v-1z" fill="#E3E7E8"/>
<path transform="translate(916,880)" d="m0 0h20l1 1v11l-2 2-5 2-2 5h-10l-3-2v-18z" fill="#FDFDFD"/>
<path transform="translate(1176,1907)" d="m0 0 7 2h17v-2h3l4 10-1 3-9 3-2-2h-16l-3 2-3-3 1-8z" fill="#F9FAFA"/>
<path transform="translate(921,392)" d="m0 0 11 1 64 1v1l-13 1-77 1-44 2-4-1 5-3 7-1h17l9-1z" fill="#E0E4E6"/>
<path transform="translate(1483,648)" d="m0 0h2v2h2v2l4-1 8 2 1 2 4 1 15 1-1 2-18 2h-13l1-4h-6l-2-4v-4z" fill="#FEFEFE"/>
<path transform="translate(531,476)" d="m0 0 4 1 5 3 5-1 4 4 15 10 5 3v9h-9v-1l7-1v-6h-7l-6-2 2-2-17-7-8-8z" fill="#E0E4E6"/>
<path transform="translate(443,723)" d="m0 0h82v2l-15 1-1 2-1 1h-6l-1 2-8-1 2-1v-2l4-2h-46l-18 1 1-2z" fill="#E2E6E8"/>
<path transform="translate(952,935)" d="m0 0 19 1 1 2 4 1v2l-3 3-5 1h-16l-2-1 1-8z" fill="#F8F9F9"/>
<path transform="translate(1536,723)" d="m0 0h36l3 2-1 1h-69l-3-2h21z" fill="#E0E4E6"/>
<path transform="translate(1245,1718)" d="m0 0h51l-2 2-6 1h-69v-1z" fill="#E0E4E6"/>
<path transform="translate(952,920)" d="m0 0h9l6 2 1 2v6l-1 1h-15l-1-9z" fill="#F9F9FA"/>
<path transform="translate(72,1562)" d="m0 0 2 1 6 23-1 3-3-7-1 5-1 34-2 1z" fill="#E0E4E6"/>
<path transform="translate(370,1543)" d="m0 0h2l4 21 6 21 1 5h-2l-5-14-4-16-1-10h-1l-4 14-6 16-1-3 10-32z" fill="#E0E4E6"/>
<path transform="translate(474,649)" d="m0 0 3 2 7 1v2l7-1 13 2h4v2l8 1v1h-20l-16-2-3-3-4-2z" fill="#E7EAEC"/>
<path transform="translate(1365,474)" d="m0 0 3 1-11 10-16 10-1 2 4-3 2 1-3 4-4 2-9 4-3-4 6-5 9-5 17-11 5-4zm-31 23-1 3 4-1 3-2z" fill="#EBEDEE"/>
<path transform="translate(852,497)" d="m0 0h27l20 1 48 1v1h-74l-21-2z" fill="#E0E4E6"/>
<path transform="translate(787,1327)" d="m0 0h49l-1 3h-38l-10-2z" fill="#E0E4E6"/>
<path transform="translate(998,1896)" d="m0 0h12l6 1 2-1v2l5-1 10 2h6v2l9 1 9 2 4 5-1 4-2-4-3-3-57-9z" fill="#E0E4E6"/>
<path transform="translate(589,1895)" d="m0 0h12v1l-10 1v9l8 1h12l3 3v15l-6 2h-7l2-2-3-2h9l4 1-1-11-1-3-22-1-1-3z" fill="#E0E4E6"/>
<path transform="translate(1268,656)" d="m0 0 3 3 1 30 2 21v31h-1l-4-69z" fill="#E0E4E6"/>
<path transform="translate(928,1974)" d="m0 0h1l4 23 6 25-1 2h-3l-2-3-1-18-3-6-1-8z" fill="#E0E4E6"/>
<path transform="translate(1171,1871)" d="m0 0 4 2-1 3 2 18 2 3 3 2-5 2-6-13-1-13z" fill="#E0E4E6"/>
<path transform="translate(963,829)" d="m0 0 24 1 1 1 12 2 10 5 6 7-1 4-2-3-3-5-10-5-6-2-9-1-23-1z" fill="#E0E4E6"/>
<path transform="translate(1432,741)" d="m0 0h16l20 1v1l-12 1h-40l-4-2z" fill="#E0E4E6"/>
<path transform="translate(1284,943)" d="m0 0 3 3v66h-1z" fill="#E0E4E6"/>
<path transform="translate(955,1848)" d="m0 0 2 1 2 10 3 8 1 8 8-7 9-9 3 1-13 12-6 7-2-1-6-21z" fill="#E0E4E6"/>
<path transform="translate(1281,1088)" d="m0 0h1v7l-5 11-9 19-9 14-5 4 2-4 10-16 11-23z" fill="#E0E4E6"/>
<path transform="translate(872,1101)" d="m0 0h23l30 2v1h-37l-4-1-3 1-9-2z" fill="#E0E4E6"/>
<path transform="translate(1381,813)" d="m0 0 2 1v3l10-1 1 3-3 5-15-2 4-2-2-5z" fill="#F5F6F6"/>
<path transform="translate(813,293)" d="m0 0 18 1 1 1 1 20v27l-2 3h-5l5-4v-20l-1-26h-16z" fill="#E0E4E6"/>
<path transform="translate(1099,81)" d="m0 0 5 3 10 15 8 16v6l-2-3-8-16-10-15-3-4z" fill="#E0E4E6"/>
<path transform="translate(729,1880)" d="m0 0h11l-3 2-8 1-1 41h-1l-1-13v-13l1-17z" fill="#E0E4E6"/>
<path transform="translate(1108,363)" d="m0 0h1l1 16 1 3v14l-1 7-1 17h-1z" fill="#E0E4E6"/>
<path transform="translate(1279,839)" d="m0 0 2 2 1 3v48h-1l-2-43z" fill="#E0E4E6"/>
<path transform="translate(916,880)" d="m0 0h20l1 1v11l-4 2 2-12h-17l-1 1v17l-2-1v-18z" fill="#E0E4E6"/>
<path transform="translate(930,1845)" d="m0 0h1l-1 11-4 23h-4l-3-4 1-2 4 1 3-12 1-16z" fill="#E0E4E6"/>
<path transform="translate(205,1560)" d="m0 0 2 1-1 18-3-1-3 1 1-8 3-10z" fill="#E0E4E6"/>
<path transform="translate(697,1880)" d="m0 0h17v43h-1l-1-40-10-1-5-1z" fill="#E0E4E6"/>
<path transform="translate(944,1485)" d="m0 0 3 4v44l-2 2v-36z" fill="#E0E4E6"/>
<path transform="translate(1020,500)" d="m0 0h19l11 1-1 2h-27z" fill="#E0E4E6"/>
<path transform="translate(983,908)" d="m0 0h1v18l-1 13-3-3 1-18z" fill="#E0E4E6"/>
<path transform="translate(792,274)" d="m0 0 3 3 3 9v29l-4 1 2-2v-22l-4-15z" fill="#E0E4E6"/>
<path transform="translate(1507,640)" d="m0 0 19 1v4h-9v-2l-9 1z" fill="#FBFBFB"/>
<path transform="translate(1013,1342)" d="m0 0h12l-1 2-15 3-15 1 1-2 13-2z" fill="#E0E4E6"/>
<path transform="translate(295,997)" d="m0 0 1 4-5 5-5 3-7 4-5 2-1 1h-5l4-3 14-7 7-6h2z" fill="#E0E4E6"/>
<path transform="translate(794,263)" d="m0 0h1l2 9 6 14-5-2-6-15 1-4z" fill="#E0E4E6"/>
<path transform="translate(421,239)" d="m0 0h6l2 3-8 2-6 4-3-4h2l1-3z" fill="#E0E4E6"/>
<path transform="translate(342,359)" d="m0 0 3 1-6 4-6 7v6l1 3-4-1v-7l4-8z" fill="#E0E4E6"/>
<path transform="translate(942,1806)" d="m0 0 2 1-4 5-5 18-2-4 1-8 6-10z" fill="#E1E4E6"/>
<path transform="translate(1077,1014)" d="m0 0 3 1-17 9-1 2h7v1h-14v-2z" fill="#E0E4E6"/>
<path transform="translate(1263,571)" d="m0 0 3 2v33h-1l-2-29z" fill="#E0E4E6"/>
<path transform="translate(1098,251)" d="m0 0 2 4-1 15-3 8-6 6-3-1 5-5 4-6 1-4z" fill="#E0E4E6"/>
<path transform="translate(875,1852)" d="m0 0 2 2 5 10 8 11 4 5-1 2-8-9-8-13-2-3z" fill="#E0E4E6"/>
<path transform="translate(500,723)" d="m0 0h25v2l-15 1-1 2-4-3-5-1z" fill="#FEFEFE"/>
<path transform="translate(1652,877)" d="m0 0 5 1 6 2 1 3h-2v2l-7-2-6-4z" fill="#E6E9EB"/>
<path transform="translate(615,1866)" d="m0 0 4 1-2 9-3 7-5-3-8-1v-1h11l2 1 1-10z" fill="#E0E4E6"/>
<path transform="translate(1496,641)" d="m0 0h4l1 3-1 2-15 2 3-3h3l-1-3z" fill="#F0F2F3"/>
<path transform="translate(262,1727)" d="m0 0 7 6 6 5 5 3 9 3 1 2-11-3-6-3-11-11z" fill="#E0E4E6"/>
<path transform="translate(1127,1900)" d="m0 0 4 1 1 5-1 7h-3l-1-5z" fill="#E0E4E6"/>
<path transform="translate(786,1189)" d="m0 0 2 1-18 18h-2l2-4 9-9z" fill="#E0E4E6"/>
<path transform="translate(895,329)" d="m0 0 4 2 4 7v2h-8l1-5z" fill="#E0E4E6"/>
<path transform="translate(863,304)" d="m0 0h1l1 33 5 3v1h-6l-1-1z" fill="#E0E4E6"/>
<path transform="translate(1246,1151)" d="m0 0v3l-9 10-6 6-3-1 6-6h2v-2h2v-2h2l2-4z" fill="#E0E4E6"/>
<path transform="translate(1083,63)" d="m0 0 5 2 8 9 2 6-5-4-8-10z" fill="#E0E4E6"/>
<path transform="translate(1768,1508)" d="m0 0 4 1-7 2-5 2-9 2-6 4 1-4 10-4z" fill="#E0E4E6"/>
<path transform="translate(826,1021)" d="m0 0 10 3 4 2v2l-16 1 1-2 7-2-5-2z" fill="#E0E4E6"/>
<path transform="translate(1131,507)" d="m0 0h3l-1 21-2 1z" fill="#E0E4E6"/>
<path transform="translate(1702,1699)" d="m0 0h6l6 5 2 4-1 7-2 1v-7l-3-5-8-4z" fill="#E0E4E6"/>
<path transform="translate(1178,1218)" d="m0 0 6 1 6 4 7 8 2 4-1 3-6-10-9-7-5-2z" fill="#E0E4E6"/>
<path transform="translate(1211,452)" d="m0 0 5 2 17 17-1 2-15-15-6-5z" fill="#E0E4E6"/>
<path transform="translate(885,215)" d="m0 0h14l-3 2-9 1h-12l3-2z" fill="#E0E4E6"/>
<path transform="translate(1470,1473)" d="m0 0 2 2-2 1-4 8-9-3-3-2h7l4 1 2-2 1-4z" fill="#E0E4E6"/>
<path transform="translate(242,865)" d="m0 0 2 1 1 13-5 1-2-1 3-5z" fill="#E0E4E6"/>
<path transform="translate(522,798)" d="m0 0h9l5 2 3 1 1 5-2 1-1-3-5-3-11-1z" fill="#E0E4E6"/>
<path transform="translate(989,1380)" d="m0 0h22v1l-11 1-1 1h-9z" fill="#E0E4E6"/>
<path transform="translate(1286,1062)" d="m0 0h1v15h-2v8l-1 3h-2l1-8 2-9z" fill="#E0E4E6"/>
<path transform="translate(1601,983)" d="m0 0h5l1 2 6 1 4 2-3 1-15-3-1 2-1-3z" fill="#E0E4E6"/>
<path transform="translate(932,774)" d="m0 0 7 6 6 6 8 1v1h-9l-9-8-3-4z" fill="#E0E4E6"/>
<path transform="translate(1643,1612)" d="m0 0h7v29h-1l-1-26-5-2z" fill="#E0E4E6"/>
<path transform="translate(1228,1076)" d="m0 0 1 4-7 17-4 2 2-5 5-10z" fill="#E0E4E6"/>
<path transform="translate(1064,342)" d="m0 0 25 1 4 3-7-1h-18l-4 1z" fill="#E0E4E6"/>
<path transform="translate(278,1449)" d="m0 0 3 1 3 7v5l-3 3-8 2 3-3 6-3-1-5z" fill="#E0E4E6"/>
<path transform="translate(446,647)" d="m0 0h10l2 1 9 1-1 2h-9l-1-1-10-1z" fill="#E0E4E6"/>
<path transform="translate(139,1622)" d="m0 0 2 1 1 4 3-5 1 3-3 9-2-1-2-7z" fill="#E0E4E6"/>
<path transform="translate(1396,1511)" d="m0 0 2 1-10 9-7 6 2-4 7-8z" fill="#E0E4E6"/>
<path transform="translate(1346,493)" d="m0 0m-2 1 2 1-3 4-8 4h-4v-2l12-6z" fill="#F1F3F3"/>
<path transform="translate(1335,495)" d="m0 0h5v2l-6 1-1 3h-2l1 3h-3l-2-3 6-5z" fill="#E0E4E6"/>
<path transform="translate(1106,162)" d="m0 0 2 3 3 13v6l-2-1-1-9-2-4z" fill="#E0E4E6"/>
<path transform="translate(1430,1875)" d="m0 0h11l9 3v2h-2l1 4-7-6-12-2z" fill="#E0E4E6"/>
<path transform="translate(816,1278)" d="m0 0 24 1v1l-24 2z" fill="#E0E4E6"/>
<path transform="translate(988,783)" d="m0 0 1 4-6 11-7 6 2-4 7-10z" fill="#E0E4E6"/>
<path transform="translate(534,736)" d="m0 0h12l-2 3h-12z" fill="#E4E7E9"/>
<path transform="translate(1505,657)" d="m0 0h14l-1 2-18 1 4-2z" fill="#E0E4E6"/>
<path transform="translate(1744,1519)" d="m0 0h1v9l-2 2-2 7-2 1 4-16z" fill="#E0E4E6"/>
<path transform="translate(333,1476)" d="m0 0h30v1l-28 1-3 1z" fill="#E0E4E6"/>
<path transform="translate(859,1124)" d="m0 0 2 1 1 5h21v1h-22l-2-1z" fill="#E0E4E6"/>
<path transform="translate(800,129)" d="m0 0 1 4-5 12-3 3 1-5 5-12z" fill="#E0E4E6"/>
<path transform="translate(829,89)" d="m0 0 1 2-7 8-7 6 2-4 7-8z" fill="#E0E4E6"/>
<path transform="translate(936,1380)" d="m0 0h16v2l-15 1z" fill="#E0E4E6"/>
<path transform="translate(1093,346)" d="m0 0 6 1 5 4 3 6-1 3-6-9-7-4z" fill="#E0E4E6"/>
<path transform="translate(291,1624)" d="m0 0 5 3 9 9-1 2-13-12z" fill="#E0E4E6"/>
<path transform="translate(1205,1116)" d="m0 0v3l-4 5-8 7-2-1z" fill="#E0E4E6"/>
<path transform="translate(1648,1667)" d="m0 0h1v20l-3-1z" fill="#E0E4E6"/>
<path transform="translate(777,1290)" d="m0 0h12l2 2-13 1z" fill="#EAECEE"/>
<path transform="translate(504,655)" d="m0 0h4v2l8 1v1h-14v-3z" fill="#E1E5E7"/>
<path transform="translate(489,655)" d="m0 0 5 1h8v3l-11-1-2-1z" fill="#FEFEFE"/>
<path transform="translate(811,548)" d="m0 0h1v27h-1l-2-8 1-1z" fill="#E0E4E6"/>
<path transform="translate(933,1830)" d="m0 0 1 4-2 10-2-1v-8z" fill="#E0E4E6"/>
<path transform="translate(1883,1464)" d="m0 0 5 1v16h-1l-2-12z" fill="#E0E4E6"/>
<path transform="translate(1381,813)" d="m0 0 2 1v3l6-1 2 2-11 2-2-5z" fill="#E1E4E6"/>
<path transform="translate(484,444)" d="m0 0 4 2 4 5-1 3-4-5-3-2-1 3z" fill="#E1E4E6"/>
<path transform="translate(968,890)" d="m0 0 7 2 1 4h-4l-1 7h-1v-10l-2-1z" fill="#E0E4E6"/>
<path transform="translate(368,639)" d="m0 0h4v2h15v1h-17l-6-1z" fill="#E0E4E6"/>
<path transform="translate(882,244)" d="m0 0h15v1l-7 2h-6z" fill="#E0E4E6"/>
<path transform="translate(1577,1577)" d="m0 0 12 1 2 2h-14z" fill="#E0E4E6"/>
<path transform="translate(1202,1294)" d="m0 0 1 2 5 2 10 3 1 2-13-3-4-3z" fill="#E0E4E6"/>
<path transform="translate(238,1027)" d="m0 0 2 1-3 4-5 1-1-4z" fill="#E0E4E6"/>
<path transform="translate(1534,955)" d="m0 0h7l11 6-3 1-15-6z" fill="#E0E4E6"/>
<path transform="translate(1514,638)" d="m0 0h10l-1 3h-8l-6-1v-1z" fill="#E1E4E6"/>
<path transform="translate(1075,1249)" d="m0 0h2l1 3-1 1h-20v-1h18z" fill="#E0E4E6"/>
<path transform="translate(423,665)" d="m0 0h10l7 1v1h-17z" fill="#E0E4E6"/>
<path transform="translate(1443,1508)" d="m0 0 5 2 6 7-1 2-4-4v-2l-4-2z" fill="#E0E4E6"/>
<path transform="translate(1871,1465)" d="m0 0 2 1-8 8-4 1 6-7z" fill="#E0E4E6"/>
<path transform="translate(251,1022)" d="m0 0 3 1-8 4h-2v2h-2v-2l-2-1z" fill="#E0E4E6"/>
<path transform="translate(525,883)" d="m0 0h8l4 3v2l-3 1-2-5-8 1z" fill="#E0E4E6"/>
<path transform="translate(1652,877)" d="m0 0 5 1 1 2h-2v2l-6-2-1-2z" fill="#E9ECED"/>
<path transform="translate(546,971)" d="m0 0 1 4-3 4-2-1z" fill="#E0E4E6"/>
<path transform="translate(479,670)" d="m0 0 8 1v1h-8z" fill="#E0E4E6"/>
<path transform="translate(594,273)" d="m0 0 4 2v2l-3-1z" fill="#E0E4E6"/>
<path transform="translate(978,908)" d="m0 0 3 2v2l-3-1z" fill="#E0E4E6"/>
<path transform="translate(1012,1248)" d="m0 0 3 1v2h-2z" fill="#E0E4E6"/>
<path transform="translate(328,657)" d="m0 0h5l-1 2z" fill="#E0E4E6"/>
<path transform="translate(1577,1330)" d="m0 0 3 1-3 1z" fill="#E0E4E6"/>
<path transform="translate(1622,1314)" d="m0 0 4 2-4-1z" fill="#E0E4E6"/>
<path transform="translate(1123,984)" d="m0 0h2v2l-3-1z" fill="#E0E4E6"/>
<path transform="translate(976,902)" d="m0 0 2 1v2h-2z" fill="#E0E4E6"/>
<path transform="translate(1599,1354)" d="m0 0 2 1-1 2z" fill="#E0E4E6"/>
<path transform="translate(1618,1308)" d="m0 0 1 3-2-1z" fill="#E0E4E6"/>
<path transform="translate(293,1308)" d="m0 0 2 1-1 2z" fill="#E0E4E6"/>
<path transform="translate(490,821)" d="m0 0v3z" fill="#F6F7F8"/>
<path transform="translate(487,735)" d="m0 0h2v2h-2z" fill="#FEFEFE"/>
<path transform="translate(1591,646)" d="m0 0 2 1h-3z" fill="#E7EAEC"/>
<path transform="translate(330,637)" d="m0 0 4 1z" fill="#E0E4E6"/>
<path transform="translate(1594,631)" d="m0 0 4 1z" fill="#E0E4E6"/>
<path transform="translate(522,469)" d="m0 0 4 1z" fill="#E0E4E6"/>
<path transform="translate(1325,1887)" d="m0 0h2l-1 2z" fill="#E0E4E6"/>
<path transform="translate(1029,1333)" d="m0 0 3 1z" fill="#E0E4E6"/>
<path transform="translate(1613,1013)" d="m0 0 1 2-2-1z" fill="#E0E4E6"/>
<path transform="translate(451,669)" d="m0 0 3 1z" fill="#E0E4E6"/>
<path transform="translate(426,656)" d="m0 0 3 1z" fill="#FEFEFE"/>
<path transform="translate(333,656)" d="m0 0h2l-1 2z" fill="#E0E4E6"/>
<path transform="translate(310,640)" d="m0 0" fill="#E0E4E6"/>
<path transform="translate(503,458)" d="m0 0h2l-1 2z" fill="#E0E4E6"/>
<path transform="translate(495,453)" d="m0 0h2l-1 2z" fill="#E0E4E6"/>
<path transform="translate(455,418)" d="m0 0h2l-1 2z" fill="#E0E4E6"/>
<path transform="translate(429,280)" d="m0 0 2 1-2 1z" fill="#E0E4E6"/>
<path transform="translate(1035,1898)" d="m0 0 2 1z" fill="#E0E4E6"/>
<path transform="translate(1725,1710)" d="m0 0 2 1z" fill="#E0E4E6"/>
<path transform="translate(280,1354)" d="m0 0" fill="#E0E4E6"/>
<path transform="translate(1616,1312)" d="m0 0" fill="#E0E4E6"/>
<path transform="translate(239,1030)" d="m0 0 2 1z" fill="#E0E4E6"/>
<path transform="translate(971,932)" d="m0 0" fill="#E0E4E6"/>
<path transform="translate(971,915)" d="m0 0" fill="#E0E4E6"/>
<path transform="translate(240,880)" d="m0 0" fill="#E0E4E6"/>
<path transform="translate(1246,839)" d="m0 0" fill="#FEFEFE"/>
<path transform="translate(522,820)" d="m0 0 2 1z" fill="#E0E4E6"/>
<path transform="translate(505,731)" d="m0 0 2 1z" fill="#FEFEFE"/>
<path transform="translate(349,660)" d="m0 0" fill="#E0E4E6"/>
<path transform="translate(341,660)" d="m0 0 2 1z" fill="#E0E4E6"/>
<path transform="translate(317,649)" d="m0 0 2 1z" fill="#E0E4E6"/>
<path transform="translate(1503,642)" d="m0 0 2 1z" fill="#E0E4E6"/>
<path transform="translate(294,640)" d="m0 0" fill="#E0E4E6"/>
<path transform="translate(309,638)" d="m0 0" fill="#E0E4E6"/>
<path transform="translate(1585,634)" d="m0 0 2 1z" fill="#E0E4E6"/>
<path transform="translate(447,583)" d="m0 0 2 1z" fill="#FEFEFE"/>
<path transform="translate(353,399)" d="m0 0 2 1z" fill="#E0E4E6"/>
<path transform="translate(1017,304)" d="m0 0" fill="#E0E4E6"/>
<path transform="translate(825,99)" d="m0 0 2 1z" fill="#E0E4E6"/>
<path transform="translate(953,2020)" d="m0 0" fill="#E0E4E6"/>
<path transform="translate(435,1894)" d="m0 0" fill="#E0E4E6"/>
<path transform="translate(269,1358)" d="m0 0" fill="#E0E4E6"/>
<path transform="translate(1619,1337)" d="m0 0" fill="#E0E4E6"/>
<path transform="translate(1587,1337)" d="m0 0" fill="#E0E4E6"/>
<path transform="translate(1586,1336)" d="m0 0" fill="#E0E4E6"/>
<path transform="translate(1585,1335)" d="m0 0" fill="#E0E4E6"/>
<path transform="translate(1035,1332)" d="m0 0" fill="#E0E4E6"/>
<path transform="translate(269,1286)" d="m0 0" fill="#E0E4E6"/>
<path transform="translate(276,1285)" d="m0 0" fill="#E0E4E6"/>
<path transform="translate(270,1285)" d="m0 0" fill="#E0E4E6"/>
<path transform="translate(416,1227)" d="m0 0" fill="#E0E4E6"/>
<path transform="translate(546,985)" d="m0 0" fill="#E0E4E6"/>
<path transform="translate(976,938)" d="m0 0" fill="#E0E4E6"/>
<path transform="translate(977,937)" d="m0 0" fill="#FEFEFE"/>
<path transform="translate(947,928)" d="m0 0" fill="#E0E4E6"/>
<path transform="translate(948,918)" d="m0 0" fill="#E0E4E6"/>
<path transform="translate(980,900)" d="m0 0" fill="#E0E4E6"/>
<path transform="translate(976,898)" d="m0 0" fill="#E0E4E6"/>
<path transform="translate(504,813)" d="m0 0" fill="#E0E4E6"/>
<path transform="translate(316,648)" d="m0 0" fill="#E0E4E6"/>
<path transform="translate(315,647)" d="m0 0" fill="#E0E4E6"/>
<path transform="translate(1448,645)" d="m0 0" fill="#FEFEFE"/>
<path transform="translate(1602,644)" d="m0 0" fill="#E0E4E6"/>
<path transform="translate(295,642)" d="m0 0" fill="#E0E4E6"/>
<path transform="translate(297,637)" d="m0 0" fill="#E0E4E6"/>
<path transform="translate(299,636)" d="m0 0" fill="#E0E4E6"/>
<path transform="translate(927,509)" d="m0 0" fill="#E0E4E6"/>
<path transform="translate(905,509)" d="m0 0" fill="#E0E4E6"/>
<path transform="translate(926,508)" d="m0 0" fill="#E0E4E6"/>
<path transform="translate(924,507)" d="m0 0" fill="#E0E4E6"/>
<path transform="translate(860,458)" d="m0 0" fill="#E0E4E6"/>
<path transform="translate(498,455)" d="m0 0" fill="#E0E4E6"/>
<path transform="translate(394,388)" d="m0 0" fill="#E0E4E6"/>
<path transform="translate(887,307)" d="m0 0" fill="#E0E4E6"/>
<path transform="translate(600,283)" d="m0 0" fill="#E0E4E6"/>
<path transform="translate(599,282)" d="m0 0" fill="#E0E4E6"/>
<path transform="translate(817,107)" d="m0 0" fill="#E0E4E6"/>
<path transform="translate(818,106)" d="m0 0" fill="#E0E4E6"/>
<path transform="translate(819,105)" d="m0 0" fill="#E0E4E6"/>
</svg>
