<?xml version="1.0" encoding="UTF-8"?>
<svg version="1.1" viewBox="0 0 800 892" width="1280" height="1280" xmlns="http://www.w3.org/2000/svg">
<path transform="translate(400,31)" d="m0 0 22 2 19 4 19 7 17 9 12 8 9 7 13 11 15 15 9 11 10 13 15 23 14 25 10 21 11 27 12 36 10 38 1 5 6-2 5-3 2 1-11 8v7l3 14v6l-2-4-4-19-9 5-18 13-20 14-12 8 1 4 2 4 5-1 32-16 1 2-24 14-10 5 2 6 2 3 5-1 50-23 30-13 1 2-27 14-33 15-21 10-1 5 2 6 35-12 4 1-11 5-21 8-6 1 5 10 31-8 37-10 18-4 3 1-27 9-47 13-11 3h-3l3 11 30-5h8l-3 2-32 7-2 2 2 10 15-3 58-6h16l-1 2-31 4-36 4-15 3 31 7 78 16 2 2-6 2-25 6-40 8-12 3-2 2-15 1-19 4 1 3 37 9 40 10 8 3-4 1-70-15-12-3-2 11 30 10 5 2-4 1-32-9-3 9v2l10 3 36 15 27 12 5 4-5-1-24-9-30-12-22-9-3 11 5 2 23 12 4 4-6-2-16-7-11-5-3 3-2 3 1 4 12 7 41 26 13 9 2 3-6-2-29-17-34-21-4-1-4 7v2l19 14 5 6-5-2-12-8-10-6-5 5-1 3 13 12 11 9 8 8 10 8 18 18h-3l-13-11-11-9-15-13-14-12-6-5-4-1-2 5-2 1 2 5 16 16v2l-4-2-5-3 4 6 5 4 65 65 7 5h2l7-28 2-2 1 1 2 14 4 16 9-6 10-11 13-19 7-10 12-21 12-26 9-24 7-24 6-29 4-31 1-4-12-6-4-7v-10l4-7 6-5 3-1h8l8 4 5 8v10l-4 6-7 6h-3l-1 17-5 32-5 22-7 23-8 21-14 29-12 21-14 20-8 10-12 16-1 3 28 6v2l-14 4-14 3v2l7 9 64 64 5-1 3-1h8l8 3 5 4 1 4-4 1-10 2-5 3-5 10 1 8h-4l-6-7-3-6v-8l3-5-1-4-61-61-8-7-3-2v-2h-2l-4 17-2 13h-3l-2-5-4-23h-2l-14 10-20 15-19 12-16 10-4 5-4 8-13 19-8 10-11 13-21 21-13 10-14 9-15 8-19 7-16 4-10 1h-27l-19-3-21-7-17-8-18-12-10-8-12-11-8-8-7-8-11-13-13-18-12-20-9-16-12-25-11-27-12-36-8-30-5-20-3-20-3-18v-6l-12 4-3-1 13-6 1-3-2-14-1-20h1l4 30 2 4 24-11 21-10 3-1-2-9-1-2-16 4-7 1 4-3 17-6-2-10-2-2-29 8-32 8-10 1 3-2 26-8 42-12-3-10h-8l-13 3-3-1 12-5 7-3-32-6-12-1-1 1-23-1-1-2h7l7-2-53-11-4-2 2-2 69-14 17-4 2-1-8-1-36-2-3-2h39l22 1 14-1v-9l-12-3-12-2v-2l14 1 11 1 3-10-11-3-56-14-10-3v-1l11 1 38 8 25 6h4l2-5-1-5-23-10v-1l8 1 17 6h2l4-8-1-3-36-15-23-10-11-6 3-1 34 13 34 14 4 1 2-5 1-5-18-10-6-4 1-2 21 10 3 2h3l4-6v-3l-23-15-22-14-16-11-4-4 6 2 11 6 28 17 22 14 4-1 4-6-5-5-14-11-4-5 5 2 14 10 8 4 2-4-10-15-7-8-11-9-16-16-6-5h3l4 2-11-12-26-26-9-7h-2l-7 28-2 1-7-29h-2l-7 6h-2l-2 4-9 11-12 17-12 20-12 23-10 24-8 24-6 24-5 29-2 18-1 5 9 4 5 5 2 4v10l-3 6-6 5-12 1-8-4-4-5-1-3v-10l7-9 6-4 2-12 2-20 5-26 7-26 6-17 11-26 13-25 14-22 14-18 8-11 7-11-13-1-17-4v-2l13-3 16-3-3-6-7-9-61-61-6 1-4 2h-6l-10-5-4-5v-3l12-1 6-4 4-5 1-7v-5l5 1 6 7 1 2v11l-2 6 7 8 22 22 6 5 6 7 6 5 7 8 11 11 9 7 2-4 4-18 1-7h3l6 27v3l16-11 11-9 19-13 18-11 14-8 20-9 24-9 24-7 29-6 38-5 3-1 4-6 9-6v-17l-9 2-10 6-8 9-3 3 1-5 4-6 5-5 9-6 11-3v-9l-5-6-1-5 6-6v-11l-13 1-20 4-15 5-16 8-12 7-14 10-12 11-3 1v2l-7 6-7 8-8 8-6 7v-3l14-17 25-25 14-10 13-8 16-8 16-6 24-5zm4 4v12l5 6-1 6-4 5v9l8 3 9 4 6 4 6 8v3l-7-8-9-6-10-4-3 1-1 17 10 5 4 8-1 8-5 7-7 3-8-1-7-6-3-9-13 1-31 5-27 6-26 8-27 11-16 8-18 10-21 14-12 9-10 9-7 8v2l-2 1 5 2 26 5v2l-9 1-20 4 1 5 8 10 6 6h2l1 3 6 5 6 7 7 6 5 5 7 8 7 6 5 6h2v2h2v2l6 5 6 7 15 11 5 2v-4l-10-11-7-9 5 4 3 1 2 4h2l2 4h2l2 4 3 2 9-6-2-5-13-15-7-9-13-16-13-17-1-2h2l2 4 14 15 8 10 12 14 11 13 2 3h5l6-5-2-4-11-17-5-8 8 9 10 14 3 3 5-1 4-3-1-5-15-27-14-25-8-16 7 11 16 26 12 21 7 12 9-3 1-5-12-28 6 10 10 20 5-1 6-3-8-23-12-33-8-24 7 15 12 30 6 17 6 16 2 1 9-3-1-9-6-24v-3l8 25 3 10 9-1 2-1-1-11-7-36-7-40 5 18 7 34 6 29 2 4h2l7-39 8-36 7-33v-7l3 3 10 48 10 47 3 16 2 3h3l9-59 4-23 2-7-9 73-2 11v5l8 3 3-1 7-26 4-12-7 34v6l10 3 7-21 8-25 10-30 5-11-15 50-11 36 1 3 9 3 14-31 3-6-4 13-9 22 1 5 6 3h3l24-48 10-19 8-14-4 11-11 22-11 23-10 19-3 5 1 4 8 4 4-4 11-18 8-11-2 5-10 17-7 11 2 4 5 4h3l7-11 10-13 21-28 10-13 6-7-10 16-11 15-14 19-10 14-7 9 2 4 7 4 7-7 8-10 11-11-4 6-11 13-7 9-1 5 5-1 13-8 11-7 10-9 12-12 8-7 12-11 4-3-1-9-11-31-9-21-9-20-13-23-11-18-13-18-11-13-9-10-11-11-14-11-14-10-25-13-19-6-16-3zm-2 130-4 15-16 76-2 9v4l14-3 3-1h9l15 4h3l-2-13-8-38-9-42-2-11zm-241 19-2 16-6 1 1 5-11 1-6 2v2l2 1 14 1v5l5 1 3 16 3-4 6-12 3-5 15-2v-3l-7-2-9-1v-5l-3-1-4-9-2-7zm441 70-7 8-8 8v2l-4 2-7 7v2l-4 2-23 23-6 9-3 5 4 5 4-1 7-6 13-10 9-7-4 5-14 12-11 9 1 4 4 5 4-1 24-16 11-8 15-10 7-4 2-5-10-37-2-3zm-204 13-15 5-37 10-10 3 5 5 23 15 15 10 22 15 4-1 63-42-1-2-43-12-21-6zm-25 0-29 7-24 10-16 9-17 12-9 8 5 5 11 7h3l8-10 13-16 11-14 5-1v-2l9-2 30-8 3-1-2-4zm55 1 1 3 42 12 4 2 10 13 9 10 11 9h2v2l4 3 6-1 8-6-2-4-10-9-15-10-18-10-20-8-24-6zm-95 19-4 10-17 41-1 3v10l4 21 2 13h4l11-7 28-19 12-8 19-13 8-6-4-4-11-7-37-25-13-9zm136 1-11 8-11 7-19 13-21 14v4l78 52h2l6-33 1-9-5-16-10-23-7-16zm-142 5-11 12-6 8-9 11-12 15-5 10-3 17-3 16v2l4 1 24 2 8 1v2l-9-1-2-1-12-1h-12v8l6 35h3l11-9 10-9 8-6 1-5-5-27-5-28 1-7 9-21 7-16 3-5zm151 4 2 6 12 27 3 9v13l-5 28-1 7 2 1 33-3 1-5-3-17-3-16-6-11-9-10-9-11-8-10-6-7zm-219 10 2 5 7 10 11 18 4 2 9-11-2-4-20-14-9-6zm283 1-11 7-15 10-4 2 1 5 8 11 5-5 8-12 11-17zm-4 18-6 8-2 3 1 5 11 14 12 22 7 18 6 22 2 3 8 2h7l-2-11-4-16-8-22-8-16-10-16-11-14zm-274 1-10 13-10 15-10 19-5 13-7 24-1 4v8l10-1 5-2 4-8 3-9-4 16 10-1 29-6-2-16-2-11 7-32-1-6-9-15-4-5zm135 8-24 16-43 29-13 8 1 16 1 1 1 20 11-3 23-9 9-3 8-10 10-10 9-11 7-9 1-3 1-32zm4 0v29l2 7 9 10 9 11 16 17 20 8 18 7h4l5-34-4-4-15-10-17-11-45-30zm123 9-3 4 1 11 5 25-2 13-1 14 5 2 28 6h5l-4-16-7-20-8-16-12-18-5-5zm-125 27-11 13-10 11-7 8-6 6v3l14 8 4 3h2l1 3v19l-1 8-15 10-12 7-7 1-19 1-5 5-16 32v2h14l6-1 16-1 12-3 25-6v-4l-2-4 1-8 9-26 7-18 2-1 2 9 9 23 5 15v9h-2v4l21 6 15 4 18 1 19 2 1-2-8-16-10-21-1-1-25-2-9-3-18-11-6-5-1-9v-14l3-5 11-7 9-6v-2h-2v-2l-5-5-9-10-7-8-10-12zm114 16-16 2-10 1-2 2v10l3 5 15 12 9 6 3 3 2-2 5-27 1-12zm-27 23 3 9 8 23 5 15h4l5-11 4-13-2-4-14-11-9-7zm-174 1-11 9-10 9-6 5 3 10 6 15 3-1 14-38 2-9zm123 2-16 10-5 6v19l5 5 16 10 9 4 5 1h21l5-4 3-7v-29l-19-7-20-8zm-76 1-29 11-10 4v30l4 7 5 4 8-1 19-1 9-5 15-10 2-2 1-7v-14l-3-5-10-7-8-4zm125 1-2 2-1 9v32l-3 7-5 5 1 6 12 24 5 9 4-1 11-9 5-6 4-10-3-6-8-10-10-28-8-22zm-213 1-44 9-28 6-33 7-50 10-2 2 16 4 42 9 40 8 27 6 34 7h8l4-8 8-10-1-6-6-13-5-14-3-16-1-1zm252 0-2 6-5 19-9 22 1 5 7 7 4 10 22-4 54-11 47-10 30-6 13-3v-2l-51-11-105-22zm-209 1-11 32-7 18-10 12-1 6 5 10 7 7 10 8 3-3 8-16 7-15 2-5-8-7-2-3-1-44zm-255 13m0 5-6 3-4 7v7l4 6 2 2 4 1h7l5-3 3-4 1-8-3-7-7-4zm676 0-6 4-4 6v8l4 6 5 2h8l6-4 3-6-1-8-5-6-4-2zm-336 20-2 2-2 18-3 11 1 4 5 6 3 1 6-6-1-12-3-13-1-9-1-2zm-4 7-4 7-5 15v10l5 8 6 9 4 1 8-10 2-4v-6h-4l-6 8-1 7-1-7-7-8-3-2 5-18 2-10zm9 3 2 9 4 15 3 6 1-3-1-9-5-14zm-186 11 4 17 7 22 5 12 9 16 7 11 9 11 4 6 4-2 5-6 2-5-10-12-8-13-8-16-6-15-7-21-4-3zm357 1-29 6-20 4-9 2-5 8v2l-4 2-10 9-1 6 8 11 12 18 14 22 5 5 12-15 10-15 9-17 7-18 7-26-1-4zm-336 4 3 12 8 22 11 21 13 17h4l22-33 3-4v-5l-10-9-5-5-6-8-38-8zm176 20 2 10 8 26 2 4 23-1-1-9-2-4 1-5 6-8v-3l-36-9zm-32 1-14 3-24 6 1 5 6 6v6l-3 7v5l5 1h17l3-4 11-33v-2zm3 1m1 1-12 35v3l22 3 14-1 13-2-2-10-9-28-3 1-9 15v2l-4-4-8-14zm-54 8-1 4 5 16 4 9 8 9h2l-1-6-3-1v-11l2-4-1-6-7-8-3-2zm128 0-8 7-3 4v5l3 9-2 4v8l5-5 3-4 4-13 3-12-1-3zm10 0-3 8-5 20 8 23 5 15 3 6 2-2 3-27 3-19 2-12 1-8-8-3zm-151 1-10 2-1 2 3 14 5 39 1 12 2 3 6-15 7-23 2-4v-7l-7-22-1-1zm174 5-3 7-4 31 4 4 22 14 12 8 14 9 3 1-1-4-14-22-32-48zm-190 1-16 25-28 42-3 6 5-2 14-8 14-10 22-14-1-13-4-25zm-76 6-36 16-15 7 2 16 4 21 2 5 9-5 16-12 22-15 10-7-1-6-4-5-5 1-16 8 18-12-1-6-4-6zm109 18-4 10-6 20-5 13 1 3 13-10 8-7v-2l4-2 2-3v-7l-8-11-3-4zm36 0-3 4-1 16 1 1h5l1-19zm87 0-9 11-5 7 7 8 12 12 11 8h2l-2-5-6-18-6-19-2-4zm-98 1-1 1-1 13 1 2h4l2-13v-2zm61 0-2 2v17l1 1h6l2-1v-15l-2-4zm9 0v12l1 5 6-2 1-5-2-10zm9 0v10l1 3 4-2v-10zm-88 1-1 7 3 4 3-1v-9zm26 1v18l5 3 3-1v-19l-1-1zm33 0-1 4v9l1 6 5 1 2-1v-19zm-23 1v20h8l1-3v-15l-2-2zm16 0-3 2v18h6l2-1-1-19zm-161 7-7 4-42 28-9 5-1 6 12 45 11 33 12 29 12 25 9 17 14 22 12 16 9 11 29 29 17 12 15 9 16 7 15 5 16 3h14v-10l-4-4-2-6 6-7v-9l-10-4-10-5-8-9-2-6 8 10 10 6 10 3 2-2v-15l-5-3-5-4-3-7 1-8 2-4 6-4 3-1h7l6 3 3 4 3 7 5 1 24-3 27-5 30-8 25-9 24-11 18-10 18-11 15-11 14-11 6-7 4-6-6-2-16-3-8-3 15-3 15-4-6-8-12-13-52-52-15-10-5-3-3 1 10 12 11 14 14 17 8 11-12-12-9-11-10-11-11-14-9-11-4 1-6 5 2 5 11 17 2 4-9-11-8-12-5 2-5 4 1 5 20 35 6 11 10 19-4-5-17-28-13-23-6-10-6 1-5 3 1 5 8 19v2l-12-22-4-1-7 4 1 6 18 50 6 20-9-21-18-48-2-4-10 2-2 1 4 17 1 8-5-15-2-8-10 1-3 2 2 12 10 56v5l-6-25-9-46-1-1-11 1-1 5v16l-1 6v-11l-2-7-2 3-10 50-3 17-4 15-5 23v3l-2-1-8-39-10-48-2-8-2 1-7 38-3 13 2-18 4-29 2-14v-12l-5-3h-6l-3 9-4 13 4-24-8-2h-5l-16 49-8 21 7-26 12-39 1-5-3-3-8-2-7 14-3 5 6-17 1-3-9-5-4 1-9 17-7 14-12 22-6 9 11-24 19-38 1-4-5-3-6-1-6 8-8 11 6-11 5-9-1-4-6-4-4 1-8 9-10 14-12 15-11 14h-1l8-12 13-18 14-19 4-6-1-4-6-4-5 1-7 8-3 2 7-9 3-3v-2l-6 2-11 7-10 7h-2l4-6-1-3-8 7-10 10-8 7-10 8 12-14 5-5 15-14 14-12 4-6-2-5-4-4-4 1-15 10 5-5 10-8-1-5-5-6zm112 7v5l3 3 4-1v-5l-2-2zm85 0-14 7v8l7-4 9-8v-3zm46 1-2 7-2 21-3 7-15 10-16 10-13 8v2l9-1 23-7 21-10 17-11 15-12-2-4-31-20zm-175 0-10 6-6 5 1 3 14 10 5 1-2-21zm56 4-3 2 1 5 5 2 1-8zm-18 2-5 5-16 15-6 5 1 3 10 7 19 12 14 9 4 3h3l1-5 1-29 3-5v-4l-21-13-4-3zm24 0-2 8 5 4h4l1-3v-7l-3-2zm12 0-1 1-1 11 4 2 2-2 1-10-2-2zm23 0-6 3-1 1v10l5 1 8-2v-9l-2-4zm8 0v11l1 1h5l2-3-3-9zm28 0-19 12-5 5 2 6 2 36 5-1 19-12 25-16 2-2-1-4-10-10-10-8-7-6zm-51 3-1 12 4 1 1-1v-11zm-104 5-10 7-1 3 10 8 15 10 18 10 21 8 13 4 6 1-2-4-9-6-24-15-9-7-12-9-14-10zm93 7-3 3-3 16v25l1 2 6 1h34l5-2v-10l-1-14-1-4-1-13-2-4-9 2-6 1h-8zm95 1 1 2zm-98 49-1 1v8l8 34 11 56 2 2 3-9 13-63 5-22v-7zm260 26-5 13h2l-4 5-2 1-2 4-16 3 4 3 12 4 5 5 5 15 2-1 2-12 6-7 15-5 1-2-11-2h-6l1-5-6-2-1-4-1-13zm-87 93-31 13-27 9-30 7-28 4-21 2-6 10-8 4v17l3 1 12-4 6-4 7-8 2-3-2 5-6 8-7 5-15 5v11l4 3 1 7-5 7v9h16l23-5 19-8 15-8 17-12 15-13 14-14 9-11 10-13 13-18 3-6z" fill="#433628"/>
<path transform="translate(63,429)" d="m0 0 10 4 5 4 3 6v10l-3 6-6 5-12 1-8-4-4-5-1-3v-10l7-9 7-4zm-2 6-6 3-4 7v7l4 6 2 2 4 1h7l5-3 3-4 1-8-3-7-7-4z" fill="#4B3E31"/>
<path transform="translate(567,448)" d="m0 0h82l5 1-3 2h-91l2-2z" fill="#3B2D1E"/>
<path transform="translate(163,448)" d="m0 0h75l7 1 1 2h-94l3-2z" fill="#3A2C1D"/>
<path transform="translate(398,464)" d="m0 0h1l-1 11-3 11 1 4 4 5 3 1 5-5-1-12-3-13h2l3 8 4 15 1 4-4-1-6 8-1 8-2-1-1-7-6-7-4-2 7-26z" fill="#483B2D"/>
<path transform="translate(398,372)" d="m0 0 1 2-7 9-11 12-14 16-1-4 11-12 10-11 9-11z" fill="#4A3D2F"/>
<path transform="translate(361,111)" d="m0 0 2 1-1 2-21 3 1-3 10-2z" fill="#4D4032"/>
<path transform="translate(243,400)" d="m0 0 1 3-4 15h-2l1-6z" fill="#3F3123"/>
<path transform="translate(160,507)" d="m0 0 2 1v2l-9 2h-5l3-2z" fill="#574B3E"/>
<path transform="translate(408,571)" d="m0 0h2l1 9h-2z" fill="#736A5F"/>
<path transform="translate(637,583)" d="m0 0 3 1h-3z" fill="#392B1C"/>
<path transform="translate(272,207)" d="m0 0 2 1-1 2z" fill="#CCC8C4"/>
<path transform="translate(246,657)" d="m0 0 1 2-2-1z" fill="#7A7167"/>
<path transform="translate(584,571)" d="m0 0h2l-1 2z" fill="#392B1C"/>
<path transform="translate(209,264)" d="m0 0 2 2h-2z" fill="#392B1C"/>
<path transform="translate(179,297)" d="m0 0 2 1z" fill="#392B1C"/>
<path transform="translate(631,287)" d="m0 0 2 1z" fill="#392B1C"/>
<path transform="translate(263,115)" d="m0 0" fill="#FDFDFD"/>
<path transform="translate(467,652)" d="m0 0" fill="#392B1C"/>
<path transform="translate(580,651)" d="m0 0" fill="#392B1C"/>
<path transform="translate(579,650)" d="m0 0" fill="#392B1C"/>
<path transform="translate(323,645)" d="m0 0" fill="#392B1C"/>
<path transform="translate(212,628)" d="m0 0" fill="#392B1C"/>
<path transform="translate(612,620)" d="m0 0" fill="#392B1C"/>
<path transform="translate(611,619)" d="m0 0" fill="#392B1C"/>
<path transform="translate(264,604)" d="m0 0" fill="#392B1C"/>
<path transform="translate(561,598)" d="m0 0" fill="#392B1C"/>
<path transform="translate(560,597)" d="m0 0" fill="#392B1C"/>
<path transform="translate(559,596)" d="m0 0" fill="#392B1C"/>
<path transform="translate(640,585)" d="m0 0" fill="#392B1C"/>
<path transform="translate(661,545)" d="m0 0" fill="#FDFDFD"/>
<path transform="translate(659,544)" d="m0 0" fill="#392B1C"/>
<path transform="translate(624,399)" d="m0 0" fill="#FDFDFD"/>
<path transform="translate(159,336)" d="m0 0" fill="#392B1C"/>
<path transform="translate(579,301)" d="m0 0" fill="#392B1C"/>
<path transform="translate(256,285)" d="m0 0" fill="#392B1C"/>
<path transform="translate(211,266)" d="m0 0" fill="#392B1C"/>
<path transform="translate(208,263)" d="m0 0" fill="#FDFDFD"/>
<path transform="translate(313,242)" d="m0 0" fill="#392B1C"/>
<path transform="translate(237,235)" d="m0 0" fill="#392B1C"/>
<path transform="translate(236,234)" d="m0 0" fill="#392B1C"/>
<path transform="translate(235,233)" d="m0 0" fill="#392B1C"/>
<path transform="translate(458,225)" d="m0 0" fill="#392B1C"/>
<path transform="translate(312,188)" d="m0 0" fill="#392B1C"/>
<path transform="translate(261,118)" d="m0 0" fill="#FDFDFD"/>
<path transform="translate(262,117)" d="m0 0" fill="#FDFDFD"/>
<path transform="translate(264,114)" d="m0 0" fill="#392B1C"/>
</svg>
