<?xml version="1.0" encoding="UTF-8"?>
<svg version="1.1" viewBox="0 0 800 892" width="1280" height="1280" xmlns="http://www.w3.org/2000/svg">
<path transform="translate(394,69)" d="m0 0h9l7 4 4 7v7l-4 6-5 4-2 1-2 56-1 6h2l6 7 10 8 1-24 4-2 1 4-1 18v9l7 8 23 23 3 1 1-9 10-42 2-4h3l-1 10-11 45-1 4 7 8 19 19 2 1 2-10 15-35 11-25 2-2h3l-1 5-13 30-8 18-8 19 1 5 18 18 7 6 7 8 10 9 6 5 7 8 39 39 4 1 10-6 16-9 11-7 16-8 16-9 5-1-2 4-17 10-48 26-6 2 4 6 9 8v2l4 2 7 7 6-1 36-13 22-7h5v2l-8 4-54 18h-3l7 8 19 19v2l6 1 37-6h9v2l-16 4-24 4h-5l7 8 5 4v2l4 2 14-1 15-2 37-3 30-3 2 4-3 1-44 4-39 3-8 1 7 8 8 7 5 3 5-1 3 1-1 5h-12l-5 3-13 13-1 2h11l42 3 38 3 7 2 1 3-5 1-13-2-53-4-30-3-8 7-7 8 1 1 39 6 5 1v5l-37-6-14-1-8 7-19 19 2 2 47 16 15 5 3 5-2 1-50-17-16-6h-5l-22 22v2l16 8 25 13 19 10 14 8 1 4-2 1-10-5-22-12-26-14-14-9-5-2-95 95 1 5 24 54 6 15v4l-4-2-15-34-12-28-2-6v-4l-6 5h-2l-1 3-8 7-7 7-4 6 3 11 8 31 4 16v4h-3l-5-14-11-44-8 6-18 18-5 7v15l2 19-4 1-1-1-3-29-7 6-8 8-1 2-1 66 5 2 5 5 2 5v6l-5 8-5 3h-9l-7-4-3-5v-11l3-5 9-5v-65l-16-16h-1l-3 29-4 1-1-2 2-22 1-5v-7l-10-11-8-7-13-13-2 3-9 38-5 17-4 1 1-9 12-47 2-5-1-4-24-24-3-1-1 7-13 32-15 33-4 3-1-4 12-27 5-12 7-15 8-17v-4l-93-93-4-2-5 4-22 12-9 5 1 10 5 26 1 5 6-4 19-14 13-10 11-7 2 1-10 9-14 11-18 14-6 4v7l4 13 4-2 10-8 5-3-2 4-9 9-6 5 1 7 5 14 5-5 15-16 12-12 9-11 12-12h2v-2l3 1-9 11-9 10-22 24-14 15-2 4 6 16 1 4 5-5 8-9 11-14 8-9 1 2-7 10-8 11-8 10-6 8 1 8 13 28 8 17h2l15-28 9-16 11-19 5-8 2 1-10 21-10 19-15 28-4 7 1 4 10 16 12 17 11 13 9 11 11 11 11 9 10 8 18 11 19 9 18 6 18 3h30l20-4 19-7 16-8 13-8 14-11 13-12 13-13 9-11 8-10 19-28 2-5-8-15-12-22-15-29-5-11h2l11 18 14 25 14 26 4 6 9 19v2l-4-2-7-11v-2l-4 4-12 20-12 16-13 16-20 20-17 13-13 8-15 8-18 7-16 4-13 2h-8l-6 1-4-1-22-2-21-6-16-7-15-8-17-12-14-12-14-14-9-11-14-18-12-18-5-8-6 9-4 5h-2l1-6 6-10 1-7-6-9-15-32-3-6v-2l-5 5-11 14-13 16-4 4-1-4 9-12 21-27-1-8-7-18-7-22-2-2-19 19-11 9-14 14-11 9h-3l1-4 12-11 8-7 9-9 8-7 3-1v-2l5-5 10-8h2l-3-15-2-6-5 2-10 8-5 1 2-4 11-9 5-4-1-9-2-11-11 7-15 10-20 13-15 10-19 12-4 1v-3l10-7 11-7 15-10 17-11 14-9 15-9v-7l-3-12-15 8-18 9h-4l1-3 32-17 3-2v-7l-2-11-1-21-51 17-1-4 40-14 18-6 10-3-21-21-4-5-6-3-10 2-31 5h-9v-2l10-3 37-6-3-5-8-8-3-2h-12l-26 3-50 4h-15l1-3 38-4 60-4-7-8-8-8-6-2h-7l-5-1 1-3 11-1 12-11 6-7-66-5-28-3-1-4 18 1 56 5 23 3 6-4 11-11-13-3-28-5-3-2 1-3 9 1 34 6 7-1 26-26-2-2-30-10-31-11-1-5 11 3 29 10 27 10 5-3 21-21-3-2-31-16-22-12-16-9-1-4 6 1 22 12 17 9 21 12 8 5 4-1 66-66v-4l-12-16-36-54v-3l4 1 16 23 11 17 14 22 6 10 7-6 8-7 8-8-1-5-11-26-13-28-6-14v-3l4 1 5 10 13 29 12 29v2l11-9 15-15 1-5-5-17-9-35-1-7 4 2 4 10 11 43v2h3l2-4 8-7 5-6 8-7 5-6v-15l-1-10v-9h4l3 27 7-6 9-9h2l1-3v-40l-1-22-7-4-3-6v-10l4-6zm1 98-206 206-6 5v2h-2l-7 8-13 12-2 4-3 1-5 6-6 5-7 8-2 3 5-2 5-4 20-14 34-24 28-20 19-13 14-10 18-13 12-9 3-3 16 8 20 11 5 2 5-8 9-10 11-13 6-7 10-15 1-5-47-10 4-2 35-7 8-2-1-5-13-19v-2l16 10 7 5h2l8-35v-44zm6 0 1 44 7 33 2 2 18-11 6-5-1 5-7 10-6 9 1 3 32 7 15 2v2l-20 4-26 5-2 1 2 6 6 9 7 9 9 10 12 14 8 10 35-20 5-1 5 5 16 12 13 9 23 16 85 60 12 9 5 3 2-1-5-5-6-7-8-7-70-70-8-7-68-68-8-7-87-87zm-3 48-7 35-3 1-9-6-4-1 2 4 6 10-15 4-18 3-2 1v2l15 4 15 3h5l-3 7-5 10 5-2 8-6h3l5 27 1 8 2 1 5-19 4-17 5 2 9 6h2l-2-4-6-9v-3l33-7 2-3-35-7 1-4 7-10-1-2-12 7-3 1-4-16-4-18zm-11 74-11 7-9 7-11 11-5 6v2h-2l-9 11-3 5 9 6 8 6 15 23 6 9h48l6-8 14-22 2-4 4-2 11-7v-4l-7-8-12-14-10-11-12-8-7-5h-2l-10 45-2 2-9-45zm37 3m-131 25-1 1 1 13 1 21-1 18-1 4v19l11 36 1 5 3-3 10-24 7-18 1-6-2-7-13-23-9-17-5-5v-6l7 2 13 8 25 15 8 6 10 15 7 10 2 2h-40l-4 13-11 27-6 15v2l20 9 18 9h6l7-2h7l8 6 6 7 1 3-6-1-10 3h-10l-8-13-16-8-21-10h-4l-10 26-14 35-4 11 1 3 19-13 15-11 5-3 5 1 33 33h3l10-21 11-23 12-26 6-12v-8l-8-16-11-25-8-14-6-11-9-14-8-8-13-8-11-6-24-14zm208 1-15 8-18 11-15 9-8 7-10 15-12 21-12 27-9 20-1 5 8 16 12 27 7 15 8 17 4 9h3l22-22 7-8 5-5 4 1 24 16 15 11h1l-1-8-13-33-12-30-3-5-10 4-25 12-6 5-7 10v2l-16-3-5-1-4-1 9-10 5-4h9l6 2 7-1 21-11 15-6-1-7-12-29-7-19-14-1h-24l-3 1 16-24 7-8 16-10 20-12 12-7 3-1-1 16 2 14 2 1 1-3v-28l-3-5zm-215 8-34 24-20 14-18 13-23 16-17 12-14 10-20 14-16 11-3 2v2h35l12-1 53-1 7-1 56-1 15-1 5-2-2-1-1-6-6-20-6-21v-62zm224 0v22l-1 42-4 15-10 30 1 4 18 1 52 1 11 1 57 1 15 1h27l-2-4-19-13-15-11-19-13-11-8-16-11-17-12-14-10-20-14-18-13-13-9zm-210 3 7 14 12 22 8 16 2 1h32l-1-5-10-16-8-8-40-24zm195 1-11 6-13 8-14 9-8 7-10 15-4 7h35l12-22 11-21 4-8zm4 2-3 5-15 30-8 14 1 7 16 40 3 6 2-3 9-30 2-8v-22l-2-14h2l-2-5-2-8v-8zm-122 52 1 4 14 32 5 12 3 2 8-16 9-21 5-11v-2zm289 45m-170 14 6 16 15 38 9 23-1 6-13 22-12 20-17 28-17 29-10 16-21 35-17 28-6 11h3v-2l4-2 26-26v-2l4-2 6-6v-2l4-2 221-221v-2l-20-1-89-2-4-1zm-197-1-17 1-53 1-3 1-79 2-30 1 6 7 13 13 8 7 63 63 8 7 126 126h2l2 4h2l2 4 32 32 5 3-2-6-14-22-10-17-9-15-17-28-19-32-14-23-13-22-15-24 1-9 13-33 12-30 3-11zm100 4-2 5 1 5 1 77 2 22 2 1 12 1 2 4 5-3 11-10 3-5 3-11-1-7-14-31-7-15-12-25-4-8zm-3 5-4 6-8 18-9 19-7 15-9 19 1 8 4 10 5 6 8 6 2 2 5-1 2-2 10-1 1-1v-104zm-40 7-5 2 1 7 4 5 6 1 11-3-1-5-8-7zm78 0-8 7-2 4 12 4h5l5-6 2-3v-4l-6-2zm-117 35-18 13-18 12-5 3 1 4 6 4 11 6 20 12 19 12 20 12 21 13 7 4 7-1 9-4-4-4-10-8-3-8-14-12h-2l-6-15-1-7-8-7-28-28zm160 0-9 10-23 23-5 9-4 13-13 12-9 7 1-3-4-6-21-1-6 7-1 3 9 9 7 5 5-2v-2l4-2 9-7-3 5-10 8 1 3 9 4h5l23-14 16-10 21-13 24-15 15-9 4-5-4-4-7-4-20-14-11-7zm-294 30-14 5-1 4 5 34 2 1 16-8 17-8 4-3-7-8-9-9-1-2h-2v-2l-5-4zm99 8 1 5 6 9 19 32 13 21 36 60 16 27 14 23 11 19 4-2 10-17 60-100 34-56 9-15 2-6-5 2-28 17-24 15-23 14-19 12-15 9-4 2-34-21-21-13-20-12-41-25zm114 54-10 4 4 5 8 5 4-1 12-7-1-3-10-3z" fill="#423422"/>
<path transform="translate(293,314)" d="m0 0 11 5 19 10 10 6 4-2 3-1-2 6 14 9 8 10 11 18 4 6h48l7-10 3-5 4-2-2 6-11 19-12 27-9 20-1 5 8 16 12 27 7 15 8 17 4 9 7-6 16-16 7-8 6-6 4 1 24 16 15 11-1-7-13-33-12-30-3-4-24 11-13 7-9 12-1 2h-8l-10-3h-7v-3l7-8 7-6h9l6 2 7-1 21-11 12-5h3l-5-14-14-35-1-6h-41l2-4 10-16 9-11 11-8 22-13 17-10h3v16l2 14 1-2v-28l-2-4-6 1-13 7-10 6v-3l8-6 16-9 5-1 5 5 14 10-1 3-3 1-9-6v21l-1 42-4 15-10 30v3l18 1 52 1 11 1 57 1v1l-6 1 4 1v2h-23l-38-1-4-1-70-1 21 53 9 23-1 6-13 22-12 20-17 28-17 29-10 16-21 35-17 28-6 10 2 1v-2l8-7 26-26 5-3 17-17h2v-2l5-4 1-2h3v2h-2l-1 3-8 7-7 7-4 6 3 11 8 31 4 16v4h-3l-5-14-11-44-8 6-18 18-5 7v15l2 19-4 1-1-1-3-29-7 6-8 8-1 2-1 66 5 2 5 5 2 5v6l-5 8-5 3h-9l-7-4-3-5v-11l3-5 9-5v-65l-16-16h-1l-3 29-4 1-1-2 2-22 2-12 1-4 8 6-5-10-11-17-10-17-9-15-17-28-19-32-14-23-13-22-15-24 1-9 13-33 12-30 3-10h-24l-56-1v-1l7-1 56-1 15-1 4-1-1-4h3l10-23 8-21 1-6-2-7-13-23-9-17-5-5v-6l3-1 8 4 25 15 16 10 6 7 9 14 6 8 1 2h-40l-6 17-12 29-4 10 9 3 22 10 7 4h6l7-2h7l9 7 6 7v3h-6l-10 3h-10l-8-13-16-8-21-10-3-1-10 26-14 35-4 11v2l19-13 15-11 5-3 5 1 33 33 3 1 2-6 13-28 22-46 1-2v-8l-8-16-11-25-8-14-6-11-9-14-7-7-13-8-11-6-24-14-6-2h-2zm7 15 7 14 12 22 8 16 2 1h32l-1-5-10-16-8-8-40-24zm195 1-11 6-13 8-14 9-8 7-10 15-4 7h35l12-22 11-21 4-8zm4 2-3 5-15 30-8 14 1 7 16 40 3 6 2-3 9-30 2-8v-22l-2-14h2l-2-5-2-8v-8zm-122 52 1 4 14 32 5 12 3 2 8-16 9-21 5-11v-2zm22 62-2 5 1 5 1 77 2 22 2 1 12 1 2 4 5-3 11-10 3-5 3-11-1-7-14-31-7-15-12-25-4-8zm-3 5-4 6-8 18-9 19-7 15-9 19 1 8 4 10 5 6 8 6 2 2 5-1 2-2 10-1 1-1v-104zm-40 7-5 2 1 7 4 5 6 1 11-3-1-5-8-7zm78 0-8 7-2 4 12 4h5l5-6 2-3v-4l-6-2zm-117 35-18 13-18 12-5 3 1 4 6 4 11 6 20 12 19 12 20 12 21 13 7 4 7-1 9-4-4-4-10-8-3-8-14-12h-2l-6-15-1-7-8-7-28-28zm160 0-9 10-23 23-5 9-4 13-13 12-9 7 1-3-4-6-21-1-6 7-1 3 9 9 7 5 5-2v-2l4-2 9-7-3 5-10 8 1 3 9 4h5l23-14 16-10 21-13 24-15 15-9 4-5-4-4-7-4-20-14-11-7zm-195 38 1 5 6 9 19 32 13 21 36 60 16 27 14 23 11 19 4-2 10-17 60-100 34-56 9-15 2-6-5 2-28 17-24 15-23 14-19 12-15 9-4 2-34-21-21-13-20-12-41-25zm114 54-10 4 4 5 8 5 4-1 12-7-1-3-10-3z" fill="#413320"/>
<path transform="translate(394,69)" d="m0 0h9l7 4 4 7v7l-4 6-5 4-2 1-2 56-1 6h2l6 7 10 8 1-24 4-2 1 4-1 18v9l7 8 23 23 3 1 1-9 10-42 2-4h3l-1 10-11 45-1 4 7 8 19 19 2 1 2-10 15-35 11-25 2-2h3l-1 5-13 30-8 18-8 19 1 5 18 18 7 6 7 8 10 9 6 5 7 8 39 39 4 1 10-6 16-9 11-7 16-8 16-9 5-1-2 4-17 10-48 26-6 2 4 6 9 8v2l4 2 7 7 6-1 36-13 22-7h5v2l-8 4-54 18h-3l7 8 19 19v2l6 1 37-6h9v2l-16 4-24 4h-5l7 8 5 4v2l4 2 14-1 15-2 37-3 30-3 2 4-3 1-44 4-39 3-8 1 7 8 8 7 5 3 5-1 3 1-1 5h-12l-5 3-13 13-1 2h11l42 3 38 3 7 2 1 3-5 1-13-2-53-4-30-3-8 7-7 8 1 1 39 6 5 1v5l-37-6-14-1-8 7-19 19 2 2 47 16 15 5 3 5-2 1-50-17-16-6h-5l-22 22v2l16 8 25 13 19 10 14 8 1 4-2 1-10-5-22-12-26-14-14-9-5-2-95 95 1 5 24 54 6 15v4l-4-2-15-34-12-28-2-6v-4l-6 4-3-1-2 4-4 2v2l-8 7-13 13v-3l227-227 1-2h-20l-28-1v-2h-5l1-2h21l27 1-5-5-17-12-20-14-18-13-12-8-17-12-14-10-23-16-18-13-11-8 4-3 14 10 23 16 85 60 12 9 6 3-1-3-4-2-5-5v-2l-4-2-74-74-8-7-68-68-8-7-87-87-4-3 1 43 7 33h3l17-11 6-4-1 6-7 10-6 9v2l32 7 13 2 2 1v2l-16 4-25 5-7 1 7 12 8 11 11 12 9 11 8 9 2 2 8-5 2 1-5 5-10 6-11 7-7 8-5 8h-3l2-5 8-12 15-10-2-5-7-7-9-11-11-12-21-14-1 9-8 36-3 4-3-13-7-34h-3l-16 11-12 12-6 8h-2l-2 4-6 7-5 1 2-5 11-12 9-11 7-8 10-15 2-5-9-1-38-8v-3l19-4 20-4 8-1-4-8-11-16-1-3 6 2 10 7 11 7 1-8 6-27v-43l-21 21-2-2-1-2v-15l-1-10v-9h4l3 27 7-6 9-9h2l1-3v-40l-1-22-7-4-3-6v-10l4-6zm4 146-7 35-3 1-9-6-4-1 2 4 6 10-15 4-18 3-2 1v2l15 4 15 3h5l-3 7-5 10 5-2 8-6h3l5 27 1 8 2 1 5-19 4-17 5 2 9 6h2l-2-4-6-9v-3l33-7 2-3-35-7 1-4 7-10-1-2-12 7-3 1-4-16-4-18z" fill="#413321"/>
<path transform="translate(321,158)" d="m0 0 4 2 4 10 11 43v2h3l2-4 8-7 5-6 8-7 6-5 2 1-3 5-104 104h-2l-2 4-17 17h-2l-2 4-48 48h-2l-2 4-5 5h-2v2h-2l-2 4-8 8-8 7-4 5-6 5-2 3h-2l-2 4h-2l-2 4-5 5 4-2 11-8 23-16 18-13 34-24 19-13 14-10 18-13 11-8h2l2 13 1 21-1 18-1 4v19l11 36v5l-4-4-6-20-6-21v-62l-5 2-18 13-16 11-17 12-18 13-23 16-17 12-14 10-20 14-16 11-3 1v2l35-1 12-1h111l3 2-53 1-3 1-79 2-29 1 18 18 8 7 8 8v2l4 2 33 33v2l-4 1-4-5-16-14-7-9-6-3-10 2-31 5h-9v-2l10-3 37-6-3-5-8-8-3-2h-12l-26 3-50 4h-15l1-3 38-4 60-4-7-8-8-8-6-2h-7l-5-1 1-3 11-1 12-11 6-7-66-5-28-3-1-4 18 1 56 5 23 3 6-4 11-11-13-3-28-5-3-2 1-3 9 1 34 6 7-1 26-26-2-2-30-10-31-11-1-5 11 3 29 10 27 10 5-3 21-21-3-2-31-16-22-12-16-9-1-4 6 1 22 12 17 9 21 12 8 5 4-1 66-66v-4l-12-16-36-54v-3l4 1 16 23 11 17 14 22 6 10 7-6 8-7 8-8-1-5-11-26-13-28-6-14v-3l4 1 5 10 13 29 12 29v2l11-9 15-15 1-5-5-17-9-35z" fill="#413320"/>
<path transform="translate(293,314)" d="m0 0 11 5 19 10 10 6 4-2 3-1-2 6 14 9 8 10 11 18 4 6h48l7-10 3-5 4-2-2 6-11 19-12 27-9 20-1 5 8 16 12 27 7 15 8 17 4 9 7-6 16-16 7-8 6-6 4 1 24 16 15 11-1-7-13-33-12-30-3-4-24 11-13 7-9 12-1 2h-8l-10-3h-7v-3l7-8 7-6h9l6 2 7-1 21-11 12-5h3l-5-14-14-35-1-6h-41l2-4 10-16 9-11 11-8 22-13 17-10h3v16l2 14 1-2v-28l-2-4-6 1-13 7-10 6v-3l8-6 16-9 5-1 5 5 14 10-1 3-3 1-9-6v21l-1 42-4 15-10 30v3l18 1 52 1 11 1 57 1v1l-6 1 4 1v2h-23l-38-1-4-1-70-1 21 53 9 23-1 6-11 19-4-3 6-11-20 12-26 16-4 1 2-4 20-12 22-14 8-5 2-3-3-3-7-4-20-14-11-7h-3l-7 8-24 24-5 9-4 13-7 7-11 9-3 3h-2l-1-4-2-5h-19l-2-2 6-1v-103l-6 12-8 18-8 16-13 27-1 8 2 7-3 2-2-6v-7l-4-2-32-32-4-1-18 13-18 12-3 1v-3l19-13 15-11 5-3 5 1 33 33 3 1 2-6 13-28 22-46 1-2v-8l-8-16-11-25-8-14-6-11-9-14-7-7-13-8-11-6-24-14-6-2h-2zm202 16-11 6-13 8-14 9-8 7-10 15-4 7h35l12-22 11-21 4-8zm4 2-3 5-15 30-8 14 1 7 16 40 3 6 2-3 9-30 2-8v-22l-2-14h2l-2-5-2-8v-8zm-122 52 1 4 14 32 5 12 3 2 8-16 9-21 5-11v-2zm22 62-2 5 1 5 1 77 2 22 2 1 12 1 2 4 5-3 11-10 3-5 3-11-1-7-14-31-7-15-12-25-4-8zm35 12-8 7-2 4 12 4h5l5-6 2-3v-4l-6-2z" fill="#4C3F2E"/>
<path transform="translate(524,330)" d="m0 0 11 7 14 10 23 16 18 13 19 13 17 12 18 13 15 11 6 3-1-3-4-2-5-5v-2l-4-2-8-8v-3l13-1 31-5h9v2l-16 4-24 4h-5l7 8 5 4v2l4 2 14-1 15-2 37-3 30-3 2 4-3 1-44 4-39 3-8 1 7 8 8 7 5 3 5-1 3 1-1 5h-12l-5 3-13 13-1 2h11l42 3 38 3 7 2 1 3-5 1-13-2-53-4-30-3-8 7-7 8 1 1 39 6 5 1v5l-37-6-14-1-8 7-19 19 2 2 47 16 15 5 3 5-2 1-50-17-16-6h-5l-22 22v2l16 8 25 13 19 10 14 8 1 4-2 1-10-5-22-12-26-14-14-9-5-2-95 95 1 5 24 54 6 15v4l-4-2-15-34-12-28-2-6v-4l-6 4-3-1-2 4-4 2v2l-8 7-13 13v-3l227-227 1-2h-20l-28-1v-2h-5l1-2h21l27 1-5-5-17-12-20-14-18-13-12-8-17-12-14-10-23-16-18-13-11-8z" fill="#413321"/>
<path transform="translate(400,22)" d="m0 0 21 2 21 5 19 7 13 7 15 10 10 8 10 9 22 22 13 17 16 24 1 2 3-1 6-10h4l-2 5-6 11 1 5 15 29 8 18v2h3l2-4 14-18 10-13 4-3 1 3-6 9-10 13-8 10-5 6-1 4 8 22 7 22 1 3 4-2 14-14 8-7 9-9 8-7 11-10 4-1-1 5-11 10-8 7-14 14-11 9-11 11 2 11 2 9 5-3 13-10 2 1-1 4-14 11-2 1v7l2 9v4l7-3 60-40 14-10h3v4l-14 10-16 10-23 15-25 16-3 2-1 9-4-8-1-9-3-10h-3l-15 12-16 12-14 9-2-1 13-11 25-20 8-6h2l-1-7-3-12-1-3-16 14-4 1 6-7 12-12-2-9-4-11-7 6-9 10-14 15-9 9-7 8-12 12-2-1 12-14 8-9 7-8 11-12 7-8 12-13 1-3-7-18v-3h-2l-2 4-11 14-13 16-7 6 2-4 10-14 12-16 7-9-1-7-11-24-11-21-2-1-16 31-13 23-8 14-4 4 1-5 15-30 10-19 9-17 3-4v-6l-8-11-8-12-12-16-22-24-8-7-15-12-16-10-15-8-16-6-22-5-9-1h-18l-19 3-19 5-16 7-17 10-11 8-11 9-17 16-10 10-7 8-2 1 2-4 12-14 22-22 11-9 10-7 17-10 16-7 17-5 18-3z" fill="#413321"/>
<path transform="translate(503,314)" d="m0 0 5 2 4 5 12 8-1 3-3 1-9-6v21l-1 42-4 15-10 30v3l18 1 52 1 11 1 57 1v1l-6 1 4 1v2h-23l-38-1-4-1-70-1 21 53 1 7h-2l-12-29-11-28-3-4-24 11-13 7-9 12-1 2h-8l-10-3h-7v-3l7-8 7-6h9l6 2 7-1 21-11 12-5h3l-5-14-14-35-1-6h-41l2-4 10-16 9-11 11-8 22-13 17-10h3v16l2 14 1-2v-28l-2-4-6 1-13 7-10 6v-3l8-6 16-9zm-8 16-11 6-13 8-14 9-8 7-10 15-4 7h35l12-22 11-21 4-8zm4 2-3 5-15 30-8 14 1 7 16 40 3 6 2-3 9-30 2-8v-22l-2-14h2l-2-5-2-8v-8zm-65 126-8 7-2 4 12 4h5l5-6 2-3v-4l-6-2z" fill="#483B2A"/>
<path transform="translate(321,158)" d="m0 0 4 2 4 10 11 43v2h3l2-4 8-7 5-6 8-7 6-5 2 1-3 5-104 104h-2l-2 4-17 17h-2l-2 4-43 43-3-3 6-7 7-7-3-2-31-16-22-12-16-9-1-4 6 1 22 12 17 9 21 12 8 5 4-1 66-66v-4l-12-16-36-54v-3l4 1 16 23 11 17 14 22 6 10 7-6 8-7 8-8-1-5-11-26-13-28-6-14v-3l4 1 5 10 13 29 12 29v2l11-9 15-15 1-5-5-17-9-35z" fill="#432E17"/>
<path transform="translate(666,463)" d="m0 0m-1 1m-1 1m-1 1 3 2-3 1-1 4-10 10-2 3 1 1 39 6 5 1v5l-37-6-14-1-8 7-19 19 2 2 47 16 15 5 3 5-2 1-50-17-16-6h-5l-22 22v2l16 8 25 13 19 10 14 8 1 4-2 1-10-5-22-12-26-14-14-9-5-2-95 95 1 5 24 54 6 15v4l-4-2-15-34-12-28-2-6v-4l-6 4-3-1-2 4-4 2v2l-8 7-13 13v-3l5-5z" fill="#453724"/>
<path transform="translate(400,22)" d="m0 0 21 2 21 5 19 7 13 7 15 10 10 8 10 9 22 22 13 17 16 24 1 2 3-1 6-10h4l-2 5-6 11 1 5 9 17-4 2-8-15-2-1-16 31-13 23-8 14-4 4 1-5 15-30 10-19 9-17 3-4v-6l-8-11-8-12-12-16-22-24-8-7-15-12-16-10-15-8-16-6-22-5-9-1h-18l-19 3-19 5-16 7-17 10-11 8-11 9-17 16-10 10-7 8-2 1 2-4 12-14 22-22 11-9 10-7 17-10 16-7 17-5 18-3z" fill="#564026"/>
<path transform="translate(189,520)" d="m0 0 7 6 11 11 8 7 126 126 6 5 7 8 23 23 1 5-4-1-9-10-8-7-13-13-2 3-9 38-5 17-4 1 1-9 12-47 2-5-1-4-24-24-3-1-1 7-13 32-15 33-4 3-1-4 12-27 5-12 7-15 8-17v-4l-93-93-5-4-7-8-9-9v-2h-2v-2l-4-2-5-2 3-2z" fill="#432D16"/>
<path transform="translate(296,324)" d="m0 0 7 2 13 8 25 15 8 6 8 11 9 14 3 4h-40l-6 17-12 29-4 10 9 3 22 10 7 4h6l7-2h7l9 7 6 7v3h-6l-10 3h-10l-8-13-16-8-21-10-3-1-10 26-14 35-3 7h-3l3-10 11-28 9-23 2-7h-24l-56-1v-1l7-1 56-1 15-1 4-1-1-4h3l10-23 8-21 1-6-2-7-13-23-9-17-5-5v-6zm4 5 7 14 12 22 8 16 2 1h32l-1-5-10-16-8-8-40-24zm56 129-5 2 1 7 4 5 6 1 11-3-1-5-8-7z" fill="#493B2A"/>
<path transform="translate(522,675)" d="m0 0h2l11 18 14 25 14 26 4 6 9 19v2l-4-2-7-11v-2l-4 4-12 20-12 16-13 16-20 20-17 13-13 8-15 8-18 7-16 4-13 2h-8l-6 1-4-1-22-2-21-6-16-7-15-8v-2l-10-7 1-3 11 7 25 13 21 7 18 3h30l20-4 19-7 16-8 13-8 14-11 13-12 13-13 9-11 8-10 19-28 2-5-8-15-12-22-15-29z" fill="#3D2E1B"/>
<path transform="translate(277,510)" d="m0 0h1v10l-1 4 6 4 11 6 20 12 19 12 20 12 21 13 7 4 7-1 8-4-8-6-6-5-3-8-13-11-4-4-2-4 1-4 2 1 4 8 10 8 2 2 5-1 2-2h4l-2 4-4 6 6 7 9 7 4-1 5-5 7-6h2l-1 4-11 9v2l9 4h5l23-14 24-15 2 1v2l-23 14-19 12-21 13-6 3-34-21-21-13-20-12-41-25 2 5 17 28 15 25-1 3-4-2-12-20-13-22-15-24 1-9 2-5zm119 75-10 4 4 5 8 5 4-1 12-7-1-3-10-3z" fill="#493C2A"/>
<path transform="translate(290,318)" d="m0 0h2l2 13 1 21-1 18-1 4v19l11 36v5l-4-4-6-20-6-21v-62l-5 2-18 13-16 11-17 12-18 13-23 16-17 12-11 8h-4l1-4 16-11 18-13 34-24 19-13 14-10 18-13z" fill="#47321B"/>
<path transform="translate(275,675)" d="m0 0 2 1-10 21-10 19-15 28-4 7 1 4 10 16 12 17 11 13 9 11 11 11 11 9 8 6v4l10 7-2 1-12-8-17-14-15-15-9-11-14-18-12-18-5-8-6 9-4 5h-2l1-6 6-10 1-7-6-9-10-21 2-1 3 1 11 22 2 5h2l15-28 9-16 11-19z" fill="#423320"/>
<path transform="translate(121,455)" d="m0 0 4 1 11 11 8 7 8 8v2l4 2 33 33v2l-4 1-4-5-16-14-7-9-6-3-10 2-31 5h-9v-2l10-3 37-6-3-5-8-8-3-2h-12l-26 3-50 4h-15l1-3 38-4 60-4-7-8-3-3z" fill="#42331F"/>
<path transform="translate(661,303)" d="m0 0h2l-2 4-17 10-48 26-6 2 4 6 9 8v2l4 2 7 7 6-1 36-13 22-7h5v2l-8 4-54 18h-3l7 8 19 19v2l2 1h-3l-1 2-54-54-2-6 7-5 11-6 18-10 4-3 16-8 16-9z" fill="#49341D"/>
<path transform="translate(559,572)" d="m0 0h2l-2 4-69 69 1 5 24 54 6 15v4l-4-2-15-34-12-28-2-6v-4l-6 4-3-1-2 4-4 2v2l-8 7-13 13v-3l85-85 5-3z" fill="#452F17"/>
<path transform="translate(296,324)" d="m0 0 7 2 13 8 25 15 8 6 8 11 9 14 3 4h-40l-6 17-12 29-3 3-2-2 10-24 7-18 1-6-2-7-13-23-9-17-5-5v-6zm4 5 7 14 12 22 8 16 2 1h32l-1-5-10-16-8-8-40-24z" fill="#4C3F2D"/>
<path transform="translate(395,799)" d="m0 0h9l6 4 4 8v6l-5 8-5 3h-9l-7-4-3-5v-11l3-5z" fill="#3C2E1D"/>
<path transform="translate(400,22)" d="m0 0 21 2 21 5 12 6 1 2-8-1-15-5-15-3-9-1h-18l-19 3-19 5-16 7-17 10-11 8-11 9-17 16-10 10-7 8-2 1 2-4 12-14 22-22 11-9 10-7 17-10 16-7 17-5 18-3z" fill="#433523"/>
<path transform="translate(524,330)" d="m0 0 11 7 14 10 23 16 18 13 19 13 17 12 18 13 4 4-5 1-13-9-20-14-16-11-17-12-14-10-20-14-18-13-4-4z" fill="#453019"/>
<path transform="translate(503,314)" d="m0 0 5 2 4 5 12 8-1 3-3 1-9-6v21l-1 42-4 15-7 22-3 1 1-8 6-19 2-8v-22l-1-4v-10h2l-4-8-1-5v-8l-1-3 3-1 3 21 1-2v-28l-2-4-6 1-13 7-10 6v-3l8-6 16-9z" fill="#473926"/>
<path transform="translate(189,520)" d="m0 0 7 6 11 11 8 7 73 73 1 5v3l-73-73-5-4-7-8-9-9v-2h-2v-2l-4-2-5-2 3-2z" fill="#4A351D"/>
<path transform="translate(491,252)" d="m0 0 4 1 14 14 7 6 7 8 10 9 6 5 7 8 39 39 2 1 1 7-7-6-15-14-65-65-8-7-3-3z" fill="#3B2D1C"/>
<path transform="translate(290,318)" d="m0 0h2l2 13 1 21-1 18-1 4v19l11 36v5l-4-4-6-20-6-21v-62l-7 2 1-5z" fill="#423423"/>
<path transform="translate(387,461)" d="m0 0 1 3-1 2 2 1-8 16-9 19-12 26 1 8 1 4-3 2-2-6v-7l-4-2-32-32-4-1-18 13-18 12-3 1v-3l19-13 15-11 5-3 5 1 33 33 3 1 2-6 13-28 11-23z" fill="#504231"/>
<path transform="translate(571,123)" d="m0 0 3 1-2 5-6 11 1 5 9 17-4 2-8-15-2-1-16 31-13 23-8 14-4 4 1-5 15-30 10-19 9-17 3-4v-6l-6-8 1-3 5 3 2 4 3-1 6-10z" fill="#564129"/>
<path transform="translate(311,839)" d="m0 0 11 7 25 13 21 7 18 3h30l18-3 1 2h-2v2l-13 3-8 1h-8l-6 1-4-1-22-2-21-6-16-7-15-8v-2l-10-7z" fill="#4D3820"/>
<path transform="translate(612,520)" d="m0 0 1 3-8 7-16 16v2l16 8 25 13 19 10 14 8 1 4-2 1-10-5-22-12-26-14-14-9-5-2-21 21h-2l2-4 46-46z" fill="#432D14"/>
<path transform="translate(238,756)" d="m0 0 4 4 12 18 10 14 13 15 11 12 12 11 11 8v4l10 7-2 1-12-8-17-14-15-15-9-11-14-18-12-18-3-5z" fill="#463019"/>
<path transform="translate(511,543)" d="m0 0 3 1-2 5-9 16-8 13-39 65-2 2h-4l2-5 10-17 9-15 34-56z" fill="#4E391F"/>
<path transform="translate(666,463)" d="m0 0m-1 1m-1 1m-1 1 3 2-3 1-1 4-10 10-2 3 1 1 39 6 5 1v5l-37-6-14-1-8 7-18 18h-4l2-4z" fill="#48341B"/>
<path transform="translate(522,675)" d="m0 0h2l11 18 14 25 14 26 4 6 9 19v2l-4-2-7-11v-2l-4 4-10 17-4 1 2-5 11-16 2-5-8-15-12-22-15-29z" fill="#3F2E1A"/>
<path transform="translate(616,589)" d="m0 0 6 2 19 11 50 32 15 10 2 2v3l-6-1-24-16-22-14-28-19-12-9z" fill="#433422"/>
<path transform="translate(92,245)" d="m0 0 5 1 44 29 25 17 12 9 5 4-1 2-21-13-22-14-23-15-18-12-5-4z" fill="#442F17"/>
<path transform="translate(397,451)" d="m0 0 2 1 1 81 1 8v14l12 1 5 4 11-9 6-8 3-7h1v7l-3 6-13 12-7 6h-2l-1-4-2-5h-19l-2-2 6-1z" fill="#493A26"/>
<path transform="translate(590,623)" d="m0 0 4 2 20 16v2l4 2 14 13 8 7 13 12 7 7 10 8 2 4-7-1-15-14-16-15-10-9-15-14-8-7-11-12z" fill="#564025"/>
<path transform="translate(638,552)" d="m0 0 9 2 30 12 58 25 2 5-7-1-24-11-35-15-26-12-7-4z" fill="#483927"/>
<path transform="translate(63,299)" d="m0 0 8 1 31 14 27 12 25 12 8 4v2l-10-3-49-21-36-16-4-3z" fill="#594329"/>
<path transform="translate(456,86)" d="m0 0 3 1-3 21-6 38-8 42-2 8h-1v-10l3-22 8-52 4-24z" fill="#574228"/>
<path transform="translate(314,693)" d="m0 0 2 1-5 17-16 49-12 34-3 2-1-5 12-36 9-26 11-29z" fill="#5A452B"/>
<path transform="translate(515,100)" d="m0 0h2l-1 8-12 36-14 41-8 18-2 2 2-9 15-48 14-41 3-6z" fill="#564026"/>
<path transform="translate(171,161)" d="m0 0h3l7 9 20 25 14 18 13 17 8 11 3 5-1 2-9-10-18-22-12-15-11-14-13-16-4-6z" fill="#5D482E"/>
<path transform="translate(334,88)" d="m0 0 4 1 2 9 11 63 4 26v9h-1l-6-26-10-52-4-24z" fill="#5A442A"/>
<path transform="translate(442,704)" d="m0 0 2 4 5 22 10 57 3 22-1 2-3-1-4-20-8-48-4-29z" fill="#47331B"/>
<path transform="translate(559,652)" d="m0 0 7 6 14 17 11 14 13 16 9 12 13 16 1 6-6-4-13-16-20-26-14-18-11-15-4-6z" fill="#403220"/>
<path transform="translate(276,103)" d="m0 0h3l8 20 10 29 14 41 3 13-3-3-8-20-17-47-10-28z" fill="#5A442A"/>
<path transform="translate(484,694)" d="m0 0 3 3 13 35 15 43 6 20-3 1-2-1-12-36-13-38-7-23z" fill="#584228"/>
<path transform="translate(130,199)" d="m0 0 5 1 15 13 14 14 11 9 31 31 2 4-4-2-13-12-10-8-8-7v-2l-4-2-16-15-7-7-16-14z" fill="#432F18"/>
<path transform="translate(356,704)" d="m0 0h1v9l-7 48-7 40-1 7-4 2-1-4 7-43 9-48z" fill="#503B24"/>
<path transform="translate(43,355)" d="m0 0 15 3 61 16 27 8 2 2-11-1-37-9-55-14-3-3z" fill="#483A27"/>
<path transform="translate(651,511)" d="m0 0 11 1 40 9 52 13 2 2v3l-11-2-67-17-24-7z" fill="#483A27"/>
<path transform="translate(221,128)" d="m0 0 4 1 12 22 20 36 14 26 3 7-1 3-8-13-12-21-14-25-18-32z" fill="#5B452B"/>
<path transform="translate(666,467)" d="m0 0 41 3 51 4 7 2 1 3-5 1-13-2-53-4-30-3h-2v-2z" fill="#453623"/>
<path transform="translate(143,511)" d="m0 0h5l-2 2-36 10-63 16h-5v-3l29-8 49-12z" fill="#47331C"/>
<path transform="translate(116,348)" d="m0 0 11 3 29 10 27 10 5-2 8-8 2 1-1 4-3 3h-2l-2 4-5 4-2-3-3 1-32-11-31-11z" fill="#433420"/>
<path transform="translate(536,442)" d="m0 0h98v1l-6 1 4 1v2h-23l-38-1-4-1-58-1v-1z" fill="#59442B"/>
<path transform="translate(136,304)" d="m0 0 6 1 22 12 17 9 21 12 8 5 4-1 3-2v3l-6 5v-2l-9-3-27-14-22-12-16-9z" fill="#443522"/>
<path transform="translate(752,355)" d="m0 0h3l-1 4-38 10-44 11-14 3h-7l3-2 70-19z" fill="#40321F"/>
<path transform="translate(568,579)" d="m0 0 4 1 16 11 21 16 15 12 12 9 1 5-6-2-10-8-28-22-16-13-8-6z" fill="#3E2F1C"/>
<path transform="translate(165,262)" d="m0 0 5 3 16 13 13 10 11 9 16 13 5 4 3 3-1 2-11-7-34-26-15-12-9-7-1-3z" fill="#433523"/>
<path transform="translate(159,552)" d="m0 0 3 1-23 11-57 25-16 7h-3l1-4 29-13 35-15 15-6z" fill="#432D15"/>
<path transform="translate(730,299)" d="m0 0h5l-1 3-40 18-40 17-15 6-3-1 29-14 62-28z" fill="#4A351D"/>
<path transform="translate(193,230)" d="m0 0 6 2 9 10 12 12v2h2l7 8 7 7 9 11 9 10 1 3-4-2-36-36-7-8-14-14z" fill="#3E301E"/>
<path transform="translate(761,414)" d="m0 0 4 2v2l-3 1-44 4-39 3h-9l1-2 10-2 15-2 37-3z" fill="#40311F"/>
<path transform="translate(281,626)" d="m0 0h2l-2 6-12 20-26 39-6 8h-4l8-14 7-10 7-11 8-12 11-16z" fill="#47321B"/>
<path transform="translate(181,520)" d="m0 0 4 1-4 4-12 4 3 27-3-1-1-4-1-21-51 17-1-4 40-14 18-6z" fill="#423321"/>
<path transform="translate(544,605)" d="m0 0 4 2 34 34 8 10 13 13 1 5-5-2-16-16-9-11-12-12-18-22z" fill="#40311E"/>
<path transform="translate(560,196)" d="m0 0h2l-1 5-8 14-10 15-12 19-10 14-6 8-1-3 13-22 11-17 12-19 8-12z" fill="#453019"/>
<path transform="translate(516,627)" d="m0 0 4 2 12 17 17 25 14 22 2 4v3l-4-1-14-22-10-15-12-19-9-15z" fill="#41321F"/>
<path transform="translate(116,469)" d="m0 0 3 1 4 2-26 3-50 4h-15l1-3 38-4z" fill="#493B28"/>
<path transform="translate(168,442)" d="m0 0h111l3 2-53 1-3 1-45 1-5-3-8-1z" fill="#523D23"/>
<path transform="translate(317,591)" d="m0 0 4 5 13 22 21 35-2 5-3-4-17-28-19-32-1-2z" fill="#523C22"/>
<path transform="translate(488,646)" d="m0 0 3 4 24 54 6 15v4l-4-2-15-34-12-28-3-12z" fill="#46331B"/>
<path transform="translate(253,604)" d="m0 0 3 1-9 11-9 10-22 24-14 15-2-4 13-15 17-17 9-11 12-12h2z" fill="#48331C"/>
<path transform="translate(661,303)" d="m0 0h2l-2 4-17 10-48 26-4 2h-3v-2l10-6 16-9 11-7 16-8 16-9z" fill="#423321"/>
<path transform="translate(436,364)" d="m0 0 1 2-13 23-12 27-6 13-1-2-2-1 10-22 9-20-4 1-25-1 2-2 28-1 7-10 3-5z" fill="#4D3F2E"/>
<path transform="translate(501,323)" d="m0 0h3v8l-4 2-5 2 1-4-7 3-18 11-14 9-7 6-8 12-4 1 2-5 10-13 9-7 20-12 17-10z" fill="#453826"/>
<path transform="translate(342,678)" d="m0 0 2 1-3 9-12 48-2 3h-3l1-9 12-47 1-3z" fill="#4A351E"/>
<path transform="translate(503,314)" d="m0 0 5 2 4 5 12 8-1 3-3 1-9-6v21l-1 11h-1l-1-28-2-11-5-1-15 8-10 6v-3l8-6 16-9z" fill="#5B4E3E"/>
<path transform="translate(335,38)" d="m0 0 2 1-2 4-16 9-11 8-11 9-17 16-10 10-7 8-2 1 2-4 12-14 22-22 11-9 10-7z" fill="#48351F"/>
<path transform="translate(232,199)" d="m0 0 4 1 16 23 11 17 6 9-2 4-4-5-8-11-23-35z" fill="#47321C"/>
<path transform="translate(432,866)" d="m0 0 3 1-2 1v2l-13 3-8 1h-8l-6 1-4-1-22-2-7-2 1-2 6-1 18 2h26z" fill="#564127"/>
<path transform="translate(246,578)" d="m0 0 4 1 38 38 1 5v3l-42-42z" fill="#50391D"/>
<path transform="translate(678,349)" d="m0 0h5v2l-8 4-57 19-1-2 3-3 36-13z" fill="#453724"/>
<path transform="translate(615,562)" d="m0 0 6 2 18 10 19 10 5 3 1 4-2 1-10-5-22-12-17-9z" fill="#4A351E"/>
<path transform="translate(399,738)" d="m0 0h3v61l-5-1 1-56z" fill="#4D381E"/>
<path transform="translate(702,245)" d="m0 0h3v4l-14 10-16 10-23 15-1-4 37-25z" fill="#452F17"/>
<path transform="translate(235,321)" d="m0 0 4 1-2 4-38 38-3-3 6-7 8-8h3l4-5 2-4z" fill="#443018"/>
<path transform="translate(433,455)" d="m0 0h9l6 2 7-1 4-1-2 4-5 4-7 10-1 2h-8l-10-3h-7v-3l7-8zm1 3-8 7-2 4 12 4h5l5-6 2-3v-4l-6-2z" fill="#4B3D2C"/>
<path transform="translate(571,123)" d="m0 0 3 1-2 5-6 11 1 5 9 17-4 2-8-15-4-1-1-9-6-8 1-3 5 3 2 4 3-1 6-10z" fill="#483823"/>
<path transform="translate(511,543)" d="m0 0 3 1-2 5-9 16-8 13-7 12-4 2-3 3v-3l13-22 16-26z" fill="#513B23"/>
<path transform="translate(275,675)" d="m0 0 2 1-10 21-10 19-10 18h-2l-1-5 26-46z" fill="#47321B"/>
<path transform="translate(458,686)" d="m0 0 5 2 8 31 4 16v4h-3l-5-14-9-37z" fill="#574227"/>
<path transform="translate(321,158)" d="m0 0 4 2 4 10 9 37-3 3-2-3-11-42z" fill="#574128"/>
<path transform="translate(450,322)" d="m0 0 4 3 5 2 6 8 9-5 2 1-5 5-10 6-11 7-7 8-5 8h-3l2-5 8-12 15-10-2-5-7-7z" fill="#473928"/>
<path transform="translate(494,834)" d="m0 0 2 1-8 7-1 3-13 8-15 8-18 7-8 2 1-4 21-8 16-8 13-8z" fill="#4B361F"/>
<path transform="translate(92,245)" d="m0 0 5 1 38 25-3 2-7-2-27-18-5-4z" fill="#5B462C"/>
<path transform="translate(202,200)" d="m0 0h3l13 17 14 18 7 11-1 2-9-10-18-22-10-13z" fill="#443421"/>
<path transform="translate(387,461)" d="m0 0 1 3-1 2 2 1-8 16-9 19-11 23h-3l2-6 13-28 11-23z" fill="#5A4E3F"/>
<path transform="translate(448,133)" d="m0 0 2 3v10l-8 42-2 8h-1v-10l3-22 4-25z" fill="#483926"/>
<path transform="translate(400,22)" d="m0 0 21 2 21 5 12 6 1 2-8-1-15-5-15-3-22-2z" fill="#453521"/>
<path transform="translate(299,450)" d="m0 0 1 2h2l-3 9-12 31-8 19h-3l3-10 11-28z" fill="#504230"/>
<path transform="translate(694,574)" d="m0 0 16 6 25 11 2 5-7-1-24-11-10-4v-3l-2-1z" fill="#584228"/>
<path transform="translate(652,488)" d="m0 0 14 1 29 5v5l-37-6-9-1-1-3z" fill="#493925"/>
<path transform="translate(314,693)" d="m0 0 2 1-5 17-12 36-4-1 3-11 12-33z" fill="#4E3E2A"/>
<path transform="translate(171,655)" d="m0 0 2 2-8 7-16 17-7 7-11 9h-3l1-4 12-11 8-7 9-9 8-7 3-1v-2z" fill="#584329"/>
<path transform="translate(590,623)" d="m0 0 4 2 20 16v2l4 2 14 13-1 3-4-1-9-9-8-7-10-9-10-11z" fill="#433523"/>
<path transform="translate(358,455)" d="m0 0h7l9 7 6 7v3h-6l-10 3h-10l-7-11 1-3h3l3 7 4 4 7-1 8-1-2-5-7-6-7-1z" fill="#594D3D"/>
<path transform="translate(500,150)" d="m0 0 1 3-13 37-7 15-1-3 15-47z" fill="#443420"/>
<path transform="translate(453,643)" d="m0 0 1 3-12 20-11 18-5 1 2-5 13-22 8-13z" fill="#46311A"/>
<path transform="translate(232,577)" d="m0 0 2 1-10 9-14 11-18 14-4 2 1-4 4-5 16-12 18-13z" fill="#3F311E"/>
<path transform="translate(361,540)" d="m0 0 2 1 4 8 10 8 2 2 5-1 2-2h4l-2 4-4 6 6 7 6 5-1 3-6-4-7-6-3-8-13-11-4-4-2-4z" fill="#4A3C2B"/>
<path transform="translate(597,703)" d="m0 0 6 1 10 13 13 16 1 6-6-4-13-16-10-13z" fill="#533D22"/>
<path transform="translate(559,572)" d="m0 0h2l-2 4-41 41-4-2 23-23 5-3z" fill="#463118"/>
<path transform="translate(112,322)" d="m0 0h8l24 11 18 9v2l-10-3-40-17z" fill="#4C3821"/>
<path transform="translate(666,198)" d="m0 0h2l-1 5-11 10-8 7-9 9h-3l-5 4 2-4 12-13 8-7 11-10z" fill="#5E492F"/>
<path transform="translate(716,526)" d="m0 0 10 1 28 7 2 2v3l-11-2-32-8z" fill="#5C482F"/>
<path transform="translate(200,701)" d="m0 0 2 1-1 4-10 13-13 16-4 4-1-4 9-12 14-18z" fill="#553F25"/>
<path transform="translate(104,396)" d="m0 0 9 1 34 6-4 4-14-2-23-4-3-2z" fill="#513E26"/>
<path transform="translate(676,625)" d="m0 0 12 7 12 8 8 6v3l-6-1-24-16-5-4z" fill="#594429"/>
<path transform="translate(517,172)" d="m0 0h3l-1 5-13 30-1 3h-5l3-9 12-27z" fill="#49341D"/>
<path transform="translate(522,675)" d="m0 0h2l11 18 14 25 1 5-4-1-13-24-11-22z" fill="#423320"/>
<path transform="translate(43,355)" d="m0 0 15 3 23 6 2 1v2l-7 1-31-8-3-3z" fill="#5A452B"/>
<path transform="translate(129,621)" d="m0 0 4 2-3 3-15 10-19 12-4 1v-3l10-7 11-7 15-10z" fill="#5C472D"/>
<path transform="translate(275,175)" d="m0 0 4 1 5 10 11 25-1 3h-3l-9-20-7-16z" fill="#554025"/>
<path transform="translate(344,141)" d="m0 0 2 1v2h2l6 35 1 8v9h-1l-6-26-4-21z" fill="#4A351E"/>
<path transform="translate(613,516)" d="m0 0 4 2-9 6-45 45-1 4-4 1-18 18-2-1z" fill="#4F381C"/>
<path transform="translate(130,199)" d="m0 0 5 1 15 13 12 12-4 1-5-3-7-7-16-14z" fill="#564026"/>
<path transform="translate(347,677)" d="m0 0 7 6 23 23 1 5-4-1-9-10-8-7-8-8 1-3-4-3z" fill="#432E18"/>
<path transform="translate(454,768)" d="m0 0 2 1 6 38-1 4-3-1-4-20-2-14h2z" fill="#5A452B"/>
<path transform="translate(250,176)" d="m0 0 4 5 14 27 6 12-1 3-8-13-16-28z" fill="#443420"/>
<path transform="translate(622,156)" d="m0 0 2 1-2 6-14 18-5 7h-6l18-24z" fill="#5A462D"/>
<path transform="translate(371,150)" d="m0 0 3 1 3 27v5l-2 3-4 1v-17l-1-10v-9z" fill="#443624"/>
<path transform="translate(496,334)" d="m0 0 1 3-15 30-8 14h-3l2-6 13-25 7-14z" fill="#4D402F"/>
<path transform="translate(346,774)" d="m0 0 1 3-5 31-4 2-1-4 5-31z" fill="#5B452B"/>
<path transform="translate(574,255)" d="m0 0 2 1-2 4-13 13-7 8-12 12-2-1 12-14 8-9 7-8z" fill="#463724"/>
<path transform="translate(299,162)" d="m0 0 2 1 12 37 1 6-3-3-8-20-5-14z" fill="#422E18"/>
<path transform="translate(649,281)" d="m0 0h2l-1 4-15 10-11 7-1 9-4-8 1-5 7-2 10-7z" fill="#423422"/>
<path transform="translate(316,491)" d="m0 0m-2 1 3 1-5 5-16 11-15 10-3 1v-3l19-13 15-11z" fill="#514434"/>
<path transform="translate(294,212)" d="m0 0 3 3 12 29v2l-3 1-7-15-7-16v-2h2z" fill="#412C14"/>
<path transform="translate(415,568)" d="m0 0h2l-1 4-11 9v2l8 4v1l-8-1-2-1h-7l-10 3v-2l10-5 1-3 4 1 11-9z" fill="#443624"/>
<path transform="translate(613,612)" d="m0 0 5 2 18 14 1 5-6-2-10-8-7-5z" fill="#46311A"/>
<path transform="translate(228,440)" d="m0 0h58l-1 3-64-1v-1z" fill="#392B1A"/>
<path transform="translate(372,186)" d="m0 0 2 1-3 5-24 24-1-3 4-6 8-9 8-7z" fill="#3E2D18"/>
<path transform="translate(488,646)" d="m0 0 3 4 8 18 5 11-1 3h-3l-10-23-3-12z" fill="#443624"/>
<path transform="translate(560,196)" d="m0 0h2l-1 5-8 14-6 9-6 1 8-14 7-10z" fill="#543F28"/>
<path transform="translate(163,573)" d="m0 0 5 1-3 3-27 14h-4l1-3z" fill="#442E16"/>
<path transform="translate(288,695)" d="m0 0 4 1-1 5-9 20-4 3-1-4z" fill="#553F25"/>
<path transform="translate(661,303)" d="m0 0h2l-2 4-17 10-9 5h-2l1-5 24-13z" fill="#47331C"/>
<path transform="translate(469,617)" d="m0 0 1 3-8 13-7 12h-3-2l2-5 10-17 3-3h3z" fill="#523D24"/>
<path transform="translate(398,528)" d="m0 0h1l2 13v14l4 2v1h-13l-2-2 6-1 1-26z" fill="#756653"/>
<path transform="translate(676,323)" d="m0 0 3 1-1 3-24 10-15 6-3-1 29-14z" fill="#40311F"/>
<path transform="translate(356,704)" d="m0 0h1v9l-4 28-2 3-2-1v-7l6-29z" fill="#46321B"/>
<path transform="translate(585,647)" d="m0 0 7 6 11 11 1 5-5-2-15-15z" fill="#49341D"/>
<path transform="translate(143,511)" d="m0 0h5l-2 2-36 10h-2l-1-4z" fill="#443623"/>
<path transform="translate(140,534)" d="m0 0h5l-2 4-27 9-1-4z" fill="#513C25"/>
<path transform="translate(67,529)" d="m0 0 3 1v1h5l-4 2-24 6h-5v-3z" fill="#5D4830"/>
<path transform="translate(281,626)" d="m0 0h2l-2 6-12 20-3 3h-3v-3l11-16z" fill="#40311D"/>
<path transform="translate(62,473)" d="m0 0 2 1-3 4-14 1h-15l1-3z" fill="#5F4B33"/>
<path transform="translate(501,323)" d="m0 0h3v8l-4 2-5 2 1-4-7 3-6 3 2-5z" fill="#3E301E"/>
<path transform="translate(593,293)" d="m0 0h2l-1 5-13 10-14 9-2-1 13-11 10-8z" fill="#3F301D"/>
<path transform="translate(469,157)" d="m0 0h3l-1 10-4 17-4-2 1-9 4-14z" fill="#604C33"/>
<path transform="translate(450,747)" d="m0 0h2l3 17-1 12h-2l-4-23v-5z" fill="#554027"/>
<path transform="translate(433,455)" d="m0 0h9l4 4h-12l-8 7-1 2 3 2-2 2h-7v-3l7-8z" fill="#524534"/>
<path transform="translate(159,552)" d="m0 0 3 1-23 11-11 5h-3l1-4 27-11z" fill="#453725"/>
<path transform="translate(440,371)" d="m0 0 1 3-5 7 33 1v1h-10v2h-29l2-4 4-7z" fill="#544532"/>
<path transform="translate(155,286)" d="m0 0 5 2 17 12 6 5-1 2-21-13-8-5 2-1z" fill="#413321"/>
<path transform="translate(587,548)" d="m0 0 6 2 22 11-2 4-16-8-10-7z" fill="#403220"/>
<path transform="translate(738,474)" d="m0 0h20l7 2 1 3-5 1-13-2-12-1z" fill="#433421"/>
<path transform="translate(450,112)" d="m0 0 4 3v7l-3 17-2-3-3 3z" fill="#584228"/>
<path transform="translate(297,674)" d="m0 0 5 1-6 15-3 7-4-1 1-6 6-13z" fill="#4C3720"/>
<path transform="translate(657,613)" d="m0 0 9 5 10 7-1 3-5-1-14-9z" fill="#432E17"/>
<path transform="translate(591,238)" d="m0 0 1 2-7 8-8 9-3-1-4 3 2-4 14-15z" fill="#4A3A26"/>
<path transform="translate(86,582)" d="m0 0 2 1v3l-22 10h-3l1-4z" fill="#5F4B31"/>
<path transform="translate(302,569)" d="m0 0 3 1 12 20-1 3-4-2-9-15v-5z" fill="#47321A"/>
<path transform="translate(484,694)" d="m0 0 3 3 9 24-1 4-3-1-8-26z" fill="#463623"/>
<path transform="translate(253,604)" d="m0 0 3 1-9 11-9 10-3-3 9-10 7-7h2z" fill="#41321F"/>
<path transform="translate(299,450)" d="m0 0 1 2h2l-3 9-7 18-4 2 1-6z" fill="#615545"/>
<path transform="translate(193,230)" d="m0 0 6 2 9 10 2 5-1 3-15-15z" fill="#644F36"/>
<path transform="translate(152,607)" d="m0 0 2 1-2 4-16 10-1 1h-5l1-3 19-12z" fill="#49341D"/>
<path transform="translate(347,461)" d="m0 0h4l3 7 4 4 7-1 9-1v2l-10 3h-10l-7-11z" fill="#584C3C"/>
<path transform="translate(535,189)" d="m0 0 3 1-1 5-12 21-4 4 1-5z" fill="#40311E"/>
<path transform="translate(374,723)" d="m0 0h2l2 6v10l-1 7-4 1-1-2z" fill="#58452D"/>
<path transform="translate(354,654)" d="m0 0 5 5 8 14v2l-4 1-10-17z" fill="#47321B"/>
<path transform="translate(660,535)" d="m0 0 9 2 12 4 3 5-2 1-20-7 3-1v-2l-5-1z" fill="#57422A"/>
<path transform="translate(676,567)" d="m0 0 6 1 12 6v2l3 1v2l-5-1-18-8z" fill="#453019"/>
<path transform="translate(577,217)" d="m0 0 1 3-11 13-7 8-4 3 2-4 15-21z" fill="#453724"/>
<path transform="translate(448,133)" d="m0 0 2 3v10l-2 11-4 1v-8l2-11z" fill="#47321C"/>
<path transform="translate(694,520)" d="m0 0 8 1 16 4-3 3-9-1-13-3 3-2z" fill="#4B3A26"/>
<path transform="translate(752,355)" d="m0 0h3l-1 4-14 4h-8l-1-3z" fill="#4E3A25"/>
<path transform="translate(637,224)" d="m0 0m-1 1m-1 1m-1 1m3 0 1 3-11 10-5 4h-3l1-4 8-8 3-1h2z" fill="#48331C"/>
<path transform="translate(702,245)" d="m0 0h3v4l-14 10h-5l3-5z" fill="#523E28"/>
<path transform="translate(275,675)" d="m0 0 2 1-10 21-4 7-2-4 7-14z" fill="#42331F"/>
<path transform="translate(530,246)" d="m0 0 1 3-10 14-6 8-1-3 12-20z" fill="#453725"/>
<path transform="translate(716,526)" d="m0 0 10 1 9 2v3l-1 1-9-1-12-3z" fill="#584733"/>
<path transform="translate(431,27)" d="m0 0 8 1 7 3 9 5v1l-8-1-17-6z" fill="#452F16"/>
<path transform="translate(204,597)" d="m0 0 3 1-2 4-13 10-4 2 1-4 4-5z" fill="#453019"/>
<path transform="translate(493,574)" d="m0 0 1 3-1 4-5 9-4 2-3 3v-3l10-17z" fill="#553F27"/>
<path transform="translate(33,415)" d="m0 0 18 1 13 1v1l-13 1-2 1-15-1z" fill="#5B462C"/>
<path transform="translate(503,681)" d="m0 0h2l7 17-2 3h-2l-7-17v-2z" fill="#523E28"/>
<path transform="translate(208,348)" d="m0 0 1 4-2 4-8 8-3-3 6-7z" fill="#473219"/>
<path transform="translate(761,414)" d="m0 0 4 2v2l-3 1-20 1 4-1v-2h-6v-1z" fill="#4D3E2C"/>
<path transform="translate(645,531)" d="m0 0 9 1 6 2v2l5 1v2l-9-1-12-4-1-2z" fill="#442F17"/>
<path transform="translate(116,348)" d="m0 0 11 3 8 3-4 3-9-2-6-3z" fill="#5C4830"/>
<path transform="translate(287,74)" d="m0 0h2l-2 4-17 17-7 8-2 1 2-4 12-14z" fill="#3D2C18"/>
<path transform="translate(209,700)" d="m0 0 3 1 7 15v3l-5-2-6-14z" fill="#44311B"/>
<path transform="translate(639,492)" d="m0 0h2l-2 4-21 21-4-1 8-7z" fill="#432D15"/>
<path transform="translate(183,373)" d="m0 0 2 1v4h-2v2h-2l-2 4-5 4-2-4z" fill="#46321A"/>
<path transform="translate(188,250)" d="m0 0 7 6 11 11 2 4-4-2-13-12-5-5z" fill="#402F1B"/>
<path transform="translate(465,181)" d="m0 0h1v7l-2 8h-3l-1 6-2-1 3-15 2-4z" fill="#473119"/>
<path transform="translate(118,492)" d="m0 0h6l-2 4-11 2h-9v-2l10-3z" fill="#4C3A25"/>
<path transform="translate(545,172)" d="m0 0 2 2-1 5-7 12h-3l1-6 7-12z" fill="#4F3C25"/>
<path transform="translate(679,492)" d="m0 0 11 1 5 1v5l-18-3z" fill="#52422E"/>
<path transform="translate(264,653)" d="m0 0 2 1-2 5-7 11-3-2 1-4 6-9z" fill="#432E17"/>
<path transform="translate(311,839)" d="m0 0 11 7 6 4-2 1-1 3-15-12z" fill="#574228"/>
<path transform="translate(511,543)" d="m0 0 3 1-2 5-5 9-6 2 5-10z" fill="#543E25"/>
<path transform="translate(140,332)" d="m0 0 6 2 16 8v2l-10-3-14-6z" fill="#41321E"/>
<path transform="translate(259,235)" d="m0 0 4 5 6 9-2 4-4-5-6-8z" fill="#4E3F2D"/>
<path transform="translate(305,57)" d="m0 0 2 1v3l-10 8-6 6-3-1 6-7z" fill="#3E2C17"/>
<path transform="translate(550,721)" d="m0 0 3 4 5 10-1 4h-2l-8-16z" fill="#50402D"/>
<path transform="translate(328,722)" d="m0 0h2l1 7-3 9-4 1 1-9z" fill="#59452D"/>
<path transform="translate(500,150)" d="m0 0 1 3-5 15-4-1 2-9 3-6z" fill="#432D15"/>
<path transform="translate(230,756)" d="m0 0h3l1 3-7 11-4 2 1-6z" fill="#533D23"/>
<path transform="translate(165,262)" d="m0 0 5 3 7 6-1 3-5-1-7-6-1-3z" fill="#46331D"/>
<path transform="translate(502,332)" d="m0 0h1l3 21 2-2v5l-2 1-4-8-1-5v-8l-1-3zm2 25 2 1-2 1z" fill="#6D604F"/>
<path transform="translate(413,408)" d="m0 0 1 4-8 17-1-2-2-1 7-16z" fill="#5D5141"/>
<path transform="translate(345,321)" d="m0 0h5l-3 5-6 7-5 1 2-5z" fill="#442F18"/>
<path transform="translate(202,200)" d="m0 0h3l7 9-1 6-5-5-5-7z" fill="#4F3B25"/>
<path transform="translate(573,162)" d="m0 0 4 2 6 12-1 4-4-4-5-10z" fill="#442F17"/>
<path transform="translate(196,361)" d="m0 0 2 1-1 4-3 3h-2l-2 4-5 4-1-4z" fill="#55422B"/>
<path transform="translate(574,255)" d="m0 0 2 1-2 4-12 12-2-1 3-6z" fill="#3D2B16"/>
<path transform="translate(477,652)" d="m0 0h2l-2 4-4 2v2l-8 7-13 13v-3l5-5z" fill="#422C16"/>
<path transform="translate(287,618)" d="m0 0 4 2 8 8 1 6-4-2-6-6-3-6z" fill="#412B14"/>
<path transform="translate(728,361)" d="m0 0h5l2 3-17 4v-3l-2-1z" fill="#453521"/>
<path transform="translate(381,565)" d="m0 0 3 1 6 7 6 5-1 3-6-4-7-6z" fill="#493B29"/>
<path transform="translate(351,31)" d="m0 0 3 1-4 4-15 6 2-5z" fill="#412C14"/>
<path transform="translate(395,382)" d="m0 0h28v2l-5 1-25-1z" fill="#66523A"/>
<path transform="translate(348,759)" d="m0 0h1l-1 12-3 5h-2l1-12h2l1-4z" fill="#473119"/>
<path transform="translate(314,693)" d="m0 0 2 1-5 17-2 3-3 1 3-10z" fill="#463622"/>
<path transform="translate(648,481)" d="m0 0 4 1-2 4 2 3h-4v2l-7 2v-3l4-4z" fill="#46331D"/>
<path transform="translate(268,251)" d="m0 0 3 1 9 15-3 1-10-14z" fill="#433422"/>
<path transform="translate(345,642)" d="m0 0 5 2 5 10-3 4-7-12z" fill="#553F24"/>
<path transform="translate(209,244)" d="m0 0 7 6 4 5-3 3-7-7v-4l-2-1z" fill="#47321B"/>
<path transform="translate(371,150)" d="m0 0 3 1 1 12-1 2-3-1-1-4v-9z" fill="#4F3C27"/>
<path transform="translate(557,686)" d="m0 0 5 5 3 6v3l-4-1-6-9z" fill="#48331D"/>
<path transform="translate(544,116)" d="m0 0 6 2 7 10-1 2-5-2-7-11z" fill="#523E26"/>
<path transform="translate(215,718)" d="m0 0 5 1 4 9v2l1 5-2 1z" fill="#4D3B25"/>
<path transform="translate(455,99)" d="m0 0h1v9l-2 7-3-2 1-12z" fill="#483219"/>
<path transform="translate(301,733)" d="m0 0 2 1-3 11-1 2-4-1 3-11z" fill="#473118"/>
<path transform="translate(493,724)" d="m0 0h4l4 12-3 3-5-12z" fill="#503D26"/>
<path transform="translate(200,701)" d="m0 0 2 1-1 4-5 7h-5l2-4 4-6z" fill="#5B462E"/>
<path transform="translate(400,541)" d="m0 0h1v14l4 2v1h-13l-2-2 6-1 2-5h1z" fill="#857869"/>
<path transform="translate(131,401)" d="m0 0 10 1 6 1-4 4-14-2 4-2z" fill="#5B4A34"/>
<path transform="translate(559,758)" d="m0 0h2l-2 6-8 13-4 1 2-5z" fill="#473723"/>
<path transform="translate(559,572)" d="m0 0h2l-2 4-15 15-1-3z" fill="#422E17"/>
<path transform="translate(493,166)" d="m0 0 2 1-1 6-3 7-3 1 1-8 2-6z" fill="#45311A"/>
<path transform="translate(567,150)" d="m0 0 4 2 5 11-4 1-6-11z" fill="#493A27"/>
<path transform="translate(421,149)" d="m0 0 3 1-2 14-3-1v-12z" fill="#3D2B15"/>
<path transform="translate(442,704)" d="m0 0 2 4 3 12v5l-3 3-2-15z" fill="#51412C"/>
<path transform="translate(586,205)" d="m0 0h2l-2 4-7 9-4-1 5-7z" fill="#402B14"/>
<path transform="translate(232,199)" d="m0 0 4 1 5 7-1 4-3-1-5-8z" fill="#55432D"/>
<path transform="translate(501,828)" d="m0 0 2 1-1 4-12 10-3 1 2-4 6-5z" fill="#412D16"/>
<path transform="translate(303,662)" d="m0 0h2l1 4-4 9h-4l3-9z" fill="#402C15"/>
<path transform="translate(311,647)" d="m0 0 1 2-5 15h-2l-1-5 6-11z" fill="#4B3E2C"/>
<path transform="translate(173,621)" d="m0 0m-2 1 2 1-2 5-7 5h-3l2-4z" fill="#513C25"/>
<path transform="translate(235,321)" d="m0 0 4 1-2 4-5 4v-2l-5 4-2-1z" fill="#473219"/>
<path transform="translate(369,867)" d="m0 0 12 2v2l-9 1-7-2 1-2z" fill="#523D23"/>
<path transform="translate(64,473)" d="m0 0h10l2 2-5 2h-13v-1h5z" fill="#3D2D19"/>
<path transform="translate(636,394)" d="m0 0 4 2 4 4v2l2 1h-3l-1 2-7-7z" fill="#503E2A"/>
<path transform="translate(489,321)" d="m0 0 2 1-5 5-10 6v-3l8-6z" fill="#4F4232"/>
<path transform="translate(494,834)" d="m0 0 2 1-8 7-1 3-9 5v-3l11-9z" fill="#483118"/>
<path transform="translate(356,704)" d="m0 0h1v9l-2 14-1-4h-2l2-12z" fill="#46351F"/>
<path transform="translate(298,629)" d="m0 0 4 2 6 7h-2l-1 3-6-7z" fill="#4F381C"/>
<path transform="translate(302,569)" d="m0 0 3 1 6 11-4 2-4-7v-5z" fill="#43301A"/>
<path transform="translate(576,555)" d="m0 0 3 1-15 15h-2l2-4z" fill="#432E15"/>
<path transform="translate(168,534)" d="m0 0 2 4 2 18-3-1-1-4z" fill="#3D2D1A"/>
<path transform="translate(517,172)" d="m0 0h3l-1 5-3 7-4-2 2-6z" fill="#5D482F"/>
<path transform="translate(330,711)" d="m0 0 3 2v8l-2 5-1-4h-2z" fill="#4C371F"/>
<path transform="translate(208,623)" d="m0 0v3l-10 10-6 4 2-4 5-6z" fill="#423524"/>
<path transform="translate(671,539)" d="m0 0 7 1 5 3 1 3-2 1-9-3 1-2z" fill="#4C361B"/>
<path transform="translate(683,518)" d="m0 0 10 1 4 3-1 1-10-1-4-1z" fill="#453019"/>
<path transform="translate(316,491)" d="m0 0m-2 1 3 1-5 5-8 5v-3l5-5z" fill="#544838"/>
<path transform="translate(566,759)" d="m0 0h5l5 10v2l-4-2z" fill="#564127"/>
<path transform="translate(307,188)" d="m0 0 3 2 4 16-3-3-5-12z" fill="#584B39"/>
<path transform="translate(514,711)" d="m0 0h2v2h3l2 6v4l-4-2-3-7z" fill="#56432B"/>
<path transform="translate(121,455)" d="m0 0 4 1 8 8-1 3-8-7-3-3z" fill="#422D15"/>
<path transform="translate(752,355)" d="m0 0h3l-1 4-10 2-1-4z" fill="#534430"/>
<path transform="translate(666,563)" d="m0 0 9 2 2 2-4 3-9-4 2-1z" fill="#574430"/>
<path transform="translate(172,385)" d="m0 0 2 1-1 4-6 3-8 7-2-1z" fill="#70604C"/>
<path transform="translate(468,170)" d="m0 0h1l-1 9-1 5-4-2 1-7z" fill="#544028"/>
<path transform="translate(288,695)" d="m0 0 4 1-1 5-2 5h-2v-2h-2z" fill="#533E25"/>
<path transform="translate(523,606)" d="m0 0 2 4-7 7-4-2z" fill="#473219"/>
<path transform="translate(335,38)" d="m0 0 2 1-2 4-9 4-2-1v-2z" fill="#4F3B24"/>
<path transform="translate(241,209)" d="m0 0 5 5 2 5h-4l-4-5v-4z" fill="#47341D"/>
<path transform="translate(622,652)" d="m0 0 1 2 4-1 5 6-1 2-4-1-5-5z" fill="#412B13"/>
<path transform="translate(280,498)" d="m0 0h3l-1 6-3 7h-3l3-10z" fill="#6E6356"/>
<path transform="translate(33,415)" d="m0 0 12 1v3h-11z" fill="#4B361F"/>
<path transform="translate(83,365)" d="m0 0 10 2-3 2v2l-10-2v-2h3z" fill="#4C3B26"/>
<path transform="translate(637,224)" d="m0 0m-1 1m-1 1m-1 1m-1 1m-1 1m-1 1m-1 1v3l-7 6-1 4h-3l1-4 8-8z" fill="#432F17"/>
<path transform="translate(451,763)" d="m0 0 4 1-1 12h-2l-1-4z" fill="#49341C"/>
<path transform="translate(676,567)" d="m0 0 6 1 2 1-1 4-5-1-4-3z" fill="#412D16"/>
<path transform="translate(365,512)" d="m0 0 1 3-5 10h-3l2-6 3-6z" fill="#655745"/>
<path transform="translate(180,514)" d="m0 0 5 1 4 4v2l-4 1-5-6z" fill="#402D16"/>
<path transform="translate(447,382)" d="m0 0h22v1h-10v2l-13-1z" fill="#6C6051"/>
<path transform="translate(301,258)" d="m0 0h2l-2 4-11 11-1-3h2v-2h2v-2h2l2-4 4-2z" fill="#41301B"/>
<path transform="translate(571,123)" d="m0 0 3 1-2 5-3 3h-3l2-5z" fill="#5C482F"/>
<path transform="translate(432,866)" d="m0 0 3 1-2 1v2l-8 2-3-1 5-4z" fill="#4F3D28"/>
<path transform="translate(328,850)" d="m0 0 7 3v2h-2v2l-6-2-1-4z" fill="#4A3319"/>
<path transform="translate(143,511)" d="m0 0h5l-2 2-15 4 2-4z" fill="#514433"/>
<path transform="translate(347,677)" d="m0 0 7 6 2 4-3-1 2 4-6-5 1-3-4-3z" fill="#3C2D1A"/>
<path transform="translate(516,615)" d="m0 0 1 3-10 10-2-2 8-8z" fill="#432D14"/>
<path transform="translate(189,520)" d="m0 0 7 6-2 1-1 2v-2l-4-2-5-2 3-2z" fill="#4D3E2B"/>
<path transform="translate(116,348)" d="m0 0 8 2v5l-7-2z" fill="#66533C"/>
<path transform="translate(442,863)" d="m0 0 2 1-1 3-10 3 1-4z" fill="#402C15"/>
<path transform="translate(493,574)" d="m0 0 1 3-1 4h-2l-4 4v-3l4-7z" fill="#614D35"/>
<path transform="translate(140,534)" d="m0 0h5l-2 4-9 2 3-5z" fill="#483825"/>
<path transform="translate(593,293)" d="m0 0h2l-1 5-6 4-1-4z" fill="#412C15"/>
<path transform="translate(244,217)" d="m0 0 6 3 2 4-4 2-4-6z" fill="#3E2D18"/>
<path transform="translate(250,176)" d="m0 0 4 5 1 4-1 2-3-1-2-6z" fill="#44301A"/>
<path transform="translate(268,645)" d="m0 0h1v7l-3 3h-3v-3z" fill="#574430"/>
<path transform="translate(615,562)" d="m0 0 6 2-1 5-7-3z" fill="#473928"/>
<path transform="translate(136,304)" d="m0 0 6 1 4 3-3 2-4-1-3-2z" fill="#544129"/>
<path transform="translate(304,237)" d="m0 0h2l3 9-3 1-3-6z" fill="#463928"/>
<path transform="translate(337,207)" d="m0 0 2 3 1 5-3 3-2-3v-6h2z" fill="#413321"/>
<path transform="translate(170,658)" d="m0 0h2l-2 4-10 9-2-1z" fill="#432D14"/>
<path transform="translate(607,558)" d="m0 0 6 2 2 1-2 4-6-3z" fill="#3E2C16"/>
<path transform="translate(673,516)" d="m0 0h8l4 2-3 2-7-1-2-1z" fill="#493B28"/>
<path transform="translate(387,461)" d="m0 0 1 3-1 2 2 1-3 6-4 1 3-9z" fill="#6C5E4C"/>
<path transform="translate(665,378)" d="m0 0 2 1-1 2-8 2h-7l3-2z" fill="#433421"/>
<path transform="translate(702,245)" d="m0 0h3v4l-5 3-3-1 2-4z" fill="#5F4A31"/>
<path transform="translate(182,245)" d="m0 0 4 2 2 4-4 1-4-5z" fill="#46321B"/>
<path transform="translate(472,46)" d="m0 0 5 1 1 3 4 1 4 4-4-1-10-6z" fill="#47321B"/>
<path transform="translate(423,737)" d="m0 0 1 4h2l1 5-4 1-1-1v-8z" fill="#5B452B"/>
<path transform="translate(342,678)" d="m0 0 2 1-3 9-1-2-3-1 1-5z" fill="#4B3C29"/>
<path transform="translate(133,355)" d="m0 0 9 1-3 1v3l-8-2v-2z" fill="#4C371F"/>
<path transform="translate(450,322)" d="m0 0 4 3 5 2 1 2h-2v2l-4-2-4-5z" fill="#4D3923"/>
<path transform="translate(326,233)" d="m0 0 3 1-11 11-1-3 4-4h2v-2h2z" fill="#41301B"/>
<path transform="translate(583,178)" d="m0 0 2 3 1 6-2 2-4-10z" fill="#47331C"/>
<path transform="translate(272,89)" d="m0 0h2l-2 4-10 11v-3z" fill="#5D4A35"/>
<path transform="translate(424,25)" d="m0 0 7 1-1 4-7-1-1-3z" fill="#4A3B28"/>
<path transform="translate(303,726)" d="m0 0h2l-1 7-5 2 2-7z" fill="#412E17"/>
<path transform="translate(511,543)" d="m0 0 3 1-2 5-3 4-1-2 2-7z" fill="#402B13"/>
<path transform="translate(128,468)" d="m0 0 4 1v2h-14l1-2z" fill="#3E3221"/>
<path transform="translate(89,368)" d="m0 0h7l3 3-1 1h-6l-3-3z" fill="#3F2A13"/>
<path transform="translate(581,341)" d="m0 0 4 1 2 1 1 7-7-6z" fill="#402B14"/>
<path transform="translate(230,328)" d="m0 0h2l-1 4-6 5-1-3 5-5z" fill="#402D17"/>
<path transform="translate(560,196)" d="m0 0h2l-1 5-5 2-2 4v-3z" fill="#5E4931"/>
<path transform="translate(254,185)" d="m0 0h2l3 6-1 3-3-1-2-6z" fill="#423421"/>
<path transform="translate(578,171)" d="m0 0 3 1 2 4-1 4-4-4-1-4z" fill="#3F2A14"/>
<path transform="translate(400,22)" d="m0 0 7 2 1 2h-13z" fill="#49341C"/>
<path transform="translate(597,703)" d="m0 0 6 1 1 5-3 1-4-5z" fill="#50402D"/>
<path transform="translate(650,609)" d="m0 0 5 2 2 1-1 5-4-2-1-4-2-1z" fill="#493A28"/>
<path transform="translate(376,178)" d="m0 0 1 4-2 4-4 1 1-7 3 1z" fill="#4E3923"/>
<path transform="translate(664,618)" d="m0 0 5 2 7 5v2l-6-2-5-5z" fill="#4F381C"/>
<path transform="translate(727,529)" d="m0 0h8v3l-1 1h-5z" fill="#4A3620"/>
<path transform="translate(170,390)" d="m0 0 1 2-8 7-3 3-2-1 4-5z" fill="#3E2C17"/>
<path transform="translate(535,189)" d="m0 0 3 1-1 5-3 3-2-1 2-6z" fill="#453521"/>
<path transform="translate(296,65)" d="m0 0v3l-3 5-4 2v-3z" fill="#4F3D29"/>
<path transform="translate(511,698)" d="m0 0 3 4 1 4-3 1-3-4z" fill="#3D2E1A"/>
<path transform="translate(585,546)" d="m0 0 3 2-8 7-3-1z" fill="#3E2913"/>
<path transform="translate(368,470)" d="m0 0h6v2l-5 2h-5l1-3z" fill="#4F4333"/>
<path transform="translate(139,357)" d="m0 0 5 1 4 3 2 2-7-1-4-2z" fill="#3C2B17"/>
<path transform="translate(730,299)" d="m0 0h5l-1 3-7 3v-5z" fill="#634E35"/>
<path transform="translate(485,191)" d="m0 0 1 4-5 10-1-3 4-10z" fill="#40301B"/>
<path transform="translate(443,31)" d="m0 0 4 1 8 4v1l-8-1-1-2-3-1z" fill="#412B13"/>
<path transform="translate(301,733)" d="m0 0 2 1-2 8-3-3v-4z" fill="#5D4B38"/>
<path transform="translate(632,627)" d="m0 0 4 1 1 5-6-2z" fill="#453623"/>
<path transform="translate(468,557)" d="m0 0m-2 1 2 1v2l-9 5 2-5z" fill="#453623"/>
<path transform="translate(107,494)" d="m0 0h4v4h-9v-2z" fill="#5C4932"/>
<path transform="translate(648,336)" d="m0 0 2 1-3 3-8 3-3-1z" fill="#3C2D1A"/>
<path transform="translate(302,230)" d="m0 0 3 4 1 3-4 1-2-4v-3z" fill="#412C14"/>
<path transform="translate(298,224)" d="m0 0h3l2 6-4 2-2-7z" fill="#4B3D2B"/>
<path transform="translate(460,190)" d="m0 0h2l-1 10-2 2-1-3z" fill="#50391D"/>
<path transform="translate(628,345)" d="m0 0 4 1-5 1z" fill="#42311B"/>
<path transform="translate(260,104)" d="m0 0v3z" fill="#7B6A55"/>
<path transform="translate(632,344)" d="m0 0 2 1z" fill="#A69B8D"/>
<path transform="translate(623,314)" d="m0 0" fill="#50391D"/>
<path transform="translate(162,551)" d="m0 0" fill="#50391D"/>
<path transform="translate(650,383)" d="m0 0" fill="#FDFDFD"/>
<path transform="translate(564,317)" d="m0 0" fill="#50391D"/>
<path transform="translate(210,273)" d="m0 0" fill="#50391D"/>
<path transform="translate(587,272)" d="m0 0" fill="#FDFDFD"/>
<path transform="translate(209,272)" d="m0 0" fill="#382B1A"/>
<path transform="translate(208,271)" d="m0 0" fill="#382B1A"/>
<path transform="translate(254,112)" d="m0 0" fill="#FDFDFD"/>
<path transform="translate(255,111)" d="m0 0" fill="#50391D"/>
<path transform="translate(256,110)" d="m0 0" fill="#FDFDFD"/>
<path transform="translate(257,108)" d="m0 0" fill="#50391D"/>
<path transform="translate(258,107)" d="m0 0" fill="#50391D"/>
</svg>
