<?xml version="1.0" encoding="UTF-8"?>
<svg version="1.1" viewBox="0 0 800 892" width="1280" height="1280" xmlns="http://www.w3.org/2000/svg">
<path transform="translate(390,17)" d="m0 0h23l18 4 16 7 11 6 11 8 12 11 14 14 13 17 13 20 5 3 16 6 24 11 23 13 18 12 16 12 11 9 5 4 2 3 9-3 9 1 5 3 4 5 2 5v6l-3 8 12 14 12 15 12 18 9 15 12 22 11 25 11 33 7 29 4 25 3 24v4l9 2v4l-4 4-1 10 1 5 5 2-1 4-8 3-2 10-5 37-6 27-8 26-8 21-7 16-10 19-10 17-8 12-8 11-10 13-11 12 1 7 1 9-3 6-4 5-9 3-9-2h-5l-8 8-17 13-17 12-20 12-23 12-35 15-10 16-13 17-9 10-18 18-16 11-16 8-14 5-16 2h-16l-14-2-15-5-16-8-14-10-10-9-8-7-9-11-12-15-13-20-14-6-18-8-16-8-17-9-19-12-13-10-14-11-9-8-7 1-8 1-7-3-5-6-2-5v-6l3-8-5-5-11-14-12-16-13-20-12-21-11-23-10-27-9-30-6-29-4-36 1-3h-8l-3-2 1-5 4-4 1-7-6-12 9-4 7-48 6-26 7-24 11-28 16-32 13-21 13-18 11-14 10-12-3-6v-9l6-9 5-3 8-1 10 2 10-8 16-13 24-16 19-11 15-8 20-9 15-6 9-12 11-16 9-11 9-10 8-8 13-10 13-8 14-7 13-4zm5 3-20 4-14 5-16 9-13 10-24 24-10 13-8 12-3 5 9-1 22-6 56-11 9-2-2-5-8-12-3-4 5 1 12 9 4 2 4-15 5-25h3v7l7 32 6-2 14-10-1 4-7 12-2 3v3l64 13 22 6 8 1-6-11-10-13-9-11-18-18-15-11-14-8-16-6-20-4zm6 30-7 26v2l-5-3-4-1 1 5 2 4-6 2-21 4 3 3 22 5 2 1-2 4-1 5 4-2 5-1 6 25 2 2 4-20 3-7 3-1 1 3 5 2-2-6-3-5 14-2 14-4v-2l-26-5 1-4 3-7-5 2-3 2h-3l-3-11-3-16zm-51 42-24 4-34 9-8 3-6 8-9 17-11 22 11-25 8-16v-2l-6 1-20 8-22 11-21 13-16 11-14 11-14 12-1 4 2 5-1 9-7 8-5 2-9-1-3-2h-3l-8 11-13 16-11 16-10 16-9 16-12 25-10 27-7 24-6 27-4 28-1 17 6 4 5 8v7l-3 5-7 7v13l3 27 6 29 9 31 10 25 12 25 13 23 12 17 9 12 13 16 4 4 7-1h9l6 4 5 8-1 9-1 5 11 10 13 10 14 10 17 11 27 15 25 11 7 2-2-6-8-15-15-35-12-34-8-28-5-19-2-9-7-8-10-11-11-14-11-16-12-21-9-19-10-30-5-23-3-20v-48l4-25 4-17 9-27 9-20 10-18 12-18 13-16 9-10v-2l4-2 12-12 11-9 27-18 12-7 20-9 15-6 21-6 19-4 25-3 20-1 27 2 25 4 20 5 25 9 21 10 17 10 16 11 11 9 7 6 1-4-10-37-12-36-11-27-13-28-7-11-5-4-27-8-29-6h-11l-27 6-1 4 8 12 3 6-18-11-3-1-4 17-3 14v7l-3-3-5-22-3-12h-4l-15 10h-2l9-14 3-5-7-3-20-4zm175 20 8 16 13 28 11 30 9 28 8 30 3 14 9 9 9 11 11 13 7 11 9 14 8 15 9 21 7 21 6 28 2 14 1 13v30l-2 22-6 29-8 24-10 23-10 18-12 18-11 14-7 8v2l-4 2-17 17-14 11-13 9-15 9-15 8-25 10-15 5-21 5-10 2-31 2h-22l-25-2-28-6-22-7-21-9-23-12-18-12-11-9-10-8-2 1 5 16 7 25 10 30 11 28 12 25 10 19 5 3 15 5 29 7 12 2h13l12-3 15-3-2-5-11-16 5 1 8 6 6 5 3-1 8-36v-3l2 1 5 25 3 13 6-2 14-10v3l-10 16v3l27 6h13l29-6 25-7 9-4 16-6 16-7 16-8 25-15 17-12 20-16 5-5 1-3-2-5v-7l4-7 5-4 3-1h9l6 1 9-9 13-17 10-14 12-20 12-22 9-20 8-21 7-24 6-26 5-36 1-12-9-8-2-4v-7l4-8 7-6-2-19-4-29-7-31-11-33-12-27-10-19-11-18-12-17-10-13-11-13-1-2h-5l-4 2-9-1-6-4-4-7v-7l2-4-1-5-14-12-16-12-15-10-20-12-23-12-21-9zm-379 66-5 3-5 6-1 6 6 8 7 3 6-1 6-5 1-3v-8l-4-6-7-3zm505 0-6 3-5 7v7l4 6 8 3 7-1 6-7 1-7-5-8-7-3zm-247 13-1 10-1 53-1 5-1-65-1-2h-11l-17 1-9 3 2 16 7 47v7l-8-41-5-27-1-2-9 1-20 5-7 3 3 10 13 38 6 21-8-19-16-46-1-2-7 1-19 8-8 4-1 3 9 16 10 18 8 16 6 13-7-11-10-18-13-23-5-10-6 1-19 12-7 6 1 4 11 14 9 12 13 17 7 11-5-4h-2l-9 19-4-1-2 4-3-1-3-5-4 2-4 8 1 8 12 6 2-3v-10l2-4 10-5 3-2 1-9h1v7l-1 4 10 11 9 12-5-5-13-14-6-1-5 5-4 5v10l7 3 14 1 21 7 17 6 3-1 2-17 2-6 2-16 2-3-1-6-19-41-5-13h3l2 5 13 30 7 18 1 5v20l1 20 2 12 2 8 5 7 8 6 13 13 10 7 10 9 6 5 5-1 13-11 7-6 11-9 9-9 9-6 3-7 1-6 1-22 2-5v18l3 3-2 4-4 11-3 5h13l1-5-3-12h2v-8l-5-21-2-7-1-12 3 2 2 9 4 27v6l11-3 9-3 8-2 10-3 5-2 18-2 4-3h-2l1-9-9-9-5-1-11 11-7 8 4-6 11-14 1-2 1-13v-3l-4 1-3 3 13-18 6-8 13-17 11-14v-3l-9-7-13-8-7-4-3 1-15 28-10 17-11 18 19-38 8-14 6-12v-3l-15-8-17-7-2 1-13 37-10 26v-3l12-38 7-20v-4l-11-4-21-5h-3l-3 13-7 37-4 18-1 2 8-53 2-11v-6l-4-2-21-2zm152 55-4 6-7 10-1 3v7l-2 5 3 8 8 13 3 1 7-7 11-9 4-4-1-11-3-8-14-12zm-313 1-10 9-12 11 1 4 14 14 11 9 4 1 6-12v-21l-8-11-4-4zm337 20v6l3 1 1-4zm-319 3-1 2-1 15-8 11v2h-2l-2 4 1 7 2 7 4 4 4-13 2-16 4-3 1-5v-9l-2-5zm-45 3-11 12-10 14-1 3 14 9 12 8 16 11 9 7 6 5h1v-8l-2-8-7-8-5-4 6 1 3 1-1-12-1-6-7-8-10-9-8-7zm368 1-1 1v13l4 29 2 2 19-12 2-4-7-11-12-13-3-3h-3zm-46 0-4 3 1 6 6 7 4 21 4 11h4l-1-2 3-15-7-12-3-4h-2l-3-14zm-270 3-1 4-1 9-1 3 7 8 2 2 4-1 2-5v-7l-6-8zm263 2-7 8-2 4 1 10 3 3 8-7 3-4v-5l-3-4-2-5zm46 4-16 16-5 6-2 11v5l10-5 3-1-5 5-11 9-2 9v7l4-2 20-13 12-8 1-5-5-31-2-3zm-313 16-2 3v9l2 2 7-1 2-5-6-7zm274-1-8 7-1 5 3 4 4-1 4-5v-8zm-20 3v11l5 6 3 2h3l-1-5-8-14zm-327 4-6 9-8 14-3 6v4l16 7 30 14 17 9-20-8-38-16-7-3-3 4-9 24-1 7 6 2 44 12 15 5-11-2-37-9-18-4-3 9-4 22v5l1 1 52 6 16 3-25-2-4-1-22-1-18-1-2 17v9l1 11 68-2-17 2-32 2-15 2-3 1v10l4 23 1 3 8-1 40-9 21-4-41 11-24 6-2 1 1 9 6 18 3 8 3 1 9-4 39-16 14-5-30 14-29 12-3 1 1 6 8 16 7 12 3 1 10-7 19-12 22-13 8-4-10 7-26 17-19 12-3 2 1 5 10 13 9 11 4 2 6-7v-2l5-1 10-10 10-8 7-7 14-11-4 5-9 9-11 9-13 13-8 7 2 14 8 9 5 4h2v2l5 2 8-9 11-14 11-13 8-10 8-9-6 9-16 21-11 14-8 10-2 4 8 7 17 11 3 2h4l12-22 14-24 9-15-2 6-12 23-10 18-8 14v3l8 5 23 10h3l6-17 14-37 5-11-8 26-12 34-1 7 15 5 20 4 2-6 9-47 3-12-1 11-7 44-1 4v7l12 2 11 1h13l1-1 1-13 1-52-7-9-4-2-2 8-2 21-2 4h-1l1-16 1-6v-17l-7-8-8-7-3-3h-2l-5 19-8 32-3 1 9-35 5-17-1-5-6-7h-2l-2-16v-76l-6-20-2-5-1-19-17-7-10-4-17-11h-2l-4-19-2-9-1-10 6 4 9 9 11 7 7 3 8 5 5 4 5 9 2 4 4-2 3-10-11-8-10-6 10 4 10 6 2-1-1-9-9-14-8-10-6-4-15-4-23-7-10-2h-10l-2 3 7 6-4-2-23-12-19-10-6-4-1-3 7 3 17 10 10 6h4l-1-8-3-6-10-8-19-12-16-10-15-10zm421 3-15 9-8 6v9l-2-8-12 7-13 8-10 6-5 4-4 12v2l-15-1-13 2-33 10-8 2-10 12-9 13-2 5v6l6-1 10-6 9-3v2l-5 1-15 8-4 4 2 12 2 1 4-4 8-12 9-6 8-4 7-3 7-6 11-11h2l1 4-3 1v7l-4 19-3 7-16 10-16 7-11 5v13l-3 9-7 20-1 7 3 8 8 39 2 11-4 6-8 10-12 14-7 9-10 11-8 10 1 19 3 20-3-1-3-21-1-12-4 2-6 9-2 1 1 65h18l16-1 4-1-6-39-3-21v-7l6 29 6 35 2 2 24-5 10-3 1-2-8-25-12-38v-3l9 24 12 36 2 5 7-1 22-9 5-3-1-6-8-16-21-41v-2l14 25 6 10 6 11 8 16 4-1 21-13 7-6-2-4-13-17-14-19-12-17 5 5 10 12 22 28 7 8 4-1 10-8v-2l4-2 8-8 2-4-4-4h-2v-2l-8-7-10-10-8-7-16-16-1-3 14 13 11 9 11 11 8 7 7 7 7-6 13-16 4-8-10-7-24-16-17-12-7-6 14 8 15 10 11 7 12 8 6 5 4-2 7-10 9-19v-3l-13-5-24-11-26-13 10 3 32 14 19 8 3 2 5-8 6-17 2-6v-5l-28-8-36-10h4l39 9 19 5 4-1 5-23 1-5v-7l-18-3-27-2-9-2-9-1 28 1 25 2 10 1 2-19-1-17-2-2-20 1h-24l-8 2-16 1 15-3 47-4 7-1-1-14-4-21-1-2-19 4-50 11 20-6 34-9 13-3 1-4-9-27-3-5-17 6-24 10-22 9h-2l28-13 27-12 9-3-4-10-11-21zm-72 3-3 7-5-2-1 4 3 7-1 10 5-1 9-4 1-6-5-15zm-202 20m0 2-2 4-1 14v5l2 2h3l-8 16 8 3 7 1 1-4-6-11-1-6v-12l-2-12zm-83 1 1 13 5 9 4-4 4-9-2-4-10-5zm291 0-13 6 1 5 7 11 3-2 3-14v-6zm-27 8-12 3 4 4 24 9h2v-5l-6-8-2-2zm-247 1-5 8v2h-2l-1 3 5 1 13-5 11-4 2-4-5-1zm228 5-5 4-7 8-9 10-2 3 16-4 22-7 16-3-2-2-20-7-5-2zm-204 1-24 8 4 3 14 3 25 8 9 2-4-7-14-14-4-3zm13 1 2 4 8 8 7 8 4 1 3-6-1-7-5-3-16-5zm183 0m-3 1-17 5-2 1-1 4 3 11h3l7-7 9-11 1-3zm-226 10 1 3v-3zm72 18 2 5 8 11 5 4 2-11v-6l-1-2-3-1zm126-1-9 1-1 1v19l3 1 9-13 5-7-1-2zm-106 5-2 6-1 11 4-2 6-5 3-2-9-8zm91 0-8 6 2 4h2v2l5 3h2v-15zm64 6-10 9-10 7-16 7-7 9-3 5v2l5-1 11-7 27-16 4-10 1-5zm-220 1 2 10 5 5 11 7 12 6 8 6 8 4 2-1-3-6-6-7-10-6-10-5-14-11zm75 3-12 9-2 3v10l7 6 18 12 10 7 3-1 10-17-3-5-12-10-11-9-7-5zm71 0-9 7-13 10-11 10 1 4 6 10 3 6 5-1 17-12 14-10 2-4-1-9-4-5zm-86 6m-55 8v11l13 6 14 2-10 2 4 4h6l1-4 7 3-2-4-8-7-20-11zm210 0-27 16-7 6 4 1 5-3 6-2 11-2 8-5 3-10zm-154 12-3 5-4 13v4l23 1 14-1-4-5-25-17zm98 0-9 7-13 9-6 5v1l16 1 21-1-2-9-4-13zm-49 6-8 13-3 5-1 39v-37l-3-2h-19l9 20 12 24 1 4v20l-1-10-2-12-7-16-13-28-2-2h-20v17l7 10 12 16 10 14 10 13 4 5 4 1 11-13 8 10 4 1 1-32-1-40-4-9-7-11zm92 0-5 2-8 1-1 5-12 1-6 2 1 4 7-1 13-6 7-3 5-3zm-452 6 1 5 1 3v8l-2 5-3 1 1 2h7l7-6 2-5-1-6-3-5-4-2zm715 0-5 5-2 4v7l4 5 5 3 6 1v-4h-2l-1-5v-8l1-7-1-1zm-431 1 3 3h3l5 5 5 1 1-1v-5l-10-2zm96 10-6 3 1 39 3-3 16-33 1-4zm19 1-3 5-8 17-8 16-5 11-1 24v3l5-4 13-18 12-16 16-22v-15l-1-1zm15 28-6 7-13 18-10 14-10 13v2h2l2 4 7 9 3 2 5-10 6-17 14-38 1-4zm-107 1 6 18 7 18 11 29 2 3h2l3-5 5-5 3-5-1-4-14-20-9-11-6-9-7-9zm103 22-5 10-2 8-3 44-1 5v17l5-4 11-14 5-6 1-2v-8l-6-29-2-8-2-13zm-99 1 1 2zm1 2 1 20v56l3 7 8 8 5 2v-14l-2-8-1-15v-14l1-4-10-30-4-8zm87 25 1 2zm-39-12-10 13-8 10-7 9 1 4 6 8 4 3 9-11 6-8 2-1 2 6 7 13 6-1 5-4-1-5-10-11-7-9-2-3-4 1-9 10-10 13 1-4 12-15 5-6v-2l5-1 2 4 16 20 4 4h2l-1-7-12-14-10-14zm38 15-9 21-8 14-16 53-1 2 1-7 10-35 5-16-1-2-3 4-9 3h-12l-8-3-4 1 7 24 9 31 2 4 4-2 8-6 8-10 13-15 3-9 1-27 2-16v-9zm-71 12v23l2 6 2 27 7 9 17 17h2l-1-8-14-49-3-7-6-9-2-5zm34 4-8 10-3 6 8 4 9-1 2-1-2-9-4-9zm-185 68 1 5 4 4h2l-3-9zm-71 73-6 4-3 6 1 7 3 5 8 3 9-3 3-2 2-6-1-6-6-7-2-1zm506-1-7 4-4 6v6l4 6 4 3 7 1 8-4 3-7-1-6-6-7zm-250 73-6 22-2 6-6-4h-2l1 5 2 5-27 5 2 3 17 4 7 1 1 3-3 4v3l5-2 4-1 6 25 2 2 4-20 3-7 3-1v3l5 2-1-5-3-6 14-2 12-3 4-3-24-4-4-1 1-4 3-7-6 2-3 3-2-1-3-11-3-16zm113 28-26 7-28 6-40 8-1 2 12 19 1 2-16-10-5-4-3 9-5 23-1 7-2-2-8-35h-4l-10 7-7 4 6-11 6-9-8-3-44-9-30-7-9-3-4 1 9 14 11 14 11 13 7 7 14 11 14 9 10 5 18 6 7 1h26l14-3 15-6 15-9 11-9 3-2v-2l4-2 13-13 9-11 16-21 1-4z" fill="#4A3824"/>
<path transform="translate(402,187)" d="m0 0 28 2 25 4 20 5 25 9 21 10 17 10 16 11 11 9 7 6 1-5 3 1 2 9 9 9 9 11 11 13 4 6v5l-4-2-6-9-11-12-6-4v13l4 29h2l15-9 4 1-4 4-15 10v18h-1l-2-14-1-2-17 11-20 12-3 6-3 9h-15l-13 2-33 10-8 2-11 14-7 10-2 5-1 6 7-3 9-5 9-2v2l-17 8-4 3h-2l1 13h-2l-2-9-5 3-17 12v-3l5-5 14-10 1-3-1-9-5-5-8-5-9 7-13 10-10 9v4l-4 2-7 12-4 1 2-5 7-12-3-5-16-13-13-10-12 8-2 3-1 7-2-1-3-10-8-12-7-9-6-4-15-4-23-7-10-2h-10v3l7 5-1 2-11-6-31-16-11-7-1-4 5 1 21 12 8 5 4 1-4-13-10-8-19-12-16-10-15-10-3 1-11 19-4 8-1 4 10 3 46 22 9 5-3 1-43-18-21-9-4 8-7 19-1 7 27 7 24 7 15 5v1l-9-1-37-9-22-5-5 24-1 11 52 6 16 3 7 1v1h-10l-22-2-4-1-22-1-18-2-1 26v11l8-1 53-2h13v1l-23 3-32 2-18 2 3 23 2 13 43-10 25-5 3 1-16 5-51 13h-2l5 19 5 13v3l4-1 42-17 18-7 3 1-32 15-29 12h-3l5 12 9 17 2 5 4-1 17-11 18-11 20-12 6-2-5 5-11 7-23 15-19 12-2 1 1 5 10 13 9 11 3 1 6-8 5-2 10-10 10-8 7-7 14-11 2-1-2 4-13 13-11 9-13 13-7 6 2 14 4 5-1 5-4-2-7-8-10-11-11-14-11-16-12-21-9-19-10-30-5-23-3-20v-48l4-25 4-17 9-27 9-20 10-18 12-18 13-16 9-10 17-17 11-9 27-18 12-7 20-9 15-6 21-6 19-4 25-3zm2 4-1 10-1 53-1 5-1-65-1-2h-11l-17 1-9 3 2 16 7 47v7l-8-41-5-27-1-2-9 1-20 5-7 3 3 10 13 38 6 21-8-19-16-46-1-2-7 1-19 8-8 4-1 3 9 16 10 18 8 16 6 13-7-11-10-18-13-23-5-10-6 1-19 12-7 6 1 4 11 14 9 12 13 17 7 11-5-4h-2l-9 19-4-1-2 4-3-1-3-5-4 2-4 8 1 8 12 6 2-3v-10l2-4 10-5 3-2 1-9h1v7l-1 4 10 11 9 12-5-5-13-14-6-1-5 5-4 5v10l7 3 14 1 21 7 17 6 3-1 2-17 2-6 2-16 2-3-1-6-19-41-5-13h3l2 5 13 30 7 18 1 5v20l1 20 2 12 2 8 5 7 8 6 13 13 10 7 10 9 6 5 5-1 13-11 7-6 11-9 9-9 9-6 3-7 1-6 1-22 2-5v18l3 3-2 4-4 11-3 5h13l1-5-3-12h2v-8l-5-21-2-7-1-12 3 2 2 9 4 27v6l11-3 9-3 8-2 10-3 5-2 18-2 4-3h-2l1-9-9-9-5-1-11 11-7 8 4-6 11-14 1-2 1-13v-3l-4 1-3 3 13-18 6-8 13-17 11-14v-3l-9-7-13-8-7-4-3 1-15 28-10 17-11 18 19-38 8-14 6-12v-3l-15-8-17-7-2 1-13 37-10 26v-3l12-38 7-20v-4l-11-4-21-5h-3l-3 13-7 37-4 18-1 2 8-53 2-11v-6l-4-2-21-2zm152 55-4 6-7 10-1 3v7l-2 5 3 8 8 13 3 1 7-7 11-9 4-4-1-11-3-8-14-12zm-313 1-10 9-12 11 1 4 14 14 11 9 4 1 6-12v-21l-8-11-4-4zm337 20v6l3 1 1-4zm-319 3-1 2-1 15-8 11v2h-2l-2 4 1 7 2 7 4 4 4-13 2-16 4-3 1-5v-9l-2-5zm-45 3-11 12-10 14-1 3 14 9 12 8 16 11 9 7 6 5h1v-8l-2-8-7-8-5-4 6 1 3 1-1-12-1-6-7-8-10-9-8-7zm322 1-4 3 1 6 6 7 4 21 4 11h4l-1-2 3-15-7-12-3-4h-2l-3-14zm-270 3-1 4-1 9-1 3 7 8 2 2 4-1 2-5v-7l-6-8zm263 2-7 8-2 4 1 10 3 3 8-7 3-4v-5l-3-4-2-5zm46 4-16 16-5 6-2 11v5l10-5 3-1-5 5-11 9-2 9v7l4-2 20-13 12-8 1-5-5-31-2-3zm-313 16-2 3v9l2 2 7-1 2-5-6-7zm274-1-8 7-1 5 3 4 4-1 4-5v-8zm-20 3v11l5 6 3 2h3l-1-5-8-14zm22 10-3 7-5-2-1 4 3 7-1 10 5-1 9-4 1-6-5-15zm-202 20m0 2-2 4-1 14v5l2 2h3l-8 16 8 3 7 1 1-4-6-11-1-6v-12l-2-12zm-83 1 1 13 5 9 4-4 4-9-2-4-10-5zm291 0-13 6 1 5 7 11 3-2 3-14v-6zm-27 8-12 3 4 4 24 9h2v-5l-6-8-2-2zm-247 1-5 8v2h-2l-1 3 5 1 13-5 11-4 2-4-5-1zm228 5-5 4-7 8-9 10-2 3 16-4 22-7 16-3-2-2-20-7-5-2zm-204 1-24 8 4 3 14 3 25 8 9 2-4-7-14-14-4-3zm13 1 2 4 8 8 7 8 4 1 3-6-1-7-5-3-16-5zm183 0m-3 1-17 5-2 1-1 4 3 11h3l7-7 9-11 1-3zm-226 10 1 3v-3zm72 18 2 5 8 11 5 4 2-11v-6l-1-2-3-1zm126-1-9 1-1 1v19l3 1 9-13 5-7-1-2zm-106 5-2 6-1 11 4-2 6-5 3-2-9-8zm91 0-8 6 2 4h2v2l5 3h2v-15zm-96 16m-134 210 1 5 4 4h2l-3-9z" fill="#463521"/>
<path transform="translate(611,299)" d="m0 0 4 4 8 13 8 15 9 21 7 21 6 28 2 14 1 13v30l-2 22-6 29-8 24-10 23-10 18-12 18-11 14-8 10-5 5-10 9-13 12-18 13-24 14-22 10-19 7-23 6-15 3-31 2h-22l-25-2-28-6-22-7-21-9-23-12-18-12-11-9-10-8v2l10 36 11 33 11 28 12 25 9 19-1 1h-5l-1-2h2l-11-21-15-35-12-34-8-28-5-19-1-9 3 1 2-3 9 7v2l5 1 11-13 8-10 18-22 9-10v3l-8 11-13 17-11 14-8 10-2 4 7 6 17 11 7 3 2-6 14-24 10-18 9-14 1 3-8 16-15 27-9 16v3l16 8 17 7 2-8 10-28 11-28 2-5 1 4-8 26-12 34-2 7 12 3 21 5h2l10-52 4-15h1v8l-8 50-2 11 23 2h13l1-13 1-52-7-9h-3l-2 12-1 15-3 5-2-1 1-16 1-6v-17l-6-6v-2l-4-2-7-7-2-1-2 11-10 40-4 1 1-9 10-37 2-9-6-7v-2h-2l-2-4-1-12v-76l-6-20-2-5v-19l-8-2-19-8-19-12-3-10-4-18v-10l5 2 10 10 11 7 7 3 8 5 6 5 5 9 1 3 3-1 3-10-15-10-8-4 3-1 10 4 10 6 3-1 4 6 10 7 15 10 7 5 6-1-2 5-1 39-2 2v-39l-2-1h-18l14 30 7 13 1 4v20l-1 5h-1l-2-24-6-15-14-29-2-4-20-1 1 17 7 10 12 16 10 14 10 13 3 4 4 1 11-13 4 4 4 6 4 2v-32l-1-40-4-9-6-10v-2l4 1 4 8 3 5v2l8-4 8-6 2 1-2 4-6 4-1 1 7 1h29l-3-9 1-4 2 1 3-3 8-12 8-6 10-5 7-3 5-5h2l1-3 8-7 4-2 1 5-2 1v7l-4 19-3 7-15 10-18 8-10 4v13l-3 9-7 20-1 7 3 8 8 39 2 11-4 6-8 10-12 14-7 9-10 11-8 10 1 19 2 14v6l-4-1-3-21v-12l-4 4-6 8h-2l1 16v49l38-2-3-12-7-48v-13h1l7 35 6 35 1 1 24-5 10-3-9-29-11-35-1-7 3 4 9 24 12 36 1 5 9-3 20-8 4-2-1-6-8-16-21-41-1-5 3 3 14 25 6 10 6 11 7 13v3l11-6 15-10 5-4-2-4-13-17-14-19-12-17 1-2 9 10 10 13 13 16 10 13 2 2 4-1 8-7h2v-2l8-7 5-6-5-5v-2l-4-2-14-14-8-7-17-17-2-4 4 2 12 11 11 9 11 11 8 7 7 7 7-6 11-14 5-8-3-3-30-20-17-12-8-7h3l18 11 17 11 15 10 6 5 4-2 7-11 8-17 1-3-6-1-31-14-16-8-11-6 3-1 17 7 30 13 12 5 3 2 6-12 6-18 1-5-10-2-40-11-19-6 4-1 32 7 31 8h3l5-23 2-12-18-2-27-2-9-2-16-2v-1h17l34 2 19 3 1-26-1-10-1-1-20 1h-24l-8 2-21 1v-1l20-4 47-4h7l-5-31-1-6-15 4-54 12-4-1 24-7 34-9 13-3-2-10-7-20-3-4-33 13-29 12-7 1 2-2 31-14 27-12 8-3-11-23-6-9-4 1-2-3 2-4zm-101 90-10 9-10 7-16 7-7 9-3 5v2l5-1 11-7 27-16 4-10 1-5zm-220 1 2 10 5 5 11 7 12 6 8 6 8 4 2-1-3-6-6-7-10-6-10-5-14-11zm5 17v11l13 6 14 2-10 2 4 4h6l1-4 7 3-2-4-8-7-20-11zm210 0-27 16-7 6 4 1 5-3 6-2 11-2 8-5 3-10zm-154 12-3 5-4 13v4l23 1 14-1-4-5-25-17zm141 6-5 2-8 1-1 5-12 1-6 2 1 4 7-1 13-6 7-3 5-3zm-168 7 3 3h3l5 5 5 1 1-1v-5l-10-2zm96 10-6 3 1 39 3-3 16-33 1-4zm19 1-3 5-8 17-8 16-5 11-1 24v3l5-4 13-18 12-16 16-22v-15l-1-1zm15 28-6 7-13 18-10 14-10 13v2h2l2 4 7 9 3 2 5-10 6-17 14-38 1-4zm-107 1 6 18 7 18 11 29 2 3h2l3-5 5-5 3-5-1-4-14-20-9-11-6-9-7-9zm103 22-5 10-2 8-3 44-1 5v17l5-4 11-14 5-6 1-2v-8l-6-29-2-8-2-13zm-99 1 1 2zm1 2 1 20v56l3 7 8 8 5 2v-14l-2-8-1-15v-14l1-4-10-30-4-8zm87 25 1 2zm-39-12-10 13-8 10-7 9 1 4 6 8 4 3 9-11 6-8 2-1 2 6 7 13 6-1 5-4-1-5-10-11-7-9-2-3-4 1-9 10-10 13 1-4 12-15 5-6v-2l5-1 2 4 16 20 4 4h2l-1-7-12-14-10-14zm38 15-9 21-8 14-16 53-1 2 1-7 10-35 5-16-1-2-3 4-9 3h-12l-8-3-4 1 7 24 9 31 2 4 4-2 8-6 8-10 13-15 3-9 1-27 2-16v-9zm-71 12v23l2 6 2 27 7 9 17 17h2l-1-8-14-49-3-7-6-9-2-5zm34 4-8 10-3 6 8 4 9-1 2-1-2-9-4-9z" fill="#483723"/>
<path transform="translate(548,238)" d="m0 0h6l11 9 7 6 1-5 3 1 2 9 9 9 9 11 11 13 4 6v5l-4-2-6-9-11-12-6-4v13l4 29h2l15-9 4 1-4 4-15 10v18h-1l-2-14-1-2-17 11-20 12-3 6-3 9h-15l-13 2-33 10-8 2-11 14-7 10-2 5-1 6 7-3 9-5 9-2v2l-17 8-4 3h-2l1 13h-2l-2-9-5 3-17 12v-3l5-5 14-10 1-3-1-9-5-5-8-5-9 7-13 10-10 9v4l-4 2-7 12-4 1 2-5 7-12-3-5-16-13-13-10-12 8-2 3-1 7-2-1-3-10-8-12-7-9-6-4-15-4-23-7-10-2h-10v3l7 5-1 2-11-6-31-16-11-7-1-4 5 1 21 12 8 5 4 1-4-13-10-8-19-12-16-10-10-7 1-3 4 1 11 7 22 15 9 7 6 5-1-13-4-6-9-8v-1l7 1 8 5 1 2 4-12 2-16 4-3 1-5v-9l-2-7 2-3h2l8 11 10 13 7 10-1 2-7-5-2 6-7 14-4-1-2 3-4-1-2-5-5 5-2 5 1 8 11 5 1-2v-10l3-5 10-5 3-1v-9h3v7l-1 4 10 11 9 12h-3l-7-8-9-10-6-1h-2l-2 4-4 5v10l6 2 14 1 21 7 17 6 2-1 2-16 2-6 2-16 2-3-1-6-19-41-4-10v-3h3l8 16 15 37 1 5v20l1 20 2 12 2 8 4 6 8 6 13 13 10 7 10 9 6 5 5-1 13-11 7-6 11-9 9-9 7-5h2l3-13 1-22 2-6 2 1v18l3 3-2 4-4 11-3 4h12l-1-7-1-9h2l-2-11-4-18-2-7v-12l4 2 2 9 4 27v5l19-6 8-2 10-3 5-2 18-2 2-2v-9l-8-8-5-1-10 10-7 8-2 1 2-5 11-13 3-5 1-13 1-2-4 1-4 4 2-5 12-16 8-11 11-14 10-13v-3l-4-3zm8 8-4 6-7 10-1 3v7l-2 5 3 8 8 13 3 1 7-7 11-9 4-4-1-11-3-8-14-12zm24 21v6l3 1 1-4zm-42 7-4 3 1 6 6 7 4 21 4 11h4l-1-2 3-15-7-12-3-4h-2l-3-14zm-270 3-1 4-1 9-1 3 7 8 2 2 4-1 2-5v-7l-6-8zm263 2-7 8-2 4 1 10 3 3 8-7 3-4v-5l-3-4-2-5zm46 4-16 16-5 6-2 11v5l10-5 3-1-5 5-11 9-2 9v7l4-2 20-13 12-8 1-5-5-31-2-3zm-313 16-2 3v9l2 2 7-1 2-5-6-7zm274-1-8 7-1 5 3 4 4-1 4-5v-8zm-20 3v11l5 6 3 2h3l-1-5-8-14zm22 10-3 7-5-2-1 4 3 7-1 10 5-1 9-4 1-6-5-15zm-202 20m0 2-2 4-1 14v5l2 2h3l-8 16 8 3 7 1 1-4-6-11-1-6v-12l-2-12zm-83 1 1 13 5 9 4-4 4-9-2-4-10-5zm291 0-13 6 1 5 7 11 3-2 3-14v-6zm-27 8-12 3 4 4 24 9h2v-5l-6-8-2-2zm-247 1-5 8v2h-2l-1 3 5 1 13-5 11-4 2-4-5-1zm228 5-5 4-7 8-9 10-2 3 16-4 22-7 16-3-2-2-20-7-5-2zm-204 1-24 8 4 3 14 3 25 8 9 2-4-7-14-14-4-3zm13 1 2 4 8 8 7 8 4 1 3-6-1-7-5-3-16-5zm183 0m-3 1-17 5-2 1-1 4 3 11h3l7-7 9-11 1-3zm-226 10 1 3v-3zm72 18 2 5 8 11 5 4 2-11v-6l-1-2-3-1zm126-1-9 1-1 1v19l3 1 9-13 5-7-1-2zm-106 5-2 6-1 11 4-2 6-5 3-2-9-8zm91 0-8 6 2 4h2v2l5 3h2v-15z" fill="#392D1E"/>
<path transform="translate(275,107)" d="m0 0 3 1-1 4-17 6-25 12-16 9-27 18-14 11-14 12 1 5 1 8-3 7-8 7-9 1-9-4-2 5-11 13-12 16-10 15-11 18-8 16-8 17-10 27-7 24-6 27-4 28-2 17 5 2 5 6 2 4v7l-3 5-4 5-3 2v13l3 27 6 29 9 31 10 25 12 25 13 23 12 17 9 12 13 16 3 3 7-1h9l6 4 4 5 2 4-1 9-1 5 10 9 13 10 14 10 17 11 27 15 25 11 6 2v2h7l12 5 36 9 12 2h15l5 4 17 4 7 1 2 4-4 7 4-2v5l-11 8-8 4 2-5 7-11 3-5-30-7-35-7-22-6-8-1-2-3-2 3-4-4-26-11-19-9-18-10-19-12-13-10-14-11-9-8-7 1-8 1-7-3-5-6-2-5v-6l3-8-5-5-11-14-12-16-13-20-12-21-11-23-10-27-9-30-6-29-4-36 1-3h-8l-3-2 1-5 4-4 1-7-6-12 9-4 7-48 6-26 7-24 11-28 16-32 13-21 13-18 11-14 10-12-3-6v-9l6-9 5-3 8-1 10 2 10-8 16-13 24-16 19-11 15-8 20-9zm-129 71-5 3-5 6-1 6 6 8 7 3 6-1 6-5 1-3v-8l-4-6-7-3zm-106 253 1 5 1 3v8l-2 5-3 1 1 2h7l7-6 2-5-1-6-3-5-4-2zm105 251-6 4-3 6 1 7 3 5 8 3 9-3 3-2 2-6-1-6-6-7-2-1z" fill="#493824"/>
<path transform="translate(288,384)" d="m0 0 5 2 10 10 11 7 7 3 8 5 6 5 5 9 1 3 3-1 3-10-15-10-8-4 3-1 10 4 10 6 3-1 4 6 10 7 15 10 7 5 6-1-2 5-1 39-2 2v-39l-2-1h-18l14 30 7 13 1 4v20l-1 5h-1l-2-24-6-15-14-29-2-4-20-1 1 17 7 10 12 16 10 14 10 13 3 4 4 1 11-13 4 4 4 6 5 3 5-5 8-10 10-14 6-8h2l-2 5-13 19-13 16-2 4h2l9 12 2 2 3-5 6-16 1-3 5-3v15l-2 29-2-4h-2l3-27h-2l-3 9-8 18-5 8-16 53-3 3 1-8 10-35 5-17-3 4-9 3h-12l-8-3h-3l14 48-1 3-3-3-14-50-7-10-3-7-2-2v21l2 6 2 27 7 9 14 14-2 2h-3l-2 12-1 15-3 5-2-1 1-16 1-6v-17l-6-6v-2l-4-2-7-7-2-1-2 11-10 40-4 1 1-9 10-37 2-9-6-7v-2h-2l-2-4-1-12v-76l-6-20-2-5v-19l-8-2-19-8-19-12-3-10-4-18zm2 6 2 10 5 5 11 7 12 6 8 6 8 4 2-1-3-6-6-7-10-6-10-5-14-11zm5 17v11l13 6 14 2-10 2 4 4h6l1-4 7 3-2-4-8-7-20-11zm56 12-3 5-4 13v4l23 1 14-1-4-5-25-17zm-27 13 3 3h3l5 5 5 1 1-1v-5l-10-2zm23 40 6 18 7 18 11 29 2 3h2l3-5 5-5 3-5-1-4-14-20-9-11-6-9-7-9zm4 23 1 2zm1 2 1 20v56l3 7 8 8 5 2v-14l-2-8-1-15v-14l1-4-10-30-4-8zm87 25 1 2zm-39-12-10 13-8 10-7 9 1 4 6 8 4 3 9-11 6-8 2-1 2 6 7 13 6-1 5-4-1-5-10-11-7-9-2-3-4 1-9 10-10 13 1-4 12-15 5-6v-2l5-1 2 4 16 20 4 4h2l-1-7-12-14-10-14zm1 31-8 10-3 6 8 4 9-1 2-1-2-9-4-9z" fill="#3D2F1E"/>
<path transform="translate(611,299)" d="m0 0 4 4 8 13 8 15 9 21 7 21 6 28 2 14 1 13v30l-2 22-6 29-8 24-10 23-10 18-12 18-11 14-8 9-1-2 6-7 1-5 11-14 2-5-33-22-17-12-8-7h3l18 11 17 11 15 10 6 5 4-2 7-11 8-17 1-3-6-1-31-14-16-8-11-6 3-1 17 7 30 13 12 5 3 2 6-12 6-18 1-5-10-2-40-11-19-6 4-1 32 7 31 8h3l5-23 2-12-18-2-27-2-9-2-16-2v-1h17l34 2 19 3 1-26-1-10-1-1-20 1h-24l-8 2-21 1v-1l20-4 47-4h7l-5-31-1-6-15 4-54 12-4-1 24-7 34-9 13-3-2-10-7-20-3-4-33 13-29 12-7 1 2-2 31-14 27-12 8-3-11-23-6-9-4 1-2-3 2-4z" fill="#473622"/>
<path transform="translate(400,737)" d="m0 0 3 1 5 25 2 9v4l6-3 14-10 2 1-2 5-6 9-4 7 27 6h13l29-6 25-7 4-2 3 1-4 9-8 12-12 16-9 10-18 18-16 11-16 8-14 5-16 2h-16l-14-2-15-5-16-8-14-10-10-9-8-7-9-11-12-15-10-16v-5l5 4 9 14 11 14 11 13 12 11 15 11 12 7 19 7 11 2h26l14-3 15-6 15-9 11-9 3-1v-2l8-7 8-8 9-11 16-21 2-4-16 5-29 7-51 10 6 11 6 9v2l-5-2-12-8-4-3-7 31-1 7h-3l-2-5-7-32-2-1 1-5 4-1 2 4 5 22 5-21 3-5h3v3l4 1-1-4-2-3v-3l9-2 17-4 2-1-2-1-14-2-10-2-1-4 4-7-6 3v2l-5-2-3-11-2-12-1-1-6 24-3 2-5-4-2-1 4 10-6 2-18 3-7-1 2-2 20-4h3l-12-18-2-4 6 1 8 6 6 5h2l8-36z" fill="#483723"/>
<path transform="translate(548,238)" d="m0 0h6l11 9 7 6 1-5 3 1 2 9 9 9 9 11 11 13 4 6v5l-4-2-6-9-11-12-6-4v13l4 29h2l15-9 4 1-4 4-15 10v18h-1l-2-14-1-2-17 11-10 6-10 5-2-1-1-11-7 2 1-3 4-2h3l-1-10-3-8v-3l-3 1-3 7-4-2-1 3 3 7-1 9-3 1v-9l-8-8-5-1-10 10-7 8-2 1 2-5 11-13 3-5 1-13 1-2-4 1-4 4 2-5 12-16 8-11 11-14 10-13v-3l-4-3zm8 8-4 6-7 10-1 3v7l-2 5 3 8 8 13 3 1 7-7 11-9 4-4-1-11-3-8-14-12zm24 21v6l3 1 1-4zm-42 7-4 3 1 6 6 7 4 21 4 11h4l-1-2 3-15-7-12-3-4h-2l-3-14zm-7 5-7 8-2 4 1 10 3 3 8-7 3-4v-5l-3-4-2-5zm46 4-16 16-5 6-2 11v5l10-5 3-1-5 5-11 9-2 9v7l4-2 20-13 12-8 1-5-5-31-2-3zm-39 15-8 7-1 5 3 4 4-1 4-5v-8zm-20 3v11l5 6 3 2h3l-1-5-8-14z" fill="#332616"/>
<path transform="translate(763,432)" d="m0 0 3 1-2 7 1 11 5 2-1 4-8 3-2 10-5 37-6 27-8 26-8 21-7 16-10 19-10 17-8 12-8 11-10 13-11 12 1 7 1 9-3 6-4 5-9 3-9-2h-5l-8 8-17 13-17 12-20 12-23 12-21 9-15 6 1-6 17-6 18-8 16-8 25-15 17-12 10-8 8-7h2l1-3 4-3-2-7v-7l4-7 6-5 3-1h9l6 1 8-8 13-17 10-14 12-20 12-22 9-20 8-21 7-24 6-26 5-36 1-12-9-8-2-4v-7h3 1l1 7 5 5 7 3h2v-2l-3-3-1-3v-8l1-5 3 1zm-112 249-7 4-4 6v6l4 6 4 3 7 1 8-4 3-7-1-6-6-7z" fill="#4B3A26"/>
<path transform="translate(317,57)" d="m0 0h2l-1 3h-2l-2 4h-2l-2 6-4 6-11 15-7 10 8-1 22-6 56-11 9-1-10-16-4-5 4-1 14 10 3 5-5-1 2 5 2 4-2 2-25 5 10 3 16 4v4l-2 2-1 4 6-4 4 1 6 25 4-18 3-7 4-1 4 4 2 1-3-6-2-2v-3l9-2 15-4 7-1h10v1l-9 1-1 3-23 5 1 4 7 11 3 5-1 2-18-11-3-2-2 12-5 26-3-1-2-5-6-27-1-4-5 2-13 9-3 1 2-6 8-11 2-4-14-4-12-2-6-2-24 4-34 9-8 3-6 9-8 15-12 24-1-2 11-25 9-19-2-1h2l1-4 5-5 8-11 12-17 12-14z" fill="#483723"/>
<path transform="translate(264,266)" d="m0 0h2l8 11 10 13 7 10-1 2-7-5-2 6-7 14-4-1-2 3-4-1-2-5-5 5-2 5 1 8 11 5 1-2v-10l3-5 10-5 3-1v-9h3v7l-1 4 10 11 9 12h-3l-7-8-9-10-6-1h-2l-2 4-4 5v10l6 2 7 1v1l-12 1-6 10h-2l1 3 6-1 9-3-1 3-5 2 1 2 14 3 16 5v2l-9-1-15-4-5-1h-10v3l7 5-1 2-11-6-31-16-11-7-1-4 5 1 21 12 8 5 4 1-4-13-10-8-19-12-16-10-10-7 1-3 4 1 11 7 22 15 9 7 6 5-1-13-4-6-9-8v-1l7 1 8 5 1 2 4-12 2-16 4-3 1-5v-9l-2-7zm4 11-1 4-1 9-1 3 7 8 2 2 4-1 2-5v-7l-6-8zm-4 22-2 3v9l2 2 7-1 2-5-6-7zm-9 35 1 13 5 9 4-4 4-9-2-4-10-5zm8 27 1 3v-3z" fill="#382B1C"/>
<path transform="translate(288,384)" d="m0 0 5 2 10 10 11 7 7 3 8 5 6 5 5 9 1 3 3-1 3-10-15-10-8-4 3-1 10 4 10 6 3-1 4 6 10 7 15 10 7 5 6-1-2 5-1 39-2 2v-39l-2-1h-18l14 30 7 13 1 4v20l-1 5h-1l-2-24-6-15-14-29-2-4-20-1v13h-2v-12l-8-2-19-8-19-12-3-10-4-18zm2 6 2 10 5 5 11 7 12 6 8 6 8 4 2-1-3-6-6-7-10-6-10-5-14-11zm5 17v11l13 6 14 2-10 2 4 4h6l1-4 7 3-2-4-8-7-20-11zm56 12-3 5-4 13v4l23 1 14-1-4-5-25-17zm-27 13 3 3h3l5 5 5 1 1-1v-5l-10-2z" fill="#423321"/>
<path transform="translate(512,383)" d="m0 0 3 1v4l-2 1v7l-4 19-3 7-15 10-18 8-10 4v13l-1 5h-3l-2 1 2-4v-15h-20l-7 14-11 23-5 11-1 24-2 1v-32l-1-40-4-9-6-10v-2l4 1 4 8 3 5v2l8-4 8-6 2 1-2 4-6 4-1 1 7 1h29l-3-9 1-4 2 1 3-3 8-12 8-6 10-5 7-3 5-5h2l1-3 8-7zm-2 6-10 9-10 7-16 7-7 9-3 5v2l5-1 11-7 27-16 4-10 1-5zm-5 18-27 16-7 6 4 1 5-3 6-2 11-2 8-5 3-10zm-13 18-5 2-8 1-1 5-12 1-6 2 1 4 7-1 13-6 7-3 5-3zm-72 17-6 3 1 39 3-3 16-33 1-4z" fill="#3A2E1F"/>
<path transform="translate(518,776)" d="m0 0 3 1-4 9-8 12-12 16-9 10-18 18-16 11-16 8-14 5-16 2h-16l-14-2-15-5-16-8-14-10-10-9-8-7-9-11-12-15-10-16v-5l5 4 9 14 11 14 11 13 12 11 15 11 12 7 19 7 11 2h26l14-3 15-6 15-9 11-9 3-1v-2l8-7 8-8 9-11 16-21 2-4-5 2h-8l1-3 12-4z" fill="#45341F"/>
<path transform="translate(350,492)" d="m0 0 2 3 2 15v63l3 7 7 7 5 3-1-14-2-8-1-15v-14l2-2 1 2v21l2 6 2 27 7 9 14 14-2 2h-3l-2 12-1 15-3 5-2-1 1-16 1-6v-17l-6-6v-2l-4-2-7-7-2-1-2 11-10 40-4 1 1-9 10-37 2-9-6-7v-2h-2l-2-4-1-12v-69z" fill="#3A2D1E"/>
<path transform="translate(460,460)" d="m0 0 1 4-5 13-4 14 3 10 8 39 2 11-4 6-8 10-12 14-7 9-10 11-8 10 1 19 2 14v6l-4-1-3-21v-12l-4 4-5 7-5-1-6-7v-2l5 2-2-9 4 2 2 7 11-8 8-10 13-15 3-9 1-25h2l1 2v23l12-14 7-9 1-2v-8l-6-29-2-8-1-9-1-2-4 8-2 8-5 3 3-10 12-33-8 10-2-2 4-6 8-11z" fill="#382A1A"/>
<path transform="translate(316,252)" d="m0 0h3l8 16 15 37 1 5v20l1 20 2 12 2 8 4 6 7 5-4 4-2 11-3 1 1-17h-3l-2-8-5-9-1-6v-12l-2-11-2 13v9l4 2-1 4-2 2-4-1-3-6-21-7 7 8 4 4v2l3 1 1 3-3 1-7-8-8-8-4-3-9 1-11 4h-2l2-4 11-4 2-3-22-1v-1l19-1 21 7 17 6 2-1 2-16 2-6 2-16 2-3-1-6-19-41-4-10z" fill="#403325"/>
<path transform="translate(649,678)" d="m0 0h9l7 4 4 6 1 9-3 6-4 5-9 3-9-2h-5l-8 8-17 13-17 12-20 12-23 12-21 9-15 6 1-6 17-6 18-8 16-8 25-15 17-12 10-8 8-7h2l1-3 4-3-2-7v-7l4-7 6-5zm2 3-7 4-4 6v6l4 6 4 3 7 1 8-4 3-7-1-6-6-7z" fill="#483722"/>
<path transform="translate(400,737)" d="m0 0 3 1 5 25 2 9v4l6-3 14-10 2 1-2 5-6 9-4 7 23 5v3l-14-1-14-3-1-4 4-7-6 3v2l-5-2-3-11-2-12-1-1-6 24-3 2-5-4-2-1 4 10-6 2-18 3-7-1 2-2 20-4h3l-12-18-2-4 6 1 8 6 6 5h2l8-36z" fill="#483723"/>
<path transform="translate(199,306)" d="m0 0 4 1 11 7 22 15 9 7 6 5 1-5 3-2 2 13 5 8 7 1 10-4 2 1-3 3-3 2 28 8 3 1v2l-9-1-15-4-5-1h-10v3l7 5-1 2-11-6-31-16-11-7-1-4 5 1 21 12 8 5 4 1-4-13-10-8-19-12-16-10-10-7zm64 55 1 3v-3z" fill="#392C1D"/>
<path transform="translate(324,402)" d="m0 0 9 2 14 8 3-1 4 6 10 7 15 10 7 5 6-1-2 5-1 39-2 2v-39l-2-1h-18l14 30 7 13 1 4v20l-1 5h-1l-2-24-6-15-14-29-2-4-20-1v13h-2v-12l-2-1 3-2 2-3v3h23l13-1-10-8-18-12-2 1-3 10-3-1 2-9 1-4-15-10-8-4z" fill="#4F4233"/>
<path transform="translate(341,456)" d="m0 0h2l3 7 6 8 13 18 14 19 7 9 4 1 7-8 2 3-9 11-14 18 1 4 6 8v4h-3l-7-10-3-7-5-8-6-20-9-21-7-24-2-5zm6 16 6 18 7 18 11 29 2 3h2l3-5 5-5 3-5-1-4-14-20-9-11-6-9-7-9z" fill="#3C3021"/>
<path transform="translate(444,90)" d="m0 0h10v1l-9 1-1 3-23 5 1 4 7 11 3 5-1 2-18-11-3-2-2 12-5 26-3-1-2-5-6-27-1-4v-7l4 1 6 25 4-18 3-7 4-1 4 4 2 1-3-6-2-2v-3l9-2 15-4z" fill="#473621"/>
<path transform="translate(538,335)" d="m0 0 2 1-2 3-5 1 3 7 6 8 2-6 2-9h1v6h2l-2 6-4 11h-15l-13 2-33 10-8 1 2-3 37-11 16-4-20-7-5-2-5 1-4 2-2 4-7 8-3 3-3-1 11-13 1-2-10 3h-3v-3l9-3 8-2 10-3 5-2 18-2zm-19 7-12 3 4 4 24 9h2v-5l-6-8-2-2z" fill="#3F3223"/>
<path transform="translate(523,284)" d="m0 0 2 1-2 6 1 10 2 2 8-7 3-6 3-2 2 2 4 21 1 3v8l-2-3-2-5v-3l-3 1-3 7-4-2-1 3 3 7-1 9-3 1v-9l-8-8-5-1-10 10-7 8-2 1 2-5 11-13 3-5 1-13 1-2-4 1-4 4 2-5zm15 14-8 7-1 5 3 4 4-1 4-5v-8zm-20 3v11l5 6 3 2h3l-1-5-8-14z" fill="#3F3223"/>
<path transform="translate(550,540)" d="m0 0 4 2 14 8 20 13 15 10 6 5 4-2 7-11 8-16 3-2 1-3h2l-1 6-11 21-14 21-11 14-8 9-1-2 6-7 1-5 11-14 2-5-33-22-17-12-8-7z" fill="#43321E"/>
<path transform="translate(227,636)" d="m0 0 3 1 9 33 11 33 11 28 12 25 9 19-1 1h-5l-1-2h2l-11-21-15-35-12-34-8-28-4-15z" fill="#473622"/>
<path transform="translate(402,424)" d="m0 0 4 1 4 8 3 5v2l8-4 8-6 2 1-2 4-6 4-1 1 7 1h14l-1 2-4 2-7 16-8 16-7 15-1 24-2 1v-32l-1-40-4-9-6-10zm18 18-6 3 1 39 3-3 16-33 1-4z" fill="#3E3123"/>
<path transform="translate(500,782)" d="m0 0h3v2l4 1-27 7-60 12-3 2-1 2-3-4v-3l9-2 17-4 4-1 1-3h16l29-6z" fill="#483622"/>
<path transform="translate(400,33)" d="m0 0h3l5 26 2 9v4h2v2l2 2-3 2-4-1-3-11-2-13-2 3-5 20-1 2-4-1-1-4h2l4-20 4-18z" fill="#4A3925"/>
<path transform="translate(459,311)" d="m0 0 4 2 2 9 4 27v5l10-2-1 3-8 2 1 8 2 7 7-5 2 1-7 7-5 7h-3v-3l-8-1 1-2 7-1-1-7-1-9h2l-2-11-4-18-2-7z" fill="#352819"/>
<path transform="translate(350,492)" d="m0 0 2 3 2 15v67l-4-1-1-12v-69z" fill="#5F503E"/>
<path transform="translate(426,596)" d="m0 0v3l-10 12 1 19 2 14v6l-4-1-3-21v-12l-4 4-5 7-5-1-6-7v-2l5 2-2-9 4 2 2 7 11-8 8-10z" fill="#352819"/>
<path transform="translate(317,57)" d="m0 0h2l-1 3h-2l-2 4h-2l-2 6-4 6-11 15-8 11-3 7-6 9-8 15-12 24-1-2 11-25 9-19-2-1h2l1-4 5-5 8-11 12-17 12-14z" fill="#2C2011"/>
<path transform="translate(518,776)" d="m0 0 3 1-4 9-8 12-12 16-9 10-18 18-6 4-2-1 9-10h2v-2l8-7 8-8 9-11 16-21 2-4-5 2h-8l1-3 12-4z" fill="#372A1A"/>
<path transform="translate(359,89)" d="m0 0 5 2 22 5 3 2-2 4-2 5 4-3h2v5l-18 12-3 1 2-6 8-11 2-4-14-4-12-2 2-2-1-2h2z" fill="#4A3925"/>
<path transform="translate(444,90)" d="m0 0h10v1l-9 1-1 3-23 5 1 4 7 11 3 5-1 2-18-11-1-4 6 1-3-6-2-2v-3l9-2 15-4z" fill="#302314"/>
<path transform="translate(546,340)" d="m0 0h1v6h2l-2 6-4 11h-15l-13 2-33 10-8 1 2-3 37-11 16-4-4-2v-1l7 1 5 2v-5l2 1v2l4-2z" fill="#392B1B"/>
<path transform="translate(554,244)" d="m0 0 2 1-1 5-8 10-2 5v7l-2 4h-2v-3h-3v2l-3 2 1 6 3 4-1 4-5-7-2-4-5 6-2-1 1-4 7-9 20-26z" fill="#332618"/>
<path transform="translate(466,382)" d="m0 0 3 1-13 18-2 5-1 6 7-3 9-5 9-2v2l-17 8-4 3h-2l1 13h-2l-2-9-5 3-17 12v-3l5-5 14-10 1-3v-9l1-5 3 1 2-5z" fill="#392C1D"/>
<path transform="translate(430,763)" d="m0 0 2 1-2 5-6 9-4 7 23 5v3l-14-1-14-3-1-4 4-7-6 1v-4l7-4z" fill="#352818"/>
<path transform="translate(369,764)" d="m0 0 6 1 8 6 7 6-1 2-4-1 4 10-6 2-18 3-7-1 2-2 20-4h3l-12-18z" fill="#483723"/>
<path transform="translate(443,481)" d="m0 0h2l-2 5-13 19-13 16-2 4h2l9 12 1 5-5-5-11-14-9-12-2-1v2h-2l1-5 3-2 7 10 5 3 5-5 8-10 10-14z" fill="#3E3224"/>
<path transform="translate(343,89)" d="m0 0h6l-3 2 4 2-24 4-34 9-7 1 1-5 16-4 25-6z" fill="#483723"/>
<path transform="translate(193,438)" d="m0 0 53 1 13 2v2h-63l-4-1z" fill="#493824"/>
<path transform="translate(605,308)" d="m0 0 4 1-4 4-15 10v18h-1l-2-14-1-2-17 11-10 6-10 5-1-5 1 3 24-16 11-7 3-5h3z" fill="#36291A"/>
<path transform="translate(493,423)" d="m0 0h5l-4 5-1 3-17 8-13 5v13l-1 5h-3l-2 1 2-4v-15l-17-1 1-2h16l2 1v-2l14-5 12-5 4-3-4 1h-8l2-3z" fill="#463726"/>
<path transform="translate(481,206)" d="m0 0 2 1-1 9-19 52-3 6-1-4 13-41 7-20z" fill="#3D2D1B"/>
<path transform="translate(285,341)" d="m0 0h7l21 7 4 1v3l-8-2 7 8 4 4v2l3 1 1 3-3 1-7-8-8-8-4-3-9 1-11 4h-2l2-4 11-4 2-3-22-1v-1z" fill="#403324"/>
<path transform="translate(264,266)" d="m0 0h2l8 11 10 13 7 10-1 2-7-5-2 6-2 2-1-6 1-2v-7l-6-8-4-4-1 3-1 9-3 1v-15l-2-7z" fill="#342718"/>
<path transform="translate(532,564)" d="m0 0 4 2 12 11 11 9 11 11 8 7 4 5-1 1 2 1v2l-6-3v-2l-4-2-14-14-8-7-17-17z" fill="#342718"/>
<path transform="translate(349,240)" d="m0 0 4 4 10 40 3 15-1 4-6-16-10-38-1-8z" fill="#3D2F1F"/>
<path transform="translate(321,210)" d="m0 0h2l9 25 11 34 1 8-2-2-9-23-13-37z" fill="#41301B"/>
<path transform="translate(515,532)" d="m0 0 5 2 19 14 26 20 1 4-5-1-17-13-14-12-11-9z" fill="#372A1B"/>
<path transform="translate(484,598)" d="m0 0 3 3 14 25 6 10 12 22v5l-4-1-8-17-12-22-11-23z" fill="#352819"/>
<path transform="translate(459,334)" d="m0 0 2 1v18l3 3-2 4-4 11-3 4 5 1 1 3-9 1-1 12-2-4v-5h-5l4-6 5-2 3-13 1-22z" fill="#332718"/>
<path transform="translate(382,235)" d="m0 0 4 1 1 3 2 31 1 26-2 1-3-18-2-20-1-18-1-5z" fill="#44331E"/>
<path transform="translate(451,241)" d="m0 0h3l-1 8-12 44-4 12h-1v-7l10-42 4-14z" fill="#483722"/>
<path transform="translate(460,460)" d="m0 0 1 4-5 13-4 14v5h-2l-4 8-2 8-5 3 3-10 12-33-8 10-2-2 4-6 8-11z" fill="#362819"/>
<path transform="translate(341,609)" d="m0 0 1 4-8 26-12 34-2 1-1-6 6-18 10-26z" fill="#392D1D"/>
<path transform="translate(518,227)" d="m0 0 1 4-12 22-10 17-11 18-2 1 2-6 17-33 8-14 3-6 4-1z" fill="#372A1B"/>
<path transform="translate(205,371)" d="m0 0 9 2 24 9 25 10 3 3-11-3-40-13-10-4z" fill="#3A2D1E"/>
<path transform="translate(526,511)" d="m0 0 5 1 16 8 27 14 9 6v4l-16-8-25-14-16-10z" fill="#342615"/>
<path transform="translate(333,363)" d="m0 0h4l-1 5-3 5 7 3 8 2v1l-12 1 2 5-4-1-5-5-4-3-15-4-6-2 2-2 6 1 11 3-1-4 4 1 4 2 2-6z" fill="#382C1C"/>
<path transform="translate(430,59)" d="m0 0 1 4-10 16-1 3 9 1 1 2-2 1h-8l-6-2 1-4 3-6-7 1 1-4 11-7z" fill="#392B1B"/>
<path transform="translate(625,343)" d="m0 0 5 1-4 4-28 11-29 12-7 1 2-2 31-14 27-12z" fill="#372B1C"/>
<path transform="translate(635,382)" d="m0 0h8v3l-62 14-9 1 3-2 32-9z" fill="#352819"/>
<path transform="translate(550,540)" d="m0 0 4 2 14 8 20 13 14 9 1 4-6-1-35-24-10-8z" fill="#342717"/>
<path transform="translate(199,306)" d="m0 0 4 1 11 7 22 15 9 7 6 5-1 2-15-10-19-12-16-10-2-3z" fill="#302415"/>
<path transform="translate(483,252)" d="m0 0h3l-1 6-16 36-8 15-2 1 3-10 13-31 7-16z" fill="#473724"/>
<path transform="translate(513,268)" d="m0 0h3l-1 6-7 10-7 11-13 18-7 9-1-2 11-18 11-17z" fill="#382A1A"/>
<path transform="translate(320,562)" d="m0 0 1 2-8 14-13 20-11 17-4 1 1-5 16-24 13-19z" fill="#3F3223"/>
<path transform="translate(536,489)" d="m0 0 9 2 43 14 9 4v4l-10-3-38-14-13-6z" fill="#342616"/>
<path transform="translate(512,383)" d="m0 0 3 1v4l-6 3-14 12-22 11-8 12v3l-10 3 1-4 2 1 3-3 8-12 8-6 10-5 7-3 5-5h2l1-3 8-7z" fill="#3C2D1C"/>
<path transform="translate(183,342)" d="m0 0 5 1 19 9 23 11 9 5-3 1-43-18-13-6z" fill="#362919"/>
<path transform="translate(285,303)" d="m0 0 2 1v7l-1 4 10 11 9 12h-3l-7-8-9-10-6-1h-2l-2 4-4 5-1 10-3-1v-13l3-5 10-5 3-1v-9z" fill="#423526"/>
<path transform="translate(437,587)" d="m0 0 2 3 8 30 5 21v4l-4-2-5-19-6-26-1-10z" fill="#433422"/>
<path transform="translate(480,565)" d="m0 0 5 5 12 17 9 14 8 12 1 6-5-2-16-27-8-13-6-10z" fill="#3B2E1F"/>
<path transform="translate(302,546)" d="m0 0v3l-7 9-7 7-7 8-9 9-9 11-4 2v-3l10-13z" fill="#332515"/>
<path transform="translate(517,301)" d="m0 0 2 1v10l4 5 3 2h5l4 8-1 9-3 1v-9l-8-8-5-1-10 10-7 8-2 1 2-5 11-13 3-5 1-13z" fill="#312516"/>
<path transform="translate(341,573)" d="m0 0 1 3-6 16-17 39-4 1v-4l16-35 8-16z" fill="#392B1A"/>
<path transform="translate(459,577)" d="m0 0 3 3 14 30 8 20v4l-3-1-8-17-10-25-4-11z" fill="#352717"/>
<path transform="translate(221,274)" d="m0 0h5l10 10 11 9 4 1 3-3 1 3-4 6h-2l-1 8 2 9h-3l-2-7v-10l-4-6-7-7-11-9z" fill="#35291A"/>
<path transform="translate(418,235)" d="m0 0h2l-1 20-5 45h-2v-19l2-17 1-22 2-6z" fill="#463420"/>
<path transform="translate(286,268)" d="m0 0 4 1 7 11 9 14 12 19 4 7-1 2-10-13-20-30-5-7z" fill="#392D1E"/>
<path transform="translate(285,530)" d="m0 0 1 2-10 8-18 14-17 13-6 2 1-4 16-12 19-14z" fill="#36291A"/>
<path transform="translate(499,550)" d="m0 0 7 6 22 22 8 10 5 5v3l-5-1-11-13-11-12-9-11-6-7z" fill="#342819"/>
<path transform="translate(195,405)" d="m0 0h11l46 9 8 3-4 1-54-9-7-2z" fill="#2F2212"/>
<path transform="translate(316,252)" d="m0 0h3l8 16 13 32v6l-2-2-15-33-7-16z" fill="#2F2212"/>
<path transform="translate(290,581)" d="m0 0v3l-8 11-13 17-11 14-4 5h-4l2-5 12-14 8-10 9-11z" fill="#3C2E1E"/>
<path transform="translate(593,375)" d="m0 0h5l1 3-9 3-25 8-24 7-4-1 24-9z" fill="#3C3021"/>
<path transform="translate(365,444)" d="m0 0h2l14 30 7 13 1 4v20l-1 5h-1l-2-24-6-15-14-29z" fill="#3A2D1D"/>
<path transform="translate(523,284)" d="m0 0 2 1-2 6 1 10 2 2 4-3 2 1-2 5 1 6v3l-1 2h-2l-5-9-3-6-3-2-4 1-4 4 2-5z" fill="#403223"/>
<path transform="translate(545,441)" d="m0 0h25l39 1-1 4h-21l-24-2-19-1z" fill="#4C3B28"/>
<path transform="translate(288,384)" d="m0 0 5 2 10 10 11 7 7 3 8 5 6 5 3 5v2l-4-2-5-6-10-6-10-5-14-11-5-3v5l-2-1z" fill="#3E3123"/>
<path transform="translate(574,487)" d="m0 0 9 1 39 9 12 3v4l-8-1-33-9-19-6z" fill="#372A1B"/>
<path transform="translate(543,466)" d="m0 0 11 1 44 7 9 3v2h-7l-38-7-19-5z" fill="#312313"/>
<path transform="translate(599,408)" d="m0 0h8v3l-24 4-28 4h-13l3-2 25-4z" fill="#3A2D1D"/>
<path transform="translate(262,487)" d="m0 0 4 1-24 9-35 12-5-1v-2l30-10z" fill="#362818"/>
<path transform="translate(442,512)" d="m0 0h1v15l-2 29-2-4h-2l3-27h-2l-3 9-2 5-4 1 2-6 6-16 1-3zm-3 10 1 2z" fill="#2E2315"/>
<path transform="translate(581,344)" d="m0 0h4l-1 3-29 15-19 10-6 3-2-1 16-10 10-6z" fill="#352819"/>
<path transform="translate(465,840)" d="m0 0 2 1-4 5-4 4-12 7-17 7-11 3h-5l1-4 14-3 15-6 15-9z" fill="#493824"/>
<path transform="translate(341,456)" d="m0 0h2l3 7 6 8 13 18 8 11-3 1-9-11-6-9-6-8v2l1 4-4-1-3-10-2-5z" fill="#3E3224"/>
<path transform="translate(273,509)" d="m0 0 1 2-26 14-10 6-10 5-9 5-3-1 1-3 47-24z" fill="#332616"/>
<path transform="translate(565,515)" d="m0 0 9 2 29 13 10 4 3 3 2 1v2l-6-1-20-9-16-8-11-6z" fill="#352818"/>
<path transform="translate(254,464)" d="m0 0h5l-1 2-27 5-25 4h-11v-2l21-4z" fill="#392C1E"/>
<path transform="translate(510,584)" d="m0 0 5 4 11 14 13 16 8 11v2l-3 1-14-18-13-18-7-10z" fill="#332617"/>
<path transform="translate(564,315)" d="m0 0h3l-2 4-8 6-5 4-4 17h-1l-1-11-7 2 1-3 4-2h3v-14l3 4 5-2z" fill="#2F2212"/>
<path transform="translate(384,556)" d="m0 0 5 2v2h-5l14 48-1 3-3-3-13-46v-4z" fill="#504333"/>
<path transform="translate(459,311)" d="m0 0 4 2 2 9 4 27v5l-2 1-3-11-3-14-2-7z" fill="#302314"/>
<path transform="translate(257,256)" d="m0 0 5 5 3 5-4 6-1 15-4 6-3-1 3-9v-21l-1-3z" fill="#50402D"/>
<path transform="translate(357,603)" d="m0 0h3l-1 8-8 32-4 1 1-9 8-30z" fill="#453522"/>
<path transform="translate(314,598)" d="m0 0 1 3-8 16-15 27-2 1-1-5 16-28z" fill="#302213"/>
<path transform="translate(401,537)" d="m0 0h2l9 17v2l4 1-7 2-5-14-1-4-5 5-7 10 4 3 3 1v3l-5-1-4-2v-2h-3l2-4 12-16z" fill="#4A3B2A"/>
<path transform="translate(419,562)" d="m0 0h1l-1 8-13 43-3 3 1-8 10-35 4-10z" fill="#483825"/>
<path transform="translate(317,57)" d="m0 0h2l-1 3h-2l-2 4h-2l-2 6-4 6-11 15-4 6-5 2 2-5 12-17 9-11z" fill="#3C2B18"/>
<path transform="translate(309,424)" d="m0 0 13 1 1 2-10 2 3 2 8 1 5 2 6 5 4 2h-2v2l-6-2-17-7-5-4z" fill="#3F3222"/>
<path transform="translate(219,340)" d="m0 0 5 1 28 16-1 4-20-10-11-7z" fill="#302314"/>
<path transform="translate(431,538)" d="m0 0 1 3-11 22h-3l1-7-3 4-9 3h-9v-2l12-3 1-1h5v-2l5-3h2l3-5 1-8z" fill="#322414"/>
<path transform="translate(265,743)" d="m0 0 3 3 14 28-1 2h-5l-1-2h2l-11-21-2-5z" fill="#3D3123"/>
<path transform="translate(639,529)" d="m0 0 1 4-5 12-3-1-1 4h-2v-3l-6-1-7-3 2-1-2-2-2-1 1-2 12 5 3 2 7-12z" fill="#453521"/>
<path transform="translate(369,621)" d="m0 0h1v8l-6 37-2 1-1-2v-9l5-24z" fill="#3B2E1E"/>
<path transform="translate(400,217)" d="m0 0h2l1 2v35l-1 14h-1l-1-9z" fill="#5A4B38"/>
<path transform="translate(250,538)" d="m0 0 2 1-10 7-27 18-3-1 2-4 17-10 15-9z" fill="#302213"/>
<path transform="translate(336,385)" d="m0 0h3l6 9 5 3h2v3l10-8 3 1-5 5-6 4-2 3-1 7-2-1-3-10-8-12z" fill="#36291A"/>
<path transform="translate(499,345)" d="m0 0 2 1-3 5-3 1-2 4-7 8-3 3-3-1 11-13 1-2-10 3h-3v-3l9-3 8-2z" fill="#392D1E"/>
<path transform="translate(334,337)" d="m0 0 2 2v17l4 2-1 4-2 2-4-1-3-6-12-4-1-3 5 1 10 3z" fill="#443729"/>
<path transform="translate(495,813)" d="m0 0 1 2-7 8-19 19-6 4-2-1 9-10h2v-2l8-7 8-8z" fill="#312314"/>
<path transform="translate(371,501)" d="m0 0h3l12 16 4 1 7-8 2 3-9 11-2 1v-2l-4-2-13-19z" fill="#3A2C1C"/>
<path transform="translate(444,90)" d="m0 0h10v1l-9 1-1 3-23 5-2 2v-4l-4-2 15-3z" fill="#3E3223"/>
<path transform="translate(429,618)" d="m0 0h1l7 35v8l-1-3h-3l-4-27z" fill="#423424"/>
<path transform="translate(423,469)" d="m0 0 3 1-10 22-1 24-2 1v-31l3-3z" fill="#5A4B3A"/>
<path transform="translate(295,250)" d="m0 0 5 2 14 27 3 7-1 3-9-16-12-21z" fill="#332617"/>
<path transform="translate(232,513)" d="m0 0 3 1-32 15-7 3-4-1v-2l27-11z" fill="#3C2F1E"/>
<path transform="translate(366,537)" d="m0 0 2 2v21l2 6 1 10v10l-2 1-2-15-1-4-1-15v-14z" fill="#3F3324"/>
<path transform="translate(417,804)" d="m0 0 3 1 12 19v2l-5-2-7-5-1-6-2-1-1-7zm4 11 3 2v-2z" fill="#34281A"/>
<path transform="translate(268,561)" d="m0 0v3l-14 14-11 9-5 4-1-3 15-14z" fill="#382C1E"/>
<path transform="translate(340,302)" d="m0 0 2 3 1 5v22l-6-2v-10l2-7 1-5z" fill="#524332"/>
<path transform="translate(457,610)" d="m0 0 3 4 9 24 2 9-4-1-10-33z" fill="#3C3021"/>
<path transform="translate(337,330)" d="m0 0 6 2 1 24-3 2-1-1v-12l-2-11-2 5h-1v-6z" fill="#332616"/>
<path transform="translate(187,385)" d="m0 0h7l17 5 15 5v1l-9-1-29-7z" fill="#3A2C1B"/>
<path transform="translate(347,478)" d="m0 0 4 2 3 10 7 18v2h-2v-2h-2l-7-16-3-11z" fill="#342717"/>
<path transform="translate(292,406)" d="m0 0 2 1 1 3v8l9 3 5 3 1 4-2 2-13-8-3-10z" fill="#3C3022"/>
<path transform="translate(343,438)" d="m0 0 1 3h31l-1 2-8 1h-3l-20-1v13h-2v-12l-2-1 3-2z" fill="#6F6151"/>
<path transform="translate(457,367)" d="m0 0h2l-2 5-2 3 5 1 1 3-9 1-1 12-2-4v-5h-5l4-6 5-2 2-7z" fill="#46392A"/>
<path transform="translate(470,239)" d="m0 0 2 1-1 6-9 24-3 4 1-7 8-25z" fill="#3A2A17"/>
<path transform="translate(581,324)" d="m0 0m-2 1 2 1-1 3-13 8-9 6-9 4-1-5 1 3 24-16z" fill="#322516"/>
<path transform="translate(483,252)" d="m0 0h3l-1 6-7 16-5 2 1-5 8-18z" fill="#463521"/>
<path transform="translate(598,355)" d="m0 0 2 1-4 4-27 11-7 1 2-2 31-14z" fill="#302213"/>
<path transform="translate(299,591)" d="m0 0 1 3-1 4-2 5-8 12-4 1 1-5z" fill="#4B3A26"/>
<path transform="translate(415,622)" d="m0 0h1l3 22v6l-4-1-2-11 1-15z" fill="#483622"/>
<path transform="translate(538,335)" d="m0 0 2 1-2 3-5 1 3 7 5 7v2h-2l-10-12-7-2 2-2 9-3z" fill="#483C2D"/>
<path transform="translate(359,86)" d="m0 0h10l-3 3h-7l-1 3 2 2-9-1-6-1 1-2h3v-2z" fill="#35291B"/>
<path transform="translate(430,84)" d="m0 0 10 1 14 3v2l-13 1v-2l-11-1-5-1 3-2z" fill="#4C3B27"/>
<path transform="translate(264,337)" d="m0 0 8 1 6 2 7 1v1l-12 1-6 10h-2l-1 3-1-3 5-10-1-3-3-1z" fill="#2B1F10"/>
<path transform="translate(506,364)" d="m0 0 3 1-1 2-26 8-8 1 2-3z" fill="#403324"/>
<path transform="translate(252,553)" d="m0 0 3 3-14 11-6 2 1-4z" fill="#4A3925"/>
<path transform="translate(512,383)" d="m0 0 3 1v4l-6 3-14 12-4 1 1-3 7-6h2l1-3 8-7z" fill="#4A3F31"/>
<path transform="translate(323,610)" d="m0 0 3 3-3 9-5 10-4-1 2-5z" fill="#4B3925"/>
<path transform="translate(273,575)" d="m0 0 2 4-13 15h-4l6-9z" fill="#4B3A26"/>
<path transform="translate(452,494)" d="m0 0 2 3 5 23v3h-2l-1 2-4-18-1-11z" fill="#4C4032"/>
<path transform="translate(413,444)" d="m0 0 2 2 1 39h-3z" fill="#412F1A"/>
<path transform="translate(556,357)" d="m0 0 2 1-4 5-24 12-2-1 16-10 10-6z" fill="#372919"/>
<path transform="translate(530,300)" d="m0 0 2 1-2 5 1 6v3l-1 2h-2l-5-9-1-4 7-3z" fill="#332618"/>
<path transform="translate(359,271)" d="m0 0h1l6 28-1 4-6-16-1-10z" fill="#413425"/>
<path transform="translate(763,432)" d="m0 0 3 1-2 7 1 11-2 2-3-3-1-3v-8l1-5 3 1z" fill="#4A3B29"/>
<path transform="translate(599,408)" d="m0 0h8v3l-16 3h-6l-3-3z" fill="#473928"/>
<path transform="translate(375,787)" d="m0 0h8v3l-18 3-7-1 2-2z" fill="#3D2E1C"/>
<path transform="translate(460,460)" d="m0 0 1 4-4 8-2-2-9 12-2-2 4-6 8-11z" fill="#2C2011"/>
<path transform="translate(414,267)" d="m0 0h2v15l-2 18h-2v-19z" fill="#2F2212"/>
<path transform="translate(288,384)" d="m0 0 5 2 10 10 3 2-1 3-13-10-2-1v5l-2-1z" fill="#382B1C"/>
<path transform="translate(273,120)" d="m0 0 2 4-14 27-3 6-1-2 11-25z" fill="#544635"/>
<path transform="translate(236,527)" d="m0 0 2 1v3l-10 5-9 5-3-1 1-3z" fill="#463522"/>
<path transform="translate(224,484)" d="m0 0 3 1-16 5-12 3h-6l2-3z" fill="#3B2E1E"/>
<path transform="translate(603,390)" d="m0 0 4 1-4 3-27 6-4-1 24-7z" fill="#3F3121"/>
<path transform="translate(254,334)" d="m0 0h1l2 13 5 8 4 2h-3v2h-2l-5-5-4-9-1-3 1-6z" fill="#453827"/>
<path transform="translate(476,613)" d="m0 0 3 4 5 13v4l-3-1-7-15z" fill="#44321E"/>
<path transform="translate(254,464)" d="m0 0h5l-1 2-27 5-4-1 4-3z" fill="#302313"/>
<path transform="translate(284,313)" d="m0 0 4 4 7 8 10 13h-3l-7-8-9-10-6-2z" fill="#3C2F20"/>
<path transform="translate(334,248)" d="m0 0 3 2 6 19 1 8-2-2-8-20z" fill="#3A2D1E"/>
<path transform="translate(195,405)" d="m0 0h11l11 2-1 4-9-1-12-3z" fill="#4E3E2A"/>
<path transform="translate(424,767)" d="m0 0 2 1-3 6-1 4h-2l-1 3-2-3-5 1v-4l7-4z" fill="#44331F"/>
<path transform="translate(527,578)" d="m0 0 5 5 4 5 5 5v3l-5-1-7-9-2-4z" fill="#493824"/>
<path transform="translate(299,79)" d="m0 0 2 1-1 4-9 13-5 2 2-5 10-14z" fill="#322516"/>
<path transform="translate(223,499)" d="m0 0 2 1-4 3-3 2-11 4-5-1v-2z" fill="#3B2E1F"/>
<path transform="translate(447,627)" d="m0 0 2 1 3 13v4l-4-2-4-15z" fill="#473621"/>
<path transform="translate(264,615)" d="m0 0v3l-10 13h-4l2-5 7-8z" fill="#382C1D"/>
<path transform="translate(443,481)" d="m0 0h2l-2 5-11 16-4 1 2-5 10-13z" fill="#514639"/>
<path transform="translate(386,400)" d="m0 0h34l-2 2h-33z" fill="#52422F"/>
<path transform="translate(421,65)" d="m0 0 3 1-1 4-3 5-3-1-1 1h-5l1-4z" fill="#483825"/>
<path transform="translate(195,421)" d="m0 0 12 2 20 3v1h-10l-22-2-1-2z" fill="#463623"/>
<path transform="translate(449,388)" d="m0 0 2 4 1 10-1 2-3-1-4-4-7-5v-2l5 1v2l5 2 2 1z" fill="#37291A"/>
<path transform="translate(290,391)" d="m0 0h1l2 11 4 2 5 3-1 3-6-3-1 3-2-3-2-4-1-8z" fill="#4D4031"/>
<path transform="translate(436,446)" d="m0 0 1 2-8 17-2 4h-3l2-6 7-15z" fill="#3E3122"/>
<path transform="translate(608,424)" d="m0 0m-11 1h11l-2 2-8 2-21 1v-1z" fill="#3B2B18"/>
<path transform="translate(493,423)" d="m0 0h5l-4 5-1 3-5 1 3-5-4 1h-8l2-3z" fill="#4C3F2F"/>
<path transform="translate(349,240)" d="m0 0 4 4 2 7-1 5-3 1-3-13z" fill="#4F3F2C"/>
<path transform="translate(518,776)" d="m0 0 3 1-2 4-8 3h-8l1-3 12-4z" fill="#312413"/>
<path transform="translate(430,763)" d="m0 0 2 1-2 5-6 9-3 3-1-3h2l-1-3 2-2 3-7z" fill="#382B1B"/>
<path transform="translate(323,656)" d="m0 0 3 1-1 8-4 9-2-3 2-10z" fill="#342717"/>
<path transform="translate(632,544)" d="m0 0h2l-1 6-10 19-2-1 2-5 8-16z" fill="#2D2011"/>
<path transform="translate(420,553)" d="m0 0v3l-4 4-9 3h-9v-2l12-3 1-1h5v-2z" fill="#382B1B"/>
<path transform="translate(457,523)" d="m0 0h2l3 11 1 12h-2l-3-13z" fill="#342514"/>
<path transform="translate(369,621)" d="m0 0h1v8l-3 19-3-3 1-9z" fill="#483B2B"/>
<path transform="translate(437,552)" d="m0 0h2l1 2-1 21-3 2z" fill="#3D2F1D"/>
<path transform="translate(424,109)" d="m0 0 4 5 4 6-1 2-10-6v-5z" fill="#463521"/>
<path transform="translate(440,531)" d="m0 0h2l-1 25-2-4h-2l2-18z" fill="#584835"/>
<path transform="translate(581,458)" d="m0 0h17l14 2 5 1v1h-10l-26-3z" fill="#453726"/>
<path transform="translate(174,420)" d="m0 0h14l7 2-4 2h-8l-8-2z" fill="#372B1D"/>
<path transform="translate(442,612)" d="m0 0 3 1 3 11-1 4h-3l-2-8z" fill="#3A2B19"/>
<path transform="translate(384,488)" d="m0 0h2l2 3h1v20l-1 5h-1l-2-24z" fill="#726555"/>
<path transform="translate(420,441)" d="m0 0h23l-1 2-5 3-3 2v-3l-13-2z" fill="#7A6D5E"/>
<path transform="translate(323,433)" d="m0 0 7 1 5 5 4 2h-2v2l-6-2-7-3-2-4z" fill="#534534"/>
<path transform="translate(558,387)" d="m0 0 3 1 1 2-21 6-4-1z" fill="#403324"/>
<path transform="translate(538,273)" d="m0 0h3l5 12 3 6-3 1-5-6-2-11z" fill="#403324"/>
<path transform="translate(429,618)" d="m0 0h1l4 19v5h-2l-1 2-2-13z" fill="#3E2E1B"/>
<path transform="translate(314,598)" d="m0 0 1 3-8 16-2 2h-3l2-5z" fill="#463727"/>
<path transform="translate(190,491)" d="m0 0 4 1 1 2-16 4v-3l-2-1z" fill="#4A3E30"/>
<path transform="translate(487,403)" d="m0 0 5 1-4 3-12 5-4-1 12-7z" fill="#3F3223"/>
<path transform="translate(273,603)" d="m0 0 1 3-8 10-6 2 2-4 8-10z" fill="#483825"/>
<path transform="translate(426,596)" d="m0 0v3l-13 15-3 1v-3l5-5 5-6z" fill="#2F2212"/>
<path transform="translate(268,561)" d="m0 0v3l-14 14-4 1 6-8z" fill="#382A19"/>
<path transform="translate(259,276)" d="m0 0h1v11l-4 6-3-1 3-9z" fill="#443726"/>
<path transform="translate(392,591)" d="m0 0 2 4 4 13-1 3-3-3-4-16z" fill="#564634"/>
<path transform="translate(411,533)" d="m0 0 4 1 7 9 1 3 3 1-2 6-2-2-1-5-10-11z" fill="#443727"/>
<path transform="translate(459,334)" d="m0 0 2 1-1 17h-2l-1 2v-14z" fill="#4A3E2F"/>
<path transform="translate(481,206)" d="m0 0 2 1-1 9-3 6-2-3 1-7z" fill="#322516"/>
<path transform="translate(461,546)" d="m0 0h3l1 5-6 9-6 3 2-4 4-5z" fill="#433626"/>
<path transform="translate(388,270)" d="m0 0h1l1 26-2 1-2-11v-7l1-1z" fill="#574735"/>
<path transform="translate(224,553)" d="m0 0 2 1-2 4-9 6-3-1 2-4z" fill="#36291B"/>
<path transform="translate(585,505)" d="m0 0 9 2 3 2v4l-10-3-3-2h2z" fill="#50402C"/>
<path transform="translate(387,573)" d="m0 0 2 3 3 12v4h-2l-5-16v-2z" fill="#463725"/>
<path transform="translate(503,419)" d="m0 0h4l-2 4-11 7v-3l3-4 4-3z" fill="#322617"/>
<path transform="translate(440,280)" d="m0 0h1l1 9-5 16h-1v-7z" fill="#483826"/>
<path transform="translate(374,546)" d="m0 0h3l6 8v4h-3l-6-8z" fill="#332617"/>
<path transform="translate(593,375)" d="m0 0h5l1 3-9 3-4-1-2-2z" fill="#473929"/>
<path transform="translate(381,633)" d="m0 0h1l1 6 2-1v7l-3 5-2-1z" fill="#4D3C29"/>
<path transform="translate(557,563)" d="m0 0 4 2 5 4v3l-5-1-5-4z" fill="#3B2C1A"/>
<path transform="translate(456,560)" d="m0 0 2 1-11 13h-3l2-4 6-7z" fill="#3A2C1D"/>
<path transform="translate(238,412)" d="m0 0 10 1 11 3 1 2-16-2-6-1z" fill="#403323"/>
<path transform="translate(316,252)" d="m0 0h3l5 10-1 2-3 1-4-10z" fill="#43321E"/>
<path transform="translate(465,254)" d="m0 0 2 1-3 10-4 9-1-4 5-15z" fill="#493824"/>
<path transform="translate(429,788)" d="m0 0 9 1 6 2-1 2-14-1-1-2z" fill="#332514"/>
<path transform="translate(295,630)" d="m0 0 2 3-2 5-4 7-2-2 1-5z" fill="#3C2C18"/>
<path transform="translate(386,523)" d="m0 0h2l-1 5-8 10-4 2 2-5 3-1 2-4z" fill="#514537"/>
<path transform="translate(205,371)" d="m0 0 9 2 5 2-4 1v2l-10-3z" fill="#45341F"/>
<path transform="translate(513,268)" d="m0 0h3l-1 6-5 5h-3l2-5z" fill="#4C3B28"/>
<path transform="translate(405,544)" d="m0 0h2l5 10v2l4 1-7 2-4-11z" fill="#4C3D2C"/>
<path transform="translate(306,368)" d="m0 0 6 1 10 3 1 3-9-2-10-3z" fill="#453829"/>
<path transform="translate(582,362)" d="m0 0 4 2-17 7-7 1 2-2z" fill="#372A19"/>
<path transform="translate(476,273)" d="m0 0 1 3-6 12-2-2 1-5 2-5z" fill="#382A19"/>
<path transform="translate(414,614)" d="m0 0 2 2v6l-1 1-1 10h-1l-1-5v-12z" fill="#2F2212"/>
<path transform="translate(641,517)" d="m0 0 2 1v7l-2 6-4-1 1-5z" fill="#483724"/>
<path transform="translate(334,337)" d="m0 0 2 2v12l-1 5h-3z" fill="#544636"/>
<path transform="translate(600,288)" d="m0 0 4 2v2l4 1 3 4v5l-4-2-6-9z" fill="#322517"/>
<path transform="translate(415,800)" d="m0 0h7l3 3-8 2-1 3-3-4v-3z" fill="#483724"/>
<path transform="translate(431,797)" d="m0 0h4v4l-12 1-1-3z" fill="#3C3022"/>
<path transform="translate(202,525)" d="m0 0h4l-1 3-9 4-4-1v-2z" fill="#332617"/>
<path transform="translate(543,466)" d="m0 0 11 1 10 2 2 2h-8l-15-4z" fill="#2F2212"/>
<path transform="translate(490,428)" d="m0 0m-2 1 2 1-1 3-11 5h-2l1-4 10-4z" fill="#332717"/>
<path transform="translate(491,305)" d="m0 0 1 3-10 13-2 1 2-5 6-10z" fill="#3D2F1F"/>
<path transform="translate(498,294)" d="m0 0h2l-2 5-5 7-4 1 2-5 4-6z" fill="#302213"/>
<path transform="translate(357,603)" d="m0 0h3l-1 8-1 5-4-1z" fill="#493824"/>
<path transform="translate(564,469)" d="m0 0 16 2-3 1v2l-9-1-6-1z" fill="#413424"/>
<path transform="translate(183,342)" d="m0 0 5 1 4 2-1 4-5-1-6-3z" fill="#322517"/>
<path transform="translate(273,509)" d="m0 0 1 2-18 10-1-2 3-3z" fill="#3C2E1F"/>
<path transform="translate(460,445)" d="m0 0h2l1 12-1 5h-3l-2 1 2-4z" fill="#413424"/>
<path transform="translate(499,408)" d="m0 0 3 2-16 9-2-1 3-3z" fill="#312313"/>
<path transform="translate(304,422)" d="m0 0 5 2 1 4-2 2-7-4v-3z" fill="#332618"/>
<path transform="translate(221,360)" d="m0 0 5 1 13 7-3 1-14-6z" fill="#3B2C1B"/>
<path transform="translate(538,311)" d="m0 0 1 4-2 4-4-2-1 2h-3l2-5z" fill="#463623"/>
<path transform="translate(416,81)" d="m0 0 13 2 1 2-2 1h-8l-5-4z" fill="#322617"/>
<path transform="translate(457,610)" d="m0 0 3 4 5 14-4-1-4-14z" fill="#3D2E1C"/>
<path transform="translate(435,524)" d="m0 0 2 4-3 9-2 2-3 1 2-6z" fill="#4E3D2B"/>
<path transform="translate(381,478)" d="m0 0 3 1 4 8v6l-2-2v-3h-2l-3-7z" fill="#372919"/>
<path transform="translate(374,464)" d="m0 0 3 1 6 13-3 1-6-12z" fill="#45392B"/>
<path transform="translate(556,357)" d="m0 0 2 1-4 5-6 3h-2l2-5z" fill="#433729"/>
<path transform="translate(492,272)" d="m0 0h3l-2 5-7 11-2 1 2-6z" fill="#433422"/>
<path transform="translate(502,804)" d="m0 0 1 2-6 8-4 2-3 2 2-4 7-8z" fill="#3F3325"/>
<path transform="translate(369,566)" d="m0 0h1l1 10v10l-2 1-2-17h2z" fill="#594A37"/>
<path transform="translate(370,537)" d="m0 0h2l1 2 5-1-2 4v4h-2l-1 2-3-7z" fill="#3D2F20"/>
<path transform="translate(341,345)" d="m0 0h2l1 11-3 2-1-1v-8z" fill="#3D2E1C"/>
<path transform="translate(554,303)" d="m0 0 3 2-3 16-3-1 3-15z" fill="#3D2E1C"/>
<path transform="translate(597,280)" d="m0 0 5 5 5 6-1 2-2-1v-2l-5-1-2-5z" fill="#463420"/>
<path transform="translate(385,265)" d="m0 0 3 1v12l-3 1z" fill="#2B1F10"/>
<path transform="translate(354,255)" d="m0 0h2l1 9-3 3-2-7v-4z" fill="#312313"/>
<path transform="translate(391,807)" d="m0 0 4 1v7l-6-2 1-5z" fill="#2E2112"/>
<path transform="translate(250,538)" d="m0 0 2 1-10 7-6 3 1-4z" fill="#372816"/>
<path transform="translate(478,428)" d="m0 0 1 3-1 2-10 1 2-4z" fill="#645544"/>
<path transform="translate(476,402)" d="m0 0h2v2l-13 6-3-1 3-3z" fill="#4B3F32"/>
<path transform="translate(268,341)" d="m0 0h2l1 5-4 7h-2l-1 3-1-3 5-10z" fill="#392B1A"/>
<path transform="translate(384,626)" d="m0 0h1v12l-3 2v-13z" fill="#342819"/>
<path transform="translate(341,609)" d="m0 0 1 4-4 13-4 2 3-9z" fill="#4B3C2A"/>
<path transform="translate(452,494)" d="m0 0 2 3 2 12-4-2-1-11z" fill="#453728"/>
<path transform="translate(254,464)" d="m0 0h5l-1 2-11 2h-7l1-2z" fill="#3E3021"/>
<path transform="translate(336,357)" d="m0 0 4 1-1 4-2 2-4-1-1-5z" fill="#4F3F2C"/>
<path transform="translate(500,259)" d="m0 0 1 4-5 9-3 1 1-5 4-7z" fill="#332514"/>
<path transform="translate(515,781)" d="m0 0h4l-2 5-6 9-2-1 2-4 4-6z" fill="#3F3121"/>
<path transform="translate(408,600)" d="m0 0 1 3-4 12-2 1 1-8 3-7z" fill="#3E2F1D"/>
<path transform="translate(442,514)" d="m0 0h1v13l-1 4h-2v-6h-2l2-6h1z" fill="#41311E"/>
<path transform="translate(423,469)" d="m0 0 3 1-5 11h-3l2-6z" fill="#4A3D2E"/>
<path transform="translate(309,424)" d="m0 0 13 1 1 2-12 2z" fill="#524332"/>
<path transform="translate(329,412)" d="m0 0 6 4 3 5v2l-4-2-5-6-2-2z" fill="#413426"/>
<path transform="translate(302,408)" d="m0 0 12 6 1 4-11-6-3-3z" fill="#433627"/>
<path transform="translate(285,341)" d="m0 0h7l4 1v2l-23-1v-1z" fill="#473929"/>
<path transform="translate(262,311)" d="m0 0 7 2 1 3-2 3-4-1-3-6z" fill="#493A2A"/>
<path transform="translate(317,57)" d="m0 0h2l-1 3h-2l-2 4h-2l-2 4-5 5 2-5z" fill="#302213"/>
<path transform="translate(437,587)" d="m0 0 2 3 2 7v5l-4-4-1-10z" fill="#302213"/>
<path transform="translate(236,588)" d="m0 0 2 1-1 4-7 6-2-2 7-7z" fill="#453420"/>
<path transform="translate(763,428)" d="m0 0 4 1 1 4-5-1v3h-2l-2-6z" fill="#302417"/>
<path transform="translate(402,424)" d="m0 0 4 1 4 8v3h-2l-6-10z" fill="#4D4134"/>
<path transform="translate(312,308)" d="m0 0h3l7 12-1 2-9-12z" fill="#382B1A"/>
<path transform="translate(415,257)" d="m0 0 3 1-1 16h-1l-2-12z" fill="#41311E"/>
<path transform="translate(360,592)" d="m0 0h3l-2 11h-4z" fill="#382816"/>
<path transform="translate(421,552)" d="m0 0h4l-1 4-3 7h-3l2-7z" fill="#312313"/>
<path transform="translate(224,484)" d="m0 0 3 1-16 5h-2v-3z" fill="#453624"/>
<path transform="translate(314,415)" d="m0 0 6 2 6 5 1 3-4-2-8-5z" fill="#332514"/>
<path transform="translate(227,410)" d="m0 0 9 1 5 2v1h-10l-5-1z" fill="#372A1A"/>
<path transform="translate(187,385)" d="m0 0h7l4 1 1 3h-7l-4-1z" fill="#352819"/>
<path transform="translate(458,352)" d="m0 0 4 2 2 4-3 2v-2l-4 1z" fill="#382816"/>
<path transform="translate(420,786)" d="m0 0 9 1-1 4-9-1z" fill="#463521"/>
<path transform="translate(386,556)" d="m0 0 5 1 7 3v3l-5-1-4-2v-2h-3z" fill="#3E3122"/>
<path transform="translate(401,537)" d="m0 0h2l3 7-2 1-1-4-4 3-3-1z" fill="#372816"/>
<path transform="translate(577,537)" d="m0 0 5 2 2 4-2 1-8-4z" fill="#453420"/>
<path transform="translate(324,402)" d="m0 0 9 2 7 4-3 2-13-7z" fill="#372816"/>
<path transform="translate(343,356)" d="m0 0 2 3 1 7h-3l-2-3v-5z" fill="#4F4232"/>
<path transform="translate(546,340)" d="m0 0h1v6h2l-2 6-1 2h-2l1-9z" fill="#4C3D2C"/>
<path transform="translate(338,261)" d="m0 0h2l4 13-1 3-5-12z" fill="#3A2C1C"/>
<path transform="translate(375,787)" d="m0 0h8v3h-12l1-2z" fill="#2A1E10"/>
<path transform="translate(395,610)" d="m0 0 4 2 3 8-4-1-1 2-1-2z" fill="#3F2E19"/>
<path transform="translate(401,505)" d="m0 0 4 4 1 3h-3l-3-2v2h-2l1-5z" fill="#5F5447"/>
<path transform="translate(443,502)" d="m0 0h2l-1 10-5 3 3-10z" fill="#413423"/>
<path transform="translate(436,446)" d="m0 0 1 2-5 10h-3l2-6 2-4z" fill="#372816"/>
<path transform="translate(215,376)" d="m0 0h7l3 1-1 3-9-1z" fill="#382B1B"/>
<path transform="translate(488,348)" d="m0 0 2 1-1 3-10 2v-3z" fill="#4C4031"/>
<path transform="translate(246,303)" d="m0 0h1l3 14h-3l-2-7v-6z" fill="#524638"/>
<path transform="translate(444,90)" d="m0 0h10v1l-9 1v2l-9-1 1-2z" fill="#281D0F"/>
<path transform="translate(422,769)" d="m0 0 1 2-6 4-1 4h-4v-4l7-4z" fill="#36291A"/>
<path transform="translate(235,589)" d="m0 0m-1 1m-1 1m-1 1m-1 1m-1 1m-1 1m-1 1m-1 1 3 1v2l-6 4v-3l-3-1 5-2z" fill="#50412F"/>
<path transform="translate(366,553)" d="m0 0h1l2 11v6h-2l-1-2z" fill="#493A27"/>
<path transform="translate(362,392)" d="m0 0 3 1-5 5-4 3h-2l2-4z" fill="#2F2212"/>
<path transform="translate(274,310)" d="m0 0h2l-1 6h-3l-4-2 3-3z" fill="#3D3022"/>
<path transform="translate(370,252)" d="m0 0h1l1 7v9l-2-2-2-12h2z" fill="#50412F"/>
<path transform="translate(596,570)" d="m0 0 4 1 2 1 1 4-6-1-2-4z" fill="#2D2011"/>
<path transform="translate(459,533)" d="m0 0 3 1 1 12h-2l-2-8z" fill="#392A17"/>
<path transform="translate(211,503)" d="m0 0 2 1-4 1 1 3-7 1-1-3z" fill="#483622"/>
<path transform="translate(592,426)" d="m0 0 4 1-2 2-17 1v-1z" fill="#443625"/>
<path transform="translate(466,382)" d="m0 0 3 1-7 10-2-3z" fill="#473A2B"/>
<path transform="translate(219,340)" d="m0 0 5 1 3 3-4 2-4-3z" fill="#473622"/>
<path transform="translate(517,301)" d="m0 0 2 1v7l-2 5h-1v-12z" fill="#41321F"/>
<path transform="translate(465,296)" d="m0 0 1 3-5 10-2 1 3-10 1-2h2z" fill="#382816"/>
<path transform="translate(391,103)" d="m0 0 4 1v8l-4-2z" fill="#2A1E10"/>
<path transform="translate(434,92)" d="m0 0 9 1 1 2-10 1v-2l-4-1z" fill="#42301B"/>
<path transform="translate(425,818)" d="m0 0 4 1 3 5v2l-5-2-2-2 1-2-2-1z" fill="#453521"/>
<path transform="translate(365,643)" d="m0 0h1v11l-2 2-1-3v-7z" fill="#312313"/>
<path transform="translate(369,621)" d="m0 0h1v8l-1 6-3 1 1-8z" fill="#42301B"/>
<path transform="translate(304,587)" d="m0 0 1 3-5 8h-2l2-8z" fill="#2F2212"/>
<path transform="translate(430,501)" d="m0 0 1 2-6 8-2-1 2-5z" fill="#392C1C"/>
<path transform="translate(452,471)" d="m0 0v3l-6 8-2-2 4-6z" fill="#372A1B"/>
<path transform="translate(484,417)" d="m0 0m-2 1 3 1-5 4-6 3 2-5z" fill="#4B4033"/>
<path transform="translate(471,412)" d="m0 0 3 1-7 10-2-3z" fill="#574838"/>
<path transform="translate(576,412)" d="m0 0h8l1 2-2 1h-10z" fill="#2F2212"/>
<path transform="translate(599,408)" d="m0 0h8v3h-11z" fill="#36291A"/>
<path transform="translate(459,391)" d="m0 0h2l-1 4-5 7-1-4z" fill="#302213"/>
<path transform="translate(413,286)" d="m0 0h2l-1 14h-2v-9z" fill="#756859"/>
<path transform="translate(336,625)" d="m0 0 2 2-3 9-3-1 1-6z" fill="#382B1B"/>
<path transform="translate(437,441)" d="m0 0h6l-1 2-5 3-3 2v-6z" fill="#665949"/>
<path transform="translate(515,361)" d="m0 0 4 1v2l-11 2 1-3z" fill="#392B1C"/>
<path transform="translate(285,303)" d="m0 0 2 1v7l-3 2v-9zm-3 10 2 1-2 1z" fill="#4C3C29"/>
<path transform="translate(256,266)" d="m0 0h4l-1 10-2-1z" fill="#2D2112"/>
<path transform="translate(341,573)" d="m0 0 1 3-4 11-3-2z" fill="#4A3B29"/>
<path transform="translate(629,548)" d="m0 0 1 4-6 9-1-2z" fill="#42301B"/>
<path transform="translate(455,468)" d="m0 0 2 4-2 9-3-2z" fill="#423525"/>
<path transform="translate(482,405)" d="m0 0 2 1-5 5-7 1 5-4z" fill="#2D2011"/>
<path transform="translate(449,388)" d="m0 0 2 4 1 10-1 2h-2z" fill="#281C0F"/>
<path transform="translate(567,384)" d="m0 0 3 1-3 3-7 1 1-3z" fill="#2F2112"/>
<path transform="translate(295,365)" d="m0 0 8 1 3 1v2l-9-1-2-1z" fill="#2F2112"/>
<path transform="translate(526,359)" d="m0 0h5l-1 2-6 2h-6l3-3z" fill="#2E2112"/>
<path transform="translate(544,332)" d="m0 0h5l-1 5-2-2-7 2 1-3z" fill="#372716"/>
<path transform="translate(522,317)" d="m0 0 4 2h4v5h-3l-5-5z" fill="#382816"/>
<path transform="translate(442,275)" d="m0 0 2 2-1 9-2 1v-11z" fill="#302213"/>
<path transform="translate(476,217)" d="m0 0 2 2 1 5-2 3-3-2z" fill="#463622"/>
<path transform="translate(417,68)" d="m0 0 2 1-3 6h-5l1-4z" fill="#2D2011"/>
<path transform="translate(225,622)" d="m0 0 4 3-1 5-4-2z" fill="#312313"/>
<path transform="translate(595,604)" d="m0 0 3 1-9 10-1-2z" fill="#2E2112"/>
<path transform="translate(417,606)" d="m0 0 1 2-6 7h-2v-3z" fill="#2D2011"/>
<path transform="translate(320,562)" d="m0 0 1 2-5 9h-3l2-5z" fill="#3F301F"/>
<path transform="translate(581,379)" d="m0 0h5l1 3-9 1 1-3z" fill="#372A1B"/>
<path transform="translate(558,339)" d="m0 0m-2 1 3 1-1 2-9 4-1-5 1 3z" fill="#3B2D1D"/>
<path transform="translate(581,344)" d="m0 0h4l-1 3-4 2-4-1 3-3z" fill="#342615"/>
<path transform="translate(255,331)" d="m0 0 12 5-4 2-8-4z" fill="#3E301F"/>
<path transform="translate(534,327)" d="m0 0h1l-1 9-3 1 1-9z" fill="#453421"/>
<path transform="translate(363,289)" d="m0 0h1l2 10-1 4-4-11z" fill="#514332"/>
<path transform="translate(533,279)" d="m0 0 2 1 3 6 1 5-5-5z" fill="#322414"/>
<path transform="translate(573,248)" d="m0 0 3 1 1 9-5-4z" fill="#352615"/>
<path transform="translate(368,84)" d="m0 0h5v2l4 1-9 1v-1l-5-1v-1z" fill="#493723"/>
<path transform="translate(374,83)" d="m0 0h8v3h-9z" fill="#34281A"/>
<path transform="translate(576,457)" d="m0 0h5v1h-5z" fill="#675948"/>
<path transform="translate(370,617)" d="m0 0 1 4z" fill="#9F968C"/>
<path transform="translate(571,486)" d="m0 0 3 1z" fill="#42301B"/>
<path transform="translate(229,397)" d="m0 0 3 1z" fill="#42301B"/>
<path transform="translate(226,396)" d="m0 0 3 1z" fill="#42301B"/>
<path transform="translate(255,159)" d="m0 0" fill="#BEB8B1"/>
<path transform="translate(315,596)" d="m0 0" fill="#42301B"/>
<path transform="translate(458,575)" d="m0 0" fill="#42301B"/>
<path transform="translate(478,562)" d="m0 0" fill="#42301B"/>
<path transform="translate(548,539)" d="m0 0 2 1z" fill="#9F968C"/>
<path transform="translate(286,529)" d="m0 0 2 1z" fill="#42301B"/>
<path transform="translate(563,514)" d="m0 0 2 1z" fill="#9F968C"/>
<path transform="translate(235,512)" d="m0 0 2 1z" fill="#42301B"/>
<path transform="translate(237,511)" d="m0 0 2 1z" fill="#9F968C"/>
<path transform="translate(382,400)" d="m0 0 2 1z" fill="#9F968C"/>
<path transform="translate(535,396)" d="m0 0 2 1z" fill="#42301B"/>
<path transform="translate(526,375)" d="m0 0 2 1z" fill="#9F968C"/>
<path transform="translate(239,369)" d="m0 0 2 1z" fill="#42301B"/>
<path transform="translate(590,347)" d="m0 0" fill="#9F968C"/>
<path transform="translate(590,343)" d="m0 0" fill="#9F968C"/>
<path transform="translate(458,274)" d="m0 0" fill="#42301B"/>
<path transform="translate(254,162)" d="m0 0" fill="#FDFDFD"/>
<path transform="translate(256,157)" d="m0 0" fill="#42301B"/>
<path transform="translate(483,597)" d="m0 0" fill="#42301B"/>
<path transform="translate(316,595)" d="m0 0" fill="#42301B"/>
<path transform="translate(509,583)" d="m0 0" fill="#42301B"/>
<path transform="translate(508,582)" d="m0 0" fill="#42301B"/>
<path transform="translate(291,580)" d="m0 0" fill="#42301B"/>
<path transform="translate(292,579)" d="m0 0" fill="#FDFDFD"/>
<path transform="translate(479,564)" d="m0 0" fill="#42301B"/>
<path transform="translate(531,563)" d="m0 0" fill="#42301B"/>
<path transform="translate(530,562)" d="m0 0" fill="#FDFDFD"/>
<path transform="translate(321,561)" d="m0 0" fill="#42301B"/>
<path transform="translate(498,549)" d="m0 0" fill="#42301B"/>
<path transform="translate(497,548)" d="m0 0" fill="#42301B"/>
<path transform="translate(547,538)" d="m0 0" fill="#42301B"/>
<path transform="translate(252,537)" d="m0 0" fill="#42301B"/>
<path transform="translate(514,531)" d="m0 0" fill="#42301B"/>
<path transform="translate(562,513)" d="m0 0" fill="#FDFDFD"/>
<path transform="translate(525,510)" d="m0 0" fill="#42301B"/>
<path transform="translate(543,441)" d="m0 0" fill="#FDFDFD"/>
<path transform="translate(328,433)" d="m0 0" fill="#FDFDFD"/>
<path transform="translate(561,372)" d="m0 0" fill="#FDFDFD"/>
<path transform="translate(589,342)" d="m0 0" fill="#42301B"/>
<path transform="translate(498,338)" d="m0 0" fill="#42301B"/>
<path transform="translate(479,322)" d="m0 0" fill="#42301B"/>
<path transform="translate(322,322)" d="m0 0" fill="#42301B"/>
<path transform="translate(366,303)" d="m0 0" fill="#FDFDFD"/>
<path transform="translate(291,302)" d="m0 0" fill="#42301B"/>
<path transform="translate(389,298)" d="m0 0" fill="#FDFDFD"/>
<path transform="translate(317,289)" d="m0 0" fill="#42301B"/>
<path transform="translate(253,164)" d="m0 0" fill="#FDFDFD"/>
</svg>
