<?xml version="1.0" encoding="UTF-8"?>
<svg version="1.1" viewBox="0 0 800 888" width="1280" height="1280" xmlns="http://www.w3.org/2000/svg">
<path transform="translate(397,25)" d="m0 0 3 1 6 25v3l6-1-1 2h-4l4 20 2 2 19-12 10-9 8-7 8-6 7-8 4-1 1 2-5 6-12 9-7 8-11 11-11 18v2l36 7 16 4-1 2-17 4-4 2 20 8 16 8 14 9 11 9 13 12 7 8 10 11 6-8h3l-2 6-3 5h-2l9 16 2 1 4-8 8-10h2l-1 6-7 10-3 5 1 7 6 15 2 2 7-10 9-14 4-5h3l-1 5-10 13-11 15 1 8 4 15 13-15 14-15 7-8 5-1-4 7-7 7-9 11-7 7-7 8-4 5 1 20h4l7-6 7-8 10-10 8-7 11-11 6-5h2l-1 5-6 5-5 5-8 7-14 14-8 7-10 9h-2l-1 24 13-10 14-12 14-11 16-13 11-9 5 1-4 5-13 10-17 14-17 13-14 11-6 4-1 2v277l11 7 14 10 19 14 32 24 2 4-4 1-12-9-13-10-16-12-15-12-9-7-10-8 1 22 8 7 8 8 12 9 12 11 10 9 9 7 2 2-1 4-5-2-12-12-4-5-9-6-16-15-10-9-4-3-1 19 4 7 13 13 7 8 18 18 1 5-3 1-14-15-17-17-9-11h-1l-3 19 1 5 8 11v2l4 2 9 11 5 7-1 4-5-4-7-10-8-11-8-7-4 9-3 9 1 5 9 13 5 9-1 3-5-5-8-11-3-5v-2l-3 3-9 17 2 5 5 10-5-1-4-6-4-2-2 5-9 11-9 10-11 10-17 12-14 8-19 9-18 6h-3l5 13 2 8v14l-4 12-5 9-9 10-9 6-10 4-8 2h-11l-13-3-12-6-8-7-7-11-5-13-1-6v-9l4-16 3-7-8-1-25-10-17-9-16-11-10-9-8-7-12-14-2-4h-3l-3 7-3-1 1-7 3-4-11-18-4-6-8-21-5 3h-2l1-5 4-5-4-19v-3l-6 5-9 11-10 10-7 8-4 5-4 2-1-3 9-11 6-7 5-5 10-11 5-6 4-4-1-6v-8l-15 5-13 13-7 5-7 8h-2l-1 3-8 7-4 1 1-4 7-7 14-11 11-12v-1h-8l1-5 10-18 13-16 12-14 4-5v-25l-4 2-4 6-11 14-9 11-13 17-3 3-1 3 10 1h7l-5 5-20 15-16 13-10 8-4-1 6-7 9-7 16-13 11-8 2-3h-11v-3l9-11 4-6-6 1-10 8-10 7-10 6-17 12-6 3-1-4 19-12 5-3 8-6 16-10 13-9 9-6 8-9 8-11 2-3v-245l-4-1-19-13-17-13-13-10-21-16-3-3 1-3 5 2 19 14 16 13 16 12 13 11 2 1v2l6 3-1-23-4-2-10-10-12-9-8-7-4-6-10-7-10-9-1-4h4l15 15 4 3v2l4 2 11 9 13 13 8 7 1-21-4-7-22-22-7-8-8-10 1-3 4 2 16 17 7 8 13 13v2h2l1-9 2-13-8-12-5-6v-2l-4-2-10-13 1-2 4 1 7 9 8 12 8 9 2-2 7-17-1-5-8-11-6-9v-3l4 1 8 11 3 9 4-2 8-14 3-6-3-1-4-7v-4l4 1 6 8 10-13 22-22 13-9 16-10 21-10 9-2v-2l-18-4-3-1v-2l12-3 14-3 1-7 5-11 5-8-2-4-11-11-5-6-13-10-1-4h3l20 18 8 7 5 4 4-1 9-6 15-5 4-20zm1 19-7 32-1 8-6-2-8-6-4-2 2 5 7 11-1 2-38 8 2 4 33 6 4 2-3 6-5 8v2l5-2 12-8 4 23 3 18 3-3 4-15 5-22 4 2 8 6 5 2-3-7-5-8v-3l37-7 2-1v-2l-13-3-24-5-2-1 1-4 8-12-1-2-14 8-4 2-4-23-4-15zm-9 12-10 3-9 6 2 4 14 10 2-3 3-14v-6zm-26 17-6 8-5 13 10-1 13-2 1-3-8-11-3-4zm-8 38-1 1h-7l-21 8-17 9-16 11-13 11-8 8v2l-3 1-9 11-8 11-11 19-8 19-6 24-3 18v284l2 2 4-5 6-12 8-21 11-27 14-29 8-16 13-27 7-9 22-22 9-17 10-23 9-25 10-27 8-21 5-5 12-9 4-2 11-2 1-11-7-8h-2v-8l4-6 5-4-1-7-6-8 1-6 5-5v-16l-9-45-2-2-18 11-14 12-11 9-10 10-4 2 2-4 11-9 20-20 14-21-1-3-11-1zm77 0-10 2 2 5 9 13 4-2 7-12 1-6zm18 1-3 5-8 14-2 2 1 4 12 12 6 7 12 9 1 4-5-3-6-7-14-11-9-9-6 2-8 5-15 6-3 7-2 16v12l6 8-1 6-4 4-1 9 7 8 1 7-4 6-4 5v11l2 1 46 1 12 6 16 10 9 25 6 21 2 4-3 7-7 23-2 13v7l2 7 2 17v30l-6 26-6 18-8 11-9 12-9 19-10 28-9 21-7 6-13 8-11 6-7 4v16l2 18v4l-14 8-11 6-3 3 1 2 16-4 15-6 7 1 16 6 14 3 1 2-13-3-18-6h-3l1 28 2 3h2l1 7-3 5-2 2-1 23 8 4 6 7 1 9-3 7-8 7-3 2-1 32 7 3 13 4 9 4 13-13 7-9 7-6 8-10 6-7 3-1-4 6-8 10-6 4-6 9-14 14-4 5 1 2h2l2 4 3 3 9-2 18-6 22-11 17-12 13-11 13-13 13-17 12-21 7-18 6-20 3-17 1-33v-337l-2-22-6-25-7-18-10-19-9-13-11-13-14-14-14-11-15-9-15-8-15-6zm-39 13-4 17v7l9-3 12-7-1-4-14-10zm15 4m-28 90-6 5-1 4 5 5h7l3-5-3-7-2-2zm1 34-11 1-10 6-9 8-1 3 14 8 9 6 16 10 5 1 14-7 17-6 8-4 21-8-2-4-17-11-7-2zm73 18-3 3-25 10-1 2 24 13 4 3-1 14-2 12-1 2 5-1 11-7 6-3 1-4-5-17-7-21-4-6zm-107 2-4 13v2l21-4-2-4-12-7zm15 13-12 2-7 2-2 3-2 11 2 7 10 14 9 11 11 15 4 3v-13l-6-47-1-7-1-1zm61 1-3 10-5 25-6 28v2l4-1 21-11 15-9-1-3 3-16-1-9-8-6-18-10zm-54 0 2 8 7 61 1 1h10l14-1 2 1 6-25 6-31 2-9v-4l-6 1-21 9-6-2-10-7-4-2zm-36 25-6 16-4 11 1 6 7 10 6 8 10 9 17 13 7 5 11 3 5 4h6l25-15 6-3 6-5 15-27 6-11-1-3-15 8-23 13-5 5-7 14-8 14-1 4h-3l-5-13-4-12-6-11-11-13-8-10-10-13-6-7h-2l4 17 4 20 6 9 9 10 7 8 10 10 1 3-10-10-6-5-8-10-7-8-4-7-6-29-1-8zm137 10-10 5-5 4-8 16-14 26-4 5-27 15 1 3 17 1 6 20 3-1 7-8 11-11 4-8 9-28 11-35zm-149 24-5 10-8 17-5 9 9-1 9-2 10 1 26 7h6l-3-3-9-7-13-11-5-5-11-15zm82 11-4 1-17 1-2 1 1 7 7 19 2 1 13-24 1-6zm58 9-6 16-5 13-7 9-17 17-10 18-5 10 4 17 9 44 2 3 7-15 6-12 9-11 4-5 4-8 7-25 3-13 1-8v-16l-1-10-3-21zm-141 15-13 3-9 4-20 20-9 15-8 18v1l44-1h43l8-6 17-14 17-13 8-6v-2l-5-1h-7l-10-5-44-12-5-1zm92 17-10 2-6 5v2l-4 2-13 10-12 10-12 9v2l28 4 23 3 3 1 6-11 8-15v-7l-4-15-3-2zm-61 44-56 56-8 7-15 14-52 52v2h9l42-6 15-2 6-3 15-14 10-9 12-11 17-16 5-4v-2l4-2 12-11 4-3v-2h2l5-6 9-7v-2l4-2 8-7 8-10-1-5-8-2-28-3zm-75 1-11 2h-5l-6 9-14 29-22 55-5 11-1 16 2 6 4-1 37-37 8-7 18-18 2-1v-2l4-2 58-58v-2zm132 12-9 17-10 21-10 19-8 15-1 6 9-2 40-10 4-2 1-3-4-16-8-39-2-6zm-12 14-16 15-8 7-8 8-8 7-10 9-7 7-8 7-7 7-8 7-15 14-11 9-25 15-24 14-19 11-15 9-17 10-7 5 3 1 15-4 16-4 39-10 13-5 21-13 12-8 26-22 10-8 11-9 16-13 17-33 11-22 4-9zm22 54-48 12-7 4-13 11-8 7-1 1 1 24 14 7 5-2 44-26 5-5 10-24 2-8zm-80 37-17 14-11 9-8 6 1 8 8 26 3 4 9-15 10-17 6-12v-23zm-61 7-14 3-16 2-30 4-6 4-7 9-12 14-10 13-6 12 1 3 7-4 40-24 24-14 26-15 6-4-1-3zm-103 23m167-6-9 17-15 25-4 6-2-3-9-29-3-7-6 2-19 12-10 5-20 6-37 9-2 1 1 9 5 26 7 22 9 19 10 16 7 9 11 13 7 7 10 8 8 6 16 10 23 11 19 6 4-1 7-7-6-9-12-12-6-9-8-6-2-3h-2l-5-10 4 2 9 11 4 5 8 7 11 13 8 8 12-6 15-4 1-3v-26l-3-5-8-6-4-6-1-8 4-8 5-4 6-3v-22l-5-6-1-6 1-3 4-2 2-6v-22l-2-2-12 5-17 5-11 2 5-6 10-7 16-8 4-3-2-35-5 2-7 4-7-1zm-159 47m-3 3m200 70-7 4-5 8 1 7 5 6 4 2h9l5-4 3-5v-9l-6-7-5-2zm2 68-16 4-12 6-10 10-6 12-3 13 1 12 4 12 7 11 9 7 10 5 12 3h9l12-3 10-5 8-7 7-11 5-14 2-12h-2l-9 17-7 7-8 4-11 2-11-1-12-6-7-7-5-10-2-8 1-12 4-9 7-9 10-6 7-3v-2zm7 6-10 2-9 6-6 9-3 8v14l3 8 9 10 8 5 13 2 12-3 9-6 4-5 4-8 1-4v-13l-4-10-8-9-10-5z" fill="#423525"/>
<path transform="translate(394,251)" d="m0 0 5 2v1l-11 1-10 6-8 7-1 3 13 7 9 6 16 10 5 1 14-7 17-6 8-4 18-7h3l-5-5-14-9-7-2-44-1 4-2h43l12 6 17 11 9 25 6 21 2 4-3 7-7 23-2 13v7l2 7 2 17v30l-6 26-6 18-8 11-9 12-9 19-10 28-9 21-8 7-13 8-11 6-6 3v16l2 18v4l-8 5-17 9-3 4 18-4v3l-17 5-11 1 2-4 10-8 22-12-1-15v-20l-12 7-7-1-10-5-14 24-10 17-5 7-2-1-6-19-6-18v-2l-14 8-13 8-8 4-20 6-32 8h-5l3-3 46-12 13-5 21-13 12-8 26-22 10-8 11-9 15-12 17-33 11-22 4-10-16 15-8 7-8 8-8 7-10 9-7 7-8 7-7 7-8 7-15 14-11 9-25 15-24 14-19 11-15 9-17 10-6 4 17-4 2 1-1 2-15 5-13 13-7 5-7 8h-2l-1 3-8 7-4 1 1-4 7-7 14-11 11-12v-1h-8l1-5 10-18 13-16 12-14 4-5v-20l1-2h2v9l1 5 4-1 37-37 8-7 18-18h2v-2l8-7 53-53 1-2-38 1h-31l-11 2h-5l-6 10-13 27-2 3-3 1 3-9 23-46 9-19 7-9 22-22 9-17 10-23 9-25 10-27 8-21 3-1 2-4 10-8 7-4zm78 20-3 3-25 10-1 2 24 13 4 3-1 14-2 12-1 2 5-1 11-7 6-3 1-4-5-17-7-21-4-6zm-107 2-4 13v2l21-4-2-4-12-7zm15 13-12 2-7 2-2 3-2 11 2 7 10 14 9 11 11 15 4 3v-13l-6-47-1-7-1-1zm61 1-3 10-5 25-6 28v2l4-1 21-11 15-9-1-3 3-16-1-9-8-6-18-10zm-54 0 2 8 7 61 1 1h10l14-1 2 1 6-25 6-31 2-9v-4l-6 1-21 9-6-2-10-7-4-2zm-36 25-6 16-4 11 1 6 7 10 6 8 10 9 17 13 7 5 11 3 5 4h6l25-15 6-3 6-5 15-27 6-11-1-3-15 8-23 13-5 5-7 14-8 14-1 4h-3l-5-13-4-12-6-11-11-13-8-10-10-13-6-7h-2l4 17 4 20 6 9 9 10 7 8 10 10 1 3-10-10-6-5-8-10-7-8-4-7-6-29-1-8zm137 10-10 5-5 4-8 16-14 26-4 5-27 15 1 3 17 1 6 20 3-1 7-8 11-11 4-8 9-28 11-35zm-149 24-5 10-8 17-5 9 9-1 9-2 10 1 26 7h6l-3-3-9-7-13-11-5-5-11-15zm82 11-4 1-17 1-2 1 1 7 7 19 2 1 13-24 1-6zm58 9-6 16-5 13-7 9-17 17-10 18-5 10 4 17 9 44 2 3 7-15 6-12 9-11 4-5 4-8 7-25 3-13 1-8v-16l-1-10-3-21zm-141 15-13 3-9 4-20 20-9 15-8 18v1l44-1h43l8-6 17-14 17-13 8-6v-2l-5-1h-7l-10-5-44-12-5-1zm92 17-10 2-6 5v2l-4 2-13 10-12 10-12 9v2l28 4 23 3 3 1 6-11 8-15v-7l-4-15-3-2zm-61 44-56 56-8 7-15 14-52 52v2h9l42-6 15-2 6-3 15-14 10-9 12-11 17-16 5-4v-2l4-2 12-11 4-3v-2h2l5-6 9-7v-2l4-2 8-7 8-10-1-5-8-2-28-3zm57 13-9 17-10 21-10 19-8 15-1 6 9-2 40-10 4-2 1-3-4-16-8-39-2-6zm10 68-48 12-7 4-13 11-8 7-1 1 1 24 14 7 5-2 44-26 5-5 10-24 2-8zm-80 37-17 14-11 9-8 6 1 8 8 26 3 4 9-15 10-17 6-12v-23zm-61 7-14 3-16 2-30 4-6 4-7 9-12 14-10 13-6 12 1 3 7-4 40-24 24-14 26-15 6-4-1-3z" fill="#55493B"/>
<path transform="translate(231,104)" d="m0 0 2 1-24 14-19 12-18 13-16 13-8 7 1 5 2 9-3 8-7 7-5 2-8-1-7-3-7 7-11 14-10 13-10 15-12 20-8 14-11 24-10 28-7 23-6 27-5 32-1 10v9l8 6 4 4 1 3v8l-3 6-4 4-7 2 4 38 7 36 8 28 9 25 9 20 12 24 13 21 9 13 12 16 5 7 6-1 5-3 11-2 14 1 8 4 7 7 6 12v15l-4 10-5 8-14 7-6 1h-8l-10-3-9-6-7-10-3-10v-8l3-9 4-7-1-4-10-12-13-18-12-19-12-21-12-25-10-26-7-23-6-25-4-23-3-24-1-14-8-4-4-7v-9l3-6 8-6h2v-13l5-35 6-29 8-27 9-24 11-24 10-19 13-21 10-14 10-13 8-10 9-11-1-6v-10l4-7 6-5 3-1h8l5 2 4-1 17-14 19-14 19-12 18-10zm-101 59-7 4-4 7 2 9 5 5 6 3 5-1 6-4 3-6v-8l-7-8zm-1 523-9 3-8 7-6 12v12l3 8 5 7 7 5 12 3 10-1 10-5 6-8 4-9v-13l-5-10-7-7-10-4z" fill="#433626"/>
<path transform="translate(661,148)" d="m0 0h18l10 4 6 5 5 8 2 5 1 13-2 9-6 10 2 4 11 13 20 30 12 22 12 25 10 26 8 27 7 34 4 30 1 15 7 5 4 7v9l-5 8-6 3-1 18-4 30-5 25-5 19-11 33-13 29-14 26-14 21-13 18-11 13-7 9 2 10-1 7-6 8-6 3h-9l-7-3-9 9-17 13-12 8-2-1 13-10 10-8 10-9 4-2v-5l-3-7 1-9 4-6 5-4 2-1h11l9 4 1-4 9-10 12-16 11-16 12-20 12-23 9-20 6-15 8-26 6-24 6-36 2-19v-8l-10-5-4-5-1-11 3-6 7-5 6-1-4-31-3-20-7-31-6-20-7-20-11-25-13-25-12-19-13-19-10-12-5 2-7 3-6 1h-9l-10-3-10-9-6-9-2-7v-10l4-10 6-8 8-6zm4 3-9 3-9 8-4 8-1 4v13l5 10 9 8 9 3h10l9-3 10-9 4-9v-14l-4-10-7-7-8-4-4-1zm0 547-5 3-4 5-1 7 3 7 5 4 9 1 6-4 3-5v-10l-5-6-4-2z" fill="#433526"/>
<path transform="translate(379,430)" d="m0 0m-1 1m-2 1 2 1-4 5-1 2 12 1 32 4 1 2h-14l-32-4-4 1-55 55-8 7-15 14-51 51-1 2 46-6 9-2 11-1 6-3 15-14 10-9 12-11 17-16 3-3h2v-2l11-9 5-5 2 1-3 3-2 4-8 7-10 9-7 7-8 7-7 7-8 7-15 14-11 9-25 15-24 14-19 11-15 9-17 10-6 4 17-4 2 1-1 2-15 5-13 13-7 5-7 8h-2l-1 3-8 7-4 1 1-4 7-7 14-11 11-12v-1h-8l1-5 10-18 13-16 12-14 4-5v-20l1-2h2v9l1 5 4-1 37-37 8-7 18-18h2v-2l8-7 53-53 1-2-38 1-31-1 1-2 28-1h43l8-6zm-81 135-14 3-16 2-30 4-6 4-7 9-12 14-10 13-6 12 1 3 7-4 40-24 24-14 26-15 6-4-1-3zm-95 64m-3 3m205-158m-1 1m-1 1m-1 1m-1 1m-2 1 2 1-7 6 2-4zm-7 7 2 1-2 1z" fill="#4E4233"/>
<path transform="translate(412,479)" d="m0 0 1 4-8 16-12 23-4 8-1 3 6-1v2l-10 4-14 11-10 9 1 24 13 6 5-2 17-10 5-2-3 5-6 3v16l2 18v4l-8 5-17 9-3 4 18-4v3l-17 5-11 1 2-4 10-8 22-12-1-15v-20l-12 7-7-1-10-5-14 24-10 17-5 7-2-1-6-19-6-18v-2l-14 8-13 8-8 4-20 6-32 8h-5l3-3 46-12 13-5 21-13 12-8 26-22 10-8 11-9 15-12 17-33 11-22zm-56 81-17 14-11 9-8 6 1 8 8 26 3 4 9-15 10-17 6-12v-23z" fill="#534739"/>
<path transform="translate(406,252)" d="m0 0h43l12 6 17 11 9 25 6 21 2 4-3 7-7 23-2 13v7l2 7v9l-3-4-2-12-1-1-8 22-2-1 1-7 7-21 11-35v-3l-10 5-3 3h-2l-3 9-13 24-3 3h-2l2-5 8-15 6-11v-2l-10 5-2-1 8-6 22-12 3-2-2-11-10-30-3-5-8-7-13-8-7-2-44-1z" fill="#544739"/>
<path transform="translate(483,382)" d="m0 0 3 2 1 9v30l-6 26-6 18-8 11-9 12-9 19-10 28-9 21-8 7-13 8-9 4 2-4 16-10 7-4 5-10 7-17 2-8-11 2-34 8 1-3 14-4 28-7 3-1 1-3-2-6v-8h2l3 10 9-21 7-10 9-11 4-8 7-25 3-13 1-8v-16l-1-10z" fill="#534739"/>
<path transform="translate(663,165)" d="m0 0h14l7 6 1 2v13l-4 5-7 4h-8l-6-3-4-4-2-6 1-9 5-6z" fill="#3C2E1F"/>
<path transform="translate(402,476)" d="m0 0m-1 1m-1 1m-1 1m-1 1m-2 1 2 1-7 6 2-4zm-7 7 2 1-2 1zm-1 2m-1 1m-2 1 2 1-3 3-2 4-8 7-10 9-7 7-8 7-7 7-8 7-15 14-11 9-25 15-24 14-19 11-15 9-11 6 2-4 11-7 46-27 24-14v-2l-16 3-13 1 1-3 20-3 15-2 6-3 15-14 10-9 12-11 17-16 3-3h2v-2l11-9z" fill="#524537"/>
<path transform="translate(493,161)" d="m0 0 2 1v21l6-2 4-4h2l-1 5-3 7 5 1h14l2 3-1 1h-21l5 9-1 3-8-6-3-1 1 9-1 13h-3l-1-1v-20h-4l-2 4-2 2h-3l1-5 3-6-21-1v-3l19-1 2-1-2-6-2-3v-3l5 2 5 4 1-19zm-1 26-3 3v5l7 1 3-7-4-2z" fill="#413324"/>
<path transform="translate(305,161)" d="m0 0h2v22h4l2-4 6-2-2 5-5 8 23 1v3l-22 1 6 9-1 3-10-8v11l-1 13h-2l-1-2-1-22-6 3-5 4-1-3 4-6 1-3-13 1-10-1v-3l20-1 2-1-1-5-4-5v-2l6 2 4 3 3 1 1-21zm-2 26-3 3v5l8 1 1-7-3-2z" fill="#3F3122"/>
<path transform="translate(491,683)" d="m0 0 4 1 1 18 9-6 1 2-4 6-1 4h18l2 1v2l-2 1h-18l4 9-1 3-4-2-2-3h-2v9l-1 9-4 1v-21l-10 7-1-3 5-9h-19l-1-3 4-1h16l-5-9v-2l5 2 3 3 3 1zm1 23-2 2 1 5 5 1 1-4-1-4z" fill="#443627"/>
<path transform="translate(303,682)" d="m0 0h2l1 7-1 14 5-3 4-4 3 1-3 6-2 5h18l2 1v2l-2 1h-11l-7 1 4 7-1 4-8-6-1 1-1 19h-3l-1-15-1-4-4 2-5 3 1-5 3-6-18-1v-4h19l-4-7-2-4 4 1 7 4v-9l1-10zm-1 24-3 2v5l1 1h6l1-4-3-4z" fill="#433626"/>
<path transform="translate(379,430)" d="m0 0m-1 1m-2 1 2 1-4 5-1 2 12 1 32 4 1 2h-14l-32-4-4 1-55 55-8 7-2 1 2-4 50-50 8-10-38 1-31-1 1-2 28-1h43l8-6z" fill="#504436"/>
<path transform="translate(129,697)" d="m0 0h10l8 4 4 6 1 3v7l-3 7-5 5-4 2h-12l-8-6-3-6v-10l4-6 6-5zm2 4-6 3-4 7 1 9 4 5 3 2h10l7-6 2-9-3-6-6-5z" fill="#433526"/>
<path transform="translate(514,236)" d="m0 0 4 1 2 6 3 2-1 7h11l-1 3-8 2-4 5-3 8-3 1-4-9-2-3v-3l-10-1v-3h11l-1-7 5-1v-7zm4 8m-3 17v2l4-2z" fill="#413324"/>
<path transform="translate(77,449)" d="m0 0h83l9 2 2 2-69 1-2 1h-23z" fill="#433526"/>
<path transform="translate(94,346)" d="m0 0 7 1 45 15 33 12 6 4-3 1-50-16-38-13z" fill="#453829"/>
<path transform="translate(143,252)" d="m0 0 5 2 19 14 16 13 16 12 13 11 2 1v2l4 2 1 2-4-1-19-13-17-13-13-10-21-16-3-3z" fill="#443627"/>
<path transform="translate(115,297)" d="m0 0 4 1 24 12 18 10 24 13 13 8 2 3-9-3-40-20-18-10-17-9-2-4z" fill="#403323"/>
<path transform="translate(580,586)" d="m0 0 10 6 14 10 19 14 32 24 2 4-4 1-12-9-13-10-16-12-15-12-9-7-8-7z" fill="#423425"/>
<path transform="translate(601,555)" d="m0 0 5 1 29 14 14 8 32 16 4 3v3l-6-1-20-10-22-12-21-11-15-10z" fill="#433627"/>
<path transform="translate(614,520)" d="m0 0 12 2 36 11 43 14 1 4-4 1-36-12-41-14-11-5z" fill="#453829"/>
<path transform="translate(282,235)" d="m0 0h2l1 7-1 4h2v-2l5 1-2 6h9l2 1v3l-8 1h-2l1 3-1 3h-2l-1-2h-3l1 9h-4l-1-8-7-4-8-2v-3l4-1 7 2-3-8h8v-9z" fill="#433526"/>
<path transform="translate(464,214)" d="m0 0 3 3 2 7 3 1v7l9-1 1 3-9 3-5 5-2 7h-3l1-9h-4v2h-2l-1-6-8-1-2-4 11 1-2-4v-4l5 1h3l-1-3v-7z" fill="#423525"/>
<path transform="translate(81,397)" d="m0 0 16 2 49 8 21 4 5 2v2l-9-1-49-7-26-4-7-2z" fill="#483B2C"/>
<path transform="translate(332,214)" d="m0 0 3 1 1 11 6-2v4l-2 5 7-2 5 1v2l-10 3-5 4-3 9-2-1-1-8-8-5-6-2 1-3 9 2-3-8 7 1z" fill="#443728"/>
<path transform="translate(215,618)" d="m0 0m-2 1 2 1-4 4-9 6 17-4 2 1-1 2-15 5-13 13-7 5-7 8h-2l-1 3-8 7-4 1 1-4 7-7 14-11 11-12v-1h-8l1-5 4-4 2 3 7-4z" fill="#4D4031"/>
<path transform="translate(622,483)" d="m0 0 16 1 50 7 30 5v4l-18-2-62-10-16-4z" fill="#443728"/>
<path transform="translate(172,488)" d="m0 0 4 1-4 2-46 9-41 7-5-1 2-3 27-5 48-8z" fill="#463829"/>
<path transform="translate(712,390)" d="m0 0h4v4l-23 5-48 8-15 2h-8l3-2 29-6z" fill="#473A2B"/>
<path transform="translate(181,525)" d="m0 0 4 1-19 8-47 17-21 7h-3v-4l43-15z" fill="#433627"/>
<path transform="translate(700,339)" d="m0 0 3 1-1 3-44 16-36 12-10 2 1-2 26-10 41-15z" fill="#403223"/>
<path transform="translate(677,291)" d="m0 0 4 1-5 5-18 10-16 9-12 7-14 7-17 9-3-1 25-15 28-16z" fill="#413323"/>
<path transform="translate(198,559)" d="m0 0 3 1-16 10-23 13-24 13-19 11-3-1 2-4 17-9 23-13 27-14z" fill="#423425"/>
<path transform="translate(452,661)" d="m0 0 7 1 2-1 1 6 9 1 1 3-9 1-1 6-3 1-1-2h-5l2 3h3l-1 6h-3l-1-6h-2l-2-3v-5l-10-1v-3l8-1 3-5z" fill="#443728"/>
<path transform="translate(341,653)" d="m0 0 2 1 1 7 5 6 8 1v3l-9 1v5l-5 1-6-1-2 2-1-1v-6l-9-1 1-3 7-1 1-6h2v2l4-1-1-6z" fill="#413324"/>
<path transform="translate(639,444)" d="m0 0h82l1 3-4 1h-46l-48-1v-2z" fill="#453829"/>
<path transform="translate(294,408)" d="m0 0 2 2-8 13-8 18h15l-1 3-11 2h-5l-6 10-13 27-2 3-3 1 3-9 23-46 6-13 3-3z" fill="#655A4D"/>
<path transform="translate(483,382)" d="m0 0 3 2 1 9v30l-6 26-6 18-7 10-6 3 2-4 5-6 4-8 7-25 3-13 1-8v-16l-1-10z" fill="#766C61"/>
<path transform="translate(187,610)" d="m0 0h13l-5 5-20 15-16 13-10 8-4-1 6-7 9-7 16-13 11-8 2-3-4-1z" fill="#473A2B"/>
<path transform="translate(325,372)" d="m0 0 1 2-3 6-1 1 8-1 9-2 10 1 8 2v3l-12-2h-7l-13 3-9 4-25 25-3 5-1-2 7-11 24-24 4-8z" fill="#62574A"/>
<path transform="translate(688,315)" d="m0 0 5 1-4 4-23 9-10 6-17 7-15 7-11 4-3-1 14-7 12-5 24-12 7-3z" fill="#3F3222"/>
<path transform="translate(664,268)" d="m0 0 3 1-2 4-13 8-7 5-3 1-5 5-15 9-9 6-11 8-7 4-2-1 8-7 13-8 5-4 16-11 8-4 4-4z" fill="#3F3121"/>
<path transform="translate(409,573)" d="m0 0 2 1v14l-3 19-1 4 28 20 8 8 1 3-2 1-6-2-2-7h-2v-2l-4-2-12-9-6-4-5-4-1-3 3-22 1-13z" fill="#504436"/>
<path transform="translate(576,391)" d="m0 0h1l1 38v56l-1 30h-1l-1-67v-18z" fill="#FDFDFD"/>
<path transform="translate(392,609)" d="m0 0h1l1 7v4l-8 5-17 9-3 4 18-4v3l-17 5-11 1 2-4 10-8 22-12v-9z" fill="#5C5043"/>
<path transform="translate(158,556)" d="m0 0 4 1-4 3-23 10-10 4-6 4-12 5h-2v-4l14-6 13-5 7-4 12-5z" fill="#3E3121"/>
<path transform="translate(439,531)" d="m0 0 1 3-6 15-5 10-7 6-13 8-9 4 2-4 16-10 7-4 5-10 7-17z" fill="#55493B"/>
<path transform="translate(256,485)" d="m0 0 1 3-12 30-7 17h-3l3-10 13-33 2-5z" fill="#605548"/>
<path transform="translate(323,440)" d="m0 0h20l20 1-1 2-37 1-31-1 1-2z" fill="#443728"/>
<path transform="translate(165,509)" d="m0 0h6l-1 2-13 4-34 9h-8l4-3 10-3 21-5z" fill="#453728"/>
<path transform="translate(227,581)" d="m0 0v3l-9 11-12 14-7 11-4 8h-3l2-6 7-12 7-8 9-11z" fill="#574B3D"/>
<path transform="translate(109,426)" d="m0 0 19 1 10 1v4l-28-1-2-4z" fill="#46392A"/>
<path transform="translate(159,738)" d="m0 0 10 6 17 13 16 11-2 1-13-8-12-8-15-11z" fill="#413424"/>
<path transform="translate(125,472)" d="m0 0h14l1 3-12 2-17 1-2-4 1-1z" fill="#46392A"/>
<path transform="translate(267,614)" d="m0 0 2 1-3 3-36 9h-5l3-3z" fill="#544739"/>
<path transform="translate(648,606)" d="m0 0 14 7 9 6 1 4-6-1-17-11-2-4z" fill="#3E3021"/>
<path transform="translate(480,443)" d="m0 0h1l-1 10-6 16-6 8-6 3 2-4 5-6 4-8 5-17z" fill="#6B6155"/>
<path transform="translate(640,550)" d="m0 0 10 3 12 5 5 3-1 3-5-1-15-7-7-3z" fill="#413425"/>
<path transform="translate(716,416)" d="m0 0 4 1-1 4-23 2h-5l1-4 19-2z" fill="#4A3D2F"/>
<path transform="translate(104,321)" d="m0 0 5 1 12 6 5 2 2 2v3l-5-1-12-5-7-4z" fill="#453829"/>
<path transform="translate(434,521)" d="m0 0 2 1v2l-41 10v-3l14-4z" fill="#62564A"/>
<path transform="translate(156,291)" d="m0 0 11 6 10 7 3 3v2l-5-2-12-6-8-6v-3z" fill="#433627"/>
<path transform="translate(672,563)" d="m0 0 5 2 7 2 12 5-1 5-13-5-9-4-2-1z" fill="#433627"/>
<path transform="translate(453,366)" d="m0 0 1 3-6 9-17 10-9 5-2-1 4-4 12-7 6-3 5-4 4-7z" fill="#574B3E"/>
<path transform="translate(686,517)" d="m0 0 10 1 16 3 1 3-1 2-8-1-17-5z" fill="#453829"/>
<path transform="translate(87,371)" d="m0 0 15 3 3 2 7 1v4l-10-1-15-5z" fill="#4B3E2F"/>
<path transform="translate(128,274)" d="m0 0 6 2 9 6 2 5h5l2 5-6-2-5-3-12-8-2-3z" fill="#453829"/>
<path transform="translate(116,379)" d="m0 0 10 1 18 6v2h-5l-2-1-9-1-11-3z" fill="#4D4032"/>
<path transform="translate(651,509)" d="m0 0 10 1 18 4 2 1v4l-10-2-19-6z" fill="#3E3121"/>
<path transform="translate(90,475)" d="m0 0h15l2 2-2 2h-9l-17 2-1-4z" fill="#493D2E"/>
<path transform="translate(619,589)" d="m0 0 4 1 17 9 4 4 1 3-3 1-12-8-11-9z" fill="#423525"/>
<path transform="translate(409,573)" d="m0 0 2 1v14l-3 19-2 3-1-1 1-11 2-23z" fill="#594D3F"/>
<path transform="translate(401,573)" d="m0 0m-2 1 2 1-5 5-4 2v29l-2-1-1-6v-20l-3-1 5-4z" fill="#483B2C"/>
<path transform="translate(590,192)" d="m0 0h3l-1 5-10 13-5 7-2-1 2-5 9-14z" fill="#4E4132"/>
<path transform="translate(661,466)" d="m0 0 7 1 4-1 13 1 4 2v2l-5 1-24-3-1-2z" fill="#4E4133"/>
<path transform="translate(704,468)" d="m0 0 15 1 1 4-1 1h-13l-4-1-1-2h-6l-1-2z" fill="#46392A"/>
<path transform="translate(386,288)" d="m0 0h2l2 7 3 25-1 4-2 3-4-33z" fill="#6A5F53"/>
<path transform="translate(688,315)" d="m0 0 5 1-4 4-23 9-2 1 2-4 16-8z" fill="#433526"/>
<path transform="translate(365,633)" d="m0 0m-1 1m-1 1m19-1 2 1v2l-17 5-11 1 2-4 3-3 5 2z" fill="#64594C"/>
<path transform="translate(132,333)" d="m0 0 9 3 10 5 2 2-1 3-19-8z" fill="#3F3121"/>
<path transform="translate(664,268)" d="m0 0 3 1-2 4-13 8-7 5-4-1 6-5z" fill="#453828"/>
<path transform="translate(108,524)" d="m0 0h7l-4 3-21 6-4-2 3-3z" fill="#504335"/>
<path transform="translate(219,683)" d="m0 0h2l-2 5-11 16-3 3h-2l1-5 7-9z" fill="#453829"/>
<path transform="translate(156,609)" d="m0 0m-1 1m-1 1m-1 1m-3 1h3l-2 4-18 12-2-1 1-4 17-10z" fill="#3F3122"/>
<path transform="translate(267,458)" d="m0 0 2 1-1 5-10 22-4 1 3-9z" fill="#857D73"/>
<path transform="translate(678,420)" d="m0 0h10l1 3-10 2-9 1-3-2v-2z" fill="#54483A"/>
<path transform="translate(126,570)" d="m0 0 2 1-4 4-12 6-7 2v-4l14-6z" fill="#4D4132"/>
<path transform="translate(236,702)" d="m0 0h2l-1 4-8 14-4 2-1-3 9-14z" fill="#46392A"/>
<path transform="translate(78,423)" d="m0 0 16 1 2 2-1 4-17-3z" fill="#493D2E"/>
<path transform="translate(677,372)" d="m0 0 3 1-1 4-16 4h-4l1-3z" fill="#453728"/>
<path transform="translate(641,338)" d="m0 0m-3 1h3v2l-12 6-16 6-3-1 14-7 12-5z" fill="#453728"/>
<path transform="translate(369,743)" d="m0 0 3 1 9 19-1 4-5-8-6-11z" fill="#403222"/>
<path transform="translate(708,364)" d="m0 0 3 1-1 3-17 5-2-1v-3z" fill="#4A3D2E"/>
<path transform="translate(429,743)" d="m0 0h2l-1 6-8 17-3 2 2-9z" fill="#403223"/>
<path transform="translate(469,271)" d="m0 0h3l-1 3-26 10 1-4z" fill="#4F4335"/>
<path transform="translate(293,565)" d="m0 0 4 1-2 2-14 3-13 1 1-3 20-3z" fill="#584C3F"/>
<path transform="translate(144,428)" d="m0 0 18 2 1 3h-16l-4-1z" fill="#4B3F30"/>
<path transform="translate(597,575)" d="m0 0 5 1 14 9 1 4-10-5-9-7z" fill="#46392A"/>
<path transform="translate(150,387)" d="m0 0 14 3 6 3-1 2-10-2-9-3z" fill="#55483B"/>
<path transform="translate(163,348)" d="m0 0 8 1 11 6v3l-17-6z" fill="#4C3F31"/>
<path transform="translate(615,540)" d="m0 0 6 1 13 6 2 4-5-1-14-7z" fill="#4F4334"/>
<path transform="translate(617,300)" d="m0 0m-1 1m-1 1m-1 1v3l-9 7-10 6-2-1 8-7z" fill="#3D3020"/>
<path transform="translate(161,469)" d="m0 0 3 1-2 3-17 2-1-3 7-2z" fill="#4A3D2E"/>
<path transform="translate(227,581)" d="m0 0v3l-9 11-5 6-4 1 2-4 11-12z" fill="#534739"/>
<path transform="translate(165,509)" d="m0 0h6l-1 2-13 4-10 2 1-3 9-3z" fill="#4A3E2F"/>
<path transform="translate(184,311)" d="m0 0 5 1 10 7 2 4-6-2-11-7z" fill="#413324"/>
<path transform="translate(628,503)" d="m0 0 20 4 1 3-3 1-17-5z" fill="#413324"/>
<path transform="translate(184,545)" d="m0 0 2 1-4 3-16 7-3-1 5-4z" fill="#524537"/>
<path transform="translate(636,464)" d="m0 0 18 1 1 3h-12l-7-1z" fill="#504435"/>
<path transform="translate(643,424)" d="m0 0h12l-1 3h-23v-1z" fill="#423425"/>
<path transform="translate(644,382)" d="m0 0h4l-1 3-16 4h-3v-2l8-3z" fill="#493C2D"/>
<path transform="translate(294,408)" d="m0 0 2 2-8 13-3 6-4 2 2-6 3-6 3-3z" fill="#E3E1DF"/>
<path transform="translate(340,378)" d="m0 0 9 1 8 2v3l-18-3z" fill="#70665A"/>
<path transform="translate(439,531)" d="m0 0 1 3-5 12-4 2 3-9 3-7z" fill="#8B837A"/>
<path transform="translate(267,458)" d="m0 0 2 1-1 5-3 7h-2l-3 5-1-2z" fill="#99928A"/>
<path transform="translate(482,428)" d="m0 0 3 3-3 14-3-1 2-11z" fill="#8E867D"/>
<path transform="translate(376,627)" d="m0 0m-3 1h3l-1 3-8 5-2 2-3-1 4-5z" fill="#534739"/>
<path transform="translate(481,370)" d="m0 0h2l2 6v9l-3-4-1-3z" fill="#4F4234"/>
<path transform="translate(391,323)" d="m0 0 2 1 1 6v9l-2 2-1-6z" fill="#594D40"/>
<path transform="translate(339,378)" d="m0 0m-5 1h5l-1 3-11 2 1-3z" fill="#5F5447"/>
<path transform="translate(235,622)" d="m0 0 2 1-3 3-9 1 3-3z" fill="#564A3D"/>
<path transform="translate(453,654)" d="m0 0h3l3 4v2h-5l-1-1z" fill="#584D3F"/>
<path transform="translate(433,546)" d="m0 0 1 3-3 7h-3l2-7z" fill="#605548"/>
<path transform="translate(341,678)" d="m0 0h2v6l-1 2-3-1 1-6z" fill="#3B2D1D"/>
<path transform="translate(99,425)" d="m0 0 6 1-1 4-5-1z" fill="#433526"/>
<path transform="translate(662,422)" d="m0 0 4 1v2l-6 1-1-3z" fill="#665B4E"/>
<path transform="translate(685,370)" d="m0 0h3l-1 5h-3z" fill="#3B2D1D"/>
<path transform="translate(154,344)" d="m0 0 5 1 1 3-5-1z" fill="#3B2D1D"/>
<path transform="translate(431,736)" d="m0 0 5 1-2 3h-3z" fill="#534739"/>
<path transform="translate(652,380)" d="m0 0h6l-2 3h-4z" fill="#473A2B"/>
<path transform="translate(365,736)" d="m0 0 4 1-1 3-3-1z" fill="#584D3F"/>
<path transform="translate(615,756)" d="m0 0 2 1-4 2z" fill="#7B7267"/>
<path transform="translate(202,769)" d="m0 0 3 1h-3z" fill="#9C958D"/>
<path transform="translate(405,401)" d="m0 0h2l-1 2z" fill="#FDFDFD"/>
<path transform="translate(621,389)" d="m0 0 3 1z" fill="#3B2D1D"/>
<path transform="translate(607,762)" d="m0 0 2 1z" fill="#FDFDFD"/>
<path transform="translate(611,759)" d="m0 0 2 1z" fill="#3B2D1D"/>
<path transform="translate(171,508)" d="m0 0 2 1z" fill="#3B2D1D"/>
<path transform="translate(174,507)" d="m0 0 2 1z" fill="#9C958D"/>
<path transform="translate(629,427)" d="m0 0 2 1z" fill="#FDFDFD"/>
<path transform="translate(175,414)" d="m0 0 2 1z" fill="#FDFDFD"/>
<path transform="translate(620,409)" d="m0 0 2 1z" fill="#FDFDFD"/>
<path transform="translate(610,373)" d="m0 0 2 1z" fill="#3B2D1D"/>
<path transform="translate(608,353)" d="m0 0 2 1z" fill="#3B2D1D"/>
<path transform="translate(205,325)" d="m0 0 2 1z" fill="#9C958D"/>
<path transform="translate(233,103)" d="m0 0 2 1z" fill="#3B2D1D"/>
<path transform="translate(235,102)" d="m0 0 2 1z" fill="#3B2D1D"/>
<path transform="translate(237,101)" d="m0 0 2 1z" fill="#FDFDFD"/>
<path transform="translate(205,771)" d="m0 0" fill="#FDFDFD"/>
<path transform="translate(606,763)" d="m0 0" fill="#FDFDFD"/>
<path transform="translate(609,761)" d="m0 0" fill="#3B2D1D"/>
<path transform="translate(610,760)" d="m0 0" fill="#3B2D1D"/>
<path transform="translate(595,574)" d="m0 0" fill="#3B2D1D"/>
<path transform="translate(600,554)" d="m0 0" fill="#3B2D1D"/>
<path transform="translate(176,506)" d="m0 0" fill="#FDFDFD"/>
<path transform="translate(630,465)" d="m0 0" fill="#FDFDFD"/>
<path transform="translate(173,414)" d="m0 0" fill="#FDFDFD"/>
<path transform="translate(624,388)" d="m0 0" fill="#FDFDFD"/>
<path transform="translate(184,357)" d="m0 0" fill="#3B2D1D"/>
<path transform="translate(204,324)" d="m0 0" fill="#FDFDFD"/>
<path transform="translate(590,320)" d="m0 0" fill="#3B2D1D"/>
<path transform="translate(591,319)" d="m0 0" fill="#3B2D1D"/>
</svg>
