<?xml version="1.0" encoding="UTF-8"?>
<svg version="1.1" viewBox="0 0 800 892" width="1280" height="1280" xmlns="http://www.w3.org/2000/svg">
<path transform="translate(378,238)" d="m0 0 2 3h16 3 13l2-3v5l17 1 22 5 21 7 9 4 23 12 16 11 14 12 8 7 8 9 9 11 12 17 9 16 8 18 7 21 4 20 2 13 1 18h5l-4 2-2 26-1 7 2 1h-3l-1 9-2 9-4 15-5 12-10 21-9 15-10 14-7 8 2 5 1 2-4-2h-4l-6 7 2 5 28 28 7 8 1 3 3 1 7 8 8 8 1 3-4 1-12-12-7-8-9-10-16-16-9-11-4-4-5 4-2 3h-2l1 4 13 15 10 13 13 16 11 14 4 6-1 2-5-2-10-13-9-11-14-18-8-10-7-9v-2l-5 1-5 4h-2l3 7 10 14 26 39 6 10v4l-4-2-38-57-7-10-5 2-5 4 2 5 14 25 10 18 12 22 1 6-4-2-13-23-10-19-10-18-7-11-10 4 1 5 17 37 13 29 2 5v3l-4-1-7-14-16-36-10-23v-2l-10 3h-3l7 21 14 38 7 21v2h-4l-6-15-7-21-11-31-4-10v-2l-13 3 5 16 13 49 4 17h-4l-3-7-14-55-5-17-1-1-11 2 11 63 4 21h-4l-3-9-12-69-1-4-12 1 8 84-4 1-1-1-7-72-1-11h-12v84l-5-1v-83h-13v11l-4 55-1 16-3 2-3-2 2-18 3-40 1-11v-13l-11-1-4 23-9 58-4 1-1-4 11-69 1-10-11-2-11 44-8 33-2 4-3-1 1-10 18-72-12-3-17 52-9 25-4 2-1-2 12-36 12-35 1-8-11-4-3 9-10 24-18 41-4 4-1-5 7-16 13-30 11-26v-4l-10-4-16 31-6 10-8 16-9 16-3 1 1-7 9-17 10-19 12-22 6-13-5-2-6-2-9 14-11 17-16 25-8 12-4 2 1-6 16-25 13-20 12-19 1-5-7-4-4-1-2 5-28 36-18 24-3 1-1-3 8-11 20-26 11-14 10-14-1-4-5-4-4 1-12 12-9 11-9 9-7 8-11 12-7 8h-2l1-5 11-13 6-7h2l2-4 15-16 9-10 7-8 2-3-6-7-6 1-19 19-8 7-13 12-17 17-3-1 1-4 20-20 6-5h2v-2l8-7 9-9 8-7 6-5-3-5-3-4-5 1-15 12-14 11-16 13-17 13h-4l2-4 11-9 14-11 13-10 10-8 14-11 1-5-5-6-6 2-44 29-10 7-11 7h-3l1-4 14-9 39-26 16-10-2-6-3-4v-2l-23 12-23 13-24 13-5 3-3-1 1-3 24-13 16-9 24-13 10-6-6-10-9 3-27 12-24 11-17 7-2-1 1-4 20-8 40-18 14-6h3l-5-11v-2l-21 7-19 7-40 14-3-1 1-3 34-12 37-13 9-2-3-11-5-1-57 15-16 4h-6v-3l18-5 35-9 25-6h4l-2-14-17 3-57 10-10 1v-4l58-10 20-3h5l-2-13-1-1-19 2-42 4-22 1-1-4 85-7-2-14-82 1-3-3 1-1 84-1 1-12-38-3-45-3-2-4 1-1 30 2 39 3 15 2 2-14-25-3-57-9-2-1 1-4 78 12h6l2-11-79-19-3-1 1-5 65 16 11 3 7 1 3-12-10-3-43-14-27-9v-4l7 1 38 13 33 11 4-1 4-10-6-2-45-19-16-7-10-4v-4l7 1 25 11 35 15 9 4h3l4-7 1-4-6-2-22-12-35-18-9-5-2-4 4-1 42 22 27 15 5-1 4-6-1-3-16-10-20-13-24-15-9-7v-3l5 1 17 11 19 12 17 11 13 9 4-1 5-8-15-12-32-24-14-11-5-5 1-4 11 8 18 14 13 10 12 9 11 9 4 1 7-8-5-5-12-11-11-10-8-7-14-13-8-7-4-4v-4l5 2 8 8 11 9 12 12 11 9 13 13 4 3 4-1 6-7-6-8-14-14 1-2 21 21 5-2 6-5 4-4 9-6 14-9 7-4 15-7 16-6 12-4 10-2 8-1 1-3v2l15-1zm13 8-19 1-26 5-20 6-9 4-17 8-13 8-17 12-12 11-7 6-9 11-8 9-7 11-8 13-10 21-5 13-5 18-4 25v42l5 28 5 16 6 16 12 23 8 12 9 12 28 28 15 11 24 14 19 8 18 6 18 4 15 2h41l24-4 24-7 20-8 16-9 12-8 13-10 13-12 12-12 10-13 10-15 10-19 7-18 6-20 4-24v-45l-3-19-6-23-7-17-8-16-6-11-10-14-9-11-9-10-12-11-13-10-19-12-22-11-27-9-26-5-18-1z" fill="#443523"/>
<path transform="translate(396,266)" d="m0 0h3l9 33 13 48 1 4 10 2 19 9 10 7 9-3 8-5 9-5 3 1-5 10-8 14 1 5 9 15 8 18 2 5 62 17 18 5 2 1-1 3-20 6-49 13-13 4-3 10-8 16-8 13 1 6 11 19v3l-5-1-17-10-6-1-14 9-16 7-9 3-18 65-5 16h-4l-4-12-10-38-8-28-2-3-20-8-15-9-3-2h-5l-11 7-9 5h-3l1-4 6-11 5-9v-5l-8-13-8-16-3-9-36-10-44-12-3-2v-2l13-4 55-15 16-4 2-10 8-16 7-11 2-4-11-20-3-5v-2l5 1 14 8 8 4 4-1 14-9 16-7 6-1 5-15 15-55 4-14zm0 17-4 8-12 45-13 48v7l17 9h7l5-2 1-115zm2 2v104l1 9 2 2h11l16-9-1-9-8-28-10-38-8-27zm25 70 5 21 3 11 5-1 18-10 4-4-8-6-19-9-4-2zm-54 0-14 5-11 6-8 6 4 4 17 9 3 2h3l8-29v-3zm-48 14v2l8 8h2v2l8 7 16 16 4-1 2-8-1-5-21-12-9-5-7-4zm151 0-6 3-20 11-13 8 1 7 3 7 4-2 33-33zm-154 4 2 6 3 5 12 21 5 8 10-2 3-2-2-4-21-21-7-8zm156 2-8 7-23 23-2 4 9 4 5-1 10-17 8-13 2-4zm-1 13-4 5-10 18v4l31 8 2-1-5-12-7-14-4-5-1-3zm-153 1-4 5-7 12-5 13v3l8-1 23-6 1-3-10-18-4-5zm108 5-13 7 1 2 13 4h4l-3-13zm-64 1-3 11 11-1 9-2-5-4-8-4zm30 6-1 3h2v2l3-1-2-4zm8 0m-3 2m10 2-7 2 1 4 7 5 9 5 5-1 7-8v-2l-18-5zm-29 1-15 3-2 1 2 4 7 7 3 1 16-11v-4l-3-1zm-26 6-10 3-1 4 6 11h2l4-11 1-7zm86 0-1 3 4 15 5-5 4-7v-2zm-42 1v29l4-1 12-11 3-3-1-4-13-8zm-4 0-12 7-5 4 1 4 16 14h2v-25zm-35 2-5 16v9l2 3 4-2 7-9 3-7-7-8zm74 0-8 8-1 4 7 10 4 5h3l2-4v-7l-4-15zm-97 2-88 24-13 5 3 1 22-1h87l2-5v-7l-8-13-1-3zm119 1-10 17-1 4 2 2 1 4 73 1h32l4-2-24-7-30-8-33-9-9-2zm-82 10-6 8-5 9 21 1 6-1-2-5-12-11zm47 0-16 16v1l25 1 3-2-8-13-2-3zm23 11-3 5v2h2l2-4zm113 6m-203 1-1 4 4 1-1-5zm-119 1m-2 1 3 3 11 4 40 11 41 11 11 2 6-8 5-10v-7l-2-4-109-1zm171 1 1 4 14 14 4 1 7-10 3-6v-2zm37 0v3l3 2-1-5zm-56 0-22 1 2 6 9 13 6-4 8-8 5-6v-2zm167 0-104 1-2 7 1 7 9 14 5 1 45-12 47-13 10-4v-1zm-195 3-2 5v7l4 16 3 2 10-9-2-5-8-12zm80 1-4 5-8 12 1 4 8 8 3-1 4-15v-8l-3-5zm-42 1-17 17 1 3 15 9h3l1-29zm4 0v30l5-2 11-7 3-4-2-3h-2l-2-4-11-10zm-48 12-6 10-1 5 8 3h4l-1-8-2-9zm93 1-4 12v4h8l5-2-7-14zm-139 7 1 7 8 16 7 12 3-1 13-23-1-3-21-6zm186 0-29 7-2 1 1 5 11 20 4 2 9-16 8-18zm-116 1-8 7-3 3v2l17 4 9-1 4-2-4-4-11-7zm46 0-10 6-9 6 4 3 9 1 18-4-4-6zm-80 9-9 15-14 24 2 2v-3l4-2 4-3v-2h2v-2l4-2 16-16 5-6v-2l-11-3zm112 0-13 3 2 4 8 7 26 26 1-2-6-11-13-24-3-3zm-90 6 2 13 4-1 10-6 1-3zm62 1-9 2 5 5 8 5 3-3 2-9zm-68 1-26 26-6 7 9-3 23-13 5-3-1-10-2-4zm43 0v2l4-1zm37 0-3 10 1 5 17 9 17 10 3 1-2-4-5-5-7-8-8-7-4-5-7-6zm-44 1-2 2h6l1-2zm11 1m-15 1-9 4-12 7-1 5 6 21 8 29 13 47 3 5h2l6-14 19-71 5-18-1-4-10-6-8-4-6 1-4 2-1 13-1 95-1-28v-80l-6-2zm-27 14-23 13-2 3 13 8 14 7 8 3-1-8-6-23-1-3zm71 1-3 7-6 22 1 3 15-5 15-9 3-3-1-3-22-12z" fill="#514333"/>
<path transform="translate(705,264)" d="m0 0 3 3 10 18 8 16 10 24 7 21 7 28 4 23 3 29v6l5 2 5 4 4 7-1 8-7 9-4 2-2 7-4 33-6 29-8 27-10 26-14 29-11 19-13 19-13 17-9 10-6 7 1 10h-6l-5 3h-8l-6-4h-3l1 8 4 5 4 2h9l5-4 3-6v-3h2v8l-7 8-10 2-6-3h-5l-7 7-16 12-14 10-18 11-23 12-19 9-24 9-28 8-25 5-18 3-29 1-3 9-7 6-3 1h-9l-6-4-5-6-1-2v-9l5-8 5-3 10-1 7 3 4 4 4 7 33-2 33-7 19-5 29-10 21-9 20-10 20-12 12-8 13-10 14-11 4-4-2-8 1-6 3-5 6-5 2-1h10l5 1 9-10 10-12 13-18 14-22 14-26 8-19 9-25 7-25 5-25 3-21 2-18-5-1-6-4-3-4-1-3v-9l3-5 8-6 4-2-4-35-5-28-7-27-10-28-11-24-11-22zm45 171-9 8-2 4 4 1h22l3-2-6-8-4-3zm-357 352-6 5-2 5 1 7 6 7 2 1h8l6-5 2-4v-8l-4-6-4-2z" fill="#443523"/>
<path transform="translate(355,94)" d="m0 0h6v1l-35 7-27 7-28 10-23 10-17 9-20 12-16 11-13 10-13 11-8 7 2 5 1 3v7l-3 6-5 5-4 1-17-1-10 13-12 16-11 17-11 19-8 15-12 29-8 25-6 24-5 27-2 27-1 5 9 4 5 7 1 9-4 6-6 5-5 2 1 2 2 27 5 27 7 28 9 27 3 7-1 3-5-10-6-16-8-26-6-27-4-26-1-16-10-5-3-4-1-3v-9l4-7 8-5h2l1-23 6-36 8-32 9-25 10-23 12-23 12-19 12-17 10-13 7-9 2-3-2-3v-11l4-6 6-4h10l7 2 2-4 11-9 8-7 15-11 15-10 22-13 15-8 21-9 19-7 29-8 25-5zm-198 102-2 3-6 1-10-2h-4l-1 4 3 8 6 3 9 1 6-5 2-5v-6l-1-2zm-120 253-3 1 2 6 5 4 2 1h8l5-3 5-6-1-2z" fill="#453625"/>
<path transform="translate(57,53)" d="m0 0h2l3 10 5 22v4l22-13 5-4h3l-2 5-14 22v2l25 5 9 2 1 3-24 5-13 1 4 8 7 10 7 11v2l-4-1-16-10-7-5h-2l-8 32-1 3h-2l-7-33v-2l-12 6-15 10-3-1 16-26v-3l-26-5-10-2v-3l35-7h2l-7-12-11-17 3-1 28 18 1-8 4-17 1-9zm1 15-3 12-1 5v7l3 3 4-1 3-3-3-15-2-8zm-27 15 4 7 12 18-1 5-12 19-1 4 10-5 10-7 3-2 7 1 13 9 6 4h2l-2-6-9-14-3-5 2-5 7-11 6-10-2-1-15 9-7 5-7-1-13-9-8-5zm5 21-16 4-2 2 16 4 6 1 3-4-1-5-2-2zm41 0-4 6 3 4 11-1 10-2v-2l-17-5zm-20 21-4 5 4 21 2-1 5-17v-5l-3-3z" fill="#433322"/>
<path transform="translate(735,729)" d="m0 0h2l2 5 6 32v2l10-5 10-7h2l-1 4-10 16-1 2 9 1 30 6v2l-18 5-21 4 9 15 3 4-1 3-11-7-9-6-7 32-2 7h-2l-2-8-6-28-1-3-2-1-2 4-10 7-5 3h-2l2-5 10-14v-2l-16-4-18-4-5-2v-2l17-3 15-3 7-1-2-5-10-15v-2l6 2 10 7 5 3 4-16 3-13 1-9zm1 18-2 6-4 19-2 2h-2v-2l-6-2 2 6 2 4-24 4-3 2 5 3 19 4h2l-2 6-1 2 1 2 4-1v-2l5 1 5 23 2 2 6-25 4-2 1 4 5 1-1-5-2-2-1-4 14-2 14-4-1-2-26-5 1-4 2-6-7 3-3 2-4-19-2-9z" fill="#433422"/>
<path transform="translate(393,78)" d="m0 0h10l6 4 4 6v9l-4 6-6 4h-11l-8-7-1-3v-9l4-6z" fill="#3E2E1D"/>
<path transform="translate(647,180)" d="m0 0 8 1 7 5 3 7v8l-3 5-6 5-10 1-6-2-5-5-3-5 1-8 4-6 6-5zm-1 3-6 4-4 5-1 2v6l6-1 5-2 9 1 1 1h5l2-3-5-8-4-4z" fill="#493B2A"/>
<path transform="translate(147,678)" d="m0 0 7 1 6 3 4 5 2 5-1 8-7 8-4 2h-9l-6-3-5-6-2-3 2-10 7-8zm0 3-7 4-5 8-1 6 6-1 7-3 8 1 2 2 4-1 1-1-1-7-5-6z" fill="#423221"/>
<path transform="translate(66,562)" d="m0 0h2l8 21-1 3-5-10-4-11z" fill="#5E5142"/>
<path transform="translate(556,591)" d="m0 0 4 2 5 6-4-2z" fill="#786D60"/>
<path transform="translate(265,281)" d="m0 0 3 2-1 2z" fill="#5C4E3F"/>
<path transform="translate(550,301)" d="m0 0 2 1-3 2z" fill="#897F74"/>
<path transform="translate(364,93)" d="m0 0h5v1h-5z" fill="#FDFDFD"/>
<path transform="translate(567,577)" d="m0 0 3 1h-3z" fill="#9C948B"/>
<path transform="translate(262,277)" d="m0 0 2 1-1 2z" fill="#9C948B"/>
<path transform="translate(281,272)" d="m0 0 2 1-1 2z" fill="#6C6052"/>
<path transform="translate(296,263)" d="m0 0 2 3h-2z" fill="#CCC8C4"/>
<path transform="translate(538,289)" d="m0 0 1 2-2-1z" fill="#7C7165"/>
<path transform="translate(311,255)" d="m0 0" fill="#7C7165"/>
<path transform="translate(599,497)" d="m0 0 2 1z" fill="#FDFDFD"/>
<path transform="translate(602,410)" d="m0 0 2 1z" fill="#FDFDFD"/>
<path transform="translate(601,393)" d="m0 0 2 1z" fill="#FDFDFD"/>
<path transform="translate(593,377)" d="m0 0 2 1z" fill="#9C948B"/>
<path transform="translate(560,315)" d="m0 0 2 1z" fill="#9C948B"/>
<path transform="translate(562,314)" d="m0 0 2 1z" fill="#9C948B"/>
<path transform="translate(260,274)" d="m0 0" fill="#FDFDFD"/>
<path transform="translate(295,261)" d="m0 0" fill="#9C948B"/>
<path transform="translate(702,259)" d="m0 0" fill="#FDFDFD"/>
<path transform="translate(701,257)" d="m0 0" fill="#FDFDFD"/>
<path transform="translate(327,249)" d="m0 0" fill="#FDFDFD"/>
<path transform="translate(344,244)" d="m0 0" fill="#9C948B"/>
<path transform="translate(569,603)" d="m0 0" fill="#FDFDFD"/>
<path transform="translate(568,602)" d="m0 0" fill="#FDFDFD"/>
<path transform="translate(567,601)" d="m0 0" fill="#FDFDFD"/>
<path transform="translate(566,600)" d="m0 0" fill="#FDFDFD"/>
<path transform="translate(565,599)" d="m0 0" fill="#FDFDFD"/>
<path transform="translate(77,589)" d="m0 0" fill="#FDFDFD"/>
<path transform="translate(571,580)" d="m0 0" fill="#FDFDFD"/>
<path transform="translate(570,579)" d="m0 0" fill="#FDFDFD"/>
<path transform="translate(566,576)" d="m0 0" fill="#3C2C1A"/>
<path transform="translate(564,574)" d="m0 0" fill="#FDFDFD"/>
<path transform="translate(563,573)" d="m0 0" fill="#FDFDFD"/>
<path transform="translate(573,560)" d="m0 0" fill="#FDFDFD"/>
<path transform="translate(572,559)" d="m0 0" fill="#FDFDFD"/>
<path transform="translate(584,546)" d="m0 0" fill="#FDFDFD"/>
<path transform="translate(608,409)" d="m0 0" fill="#FDFDFD"/>
<path transform="translate(598,394)" d="m0 0" fill="#FDFDFD"/>
<path transform="translate(583,343)" d="m0 0" fill="#3C2C1A"/>
<path transform="translate(574,328)" d="m0 0" fill="#3C2C1A"/>
<path transform="translate(564,313)" d="m0 0" fill="#FDFDFD"/>
<path transform="translate(552,300)" d="m0 0" fill="#3C2C1A"/>
<path transform="translate(539,288)" d="m0 0" fill="#3C2C1A"/>
<path transform="translate(540,287)" d="m0 0" fill="#3C2C1A"/>
<path transform="translate(264,280)" d="m0 0" fill="#3C2C1A"/>
<path transform="translate(261,276)" d="m0 0" fill="#3C2C1A"/>
<path transform="translate(259,273)" d="m0 0" fill="#FDFDFD"/>
<path transform="translate(233,273)" d="m0 0" fill="#3C2C1A"/>
<path transform="translate(258,272)" d="m0 0" fill="#FDFDFD"/>
<path transform="translate(232,272)" d="m0 0" fill="#3C2C1A"/>
<path transform="translate(280,271)" d="m0 0" fill="#FDFDFD"/>
<path transform="translate(257,271)" d="m0 0" fill="#FDFDFD"/>
<path transform="translate(231,271)" d="m0 0" fill="#3C2C1A"/>
<path transform="translate(279,270)" d="m0 0" fill="#3C2C1A"/>
<path transform="translate(230,270)" d="m0 0" fill="#FDFDFD"/>
<path transform="translate(278,269)" d="m0 0" fill="#FDFDFD"/>
<path transform="translate(229,269)" d="m0 0" fill="#FDFDFD"/>
<path transform="translate(277,267)" d="m0 0" fill="#FDFDFD"/>
<path transform="translate(294,260)" d="m0 0" fill="#FDFDFD"/>
<path transform="translate(312,258)" d="m0 0" fill="#3C2C1A"/>
<path transform="translate(293,258)" d="m0 0" fill="#FDFDFD"/>
<path transform="translate(700,256)" d="m0 0" fill="#FDFDFD"/>
<path transform="translate(292,256)" d="m0 0" fill="#FDFDFD"/>
<path transform="translate(699,255)" d="m0 0" fill="#FDFDFD"/>
<path transform="translate(309,250)" d="m0 0" fill="#FDFDFD"/>
<path transform="translate(345,246)" d="m0 0" fill="#3C2C1A"/>
<path transform="translate(326,245)" d="m0 0" fill="#FDFDFD"/>
<path transform="translate(341,234)" d="m0 0" fill="#FDFDFD"/>
</svg>
