<svg class="twink" version="1.1" viewBox="0 0 1600 1680" width="1280" height="1280" xmlns="http://www.w3.org/2000/svg">
<path transform="translate(600,1415)" d="m0 0h19l12 6 3 4 1 3v16l-1 15v17l2 14 1 5 5 2 14 7 15 10 13 10 7 7 8 10 9 12 2 4v3l-29 6-16 7-16 10-12 8-16 12-15 15-7 8-17 17-19 14-12 10-8 7-6 5-2 1h-15l-8-16-16-30-8-14-12-24-8-13-12-14-28-28-14-11-14-12 1-3 23-5h10l3 1 6-2 3-2 6-1 3 3 2-5 6-5 8-6 7-8 13-12 12-9 12-10 19-13 18-10 21-9 21-6z" fill="#FAD39C"/>
<path transform="translate(517,565)" d="m0 0 7 3 7 9 9 16 9 21 7 19 8 16 6 8 11 12 12 14 7 7 7 11 4 8v4l-10 7-25 12-12 6-5 5-7 10-5 5-7 8-11 15-8 10-12 13-8 9-8 7-14 14h-2l-2 4-10 10-8 7-8 6-6 2-5-8-4-15-3-9-4-16-8-18-5-14-8-28-8-17-16-16-8-7-10-9-10-7-15-10-8-4-4-3 1-4 8-5 14-6 15-6 17-9 24-14 19-11 14-10 18-13 17-12 19-14 14-9z" fill="#FAD39C"/>
<path transform="translate(1389,952)" d="m0 0 5 1 22 10 8 6 7 7 3 5v4l-2 1 3 2-1 7-1 5 8 4 1 1h8l2 1v2l6 1 9 1 14 6 5 5 6 10v7l-7 11-5 4-21 8-20 3-31 6-8 4-9 7-3 3v7l-10 17-7 10-7 7-7 1-7-4-7-9-2-11 1-4 1-22-5-9-3-11v-4l-7 1-5-5-6-10-5-6-3-7-7-9-4-4-8-7-4-7 5-5 9-3 5-1h18l1-1 15-1 3-2 11-1 3-1 2-5 8-11 8-7 12-7z" fill="#FAD39C"/>
<path transform="translate(1514,1)" d="m0 0 5 2 9 6 8 13 7 11 9 12 6 7 12 17 6 8 11 5 13 1v36l-27 13-8 4-9 9v2l2 1v11l5 19v12l-4 7-3 2h-20l-10-4-7-8-3-11v-12l-4-10-4-3-1-7-2-4h-4l-1-2-5 1-4-1-5-1-3-3h-5l-2 1-13-2-8-3h-11l-3 1-5-2-8-6-6-7-2-10-2-7 1-7 8-7 16-2h10l10 1 10-3h10l5-6 3-10 5-10 6-9 1-7 1-10 5-21 2-3h3z" fill="#FBD49D"/>
<path transform="translate(91,23)" d="m0 0h15l13 5 4 5 1 8 1 2v9l-1 2 1 12-1 4 4 9 7 6v5l8-2 12-7 9 1 11 6 4 2 1 5-7 10-5 4-6 3h-3l-4 5-12 7-10 7-4 3-26 7-6-1-4 2-14 1-5 3-1 2h-2l-1 3h-2l1 6v16l-1 12-4 8-9 8-6 1-8-7-5-9-3-11v-10l-3-12-5-13-10-19-4-12-3-5 1-8 6-12 7-8 41-41 10-6zm49 82-5 5 1 3 5-2 1 5-1 4 5-1 4-8v-2h-6l-1-4zm11 5v2h2v-2zm-1 2m-9 1 1 2z" fill="#FBD49D"/>
<path transform="translate(54,1244)" d="m0 0 13 1 8 3 6 7 4 10 7 25 3 7 15 7 5 3 18-1h16l11 3 7 6 3 10v11l-3 10-5 8-8 6-12 5-17 5-9 6-4 11-4 36-1 14-3 12-2 1-8-6-6-7-8-13-11-18-11-14-10-12-8-11-3-5-6-5-8-20-1-8 6-9 18-15 1-2 1-12-2-14-10-24 1-5 5-3z" fill="#FAD39C"/>
<path transform="translate(1438 1e3)" d="m0 0 9 1 5 1v2l6 1 9 1 14 6 5 5 6 10v7l-7 11-5 4-21 8-20 3-31 6-8 4-9 7-3 3v7l-10 17-7 10-7 7-7 1-7-4-7-9-2-11 3-14 2-3 6-1v3l3 1 6-3 5-4 5-5 8-3 8-1v-7l3-5 4-4h2v-2l5-1 2-5 3-1 2-4 6-2h5v-2l6-1 7-2 7 2 2-6 2-3 1-11-2-7z" fill="#D3A76A"/>
<path transform="translate(54,1244)" d="m0 0 13 1 8 3 6 7 4 10 7 25 3 7 15 7 5 3 18-1h16l11 3 7 6 3 10v11l-3 10-5 8-8 6-12 5-17 5-6 4h-2l-1-4 1-3 4-1 5-10-1-11 3-6-1-8-8-16-5-5v-2l-9-2-9-3-6-5-5-4v-2l-12-6-1-1h-11l-7 2-3 4-3-1-3-13-9-22 1-5 5-3z" fill="#D3A76A"/>
<path transform="translate(91,23)" d="m0 0h15l13 5 4 5 1 8 1 2v9l-1 2 1 12-5 2-8-1-4-2-10-1-2-3v-3h-2v-2l-7 1v-2l-6 2-4 1-7-2-8-2-5 2-10-1h-2l2-4 16-16 10-6z" fill="#D3A76A"/>
<path transform="translate(540,750)" d="m0 0 4 1 5 2-1 4-8 9-11 15-8 10-12 13-8 9-8 7-14 14h-2l-2 4-10 10-8 7-8 6-6 2-5-8-3-12 1-4 2 1v2h2v2l5-2 8 8v2h3v-8l-1-3 4-10 5 2 3 2 2-6v-2h2v-2l7-3 3-9 3-6 5-3h3l1-9 4-8 6-1-1-10 7-5h9l2-2 15-5-1-3 3-9z" fill="#D4A86B"/>
<path transform="translate(1514,1)" d="m0 0 5 2 9 6 8 13 7 11 9 12 6 7 6 8v3h-8l-4-2-13 1-11-5h-2v-2l-8-1-8-2v-2h-8l1-11 1-10 5-21 2-3h3z" fill="#D3A76A"/>
<path transform="translate(1516,152)" d="m0 0h8l5 1 9 3 3 2-1 2 11 2 7 2 4 9 1 5v12l-4 7-3 2h-20l-10-4-7-8-3-11v-12l-3-11z" fill="#D3A76A"/>
<path transform="translate(13,111)" d="m0 0 5 1 3 1v2h2l5 5-1 8 6 2 1 4-1 13 3 1-1 6 2 2h10l10-2 10 3 2 3v13l-1 12-4 8-9 8-6 1-8-7-5-9-3-11v-10l-3-12-5-13-10-19z" fill="#D3A76A"/>
<path transform="translate(1441,83)" d="m0 0 11 1-4 5-1 4h7l3 6-1 2h2l1 6 3 1v2l2 1 3 10 1 1v5l6 2 1 4-6 1-9-2-7-2h-9l-3 1-5-2-8-6-6-7-2-10-2-7 1-7 8-7z" fill="#D3A76A"/>
<path transform="translate(155,81)" d="m0 0 9 1 11 6 4 2 1 5-7 10-5 4-6 3h-3l-4 5-12 7-10 7-1 1-7-1-2-5 3-3-1-4 3-3h2l1-9 4-4-1-7-4-3 1-7 4 1v3l8-2zm-15 24-5 5 1 3 5-2 1 5-1 4 5-1 4-8v-2h-6l-1-4zm11 5v2h2v-2zm-1 2m-9 1 1 2z" fill="#D5A96D"/>
<path transform="translate(420,1511)" d="m0 0h7l4 3 2 5 1 6 3 7 6 4v2l4 1 1 6h3l2 11 7-1v-2l3 1 1 9 3 1 2 8 6 2 2 6-1 9-1 2h-2l-6-9-11-13-28-28-14-11-14-12 1-3z" fill="#D3A86B"/>
<path transform="translate(63,1391)" d="m0 0h6v2l4 1 3 2v2l4 1 6 3 6-1 4 1v2l4 1h8v18l-1 14-3 12-2 1-8-6-6-7-8-13-11-18-9-12v-2z" fill="#D3A76A"/>
<path transform="translate(600,1415)" d="m0 0h19l12 6 3 4 1 3v16l-2 6-2 1h-10l-7-3-3-5-2-1v-3h-2l-4-6v-2h-2l-3-8v-6z" fill="#D3A76A"/>
<path transform="translate(610,1600)" d="m0 0h8l3 1-2 4-13 13-7 8-17 17-14 10h-2l1-7 5-8 4-2v-7l2-7 7-5 5-8 5-3 14-5z" fill="#D4A86C"/>
<path transform="translate(1305,989)" d="m0 0h22l1 1-1 7-4 8h-5v6l-2 6h-8l-1 3-4-2-3-5-6-4-7-8-1-4 5-4 9-3z" fill="#D3A76A"/>
<path transform="translate(1402,958)" d="m0 0 5 1 14 7 10 10 3 5v4l-2 1 3 2-1 7-1 5v3l-5-3v-3l-5-2-8-5v-2l-6-2-1-3h-3v-12z" fill="#D4A86B"/>
<path transform="translate(2,1333)" d="m0 0h7l10 5 4 5 7 15-1 4-4 1-10-2-14-6-1-1v-20z" fill="#FBD49D"/>
<path transform="translate(348,668)" d="m0 0 5 1 1 6-3 1-1 5 6 7v2h2l3 6 3 2 1 7-4-1-10-7-14-9-6-3-4-3 1-4 8-5z" fill="#D4A86B"/>
<path transform="translate(647,1561)" d="m0 0 5 1 6 4 7-2 3 4-1 4-15 9-15 10-5 4h-2v-10l4-9 5-3 4-5h2v-5z" fill="#D4A86B"/>
<path transform="translate(1591,83)" d="m0 0h9v36l-9 4h-5l2-9 3-7v-7l-1-8-3-7z" fill="#D3A76A"/>
<path transform="translate(418,790)" d="m0 0h3l6 7 5 2 2 8 1 2-2 8v10l-3-1-4-13-7-16z" fill="#D5AA6D"/>
<path transform="translate(561,1427)" d="m0 0h3l-1 4-3 5-2 4-20 2-1 2-10 5v-3l10-7 21-11z" fill="#D5A96D"/>
<path transform="translate(401,641)" d="m0 0 2 1v5l-2 2h-4l-1 4-4 3-4 1h-7l-1-4z" fill="#D5A96D"/>
<path transform="translate(494,1626)" d="m0 0 4 2 2 4 4 1 1 2v9l-2 2-5-8-5-9z" fill="#D6AA6E"/>
<path transform="translate(572,725)" d="m0 0 5 2 1 4-9 4h-3l-1-3 2-4z" fill="#D7AC70"/>
<path transform="translate(702,1547)" d="m0 0h2l6 10v3h-8v-6l-1-6z" fill="#D7AC6F"/>
<path transform="translate(1373,961)" d="m0 0h2v8l-2 2-6-2z" fill="#D3A86B"/>
<path transform="translate(537,1439)" d="m0 0 2 1-2 4-10 5v-3z" fill="#DAAF73"/>
<path transform="translate(374,709)" d="m0 0 3 1 1 7-4-2-3-4z" fill="#D8AC70"/>
<path transform="translate(1561,145)" d="m0 0 1 2-2-1z" fill="#FBD49D"/>
</svg>
